<?xml version="1.0" encoding="utf-8"?>
<!-- Generator: Adobe Illustrator 18.0.0, SVG Export Plug-In . SVG Version: 6.00 Build 0)  -->
<!DOCTYPE svg PUBLIC "-//W3C//DTD SVG 1.1//EN" "http://www.w3.org/Graphics/SVG/1.1/DTD/svg11.dtd">
<svg version="1.1" id="Layer_1" xmlns="http://www.w3.org/2000/svg" xmlns:xlink="http://www.w3.org/1999/xlink" x="0px" y="0px"
	 viewBox="0 0 3164.9 2010.9" enable-background="new 0 0 3164.9 2010.9" xml:space="preserve">
<g>
	<linearGradient id="SVGID_1_" gradientUnits="userSpaceOnUse" x1="1582.449" y1="2045.402" x2="1582.449" y2="1.631433e-004">
		<stop  offset="0.228" style="stop-color:#010202"/>
		<stop  offset="0.508" style="stop-color:#006633"/>
		<stop  offset="0.82" style="stop-color:#36A9E1"/>
		<stop  offset="1" style="stop-color:#FFFFFF"/>
	</linearGradient>
	<path fill="url(#SVGID_1_)" d="M3163.8,15.6c0-2.6,0-4.8,0-6.7c0-5.8,0-8.8,0-8.8s-886.4,0-1720.5,0c-3.1,0-6.2,0-9.3,0
		c-5.7,0.1-12.7,0.1-18.6,0c-3.1,0-6.2,0-9.3,0C679,0,2.5,0,2.5,0s0,5.4,0,15.6c0,2.6,0,5.4,0,8.5c-4.2,32.4-2.2,64.4,0,96.1
		c0,3.3,0,6.7,0,10.1c0,33.6,0,72.9,0,116.9c42.9-7,82.9-2,125.8-11c59-14,118-3,176,9.3c3-0.3,6-0.8,9-1.3c28-3,61-27,87-5
		c1.7,1.5,3.5,2.7,5.5,3.7c2,1,4.2,1.7,6.4,2.3c3.3,0.3,6.6,0.5,9.9,0.6s6.6,0.2,9.8,0.2c72.3,7.2,143.3-8.8,215.3-9.8
		c3.5-0.1,7-0.2,10.5-0.2c21.5,0.2,39.5-7.8,59.5-12.8c20-6,32,9,48,15c6,2,12,3,18.2,2.4c3.5,0,7-0.1,10.5-0.2
		c7.1-0.2,14.2-0.6,21.3-1.2c3.4-0.3,6.9-0.5,10.3-0.6c3.4-0.1,6.9-0.2,10.3-0.3c27.4,0.9,51.4-9.1,76.4-17.1c10-3,23-9,30,1
		c11,15,26,22,43.7,18.8c2.4-0.2,4.9-0.4,7.3-0.6c7.3-0.6,14.6-1.4,22-2.3c16-3,32,1,47.7,3.7c2.8,0.4,5.6,0.7,8.3,1.1
		c75,10.2,148-4.8,221-16.8c71,40,161,14,236-8c19-5,23,11,24,27c0,2,3,3,5,3c12-1,22-9,34-9c13.7,0.3,27.2,1.7,40.7,3.1
		c3.4,0.4,6.8,0.8,10.1,1.1c20.1,5.7,38.1-1.3,56.1-11.3c6-4,15,3,23,3c49,2,98-5,147.4,1.9c3.4-0.1,6.9-0.1,10.3-0.1
		c10.4-0.1,20.8,0,31.3,0.2c14,1,27,0,40.8-0.9c3.7-0.1,7.4-0.2,11.1-0.3c3.7-0.1,7.4-0.1,11.1-0.1s7.4,0,11.1,0.1
		c16.8,1.2,31.8-4.8,45.8-13.8c31-19,61,22,94.6,23.2c3.1,0.2,6.3,0.4,9.4,0.6c3.1,0,6.2,0,9.2,0c8.4,0,16.8,0,25.2,0
		c2.8,0,5.6,0,8.3,0c15.3,0.1,29.3-2.9,41.3-13.9c5-3,12-5,18-5c18,0,35,9,53,4c48-12,95-9,143.1-6.7c3.8,0,7.6,0,11.5,0.1
		s7.6,0.3,11.5,0.5c30,2,58,17,87.6,15.2c3.4-0.3,6.8-0.6,10.2-0.9c20.5-1.7,41-3.1,61.8-2.7c3.6-0.4,7.2-0.8,10.9-1.2
		c15.3-1.5,30.6-2.5,45.9-2.9c3.8-0.1,7.7-0.2,11.5-0.2c11.1-0.3,22.1,1.7,32.1-1.3c32-10,64-1,93.6,10.7c3.9,0.8,7.7,1.4,11.5,2.1
		c3.8,0.6,7.5,1.3,11.3,1.9c31.7-4.7,59.7-22.7,93.7-15.7c18,3,35,7,53.1,6.7c3.8,0.2,7.6,0.3,11.4,0.6c3.8,0.2,7.6,0.5,11.5,0.7
		c15.1,1.1,30.4,2.2,45.6,3.2c3.8,0.2,7.6,0.5,11.5,0.7c13.9,0.1,24.9-9.9,36.9-15.9c6-3,13-4,20-1c16,7,29,21,46.9,20.9
		c1.1,0,1.7,0,1.7,0c0-47.9,0-90.3,0-125.8c0-3.3,0-6.5,0-9.7C3165.3,78.9,3165.3,48,3163.8,15.6z"/>
	<path opacity="0.4" fill="#01615E" d="M2.3,247.2c0,0,0,5,0.2,7.6c0-2.5,0-5.1,0-7.6C2.4,247.2,2.3,247.2,2.3,247.2z"/>
	<linearGradient id="SVGID_2_" gradientUnits="userSpaceOnUse" x1="125.9543" y1="2045.402" x2="125.9543" y2="1.630782e-004">
		<stop  offset="0.228" style="stop-color:#010202"/>
		<stop  offset="0.508" style="stop-color:#006633"/>
		<stop  offset="0.82" style="stop-color:#36A9E1"/>
		<stop  offset="1" style="stop-color:#FFFFFF"/>
	</linearGradient>
	<path fill="url(#SVGID_2_)" d="M139.2,1731.5c-0.7-6-7.5-9.4-13.3-13.7c-3.6,2.3-7.3,4.4-10.9,6.5c-2,1-3,4-2,7
		c4.7,6.7,11.5,11.3,18.3,15.6C136.5,1742.8,140,1738,139.2,1731.5z"/>
	<path opacity="0.4" fill="#01615E" d="M139.2,1731.5c-0.7-6-7.5-9.4-13.3-13.7c-3.6,2.3-7.3,4.4-10.9,6.5c-2,1-3,4-2,7
		c4.7,6.7,11.5,11.3,18.3,15.6C136.5,1742.8,140,1738,139.2,1731.5z"/>
	<linearGradient id="SVGID_3_" gradientUnits="userSpaceOnUse" x1="2853.3818" y1="2045.402" x2="2853.3818" y2="1.632002e-004">
		<stop  offset="0.228" style="stop-color:#010202"/>
		<stop  offset="0.508" style="stop-color:#006633"/>
		<stop  offset="0.82" style="stop-color:#36A9E1"/>
		<stop  offset="1" style="stop-color:#FFFFFF"/>
	</linearGradient>
	<path fill="url(#SVGID_3_)" d="M2839.7,1684.8c-0.5,1.1-1.1,2.1-0.5,3.2c4.2,11.7,21.2,15.4,20.2,28.9c-0.3,1.7,0,3.2,0.5,4.7
		c0.5,1.4,1.3,2.8,2.1,4.1c1.1,1.9,2.7,3.4,4.5,4.7c1-3,1.5-6.3,1.2-10c-0.4-3.6-1-7-1.7-10.5c-2.5-12.8-6.1-25.3-10.3-37.7
		C2851.4,1677.1,2844.3,1679.9,2839.7,1684.8z"/>
	<path opacity="0.4" fill="#01615E" d="M2839.7,1684.8c-0.5,1.1-1.1,2.1-0.5,3.2c4.2,11.7,21.2,15.4,20.2,28.9
		c-0.3,1.7,0,3.2,0.5,4.7c0.5,1.4,1.3,2.8,2.1,4.1c1.1,1.9,2.7,3.4,4.5,4.7c1-3,1.5-6.3,1.2-10c-0.4-3.6-1-7-1.7-10.5
		c-2.5-12.8-6.1-25.3-10.3-37.7C2851.4,1677.1,2844.3,1679.9,2839.7,1684.8z"/>
	<linearGradient id="SVGID_4_" gradientUnits="userSpaceOnUse" x1="2867.0464" y1="2045.402" x2="2867.0464" y2="1.632008e-004">
		<stop  offset="0.228" style="stop-color:#010202"/>
		<stop  offset="0.508" style="stop-color:#006633"/>
		<stop  offset="0.82" style="stop-color:#36A9E1"/>
		<stop  offset="1" style="stop-color:#FFFFFF"/>
	</linearGradient>
	<path fill="url(#SVGID_4_)" d="M2859.4,1806.9c2.7,19.1-12.7,29.7-27.6,38.2c-1.1,0.5-1.6,2.1-1.1,3.7c4.2,6,11.6,8.7,16.7,13.3
		c1.3,1.1,2.5,2.4,3.4,3.8c4.1,9.3,11.5,16.4,18.9,23.6c0,0,0,0,0,0c1.9-22,33.9-28,33.9-44c0.8-20.4-24.2-33.4-44.2-47.7
		c0,1.2,0,2.4,0,3.6C2859.4,1803.2,2859.4,1805.1,2859.4,1806.9z"/>
	<path opacity="0.4" fill="#01615E" d="M2859.4,1806.9c2.7,19.1-12.7,29.7-27.6,38.2c-1.1,0.5-1.6,2.1-1.1,3.7
		c4.2,6,11.6,8.7,16.7,13.3c1.3,1.1,2.5,2.4,3.4,3.8c4.1,9.3,11.5,16.4,18.9,23.6c0,0,0,0,0,0c1.9-22,33.9-28,33.9-44
		c0.8-20.4-24.2-33.4-44.2-47.7c0,1.2,0,2.4,0,3.6C2859.4,1803.2,2859.4,1805.1,2859.4,1806.9z"/>
	<linearGradient id="SVGID_5_" gradientUnits="userSpaceOnUse" x1="2993.8958" y1="2045.402" x2="2993.8958" y2="1.632067e-004">
		<stop  offset="0.228" style="stop-color:#010202"/>
		<stop  offset="0.508" style="stop-color:#006633"/>
		<stop  offset="0.82" style="stop-color:#36A9E1"/>
		<stop  offset="1" style="stop-color:#FFFFFF"/>
	</linearGradient>
	<path fill="url(#SVGID_5_)" d="M3015.3,1989c0-1.5,0-3.1,0.1-4.6c1-11.7,18-14.9,18-23.4c0.5-13.3-19.6-20.7-30.1-30.6
		c-1.4-1-2.7-2.1-4-3.2c-1.3-1.2-2.5-2.4-3.6-3.8c-0.5-1.1-1.1-2.1-0.5-3.2c4.8-10.1,20.2-12.7,19.2-25.5c-0.2-1.9-0.5-3.7-0.9-5.6
		c-1.7-8.7-4.4-17.2-7.4-25.6c-1.1,2-2.6,3.8-4.2,5.5c-2,2.2-4.2,4.2-6.6,6.2c-20.6,14.3-38.6,36.3-40.6,61.3c-2,15,18,23,19.7,38.9
		c0.2,2.4,0.2,4.7,0.3,7c0,5.5,0,10.6,0,15.6c0,2.5,0,4.8,0.1,7.2c0.1,1.3,0.2,2.6,0.4,3.8h23.4
		C3005.4,2003.5,3014.8,1998.7,3015.3,1989z"/>
	<path opacity="0.4" fill="#01615E" d="M3015.3,1989c0-1.5,0-3.1,0.1-4.6c1-11.7,18-14.9,18-23.4c0.5-13.3-19.6-20.7-30.1-30.6
		c-1.4-1-2.7-2.1-4-3.2c-1.3-1.2-2.5-2.4-3.6-3.8c-0.5-1.1-1.1-2.1-0.5-3.2c4.8-10.1,20.2-12.7,19.2-25.5c-0.2-1.9-0.5-3.7-0.9-5.6
		c-1.7-8.7-4.4-17.2-7.4-25.6c-1.1,2-2.6,3.8-4.2,5.5c-2,2.2-4.2,4.2-6.6,6.2c-20.6,14.3-38.6,36.3-40.6,61.3c-2,15,18,23,19.7,38.9
		c0.2,2.4,0.2,4.7,0.3,7c0,5.5,0,10.6,0,15.6c0,2.5,0,4.8,0.1,7.2c0.1,1.3,0.2,2.6,0.4,3.8h23.4
		C3005.4,2003.5,3014.8,1998.7,3015.3,1989z"/>
	<linearGradient id="SVGID_6_" gradientUnits="userSpaceOnUse" x1="2860.2722" y1="2045.402" x2="2860.2722" y2="1.631998e-004">
		<stop  offset="0.228" style="stop-color:#010202"/>
		<stop  offset="0.508" style="stop-color:#006633"/>
		<stop  offset="0.82" style="stop-color:#36A9E1"/>
		<stop  offset="1" style="stop-color:#FFFFFF"/>
	</linearGradient>
	<path fill="url(#SVGID_6_)" d="M2854.5,1923.1c4.6-3.8,8.7-7.9,11.5-12.8C2861.6,1913.9,2857.6,1918.3,2854.5,1923.1z"/>
	<path opacity="0.4" fill="#01615E" d="M2854.5,1923.1c4.6-3.8,8.7-7.9,11.5-12.8C2861.6,1913.9,2857.6,1918.3,2854.5,1923.1z"/>
	<linearGradient id="SVGID_7_" gradientUnits="userSpaceOnUse" x1="321.0977" y1="2045.402" x2="321.0977" y2="1.630867e-004">
		<stop  offset="0.228" style="stop-color:#010202"/>
		<stop  offset="0.508" style="stop-color:#006633"/>
		<stop  offset="0.82" style="stop-color:#36A9E1"/>
		<stop  offset="1" style="stop-color:#FFFFFF"/>
	</linearGradient>
	<path fill="url(#SVGID_7_)" d="M331.4,1992.8c0-1.9,0.1-3.8,0.3-5.7c1.7-13.1,21.7-19.7,19.7-32c-2-20.6-20-38.7-40.6-50.5
		c-2.4-1.7-4.6-3.3-6.6-5.1c-2-1.6-3.6-3.3-4.8-5.4c-2-3.3,2-7.4,5-10.7c16-13.2,34-25.5,43-42.6c1.8-2.3,4-4.2,6.4-6
		c9.8-7.1,23.5-11.3,31.5-20.6c1-2.5,0-4.9-2-5.8c-28-13.2-57-29.7-52-59.3c0-2.8,0-5.6,0-8.5c0-14.1,0-28.3,0-42.6
		c0-2.3,0-4.6-0.1-6.9c-0.7-15.2-21-21-31.3-30.7c-6.2,5-13.9,9-14.7,17.7c-0.1,1.7-0.1,3.3-0.1,5c0,1.5,0,3-0.1,4.5
		c-2.1,10.1-13.2,12.7-19.6,19.6c-0.5,1.1-1.1,2.1-0.5,3.2c4.2,11.7,21.2,15.4,20.2,28.9c-0.3,1.7,0,3.2,0.5,4.7
		c0.5,1.4,1.3,2.8,2.1,4.1c4.8,8,18,9.6,17,18c-1.6,10.6-19.1,13.3-19.6,25.8c-0.1,1.5-0.1,3-0.1,4.4c0,9.2,0,18.3,0,27.4
		c0,1.8,0,3.6,0,5.4c2.7,19.1-12.7,29.7-27.6,38.2c-1.1,0.5-1.6,2.1-1.1,3.7c4.2,6,11.6,8.7,16.7,13.3c1.3,1.1,2.5,2.4,3.4,3.8
		c4.8,11,14.3,19,22.8,27.4c1.6,2.1,3.7,4.8,2.7,6.9c-0.6,1.3-1.5,2.5-2.5,3.5c-1,1.2-2.2,2.2-3.5,3.3
		c-10.9,7.6-20.5,19.2-21.5,32.5c-1.1,8,9.6,12.2,10.5,20.6c0.1,1.2,0.1,2.5,0.2,3.7c0,2.9,0,5.7,0,8.3c0,1.3,0,2.6,0.1,3.8
		c0.2,4,1.6,7.3,3.5,10.4h42.6c0-1.1,0-2.2,0-3.3C331.4,2001.5,331.4,1997.3,331.4,1992.8z"/>
	<path opacity="0.4" fill="#01615E" d="M331.4,1992.8c0-1.9,0.1-3.8,0.3-5.7c1.7-13.1,21.7-19.7,19.7-32c-2-20.6-20-38.7-40.6-50.5
		c-2.4-1.7-4.6-3.3-6.6-5.1c-2-1.6-3.6-3.3-4.8-5.4c-2-3.3,2-7.4,5-10.7c16-13.2,34-25.5,43-42.6c1.8-2.3,4-4.2,6.4-6
		c9.8-7.1,23.5-11.3,31.5-20.6c1-2.5,0-4.9-2-5.8c-28-13.2-57-29.7-52-59.3c0-2.8,0-5.6,0-8.5c0-14.1,0-28.3,0-42.6
		c0-2.3,0-4.6-0.1-6.9c-0.7-15.2-21-21-31.3-30.7c-6.2,5-13.9,9-14.7,17.7c-0.1,1.7-0.1,3.3-0.1,5c0,1.5,0,3-0.1,4.5
		c-2.1,10.1-13.2,12.7-19.6,19.6c-0.5,1.1-1.1,2.1-0.5,3.2c4.2,11.7,21.2,15.4,20.2,28.9c-0.3,1.7,0,3.2,0.5,4.7
		c0.5,1.4,1.3,2.8,2.1,4.1c4.8,8,18,9.6,17,18c-1.6,10.6-19.1,13.3-19.6,25.8c-0.1,1.5-0.1,3-0.1,4.4c0,9.2,0,18.3,0,27.4
		c0,1.8,0,3.6,0,5.4c2.7,19.1-12.7,29.7-27.6,38.2c-1.1,0.5-1.6,2.1-1.1,3.7c4.2,6,11.6,8.7,16.7,13.3c1.3,1.1,2.5,2.4,3.4,3.8
		c4.8,11,14.3,19,22.8,27.4c1.6,2.1,3.7,4.8,2.7,6.9c-0.6,1.3-1.5,2.5-2.5,3.5c-1,1.2-2.2,2.2-3.5,3.3
		c-10.9,7.6-20.5,19.2-21.5,32.5c-1.1,8,9.6,12.2,10.5,20.6c0.1,1.2,0.1,2.5,0.2,3.7c0,2.9,0,5.7,0,8.3c0,1.3,0,2.6,0.1,3.8
		c0.2,4,1.6,7.3,3.5,10.4h42.6c0-1.1,0-2.2,0-3.3C331.4,2001.5,331.4,1997.3,331.4,1992.8z"/>
	<linearGradient id="SVGID_8_" gradientUnits="userSpaceOnUse" x1="1583.1355" y1="2045.402" x2="1583.1355" y2="1.631433e-004">
		<stop  offset="0.228" style="stop-color:#010202"/>
		<stop  offset="0.508" style="stop-color:#006633"/>
		<stop  offset="0.82" style="stop-color:#36A9E1"/>
		<stop  offset="1" style="stop-color:#FFFFFF"/>
	</linearGradient>
	<path fill="url(#SVGID_8_)" d="M3115.3,225.2c-7-3-14-2-20,1c-12,6-23,16-36.9,15.9c-3.8-0.2-7.6-0.5-11.5-0.7
		c-15.3-1-30.5-2-45.6-3.2c-3.8-0.3-7.6-0.5-11.5-0.7c-3.8-0.2-7.6-0.4-11.4-0.6c-18.1,0.3-35.1-3.7-53.1-6.7c-34-7-62,11-93.7,15.7
		c-3.8-0.7-7.5-1.3-11.3-1.9c-3.8-0.6-7.6-1.3-11.5-2.1c-29.6-11.7-61.6-20.7-93.6-10.7c-10,3-21,1-32.1,1.3
		c-3.8,0-7.6,0.1-11.5,0.2c-15.3,0.4-30.6,1.3-45.9,2.9c-3.6,0.4-7.2,0.8-10.9,1.2c-20.8-0.3-41.4,1-61.8,2.7
		c-3.4,0.3-6.8,0.6-10.2,0.9c-29.6,1.8-57.6-13.2-87.6-15.2c-3.8-0.3-7.7-0.4-11.5-0.5s-7.6-0.1-11.5-0.1
		c-48.1-2.3-95.1-5.3-143.1,6.7c-18,5-35-4-53-4c-6,0-13,2-18,5c-12,11-26,14-41.3,13.9c-2.8,0-5.6,0-8.3,0c-8.4,0-16.7,0-25.2,0
		c-3.1,0-6.1,0-9.2,0c-3.1-0.2-6.2-0.4-9.4-0.6c-33.6-1.2-63.6-42.2-94.6-23.2c-14,9-29,15-45.8,13.8c-3.7-0.1-7.4-0.1-11.1-0.1
		s-7.4,0-11.1,0.1c-3.7,0.1-7.4,0.1-11.1,0.3c-13.8,0.9-26.8,1.9-40.8,0.9c-10.5-0.2-20.9-0.3-31.3-0.2c-3.5,0-6.9,0.1-10.3,0.1
		c-49.4-6.9-98.4,0.1-147.4-1.9c-8,0-17-7-23-3c-18,10-36,17-56.1,11.3c-3.4-0.4-6.8-0.7-10.1-1.1c-13.5-1.5-27.1-2.8-40.7-3.1
		c-12,0-22,8-34,9c-2,0-5-1-5-3c-1-16-5-32-24-27c-75,22-165,48-236,8c-73,12-146,27-221,16.8c-2.8-0.3-5.5-0.7-8.3-1.1
		c-15.7-2.7-31.7-6.7-47.7-3.7c-7.4,0.9-14.7,1.6-22,2.3c-2.4,0.2-4.9,0.4-7.3,0.6c-17.7,3.2-32.7-3.8-43.7-18.8c-7-10-20-4-30-1
		c-25,8-49,18-76.4,17.1c-3.5,0-6.9,0.1-10.3,0.3c-3.4,0.1-6.9,0.4-10.3,0.6c-7.1,0.6-14.2,1-21.3,1.2c-3.5,0.1-7.1,0.2-10.5,0.2
		c-6.2,0.6-12.2-0.4-18.2-2.4c-16-6-28-21-48-15c-20,5-38,13-59.5,12.8c-3.5,0-7,0.1-10.5,0.2c-72,1-143,17-215.3,9.8
		c-3.3,0-6.5,0-9.8-0.2s-6.6-0.3-9.9-0.6c-2.3-0.6-4.4-1.3-6.4-2.3c-2-1-3.9-2.2-5.5-3.7c-26-22-59,2-87,5c-3,0.5-6,1-9,1.3
		c-58-12.3-117-23.3-176-9.3c-42.9,9-82.9,4-125.8,11c0,2.5,0,5.1,0,7.6c0,2.2,0,4.4,0,6.6c0,495.2,0,1539.3,0,1747.4h78.3
		c4.7-1.8,8.9-3.6,10.2-7.6c10-31-33-51-54-72c-5-5-9-10-12-16.9c-1-3,0-7.1,3-9.1c13-11,33-20,34-39.3c0-2.9,0-5.8,0.1-8.7
		c1.9-22,33.9-28,33.9-44c1-25-37-39-56.8-57.7c-2.6-1.9-5.1-3.9-7.5-6.1s-4.7-4.5-6.7-7.2c-1-2-2-4-1-6c9-19,38-24,36.1-48.1
		c-0.4-3.6-1-7-1.7-10.5c-4.7-24.2-13.3-47.3-22.4-70.4c-1-3-1-7,0-10c1.2-2.3,2.7-4.4,4.7-6.5c17.3-19.5,58.3-27.5,55.3-53.5
		c-2-16-32-20-33.9-40.7c0-2.9-0.1-5.8-0.1-8.7c0-3.1,0-6.3,0-9.4c0-3.1,0-6.3,0-9.4c-0.1-4.8-2.1-8.8-3.1-12.8c-6-20-45-31-30-51
		c7.5-10.8,24.7-15.4,30.8-27.4c1.2-2.4,2-5.1,2.1-8.2c-1.9-24.5,25.1-30.5,38.1-45.5c1-2,2-4,1-6c-11-18-36-25-38.9-47.9
		c0-2.8,0-5.5,0-8.2c0-3.3,0-6.5,0-9.6c0-3.2,0-6.3-0.3-9.5c-2.1-17.8-15.5-29.6-25.5-43.7c-1.7-2.3-3.2-4.7-4.6-7.3
		c-1.6-1.9-3.6-5.9-1.6-7.9c3.9-6.6,9.7-11.8,16.2-16.4c2.6-1.9,5.3-3.8,8.3-5.8c30.5-14.8,41.5-43.8,60.5-69.8c7-9,23-15,36-11
		c22,6,9,36,10.8,55.2c0,2.7,0,5.3,0.2,7.9s0.5,5.3,1,7.9c0,6,1,12,3,18c0,3,1,6-0.6,9.3c-1,2.6-2.3,4.8-3.9,6.9
		c-8,10.2-22.9,15.4-30.5,25.8c-3,3,0,7,2,10c12,18,33,29,34,51.1c0.2,3.7,1,7,2.3,10.1c6.5,15.1,25.3,23.9,33.6,38.9c1,3-1,6-3,9
		c-12,12-31,19-32.7,38c-0.3,3.1-0.3,6.3-0.3,9.5c0,2.8,0,5.7-0.1,8.6c-3.9,19-24.9,24-36.9,37c-1,2-2,4-1,6
		c3.2,8.8,10.2,15.1,17.3,21.3c1.7-2.6,3.4-5.2,5.3-7.8c4.6-5.9,15-9.8,23.4-7.2c14.3,3.9,5.9,23.4,7,35.9c0,1.7,0,3.5,0.1,5.2
		s0.3,3.4,0.6,5.1c0,3.9,0.7,7.8,2,11.7c0,2,0.7,3.9-0.4,6.1c-0.6,1.7-1.5,3.1-2.5,4.5c-1,1.3-2.2,2.4-3.4,3.5
		c11,9.2,27.1,13.7,25.5,26.7c-1.5,9.9-10.3,16.1-19,22.7c0.2,1.2,0.4,2.4,0.5,3.6c0.1,2.4,0.7,4.6,1.5,6.6
		c4.3,9.9,16.5,15.6,21.9,25.3c0.7,2-0.7,3.9-2,5.9c-7.8,7.8-20.2,12.4-21.3,24.7c-0.2,2-0.2,4.1-0.2,6.2c0,1.9,0,3.7-0.1,5.6
		c-2,9.7-10.8,13.8-18.3,19.2c0.8,6.3,0.5,12.2-0.6,17.6c8,8.4,20,14,19,26.7c-0.3,2.1,0,4,0.6,5.7c0.6,1.7,1.6,3.4,2.6,5
		c5.9,9.8,22.1,11.7,20.8,22.1c-2,13-23.4,16.3-24,31.7c-0.1,1.8-0.1,3.6-0.1,5.4c0,11.3,0,22.5,0,33.7c0,2,0,4,0,6
		c2.9,2.8,5.7,5.5,8.5,8.3c3,4,7,9,5,13c-1.2,2.5-2.8,4.6-4.8,6.6c-2,2.2-4.2,4.2-6.6,6.2c-10.4,7.2-20.1,16.4-27.5,26.9
		c3.7,2.5,7.5,4.7,10.7,7.5c1.6,1.4,3,2.9,4.2,4.7c5.9,13.5,17.6,23.3,28,33.7c2,2.6,4.6,5.9,3.3,8.5c-0.8,1.6-1.8,3-3.1,4.3
		c-1.3,1.4-2.8,2.7-4.3,4c-13.4,9.3-25.1,23.6-26.4,39.9c-1.3,9.8,11.7,15,12.8,25.3c0.1,1.5,0.2,3.1,0.2,4.5c0,2.2,0,4.4,0,6.4
		c0.5,0.7,1,1.4,1.5,2.1h58.7c-0.8-13.3-19.6-22.7-29.4-32.5c-2.7-2.7-4.8-5.3-6.4-9c-0.5-1.6,0-3.7,1.6-4.8
		c6.9-5.8,17.5-10.6,18.1-20.9c0-1.5,0-3.1,0.1-4.6c1-11.7,18-14.9,18-23.4c0.5-13.3-19.6-20.7-30.1-30.6c-1.4-1-2.7-2.1-4-3.2
		c-1.3-1.2-2.5-2.4-3.6-3.8c-0.5-1.1-1.1-2.1-0.5-3.2c4.8-10.1,20.2-12.7,19.2-25.5c-0.2-1.9-0.5-3.7-0.9-5.6
		c-2.5-12.8-7.1-25.1-11.9-37.4c-0.5-1.6-0.5-3.7,0-5.3c0.6-1.2,1.4-2.4,2.5-3.4c9.2-10.4,31-14.6,29.4-28.4
		c-1.1-8.5-17-10.6-18-21.6c0-1.5,0-3.1,0-4.6c0-1.7,0-3.3,0-5c0-1.7,0-3.3,0-5c0-2.5-1.1-4.7-1.6-6.8
		c-3.2-10.6-23.9-16.5-15.9-27.1c4-5.7,13.1-8.2,16.3-14.5c0.6-1.3,1.1-2.7,1.1-4.3c-1-13,13.3-16.2,20.2-24.1
		c0.5-1.1,1.1-2.1,0.5-3.2c-5.8-9.6-19.1-13.3-20.6-25.4c0-1.5,0-2.9,0-4.3c0-1.7,0-3.4,0-5.1c0-1.7,0-3.3-0.2-5
		c-1.1-9.5-8.2-15.7-13.5-23.2c-0.9-1.2-1.7-2.5-2.5-3.8c-0.9-1-1.9-3.1-0.9-4.2c2.1-3.5,5.1-6.3,8.6-8.7c1.4-1,2.8-2,4.4-3.1
		c16.2-7.8,22-23.2,32.1-37c3.7-4.8,12.2-8,19.1-5.8c11.7,3.2,4.8,19.1,5.7,29.3c0,1.4,0,2.8,0.1,4.2c0.1,1.4,0.3,2.8,0.5,4.2
		c0,3.2,0.5,6.4,1.6,9.6c0,1.6,0.5,3.2-0.3,5c-0.5,1.4-1.2,2.6-2.1,3.7c-4.2,5.4-12.1,8.1-16.2,13.7c-1.6,1.6,0,3.7,1.1,5.3
		c6.4,9.6,17.5,15.4,18.1,27.1c0.1,2,0.6,3.7,1.2,5.3c1.9,4.5,5.9,7.9,9.8,11.5c5.8-7.6,23-11.2,30.1-21c1.5-2.1,3-4.1,4-6.3
		c1-2.2,1.5-4.6,0.9-7.2c-1.9-21,30.1-26.8,38.1-44.9c1-1.6,0-3.3-1-4.9c-12-10.7-33-14.8-36.9-30.5c-0.1-2.4-0.1-4.7-0.1-7.1
		c0-2.6,0-5.2-0.3-7.8c-1.7-15.6-20.7-21.4-32.7-31.3c-2-2.5-4-4.9-3-7.4c8.3-12.4,27.1-19.6,33.6-32c1.3-2.5,2.1-5.2,2.3-8.3
		c1-18.2,22-27.2,34-42c2-2.5,5-5.8,2-8.2c-7.6-8.6-22.5-12.8-30.5-21.2c-1.6-1.7-2.9-3.6-3.9-5.7c-1.6-2.7-0.6-5.2-0.6-7.7
		c2-4.9,3-9.9,3-14.8c0.5-2.2,0.8-4.3,1-6.5c0.2-2.2,0.2-4.3,0.2-6.5c1.8-15.8-11.2-40.5,10.8-45.5c13-3.3,29,1.6,36,9.1
		c19,21.4,30,45.3,60.5,57.5c3,1.7,5.7,3.2,8.3,4.8c6.6,3.8,12.3,8.1,16.2,13.5c2,1.6,0,4.9-1.6,6.5c-1.4,2.1-3,4-4.6,6
		c-10,11.6-23.4,21.3-25.5,36c-0.3,2.6-0.3,5.2-0.3,7.8c0,2.6,0,5.2,0,7.9c0,2.2,0,4.5,0,6.7c-2.9,18.9-27.9,24.7-38.9,39.5
		c-1,1.6,0,3.3,1,4.9c13,12.4,40,17.3,38.1,37.5c0.2,2.5,0.9,4.8,2.1,6.7c6.1,9.8,23.3,13.6,30.8,22.5c15,16.5-24,25.5-30,42
		c-1,3.3-3,6.6-3.1,10.5c0,2.6,0,5.1,0,7.7c0,2.6,0,5.2,0,7.8c0,2.4,0,4.8-0.1,7.2c-1.9,17-31.9,20.3-33.9,33.5
		c-3,21.4,38,28,55.3,44.1c1.9,1.7,3.5,3.4,4.7,5.3c1,2.5,1,5.8,0,8.2c-9.1,19-17.7,38.1-22.4,58c-0.7,2.8-1.3,5.7-1.7,8.7
		c-1.9,19.8,27.1,24,36.1,39.6c1,1.6,0,3.3-1,4.9c-2,2.2-4.3,4.1-6.7,5.9c-2.4,1.8-5,3.4-7.5,5c-19.8,15.4-57.8,26.9-56.8,47.5
		c0,13.2,32,18.1,33.9,36.2c0.1,2.4,0.1,4.8,0.1,7.2c1,15.9,21,23.3,34,32.4c3,1.6,4,4.9,3,7.5c-3,5.7-7,9.8-12,14
		c-12.3,10.2-32.3,20-44.6,31.6h148.6c-1.6-1.4-3.2-2.8-4.6-4.2c-3.3-3.3-5.9-6.5-7.8-11c-0.7-2,0-4.6,2-5.9
		c8.5-7.2,21.5-13,22.1-25.6c0-1.9,0-3.8,0.1-5.7c1.2-14.3,22-18.2,22-28.7c0.7-16.3-24.1-25.4-37-37.6c-1.7-1.3-3.3-2.5-4.9-4
		c-1.6-1.4-3.1-3-4.4-4.7c-0.7-1.3-1.3-2.6-0.7-3.9c5.9-12.4,24.7-15.6,23.5-31.3c-0.3-2.3-0.7-4.6-1.1-6.8
		c-3.1-15.8-8.7-30.8-14.6-45.8c-0.7-2-0.7-4.6,0-6.5c0.8-1.5,1.8-2.9,3-4.2c11.3-12.7,38-17.9,36-34.8c-1.3-10.4-20.8-13-22.1-26.5
		c0-1.9,0-3.8,0-5.7c0-2,0-4.1,0-6.1s0-4.1,0-6.1c0-3.1-1.3-5.7-2-8.3c-3.9-13-29.3-20.2-19.5-33.2c4.9-7.1,16.1-10,20.1-17.8
		c0.8-1.6,1.3-3.3,1.4-5.3c-1.3-15.9,16.3-19.9,24.8-29.6c0.7-1.3,1.3-2.6,0.7-3.9c-7.2-11.7-23.4-16.3-25.3-31.2c0-1.8,0-3.6,0-5.3
		c0-2.1,0-4.2,0-6.3c0-2.1,0-4.1-0.2-6.2c-1.3-11.6-10.1-19.3-16.6-28.4c-1.1-1.5-2.1-3.1-3-4.7c-1.1-1.2-2.4-3.8-1.1-5.1
		c2.6-4.3,6.3-7.7,10.6-10.7c1.7-1.3,3.4-2.4,5.4-3.8c19.8-9.6,27-28.5,39.4-45.4c4.6-5.9,15-9.8,23.4-7.2c14.3,3.9,5.9,23.4,7,35.9
		c0,1.7,0,3.5,0.1,5.2c0.1,1.7,0.3,3.4,0.6,5.1c0,3.9,0.7,7.8,2,11.7c0,2,0.7,3.9-0.4,6.1c-0.6,1.7-1.5,3.1-2.5,4.5
		c-5.2,6.7-14.9,10-19.9,16.8c-2,2,0,4.6,1.3,6.5c7.8,11.7,21.5,18.9,22.2,33.2c0.1,2.4,0.7,4.6,1.5,6.6
		c4.3,9.9,16.5,15.6,21.9,25.3c0.7,2-0.7,3.9-2,5.9c-7.8,7.8-20.2,12.4-21.3,24.7c-0.2,2-0.2,4.1-0.2,6.2c0,1.9,0,3.7-0.1,5.6
		c-2.5,12.4-16.2,15.6-24,24.1c-0.7,1.3-1.3,2.6-0.7,3.9c5.2,14.3,26,18.9,24.8,35.5c-0.3,2.1,0,4,0.6,5.7c0.6,1.7,1.6,3.4,2.6,5
		c5.9,9.8,22.1,11.7,20.8,22.1c-2,13-23.4,16.3-24,31.7c-0.1,1.8-0.1,3.6-0.1,5.4c0,11.3,0,22.5,0,33.7c0,2.2,0,4.5,0,6.7
		c3.3,23.5-15.6,36.5-33.9,46.9c-1.3,0.7-2,2.6-1.3,4.6c5.2,7.4,14.2,10.7,20.5,16.3c1.6,1.4,3,2.9,4.2,4.7
		c5.9,13.5,17.6,23.3,28,33.7c2,2.6,4.6,5.9,3.3,8.5c-0.8,1.6-1.8,3-3.1,4.3c-1.3,1.4-2.8,2.7-4.3,4c-13.4,9.3-25.1,23.6-26.4,39.9
		c-1.1,8.6,8.7,13.6,11.9,21.7h1364.2c3.4-2.6,6.4-5.5,6.7-10c0-1,0-2.1,0-3.1c0.7-8,12.2-10.1,12.2-15.9c0.4-9-13.4-14.1-20.5-20.9
		c-0.9-0.7-1.9-1.4-2.7-2.2c-0.9-0.8-1.7-1.6-2.4-2.6c-0.4-0.7-0.7-1.4-0.4-2.2c3.3-6.9,13.7-8.7,13.1-17.4
		c-0.2-1.3-0.4-2.5-0.6-3.8c-1.7-8.8-4.8-17.1-8.1-25.5c-0.4-1.1-0.4-2.5,0-3.6c0.4-0.8,1-1.6,1.7-2.3c6.3-7.1,21.1-10,20-19.4
		c-0.7-5.8-11.6-7.2-12.3-14.7c0-1.1,0-2.1,0-3.2c0-1.1,0-2.3,0-3.4c0-1.1,0-2.3,0-3.4c0-1.7-0.7-3.2-1.1-4.6
		c-2.2-7.2-16.3-11.2-10.9-18.4c2.7-3.9,8.9-5.6,11.1-9.9c0.4-0.9,0.7-1.8,0.8-3c-0.7-8.9,9.1-11,13.8-16.5c0.4-0.7,0.7-1.4,0.4-2.2
		c-4-6.5-13-9-14.1-17.3c0-1,0-2,0-3c0-1.2,0-2.3,0-3.5c0-1.1,0-2.3-0.1-3.4c-0.7-6.5-5.6-10.7-9.2-15.8c-0.6-0.8-1.2-1.7-1.7-2.6
		c-0.6-0.7-1.3-2.1-0.6-2.8c1.4-2.4,3.5-4.3,5.9-5.9c1-0.7,1.9-1.4,3-2.1c11-5.3,15-15.8,21.9-25.2c2.5-3.3,8.3-5.4,13-4
		c8,2.2,3.3,13,3.9,20c0,1,0,1.9,0.1,2.9c0.1,0.9,0.2,1.9,0.4,2.8c0,2.2,0.4,4.3,1.1,6.5c0,1.1,0.4,2.2-0.2,3.4
		c-0.3,0.9-0.8,1.7-1.4,2.5c-2.9,3.7-8.3,5.6-11,9.3c-1.1,1.1,0,2.5,0.7,3.6c4.3,6.5,11.9,10.5,12.3,18.5c0.1,1.4,0.4,2.5,0.8,3.6
		c2.4,5.5,9.1,8.6,12.2,14.1c0.4,1.1-0.4,2.2-1.1,3.3c-4.3,4.3-11.2,6.9-11.8,13.7c-0.1,1.1-0.1,2.3-0.1,3.4c0,1,0,2.1,0,3.1
		c-1.4,6.9-9,8.7-13.3,13.4c-0.4,0.7-0.7,1.4-0.4,2.2c2.9,8,14.5,10.5,13.8,19.7c-0.2,1.2,0,2.2,0.3,3.2s0.9,1.9,1.4,2.8
		c3.3,5.4,12.3,6.5,11.6,12.3c-1.1,7.2-13,9-13.3,17.6c0,1,0,2,0,3c0,6.3,0,12.5,0,18.7c0,1.2,0,2.5,0,3.7
		c1.8,13-8.7,20.3-18.8,26.1c-0.7,0.4-1.1,1.4-0.7,2.5c2.9,4.1,7.9,5.9,11.4,9.1c0.9,0.8,1.7,1.6,2.3,2.6
		c3.3,7.5,9.8,12.9,15.6,18.7c1.1,1.4,2.5,3.3,1.8,4.7c-0.4,0.9-1,1.7-1.7,2.4c-0.7,0.8-1.5,1.5-2.4,2.2c-6.4,4.4-12,10.9-14,18.3
		h309c1-7.3,11.7-9.4,11.7-14.9c0.3-8.7-12.9-13.6-19.7-20.1c-0.9-0.7-1.8-1.4-2.6-2.1c-0.8-0.8-1.6-1.6-2.3-2.5
		c-0.3-0.7-0.7-1.4-0.3-2.1c3.1-6.6,13.2-8.4,12.6-16.7c-0.2-1.2-0.4-2.5-0.6-3.7c-1.6-8.4-4.6-16.5-7.8-24.5c-0.3-1-0.3-2.4,0-3.5
		c0.4-0.8,0.9-1.5,1.6-2.3c6-6.8,20.3-9.6,19.3-18.6c-0.7-5.6-11.1-7-11.8-14.2c0-1,0-2,0-3c0-1.1,0-2.2,0-3.3s0-2.2,0-3.3
		c0-1.7-0.7-3.1-1.1-4.5c-2.1-7-15.7-10.8-10.4-17.7c2.6-3.8,8.6-5.4,10.7-9.5c0.4-0.8,0.7-1.8,0.7-2.8c-0.7-8.5,8.7-10.6,13.2-15.8
		c0.3-0.7,0.7-1.4,0.3-2.1c-3.8-6.3-12.5-8.7-13.5-16.7c0-1,0-1.9,0-2.8c0-1.1,0-2.2,0-3.3c0-1.1,0-2.2-0.1-3.3
		c-0.7-6.2-5.4-10.3-8.9-15.2c-0.6-0.8-1.1-1.7-1.6-2.5c-0.6-0.6-1.3-2-0.6-2.7c1.4-2.3,3.4-4.1,5.6-5.7c0.9-0.7,1.8-1.3,2.9-2
		c10.6-5.1,14.4-15.2,21-24.3c2.4-3.1,8-5.2,12.5-3.8c7.7,2.1,3.1,12.5,3.8,19.2c0,0.9,0,1.8,0.1,2.8c0.1,0.9,0.2,1.8,0.3,2.7
		c0,2.1,0.3,4.2,1,6.3c0,1,0.3,2.1-0.2,3.2c-0.3,0.9-0.8,1.7-1.4,2.4c-2.8,3.6-8,5.3-10.6,9c-1,1,0,2.4,0.7,3.5
		c4.2,6.3,11.5,10.1,11.8,17.8c0.1,1.3,0.4,2.4,0.8,3.5c2.3,5.3,8.8,8.3,11.7,13.5c0.3,1-0.3,2.1-1,3.1c-4.2,4.2-10.8,6.6-11.4,13.2
		c-0.1,1.1-0.1,2.2-0.1,3.3c0,1,0,2,0,3c-1.3,6.6-8.7,8.4-12.8,12.9c-0.3,0.7-0.7,1.4-0.3,2.1c2.8,7.7,13.9,10.1,13.2,19
		c-0.2,1.1,0,2.1,0.3,3.1c0.3,0.9,0.9,1.8,1.4,2.7c3.1,5.2,11.8,6.3,11.1,11.8c-1,7-12.5,8.7-12.8,16.9c0,1,0,1.9,0,2.9
		c0,6,0,12,0,18c0,1.2,0,2.4,0,3.6c1.7,12.5-8.4,19.5-18.1,25.1c-0.7,0.3-1,1.4-0.7,2.4c2.8,3.9,7.6,5.7,11,8.7
		c0.8,0.7,1.6,1.6,2.2,2.5c3.1,7.2,9.4,12.4,15,18c1,1.4,2.4,3.1,1.7,4.5c-0.4,0.9-1,1.6-1.7,2.3c-0.7,0.8-1.5,1.4-2.3,2.1
		c-1.9,1.3-3.8,2.8-5.4,4.5h500.5c-7.7-12.1-22.1-22.5-35-32.6c0.6,11.2,11.1,17.5,14.8,27.4c0.9,2.3,1.1,3.3,1.1,3.3
		c-23.4-1.7-46.7-1.7-70.1-5.4c3.2-5.8,12.2-4.8,13.8-9.6c5.3-16.4-17.5-27.1-28.7-38.2c-2.7-2.7-4.8-5.3-6.4-9
		c-0.5-1.6,0-3.7,1.6-4.8c6.9-5.8,17.5-10.6,18.1-20.9c0-1.5,0-3.1,0.1-4.6c1-11.7,18-14.9,18-23.4c0.5-13.3-19.6-20.7-30.1-30.6
		c-1.4-1-2.7-2.1-4-3.2c-1.3-1.2-2.5-2.4-3.6-3.8c-0.5-1.1-1.1-2.1-0.5-3.2c4.8-10.1,20.2-12.7,19.2-25.5c-0.2-1.9-0.5-3.7-0.9-5.6
		c-2.5-12.8-7.1-25.1-11.9-37.4c-0.5-1.6-0.5-3.7,0-5.3c0.6-1.2,1.4-2.4,2.5-3.4c9.2-10.4,31-14.6,29.4-28.4
		c-1.1-8.5-17-10.6-18-21.6c0-1.5,0-3.1,0-4.6c0-1.7,0-3.3,0-5c0-1.7,0-3.3,0-5c0-2.5-1.1-4.7-1.6-6.8
		c-3.2-10.6-23.9-16.4-15.9-27.1c4-5.7,13.1-8.2,16.3-14.5c0.6-1.3,1.1-2.7,1.1-4.3c-1-13,13.3-16.2,20.2-24.1
		c0.5-1.1,1.1-2.1,0.5-3.2c-5.8-9.6-19.1-13.3-20.6-25.4c0-1.5,0-2.9,0-4.3c0-1.7,0-3.4,0-5.1c0-1.7,0-3.3-0.2-5
		c-1.1-9.5-8.2-15.7-13.5-23.2c-0.9-1.2-1.7-2.5-2.5-3.8c-0.9-1-1.9-3.1-0.9-4.2c2.1-3.5,5.1-6.3,8.6-8.7c1.4-1,2.8-2,4.4-3.1
		c16.2-7.8,22-23.2,32.1-37c3.7-4.8,12.2-8,19.1-5.8c11.7,3.2,4.8,19.1,5.7,29.3c0,1.4,0,2.8,0.1,4.2c0.1,1.4,0.3,2.8,0.5,4.2
		c0,3.2,0.5,6.4,1.6,9.6c0,1.6,0.5,3.2-0.3,5c-0.5,1.4-1.2,2.6-2.1,3.7c-4.2,5.4-12.1,8.1-16.2,13.7c-1.6,1.6,0,3.7,1.1,5.3
		c6.4,9.6,17.5,15.4,18.1,27.1c0.1,2,0.6,3.7,1.2,5.3c0.3,0.7,0.6,1.3,1,1.9c19.2-12.6,44.3-21.9,42-42.5c-2-16-32-20-33.9-40.7
		c0-2.9-0.1-5.8-0.1-8.7c0-3.1,0-6.3,0-9.4c0-3.1,0-6.3,0-9.4c-0.1-4.8-2.1-8.8-3.1-12.8c-6-20-45-31-30-51
		c7.5-10.8,24.7-15.4,30.8-27.4c1.2-2.4,2-5.1,2.1-8.2c-1.9-24.5,25.1-30.5,38.1-45.5c1-2,2-4,1-6c-11-18-36-25-38.9-47.9
		c0-2.8,0-5.5,0-8.2c0-3.3,0-6.5,0-9.6c0-3.2,0-6.3-0.3-9.5c-2.1-17.8-15.5-29.6-25.5-43.7c-1.7-2.3-3.2-4.7-4.6-7.3
		c-1.6-1.9-3.6-5.9-1.6-7.9c3.9-6.6,9.7-11.8,16.2-16.4c2.6-1.9,5.3-3.8,8.3-5.8c30.5-14.8,41.5-43.8,60.5-69.8c7-9,23-15,36-11
		c22,6,9,36,10.8,55.2c0,2.7,0,5.3,0.2,7.9s0.5,5.3,1,7.9c0,6,1,12,3,18c0,3,1,6-0.6,9.3c-1,2.6-2.3,4.8-3.9,6.9
		c-8,10.2-22.9,15.4-30.5,25.8c-3,3,0,7,2,10c12,18,33,29,34,51.1c0.2,3.7,1,7,2.3,10.1c6.5,15.1,25.3,23.9,33.6,38.9c1,3-1,6-3,9
		c-12,12-31,19-32.7,38c-0.3,3.1-0.3,6.3-0.3,9.5c0,2.8,0,5.7-0.1,8.6c-3.9,19-24.9,24-36.9,37c-1,2-2,4-1,6c8,22,40,29,38.1,54.5
		c-0.5,3.2-0.1,6.1,0.9,8.8c1,2.7,2.5,5.2,4,7.7c9,15,34,18,32,34c-3,20-36,25-36.9,48.6c-0.1,2.8-0.1,5.6-0.1,8.4
		c0,17.3,0,34.6,0,51.7c0,3.4,0,6.8,0,10.3c5,36-24,56-52,72c-2,1-3,4-2,7c8,11.3,21.8,16.4,31.5,25c2.4,2.1,4.6,4.5,6.4,7.2
		c8.9,20.5,26.7,35.4,42.6,51.3c0-0.9,0.1-1.8,0.4-2.6c0.6-1.2,1.4-2.4,2.5-3.4c9.2-10.4,31-14.6,29.4-28.4
		c-1.1-8.5-17-10.6-18-21.6c0-1.5,0-3.1,0-4.6c0-1.7,0-3.3,0-5s0-3.3,0-5c0-2.5-1.1-4.7-1.6-6.8c-3.2-10.6-23.9-16.4-15.9-27.1
		c4-5.7,13.1-8.2,16.3-14.5c0.6-1.3,1.1-2.7,1.1-4.3c-1-13,13.3-16.2,20.2-24.1c0.5-1.1,1.1-2.1,0.5-3.2
		c-5.8-9.6-19.1-13.3-20.6-25.4c0-1.5,0-2.9,0-4.3c0-1.7,0-3.4,0-5.1c0-1.7,0-3.3-0.2-5c-1.1-9.5-8.2-15.7-13.5-23.2
		c-0.9-1.2-1.7-2.5-2.5-3.8c-0.9-1-1.9-3.1-0.9-4.2c2.1-3.5,5.1-6.3,8.6-8.7c1.4-1,2.8-2,4.4-3.1c16.2-7.8,22-23.2,32.1-37
		c3.7-4.8,12.2-8,19.1-5.8c11.7,3.2,4.8,19.1,5.7,29.3c0,1.4,0,2.8,0.1,4.2c0.1,1.4,0.3,2.8,0.5,4.2c0,3.2,0.5,6.4,1.6,9.6
		c0,1.6,0.5,3.2-0.3,5c-0.5,1.4-1.2,2.6-2.1,3.7c-4.2,5.4-12.1,8.1-16.2,13.7c-1.6,1.6,0,3.7,1.1,5.3c6.4,9.6,17.5,15.4,18.1,27.1
		c0.1,2,0.6,3.7,1.2,5.3c3.5,8,13.4,12.7,17.8,20.6c0.5,1.6-0.5,3.2-1.6,4.8c-6.4,6.4-16.4,10.1-17.4,20.1c-0.1,1.7-0.1,3.3-0.1,5
		c0,1.5,0,3-0.1,4.5c-2.1,10.1-13.2,12.7-19.6,19.6c-0.5,1.1-1.1,2.1-0.5,3.2c4.2,11.7,21.2,15.4,20.2,28.9c-0.3,1.7,0,3.2,0.5,4.7
		c0.5,1.4,1.3,2.8,2.1,4.1c4.8,8,18,9.6,17,18c-1.6,10.6-19.1,13.3-19.6,25.8c-0.1,1.5-0.1,3-0.1,4.4c0,9.2,0,18.3,0,27.4
		c0,1.8,0,3.6,0,5.4c2.7,19.1-12.7,29.7-27.6,38.2c-1.1,0.5-1.6,2.1-1.1,3.7c4.2,6,11.6,8.7,16.7,13.3c1.3,1.1,2.5,2.4,3.4,3.8
		c4.8,11,14.3,19,22.8,27.4c1.6,2.1,3.7,4.8,2.7,6.9c-0.6,1.3-1.5,2.5-2.5,3.5c-1,1.2-2.2,2.2-3.5,3.3c-10.8,7.5-20.2,19-21.5,32
		h103.4c0-210.3,0-1274.1,0-1762.8c0,0-0.6,0-1.7,0C3144.3,246.2,3131.3,232.2,3115.3,225.2z"/>
	<path opacity="0.4" fill="#01615E" d="M3115.3,225.2c-7-3-14-2-20,1c-12,6-23,16-36.9,15.9c-3.8-0.2-7.6-0.5-11.5-0.7
		c-15.3-1-30.5-2-45.6-3.2c-3.8-0.3-7.6-0.5-11.5-0.7c-3.8-0.2-7.6-0.4-11.4-0.6c-18.1,0.3-35.1-3.7-53.1-6.7c-34-7-62,11-93.7,15.7
		c-3.8-0.7-7.5-1.3-11.3-1.9c-3.8-0.6-7.6-1.3-11.5-2.1c-29.6-11.7-61.6-20.7-93.6-10.7c-10,3-21,1-32.1,1.3
		c-3.8,0-7.6,0.1-11.5,0.2c-15.3,0.4-30.6,1.3-45.9,2.9c-3.6,0.4-7.2,0.8-10.9,1.2c-20.8-0.3-41.4,1-61.8,2.7
		c-3.4,0.3-6.8,0.6-10.2,0.9c-29.6,1.8-57.6-13.2-87.6-15.2c-3.8-0.3-7.7-0.4-11.5-0.5s-7.6-0.1-11.5-0.1
		c-48.1-2.3-95.1-5.3-143.1,6.7c-18,5-35-4-53-4c-6,0-13,2-18,5c-12,11-26,14-41.3,13.9c-2.8,0-5.6,0-8.3,0c-8.4,0-16.7,0-25.2,0
		c-3.1,0-6.1,0-9.2,0c-3.1-0.2-6.2-0.4-9.4-0.6c-33.6-1.2-63.6-42.2-94.6-23.2c-14,9-29,15-45.8,13.8c-3.7-0.1-7.4-0.1-11.1-0.1
		s-7.4,0-11.1,0.1c-3.7,0.1-7.4,0.1-11.1,0.3c-13.8,0.9-26.8,1.9-40.8,0.9c-10.5-0.2-20.9-0.3-31.3-0.2c-3.5,0-6.9,0.1-10.3,0.1
		c-49.4-6.9-98.4,0.1-147.4-1.9c-8,0-17-7-23-3c-18,10-36,17-56.1,11.3c-3.4-0.4-6.8-0.7-10.1-1.1c-13.5-1.5-27.1-2.8-40.7-3.1
		c-12,0-22,8-34,9c-2,0-5-1-5-3c-1-16-5-32-24-27c-75,22-165,48-236,8c-73,12-146,27-221,16.8c-2.8-0.3-5.5-0.7-8.3-1.1
		c-15.7-2.7-31.7-6.7-47.7-3.7c-7.4,0.9-14.7,1.6-22,2.3c-2.4,0.2-4.9,0.4-7.3,0.6c-17.7,3.2-32.7-3.8-43.7-18.8c-7-10-20-4-30-1
		c-25,8-49,18-76.4,17.1c-3.5,0-6.9,0.1-10.3,0.3c-3.4,0.1-6.9,0.4-10.3,0.6c-7.1,0.6-14.2,1-21.3,1.2c-3.5,0.1-7.1,0.2-10.5,0.2
		c-6.2,0.6-12.2-0.4-18.2-2.4c-16-6-28-21-48-15c-20,5-38,13-59.5,12.8c-3.5,0-7,0.1-10.5,0.2c-72,1-143,17-215.3,9.8
		c-3.3,0-6.5,0-9.8-0.2s-6.6-0.3-9.9-0.6c-2.3-0.6-4.4-1.3-6.4-2.3c-2-1-3.9-2.2-5.5-3.7c-26-22-59,2-87,5c-3,0.5-6,1-9,1.3
		c-58-12.3-117-23.3-176-9.3c-42.9,9-82.9,4-125.8,11c0,2.5,0,5.1,0,7.6c0,2.2,0,4.4,0,6.6c0,495.2,0,1539.3,0,1747.4h78.3
		c4.7-1.8,8.9-3.6,10.2-7.6c10-31-33-51-54-72c-5-5-9-10-12-16.9c-1-3,0-7.1,3-9.1c13-11,33-20,34-39.3c0-2.9,0-5.8,0.1-8.7
		c1.9-22,33.9-28,33.9-44c1-25-37-39-56.8-57.7c-2.6-1.9-5.1-3.9-7.5-6.1s-4.7-4.5-6.7-7.2c-1-2-2-4-1-6c9-19,38-24,36.1-48.1
		c-0.4-3.6-1-7-1.7-10.5c-4.7-24.2-13.3-47.3-22.4-70.4c-1-3-1-7,0-10c1.2-2.3,2.7-4.4,4.7-6.5c17.3-19.5,58.3-27.5,55.3-53.5
		c-2-16-32-20-33.9-40.7c0-2.9-0.1-5.8-0.1-8.7c0-3.1,0-6.3,0-9.4c0-3.1,0-6.3,0-9.4c-0.1-4.8-2.1-8.8-3.1-12.8c-6-20-45-31-30-51
		c7.5-10.8,24.7-15.4,30.8-27.4c1.2-2.4,2-5.1,2.1-8.2c-1.9-24.5,25.1-30.5,38.1-45.5c1-2,2-4,1-6c-11-18-36-25-38.9-47.9
		c0-2.8,0-5.5,0-8.2c0-3.3,0-6.5,0-9.6c0-3.2,0-6.3-0.3-9.5c-2.1-17.8-15.5-29.6-25.5-43.7c-1.7-2.3-3.2-4.7-4.6-7.3
		c-1.6-1.9-3.6-5.9-1.6-7.9c3.9-6.6,9.7-11.8,16.2-16.4c2.6-1.9,5.3-3.8,8.3-5.8c30.5-14.8,41.5-43.8,60.5-69.8c7-9,23-15,36-11
		c22,6,9,36,10.8,55.2c0,2.7,0,5.3,0.2,7.9s0.5,5.3,1,7.9c0,6,1,12,3,18c0,3,1,6-0.6,9.3c-1,2.6-2.3,4.8-3.9,6.9
		c-8,10.2-22.9,15.4-30.5,25.8c-3,3,0,7,2,10c12,18,33,29,34,51.1c0.2,3.7,1,7,2.3,10.1c6.5,15.1,25.3,23.9,33.6,38.9c1,3-1,6-3,9
		c-12,12-31,19-32.7,38c-0.3,3.1-0.3,6.3-0.3,9.5c0,2.8,0,5.7-0.1,8.6c-3.9,19-24.9,24-36.9,37c-1,2-2,4-1,6
		c3.2,8.8,10.2,15.1,17.3,21.3c1.7-2.6,3.4-5.2,5.3-7.8c4.6-5.9,15-9.8,23.4-7.2c14.3,3.9,5.9,23.4,7,35.9c0,1.7,0,3.5,0.1,5.2
		s0.3,3.4,0.6,5.1c0,3.9,0.7,7.8,2,11.7c0,2,0.7,3.9-0.4,6.1c-0.6,1.7-1.5,3.1-2.5,4.5c-1,1.3-2.2,2.4-3.4,3.5
		c11,9.2,27.1,13.7,25.5,26.7c-1.5,9.9-10.3,16.1-19,22.7c0.2,1.2,0.4,2.4,0.5,3.6c0.1,2.4,0.7,4.6,1.5,6.6
		c4.3,9.9,16.5,15.6,21.9,25.3c0.7,2-0.7,3.9-2,5.9c-7.8,7.8-20.2,12.4-21.3,24.7c-0.2,2-0.2,4.1-0.2,6.2c0,1.9,0,3.7-0.1,5.6
		c-2,9.7-10.8,13.8-18.3,19.2c0.8,6.3,0.5,12.2-0.6,17.6c8,8.4,20,14,19,26.7c-0.3,2.1,0,4,0.6,5.7c0.6,1.7,1.6,3.4,2.6,5
		c5.9,9.8,22.1,11.7,20.8,22.1c-2,13-23.4,16.3-24,31.7c-0.1,1.8-0.1,3.6-0.1,5.4c0,11.3,0,22.5,0,33.7c0,2,0,4,0,6
		c2.9,2.8,5.7,5.5,8.5,8.3c3,4,7,9,5,13c-1.2,2.5-2.8,4.6-4.8,6.6c-2,2.2-4.2,4.2-6.6,6.2c-10.4,7.2-20.1,16.4-27.5,26.9
		c3.7,2.5,7.5,4.7,10.7,7.5c1.6,1.4,3,2.9,4.2,4.7c5.9,13.5,17.6,23.3,28,33.7c2,2.6,4.6,5.9,3.3,8.5c-0.8,1.6-1.8,3-3.1,4.3
		c-1.3,1.4-2.8,2.7-4.3,4c-13.4,9.3-25.1,23.6-26.4,39.9c-1.3,9.8,11.7,15,12.8,25.3c0.1,1.5,0.2,3.1,0.2,4.5c0,2.2,0,4.4,0,6.4
		c0.5,0.7,1,1.4,1.5,2.1h58.7c-0.8-13.3-19.6-22.7-29.4-32.5c-2.7-2.7-4.8-5.3-6.4-9c-0.5-1.6,0-3.7,1.6-4.8
		c6.9-5.8,17.5-10.6,18.1-20.9c0-1.5,0-3.1,0.1-4.6c1-11.7,18-14.9,18-23.4c0.5-13.3-19.6-20.7-30.1-30.6c-1.4-1-2.7-2.1-4-3.2
		c-1.3-1.2-2.5-2.4-3.6-3.8c-0.5-1.1-1.1-2.1-0.5-3.2c4.8-10.1,20.2-12.7,19.2-25.5c-0.2-1.9-0.5-3.7-0.9-5.6
		c-2.5-12.8-7.1-25.1-11.9-37.4c-0.5-1.6-0.5-3.7,0-5.3c0.6-1.2,1.4-2.4,2.5-3.4c9.2-10.4,31-14.6,29.4-28.4
		c-1.1-8.5-17-10.6-18-21.6c0-1.5,0-3.1,0-4.6c0-1.7,0-3.3,0-5c0-1.7,0-3.3,0-5c0-2.5-1.1-4.7-1.6-6.8
		c-3.2-10.6-23.9-16.5-15.9-27.1c4-5.7,13.1-8.2,16.3-14.5c0.6-1.3,1.1-2.7,1.1-4.3c-1-13,13.3-16.2,20.2-24.1
		c0.5-1.1,1.1-2.1,0.5-3.2c-5.8-9.6-19.1-13.3-20.6-25.4c0-1.5,0-2.9,0-4.3c0-1.7,0-3.4,0-5.1c0-1.7,0-3.3-0.2-5
		c-1.1-9.5-8.2-15.7-13.5-23.2c-0.9-1.2-1.7-2.5-2.5-3.8c-0.9-1-1.9-3.1-0.9-4.2c2.1-3.5,5.1-6.3,8.6-8.7c1.4-1,2.8-2,4.4-3.1
		c16.2-7.8,22-23.2,32.1-37c3.7-4.8,12.2-8,19.1-5.8c11.7,3.2,4.8,19.1,5.7,29.3c0,1.4,0,2.8,0.1,4.2c0.1,1.4,0.3,2.8,0.5,4.2
		c0,3.2,0.5,6.4,1.6,9.6c0,1.6,0.5,3.2-0.3,5c-0.5,1.4-1.2,2.6-2.1,3.7c-4.2,5.4-12.1,8.1-16.2,13.7c-1.6,1.6,0,3.7,1.1,5.3
		c6.4,9.6,17.5,15.4,18.1,27.1c0.1,2,0.6,3.7,1.2,5.3c1.9,4.5,5.9,7.9,9.8,11.5c5.8-7.6,23-11.2,30.1-21c1.5-2.1,3-4.1,4-6.3
		c1-2.2,1.5-4.6,0.9-7.2c-1.9-21,30.1-26.8,38.1-44.9c1-1.6,0-3.3-1-4.9c-12-10.7-33-14.8-36.9-30.5c-0.1-2.4-0.1-4.7-0.1-7.1
		c0-2.6,0-5.2-0.3-7.8c-1.7-15.6-20.7-21.4-32.7-31.3c-2-2.5-4-4.9-3-7.4c8.3-12.4,27.1-19.6,33.6-32c1.3-2.5,2.1-5.2,2.3-8.3
		c1-18.2,22-27.2,34-42c2-2.5,5-5.8,2-8.2c-7.6-8.6-22.5-12.8-30.5-21.2c-1.6-1.7-2.9-3.6-3.9-5.7c-1.6-2.7-0.6-5.2-0.6-7.7
		c2-4.9,3-9.9,3-14.8c0.5-2.2,0.8-4.3,1-6.5c0.2-2.2,0.2-4.3,0.2-6.5c1.8-15.8-11.2-40.5,10.8-45.5c13-3.3,29,1.6,36,9.1
		c19,21.4,30,45.3,60.5,57.5c3,1.7,5.7,3.2,8.3,4.8c6.6,3.8,12.3,8.1,16.2,13.5c2,1.6,0,4.9-1.6,6.5c-1.4,2.1-3,4-4.6,6
		c-10,11.6-23.4,21.3-25.5,36c-0.3,2.6-0.3,5.2-0.3,7.8c0,2.6,0,5.2,0,7.9c0,2.2,0,4.5,0,6.7c-2.9,18.9-27.9,24.7-38.9,39.5
		c-1,1.6,0,3.3,1,4.9c13,12.4,40,17.3,38.1,37.5c0.2,2.5,0.9,4.8,2.1,6.7c6.1,9.8,23.3,13.6,30.8,22.5c15,16.5-24,25.5-30,42
		c-1,3.3-3,6.6-3.1,10.5c0,2.6,0,5.1,0,7.7c0,2.6,0,5.2,0,7.8c0,2.4,0,4.8-0.1,7.2c-1.9,17-31.9,20.3-33.9,33.5
		c-3,21.4,38,28,55.3,44.1c1.9,1.7,3.5,3.4,4.7,5.3c1,2.5,1,5.8,0,8.2c-9.1,19-17.7,38.1-22.4,58c-0.7,2.8-1.3,5.7-1.7,8.7
		c-1.9,19.8,27.1,24,36.1,39.6c1,1.6,0,3.3-1,4.9c-2,2.2-4.3,4.1-6.7,5.9c-2.4,1.8-5,3.4-7.5,5c-19.8,15.4-57.8,26.9-56.8,47.5
		c0,13.2,32,18.1,33.9,36.2c0.1,2.4,0.1,4.8,0.1,7.2c1,15.9,21,23.3,34,32.4c3,1.6,4,4.9,3,7.5c-3,5.7-7,9.8-12,14
		c-12.3,10.2-32.3,20-44.6,31.6h148.6c-1.6-1.4-3.2-2.8-4.6-4.2c-3.3-3.3-5.9-6.5-7.8-11c-0.7-2,0-4.6,2-5.9
		c8.5-7.2,21.5-13,22.1-25.6c0-1.9,0-3.8,0.1-5.7c1.2-14.3,22-18.2,22-28.7c0.7-16.3-24.1-25.4-37-37.6c-1.7-1.3-3.3-2.5-4.9-4
		c-1.6-1.4-3.1-3-4.4-4.7c-0.7-1.3-1.3-2.6-0.7-3.9c5.9-12.4,24.7-15.6,23.5-31.3c-0.3-2.3-0.7-4.6-1.1-6.8
		c-3.1-15.8-8.7-30.8-14.6-45.8c-0.7-2-0.7-4.6,0-6.5c0.8-1.5,1.8-2.9,3-4.2c11.3-12.7,38-17.9,36-34.8c-1.3-10.4-20.8-13-22.1-26.5
		c0-1.9,0-3.8,0-5.7c0-2,0-4.1,0-6.1s0-4.1,0-6.1c0-3.1-1.3-5.7-2-8.3c-3.9-13-29.3-20.2-19.5-33.2c4.9-7.1,16.1-10,20.1-17.8
		c0.8-1.6,1.3-3.3,1.4-5.3c-1.3-15.9,16.3-19.9,24.8-29.6c0.7-1.3,1.3-2.6,0.7-3.9c-7.2-11.7-23.4-16.3-25.3-31.2c0-1.8,0-3.6,0-5.3
		c0-2.1,0-4.2,0-6.3c0-2.1,0-4.1-0.2-6.2c-1.3-11.6-10.1-19.3-16.6-28.4c-1.1-1.5-2.1-3.1-3-4.7c-1.1-1.2-2.4-3.8-1.1-5.1
		c2.6-4.3,6.3-7.7,10.6-10.7c1.7-1.3,3.4-2.4,5.4-3.8c19.8-9.6,27-28.5,39.4-45.4c4.6-5.9,15-9.8,23.4-7.2c14.3,3.9,5.9,23.4,7,35.9
		c0,1.7,0,3.5,0.1,5.2c0.1,1.7,0.3,3.4,0.6,5.1c0,3.9,0.7,7.8,2,11.7c0,2,0.7,3.9-0.4,6.1c-0.6,1.7-1.5,3.1-2.5,4.5
		c-5.2,6.7-14.9,10-19.9,16.8c-2,2,0,4.6,1.3,6.5c7.8,11.7,21.5,18.9,22.2,33.2c0.1,2.4,0.7,4.6,1.5,6.6
		c4.3,9.9,16.5,15.6,21.9,25.3c0.7,2-0.7,3.9-2,5.9c-7.8,7.8-20.2,12.4-21.3,24.7c-0.2,2-0.2,4.1-0.2,6.2c0,1.9,0,3.7-0.1,5.6
		c-2.5,12.4-16.2,15.6-24,24.1c-0.7,1.3-1.3,2.6-0.7,3.9c5.2,14.3,26,18.9,24.8,35.5c-0.3,2.1,0,4,0.6,5.7c0.6,1.7,1.6,3.4,2.6,5
		c5.9,9.8,22.1,11.7,20.8,22.1c-2,13-23.4,16.3-24,31.7c-0.1,1.8-0.1,3.6-0.1,5.4c0,11.3,0,22.5,0,33.7c0,2.2,0,4.5,0,6.7
		c3.3,23.5-15.6,36.5-33.9,46.9c-1.3,0.7-2,2.6-1.3,4.6c5.2,7.4,14.2,10.7,20.5,16.3c1.6,1.4,3,2.9,4.2,4.7
		c5.9,13.5,17.6,23.3,28,33.7c2,2.6,4.6,5.9,3.3,8.5c-0.8,1.6-1.8,3-3.1,4.3c-1.3,1.4-2.8,2.7-4.3,4c-13.4,9.3-25.1,23.6-26.4,39.9
		c-1.1,8.6,8.7,13.6,11.9,21.7h1364.2c3.4-2.6,6.4-5.5,6.7-10c0-1,0-2.1,0-3.1c0.7-8,12.2-10.1,12.2-15.9c0.4-9-13.4-14.1-20.5-20.9
		c-0.9-0.7-1.9-1.4-2.7-2.2c-0.9-0.8-1.7-1.6-2.4-2.6c-0.4-0.7-0.7-1.4-0.4-2.2c3.3-6.9,13.7-8.7,13.1-17.4
		c-0.2-1.3-0.4-2.5-0.6-3.8c-1.7-8.8-4.8-17.1-8.1-25.5c-0.4-1.1-0.4-2.5,0-3.6c0.4-0.8,1-1.6,1.7-2.3c6.3-7.1,21.1-10,20-19.4
		c-0.7-5.8-11.6-7.2-12.3-14.7c0-1.1,0-2.1,0-3.2c0-1.1,0-2.3,0-3.4c0-1.1,0-2.3,0-3.4c0-1.7-0.7-3.2-1.1-4.6
		c-2.2-7.2-16.3-11.2-10.9-18.4c2.7-3.9,8.9-5.6,11.1-9.9c0.4-0.9,0.7-1.8,0.8-3c-0.7-8.9,9.1-11,13.8-16.5c0.4-0.7,0.7-1.4,0.4-2.2
		c-4-6.5-13-9-14.1-17.3c0-1,0-2,0-3c0-1.2,0-2.3,0-3.5c0-1.1,0-2.3-0.1-3.4c-0.7-6.5-5.6-10.7-9.2-15.8c-0.6-0.8-1.2-1.7-1.7-2.6
		c-0.6-0.7-1.3-2.1-0.6-2.8c1.4-2.4,3.5-4.3,5.9-5.9c1-0.7,1.9-1.4,3-2.1c11-5.3,15-15.8,21.9-25.2c2.5-3.3,8.3-5.4,13-4
		c8,2.2,3.3,13,3.9,20c0,1,0,1.9,0.1,2.9c0.1,0.9,0.2,1.9,0.4,2.8c0,2.2,0.4,4.3,1.1,6.5c0,1.1,0.4,2.2-0.2,3.4
		c-0.3,0.9-0.8,1.7-1.4,2.5c-2.9,3.7-8.3,5.6-11,9.3c-1.1,1.1,0,2.5,0.7,3.6c4.3,6.5,11.9,10.5,12.3,18.5c0.1,1.4,0.4,2.5,0.8,3.6
		c2.4,5.5,9.1,8.6,12.2,14.1c0.4,1.1-0.4,2.2-1.1,3.3c-4.3,4.3-11.2,6.9-11.8,13.7c-0.1,1.1-0.1,2.3-0.1,3.4c0,1,0,2.1,0,3.1
		c-1.4,6.9-9,8.7-13.3,13.4c-0.4,0.7-0.7,1.4-0.4,2.2c2.9,8,14.5,10.5,13.8,19.7c-0.2,1.2,0,2.2,0.3,3.2s0.9,1.9,1.4,2.8
		c3.3,5.4,12.3,6.5,11.6,12.3c-1.1,7.2-13,9-13.3,17.6c0,1,0,2,0,3c0,6.3,0,12.5,0,18.7c0,1.2,0,2.5,0,3.7
		c1.8,13-8.7,20.3-18.8,26.1c-0.7,0.4-1.1,1.4-0.7,2.5c2.9,4.1,7.9,5.9,11.4,9.1c0.9,0.8,1.7,1.6,2.3,2.6
		c3.3,7.5,9.8,12.9,15.6,18.7c1.1,1.4,2.5,3.3,1.8,4.7c-0.4,0.9-1,1.7-1.7,2.4c-0.7,0.8-1.5,1.5-2.4,2.2c-6.4,4.4-12,10.9-14,18.3
		h309c1-7.3,11.7-9.4,11.7-14.9c0.3-8.7-12.9-13.6-19.7-20.1c-0.9-0.7-1.8-1.4-2.6-2.1c-0.8-0.8-1.6-1.6-2.3-2.5
		c-0.3-0.7-0.7-1.4-0.3-2.1c3.1-6.6,13.2-8.4,12.6-16.7c-0.2-1.2-0.4-2.5-0.6-3.7c-1.6-8.4-4.6-16.5-7.8-24.5c-0.3-1-0.3-2.4,0-3.5
		c0.4-0.8,0.9-1.5,1.6-2.3c6-6.8,20.3-9.6,19.3-18.6c-0.7-5.6-11.1-7-11.8-14.2c0-1,0-2,0-3c0-1.1,0-2.2,0-3.3s0-2.2,0-3.3
		c0-1.7-0.7-3.1-1.1-4.5c-2.1-7-15.7-10.8-10.4-17.7c2.6-3.8,8.6-5.4,10.7-9.5c0.4-0.8,0.7-1.8,0.7-2.8c-0.7-8.5,8.7-10.6,13.2-15.8
		c0.3-0.7,0.7-1.4,0.3-2.1c-3.8-6.3-12.5-8.7-13.5-16.7c0-1,0-1.9,0-2.8c0-1.1,0-2.2,0-3.3c0-1.1,0-2.2-0.1-3.3
		c-0.7-6.2-5.4-10.3-8.9-15.2c-0.6-0.8-1.1-1.7-1.6-2.5c-0.6-0.6-1.3-2-0.6-2.7c1.4-2.3,3.4-4.1,5.6-5.7c0.9-0.7,1.8-1.3,2.9-2
		c10.6-5.1,14.4-15.2,21-24.3c2.4-3.1,8-5.2,12.5-3.8c7.7,2.1,3.1,12.5,3.8,19.2c0,0.9,0,1.8,0.1,2.8c0.1,0.9,0.2,1.8,0.3,2.7
		c0,2.1,0.3,4.2,1,6.3c0,1,0.3,2.1-0.2,3.2c-0.3,0.9-0.8,1.7-1.4,2.4c-2.8,3.6-8,5.3-10.6,9c-1,1,0,2.4,0.7,3.5
		c4.2,6.3,11.5,10.1,11.8,17.8c0.1,1.3,0.4,2.4,0.8,3.5c2.3,5.3,8.8,8.3,11.7,13.5c0.3,1-0.3,2.1-1,3.1c-4.2,4.2-10.8,6.6-11.4,13.2
		c-0.1,1.1-0.1,2.2-0.1,3.3c0,1,0,2,0,3c-1.3,6.6-8.7,8.4-12.8,12.9c-0.3,0.7-0.7,1.4-0.3,2.1c2.8,7.7,13.9,10.1,13.2,19
		c-0.2,1.1,0,2.1,0.3,3.1c0.3,0.9,0.9,1.8,1.4,2.7c3.1,5.2,11.8,6.3,11.1,11.8c-1,7-12.5,8.7-12.8,16.9c0,1,0,1.9,0,2.9
		c0,6,0,12,0,18c0,1.2,0,2.4,0,3.6c1.7,12.5-8.4,19.5-18.1,25.1c-0.7,0.3-1,1.4-0.7,2.4c2.8,3.9,7.6,5.7,11,8.7
		c0.8,0.7,1.6,1.6,2.2,2.5c3.1,7.2,9.4,12.4,15,18c1,1.4,2.4,3.1,1.7,4.5c-0.4,0.9-1,1.6-1.7,2.3c-0.7,0.8-1.5,1.4-2.3,2.1
		c-1.9,1.3-3.8,2.8-5.4,4.5h500.5c-7.7-12.1-22.1-22.5-35-32.6c0.6,11.2,11.1,17.5,14.8,27.4c0.9,2.3,1.1,3.3,1.1,3.3
		c-23.4-1.7-46.7-1.7-70.1-5.4c3.2-5.8,12.2-4.8,13.8-9.6c5.3-16.4-17.5-27.1-28.7-38.2c-2.7-2.7-4.8-5.3-6.4-9
		c-0.5-1.6,0-3.7,1.6-4.8c6.9-5.8,17.5-10.6,18.1-20.9c0-1.5,0-3.1,0.1-4.6c1-11.7,18-14.9,18-23.4c0.5-13.3-19.6-20.7-30.1-30.6
		c-1.4-1-2.7-2.1-4-3.2c-1.3-1.2-2.5-2.4-3.6-3.8c-0.5-1.1-1.1-2.1-0.5-3.2c4.8-10.1,20.2-12.7,19.2-25.5c-0.2-1.9-0.5-3.7-0.9-5.6
		c-2.5-12.8-7.1-25.1-11.9-37.4c-0.5-1.6-0.5-3.7,0-5.3c0.6-1.2,1.4-2.4,2.5-3.4c9.2-10.4,31-14.6,29.4-28.4
		c-1.1-8.5-17-10.6-18-21.6c0-1.5,0-3.1,0-4.6c0-1.7,0-3.3,0-5c0-1.7,0-3.3,0-5c0-2.5-1.1-4.7-1.6-6.8
		c-3.2-10.6-23.9-16.4-15.9-27.1c4-5.7,13.1-8.2,16.3-14.5c0.6-1.3,1.1-2.7,1.1-4.3c-1-13,13.3-16.2,20.2-24.1
		c0.5-1.1,1.1-2.1,0.5-3.2c-5.8-9.6-19.1-13.3-20.6-25.4c0-1.5,0-2.9,0-4.3c0-1.7,0-3.4,0-5.1c0-1.7,0-3.3-0.2-5
		c-1.1-9.5-8.2-15.7-13.5-23.2c-0.9-1.2-1.7-2.5-2.5-3.8c-0.9-1-1.9-3.1-0.9-4.2c2.1-3.5,5.1-6.3,8.6-8.7c1.4-1,2.8-2,4.4-3.1
		c16.2-7.8,22-23.2,32.1-37c3.7-4.8,12.2-8,19.1-5.8c11.7,3.2,4.8,19.1,5.7,29.3c0,1.4,0,2.8,0.1,4.2c0.1,1.4,0.3,2.8,0.5,4.2
		c0,3.2,0.5,6.4,1.6,9.6c0,1.6,0.5,3.2-0.3,5c-0.5,1.4-1.2,2.6-2.1,3.7c-4.2,5.4-12.1,8.1-16.2,13.7c-1.6,1.6,0,3.7,1.1,5.3
		c6.4,9.6,17.5,15.4,18.1,27.1c0.1,2,0.6,3.7,1.2,5.3c0.3,0.7,0.6,1.3,1,1.9c19.2-12.6,44.3-21.9,42-42.5c-2-16-32-20-33.9-40.7
		c0-2.9-0.1-5.8-0.1-8.7c0-3.1,0-6.3,0-9.4c0-3.1,0-6.3,0-9.4c-0.1-4.8-2.1-8.8-3.1-12.8c-6-20-45-31-30-51
		c7.5-10.8,24.7-15.4,30.8-27.4c1.2-2.4,2-5.1,2.1-8.2c-1.9-24.5,25.1-30.5,38.1-45.5c1-2,2-4,1-6c-11-18-36-25-38.9-47.9
		c0-2.8,0-5.5,0-8.2c0-3.3,0-6.5,0-9.6c0-3.2,0-6.3-0.3-9.5c-2.1-17.8-15.5-29.6-25.5-43.7c-1.7-2.3-3.2-4.7-4.6-7.3
		c-1.6-1.9-3.6-5.9-1.6-7.9c3.9-6.6,9.7-11.8,16.2-16.4c2.6-1.9,5.3-3.8,8.3-5.8c30.5-14.8,41.5-43.8,60.5-69.8c7-9,23-15,36-11
		c22,6,9,36,10.8,55.2c0,2.7,0,5.3,0.2,7.9s0.5,5.3,1,7.9c0,6,1,12,3,18c0,3,1,6-0.6,9.3c-1,2.6-2.3,4.8-3.9,6.9
		c-8,10.2-22.9,15.4-30.5,25.8c-3,3,0,7,2,10c12,18,33,29,34,51.1c0.2,3.7,1,7,2.3,10.1c6.5,15.1,25.3,23.9,33.6,38.9c1,3-1,6-3,9
		c-12,12-31,19-32.7,38c-0.3,3.1-0.3,6.3-0.3,9.5c0,2.8,0,5.7-0.1,8.6c-3.9,19-24.9,24-36.9,37c-1,2-2,4-1,6c8,22,40,29,38.1,54.5
		c-0.5,3.2-0.1,6.1,0.9,8.8c1,2.7,2.5,5.2,4,7.7c9,15,34,18,32,34c-3,20-36,25-36.9,48.6c-0.1,2.8-0.1,5.6-0.1,8.4
		c0,17.3,0,34.6,0,51.7c0,3.4,0,6.8,0,10.3c5,36-24,56-52,72c-2,1-3,4-2,7c8,11.3,21.8,16.4,31.5,25c2.4,2.1,4.6,4.5,6.4,7.2
		c8.9,20.5,26.7,35.4,42.6,51.3c0-0.9,0.1-1.8,0.4-2.6c0.6-1.2,1.4-2.4,2.5-3.4c9.2-10.4,31-14.6,29.4-28.4
		c-1.1-8.5-17-10.6-18-21.6c0-1.5,0-3.1,0-4.6c0-1.7,0-3.3,0-5s0-3.3,0-5c0-2.5-1.1-4.7-1.6-6.8c-3.2-10.6-23.9-16.4-15.9-27.1
		c4-5.7,13.1-8.2,16.3-14.5c0.6-1.3,1.1-2.7,1.1-4.3c-1-13,13.3-16.2,20.2-24.1c0.5-1.1,1.1-2.1,0.5-3.2
		c-5.8-9.6-19.1-13.3-20.6-25.4c0-1.5,0-2.9,0-4.3c0-1.7,0-3.4,0-5.1c0-1.7,0-3.3-0.2-5c-1.1-9.5-8.2-15.7-13.5-23.2
		c-0.9-1.2-1.7-2.5-2.5-3.8c-0.9-1-1.9-3.1-0.9-4.2c2.1-3.5,5.1-6.3,8.6-8.7c1.4-1,2.8-2,4.4-3.1c16.2-7.8,22-23.2,32.1-37
		c3.7-4.8,12.2-8,19.1-5.8c11.7,3.2,4.8,19.1,5.7,29.3c0,1.4,0,2.8,0.1,4.2c0.1,1.4,0.3,2.8,0.5,4.2c0,3.2,0.5,6.4,1.6,9.6
		c0,1.6,0.5,3.2-0.3,5c-0.5,1.4-1.2,2.6-2.1,3.7c-4.2,5.4-12.1,8.1-16.2,13.7c-1.6,1.6,0,3.7,1.1,5.3c6.4,9.6,17.5,15.4,18.1,27.1
		c0.1,2,0.6,3.7,1.2,5.3c3.5,8,13.4,12.7,17.8,20.6c0.5,1.6-0.5,3.2-1.6,4.8c-6.4,6.4-16.4,10.1-17.4,20.1c-0.1,1.7-0.1,3.3-0.1,5
		c0,1.5,0,3-0.1,4.5c-2.1,10.1-13.2,12.7-19.6,19.6c-0.5,1.1-1.1,2.1-0.5,3.2c4.2,11.7,21.2,15.4,20.2,28.9c-0.3,1.7,0,3.2,0.5,4.7
		c0.5,1.4,1.3,2.8,2.1,4.1c4.8,8,18,9.6,17,18c-1.6,10.6-19.1,13.3-19.6,25.8c-0.1,1.5-0.1,3-0.1,4.4c0,9.2,0,18.3,0,27.4
		c0,1.8,0,3.6,0,5.4c2.7,19.1-12.7,29.7-27.6,38.2c-1.1,0.5-1.6,2.1-1.1,3.7c4.2,6,11.6,8.7,16.7,13.3c1.3,1.1,2.5,2.4,3.4,3.8
		c4.8,11,14.3,19,22.8,27.4c1.6,2.1,3.7,4.8,2.7,6.9c-0.6,1.3-1.5,2.5-2.5,3.5c-1,1.2-2.2,2.2-3.5,3.3c-10.8,7.5-20.2,19-21.5,32
		h103.4c0-210.3,0-1274.1,0-1762.8c0,0-0.6,0-1.7,0C3144.3,246.2,3131.3,232.2,3115.3,225.2z"/>
	<path fill="#79B829" d="M285.3,1998.4c-0.1-1.2-0.1-2.5-0.1-3.8c0-2.6,0-5.4,0-8.3c0-1.2-0.1-2.5-0.2-3.7
		c-0.9-8.4-11.5-12.7-10.5-20.6c1.1-13.3,10.6-24.9,21.5-32.5c1.3-1.1,2.5-2.1,3.5-3.3c1-1,1.9-2.2,2.5-3.5c1.1-2.1-1.1-4.8-2.7-6.9
		c-8.5-8.5-18-16.4-22.8-27.4c-1-1.5-2.1-2.7-3.4-3.8c-5.2-4.6-12.5-7.3-16.7-13.3c-0.5-1.6,0-3.2,1.1-3.7
		c14.9-8.5,30.2-19.1,27.6-38.2c0-1.8,0-3.6,0-5.4c0-9.1,0-18.3,0-27.4c0-1.5,0-2.9,0.1-4.4c0.5-12.5,18-15.2,19.6-25.8
		c1.1-8.5-12.2-10.1-17-18c-0.8-1.3-1.6-2.7-2.1-4.1c-0.5-1.4-0.8-2.9-0.5-4.7c1-13.5-16-17.3-20.2-28.9c-0.5-1.1,0-2.1,0.5-3.2
		c6.4-6.9,17.5-9.6,19.6-19.6c0.1-1.5,0.1-3,0.1-4.5c0-1.7,0-3.4,0.1-5c0.8-8.7,8.5-12.7,14.7-17.7c-2.9-2.7-5-5.7-5.6-9.3
		c-0.4-2.7,0.4-5,1.9-7c-3.9-3.5-7.9-7-9.8-11.5c-0.7-1.6-1.1-3.4-1.2-5.3c-0.5-11.7-11.7-17.5-18.1-27.1c-1.1-1.6-2.7-3.7-1.1-5.3
		c4.1-5.5,11.9-8.2,16.2-13.7c0.9-1.1,1.6-2.3,2.1-3.7c0.9-1.8,0.3-3.4,0.3-5c-1.1-3.2-1.6-6.4-1.6-9.6c-0.3-1.4-0.4-2.8-0.5-4.2
		c-0.1-1.4-0.1-2.8-0.1-4.2c-1-10.2,5.9-26.1-5.7-29.3c-6.9-2.1-15.4,1.1-19.1,5.8c-10.1,13.8-15.9,29.2-32.1,37
		c-1.6,1.1-3,2-4.4,3.1c-3.5,2.4-6.5,5.2-8.6,8.7c-1.1,1.1,0,3.2,0.9,4.2c0.7,1.3,1.6,2.6,2.5,3.8c5.3,7.5,12.4,13.7,13.5,23.2
		c0.2,1.7,0.2,3.4,0.2,5c0,1.7,0,3.4,0,5.1c0,1.4,0,2.9,0,4.3c1.5,12.2,14.8,15.9,20.6,25.4c0.5,1.1,0,2.1-0.5,3.2
		c-6.9,8-21.2,11.1-20.2,24.1c-0.1,1.6-0.5,3.1-1.1,4.3c-3.2,6.3-12.4,8.8-16.3,14.5c-8,10.6,12.7,16.4,15.9,27.1
		c0.5,2.1,1.6,4.2,1.6,6.8c0,1.7,0,3.3,0,5c0,1.7,0,3.3,0,5c0,1.5,0,3.1,0,4.6c1,11,16.9,13.1,18,21.6c1.6,13.8-20.2,18-29.4,28.4
		c-1,1.1-1.9,2.2-2.5,3.4c-0.5,1.6-0.5,3.7,0,5.3c4.8,12.3,9.4,24.5,11.9,37.4c0.4,1.8,0.7,3.7,0.9,5.6c1,12.8-14.4,15.4-19.2,25.5
		c-0.5,1.1,0,2.1,0.5,3.2c1.1,1.4,2.3,2.7,3.6,3.8c1.3,1.2,2.6,2.2,4,3.2c10.5,9.9,30.6,17.4,30.1,30.6c0,8.5-17,11.7-18,23.4
		c0,1.6,0,3.1-0.1,4.6c-0.5,10.2-11.2,15-18.1,20.9c-1.6,1.1-2.1,3.2-1.6,4.8c1.6,3.7,3.7,6.3,6.4,9c9.8,9.8,28.6,19.2,29.4,32.5
		h43.1C286.9,2005.8,285.5,2002.4,285.3,1998.4z"/>
	<path fill="#1C4E24" d="M304.3,1653.2c0.5,1.6-0.5,3.2-1.6,4.8c-0.8,0.8-1.8,1.6-2.7,2.4c10.3,9.7,30.6,15.5,31.3,30.7
		c0.1,2.3,0.1,4.6,0.1,6.9c0,14.3,0,28.5,0,42.6c0,2.8,0,5.6,0,8.5c-5,29.7,24,46.2,52,59.3c2,0.8,3,3.3,2,5.8
		c-8,9.3-21.8,13.5-31.5,20.6c-2.4,1.8-4.6,3.7-6.4,6c-9,17.1-27,29.4-43,42.6c-3,3.3-7,7.4-5,10.7c1.2,2.1,2.8,3.8,4.8,5.4
		c2,1.8,4.2,3.4,6.6,5.1c20.6,11.7,38.6,29.9,40.6,50.5c2,12.4-18,18.9-19.7,32c-0.2,1.9-0.2,3.9-0.3,5.7c0,4.5,0,8.8,0,12.8
		c0,1.1,0,2.2,0,3.3h85.4c12.3-11.6,32.3-21.5,44.6-31.6c5-4.1,9-8.2,12-14c1-2.5,0-5.8-3-7.5c-13-9.1-33-16.5-34-32.4
		c0-2.4,0-4.7-0.1-7.2c-1.9-18.1-33.9-23.1-33.9-36.2c-1-20.6,37-32.1,56.8-47.5c2.6-1.6,5.1-3.2,7.5-5c2.4-1.8,4.7-3.7,6.7-5.9
		c1-1.6,2-3.3,1-4.9c-9-15.6-38-19.8-36.1-39.6c0.4-2.9,1-5.8,1.7-8.7c4.7-19.9,13.3-39,22.4-58c1-2.5,1-5.8,0-8.2
		c-1.2-1.9-2.7-3.7-4.7-5.3c-17.3-16.1-58.3-22.7-55.3-44.1c2-13.2,32-16.5,33.9-33.5c0-2.4,0.1-4.8,0.1-7.2c0-2.6,0-5.2,0-7.8
		c0-2.6,0-5.2,0-7.7c0.1-4,2.1-7.2,3.1-10.5c6-16.5,45-25.5,30-42c-7.5-8.9-24.7-12.7-30.8-22.5c-1.2-2-2-4.2-2.1-6.7
		c1.9-20.2-25.1-25.1-38.1-37.5c-1-1.6-2-3.3-1-4.9c11-14.8,36-20.6,38.9-39.5c0-2.3,0-4.5,0-6.7c0-2.7,0-5.3,0-7.9
		c0-2.6,0-5.2,0.3-7.8c2.1-14.7,15.5-24.4,25.5-36c1.7-1.9,3.2-3.9,4.6-6c1.6-1.5,3.6-4.8,1.6-6.5c-3.9-5.4-9.7-9.7-16.2-13.5
		c-2.6-1.6-5.3-3.1-8.3-4.8c-30.5-12.2-41.5-36.1-60.5-57.5c-7-7.4-23-12.4-36-9.1c-22,4.9-9,29.7-10.8,45.5c0,2.2,0,4.4-0.2,6.5
		c-0.2,2.2-0.5,4.3-1,6.5c0,4.9-1,9.9-3,14.8c0,2.5-1,4.9,0.6,7.7c1,2.1,2.3,4,3.9,5.7c8,8.4,22.9,12.6,30.5,21.2c3,2.5,0,5.8-2,8.2
		c-12,14.8-33,23.9-34,42c-0.2,3.1-1,5.8-2.3,8.3c-6.5,12.5-25.3,19.7-33.6,32c-1,2.5,1,4.9,3,7.4c12,9.9,31,15.6,32.7,31.3
		c0.3,2.6,0.3,5.2,0.3,7.8c0,2.3,0,4.7,0.1,7.1c3.9,15.7,24.9,19.8,36.9,30.5c1,1.6,2,3.3,1,4.9c-8,18.1-40,23.9-38.1,44.9
		c0.5,2.7,0.1,5-0.9,7.2c-1,2.2-2.5,4.3-4,6.3c-7.1,9.8-24.3,13.4-30.1,21C299.4,1646.8,302.4,1649.7,304.3,1653.2z"/>
	<path fill="#1C4E24" d="M294.4,1651.1c0.7,3.6,2.7,6.6,5.6,9.3c0.9-0.8,1.9-1.6,2.7-2.4c1.1-1.6,2.1-3.2,1.6-4.8
		c-1.9-3.5-5-6.4-8-9.2C294.8,1646,294,1648.3,294.4,1651.1z"/>
	<path fill="#1C4E24" d="M187,2008.9c-0.5-0.7-1-1.4-1.5-2.1c0,0.7,0,1.4,0,2.1H187z"/>
	<path fill="#1C4E24" d="M151.6,1854.5c-1.3,0.7-2,2.6-1.3,4.6c2.6,3.7,6.1,6.3,9.8,8.8c7.3-10.5,17.1-19.7,27.5-26.9
		c2.4-2,4.6-4,6.6-6.2c2-1.9,3.6-4.1,4.8-6.6c2-4-2-9-5-13c-2.8-2.8-5.7-5.6-8.5-8.3c0,0.2,0,0.5,0,0.7
		C188.7,1831.1,169.8,1844.1,151.6,1854.5z"/>
	<path fill="#1C4E24" d="M162,1519.9c-2,2,0,4.6,1.3,6.5c7.1,10.7,19.1,17.6,21.7,29.6c8.7-6.6,17.5-12.9,19-22.7
		c1.6-13-14.6-17.4-25.5-26.7C173.1,1511.2,166,1514.4,162,1519.9z"/>
	<path fill="#1C4E24" d="M100.8,1988c-3.3-3.3-5.9-6.5-7.8-11c-0.7-2,0-4.6,2-5.9c8.5-7.2,21.5-13,22.1-25.6c0-1.9,0-3.8,0.1-5.7
		c1.2-14.3,22-18.2,22-28.7c0.7-16.3-24.1-25.4-37-37.6c-1.7-1.3-3.3-2.5-4.9-4c-1.6-1.4-3.1-3-4.4-4.7c-0.7-1.3-1.3-2.6-0.7-3.9
		c5.9-12.4,24.7-15.6,23.5-31.3c-0.3-2.3-0.7-4.6-1.1-6.8c-3.1-15.8-8.7-30.8-14.6-45.8c-0.7-2-0.7-4.6,0-6.5c0.8-1.5,1.8-2.9,3-4.2
		c7-7.8,19.7-12.8,28.1-19.4c-6.8-4.4-13.6-8.9-18.3-15.6c-1-3,0-6,2-7c3.7-2.1,7.3-4.2,10.9-6.5c-4.4-3.2-8.2-7-8.7-12.8
		c0-1.9,0-3.8,0-5.7c0-2,0-4.1,0-6.1c0-2,0-4.1,0-6.1c0-3.1-1.3-5.7-2-8.3c-3.9-13-29.3-20.2-19.5-33.2c4.9-7.1,16.1-10,20.1-17.8
		c0.8-1.6,1.3-3.3,1.4-5.3c-1.3-15.9,16.3-19.9,24.8-29.6c0.7-1.3,1.3-2.6,0.7-3.9c-7.2-11.7-23.4-16.3-25.3-31.2c0-1.8,0-3.6,0-5.3
		c0-2.1,0-4.2,0-6.3c0-2.1,0-4.1-0.2-6.2c-1.3-11.6-10.1-19.3-16.6-28.4c-1.1-1.5-2.1-3.1-3-4.7c-1.1-1.2-2.4-3.8-1.1-5.1
		c2.6-4.3,6.3-7.7,10.6-10.7c1.7-1.3,3.4-2.4,5.4-3.8c16.8-8.2,24.5-23,34.1-37.7c-7.1-6.1-14.1-12.5-17.3-21.3c-1-2,0-4,1-6
		c12-13,33-18,36.9-37c0.1-2.9,0.1-5.7,0.1-8.6c0-3.2,0-6.3,0.3-9.5c1.7-19,20.7-26,32.7-38c2-3,4-6,3-9
		c-8.3-15-27.1-23.8-33.6-38.9c-1.3-3-2.1-6.3-2.3-10.1c-1-22.1-22-33.1-34-51.1c-2-3-5-7-2-10c7.6-10.4,22.5-15.5,30.5-25.8
		c1.6-2.1,2.9-4.3,3.9-6.9c1.6-3.3,0.6-6.3,0.6-9.3c-2-6-3-12-3-18c-0.5-2.6-0.8-5.3-1-7.9s-0.2-5.3-0.2-7.9
		c-1.8-19.2,11.2-49.2-10.8-55.2c-13-4-29,2-36,11c-19,26-30,55-60.5,69.8c-3,2-5.7,3.9-8.3,5.8c-6.6,4.6-12.3,9.9-16.2,16.4
		c-2,2,0,6,1.6,7.9c1.4,2.5,3,4.9,4.6,7.3c10,14.1,23.4,25.8,25.5,43.7c0.3,3.2,0.3,6.3,0.3,9.5c0,3.2,0,6.4,0,9.6
		c0,2.7,0,5.4,0,8.2c2.9,22.9,27.9,29.9,38.9,47.9c1,2,0,4-1,6c-13,15-40,21-38.1,45.5c-0.2,3.1-0.9,5.8-2.1,8.2
		c-6.1,11.9-23.3,16.5-30.8,27.4c-15,20,24,31,30,51c1,4,3,8,3.1,12.8c0,3.1,0,6.2,0,9.4c0,3.1,0,6.3,0,9.4c0,2.9,0,5.8,0.1,8.7
		c1.9,20.7,31.9,24.7,33.9,40.7c3,26-38,34-55.3,53.5c-1.9,2-3.5,4.2-4.7,6.5c-1,3-1,7,0,10c9.1,23.1,17.7,46.2,22.4,70.4
		c0.7,3.5,1.3,6.9,1.7,10.5c1.9,24.1-27.1,29.1-36.1,48.1c-1,2,0,4,1,6c2,2.7,4.3,5,6.7,7.2s5,4.2,7.5,6.1
		c19.8,18.7,57.8,32.7,56.8,57.7c0,16-32,22-33.9,44c-0.1,2.9-0.1,5.8-0.1,8.7c-1,19.3-21,28.3-34,39.3c-3,2-4,6-3,9.1
		c3,6.9,7,11.9,12,16.9c21,21,64,41,54,72c-1.3,4-5.5,5.9-10.2,7.6h45C117.9,2001.4,107.6,1994.8,100.8,1988z"/>
	<path fill="#1C4E24" d="M161.4,1657.9c-0.7,1.3-1.3,2.6-0.7,3.9c1.2,3.4,3.3,6.2,5.8,8.8c1.1-5.4,1.4-11.2,0.6-17.6
		C165,1654.5,163,1656.1,161.4,1657.9z"/>
	<path fill="#79B829" d="M3006.6,1862.5c-0.2,0.4-0.4,0.7-0.6,1.1c3,8.4,5.7,16.8,7.4,25.6c0.4,1.8,0.7,3.7,0.9,5.6
		c1,12.8-14.4,15.4-19.2,25.5c-0.5,1.1,0,2.1,0.5,3.2c1.1,1.4,2.3,2.7,3.6,3.8c1.3,1.2,2.6,2.2,4,3.2c10.5,9.9,30.6,17.4,30.1,30.6
		c0,8.5-17,11.7-18,23.4c0,1.6,0,3.1-0.1,4.6c-0.5,9.6-9.9,14.4-16.8,19.8h62c1.3-13.1,10.7-24.6,21.5-32c1.3-1.1,2.5-2.1,3.5-3.3
		c1-1,1.9-2.2,2.5-3.5c1.1-2.1-1.1-4.8-2.7-6.9c-8.5-8.5-18-16.4-22.8-27.4c-1-1.5-2.1-2.7-3.4-3.8c-5.2-4.6-12.5-7.3-16.7-13.3
		c-0.5-1.6,0-3.2,1.1-3.7c14.9-8.5,30.2-19.1,27.6-38.2c0-1.8,0-3.6,0-5.4c0-9.1,0-18.3,0-27.4c0-1.5,0-2.9,0.1-4.4
		c0.5-12.5,18-15.2,19.6-25.8c1.1-8.5-12.2-10.1-17-18c-0.8-1.3-1.6-2.7-2.1-4.1c-0.5-1.4-0.8-2.9-0.5-4.7c1-13.5-16-17.3-20.2-28.9
		c-0.5-1.1,0-2.1,0.5-3.2c6.4-6.9,17.5-9.6,19.6-19.6c0.1-1.5,0.1-3,0.1-4.5c0-1.7,0-3.4,0.1-5c0.9-10.1,11-13.8,17.4-20.1
		c1.1-1.6,2.1-3.2,1.6-4.8c-4.4-8-14.4-12.6-17.8-20.6c-0.7-1.6-1.1-3.4-1.2-5.3c-0.5-11.7-11.7-17.5-18.1-27.1
		c-1.1-1.6-2.7-3.7-1.1-5.3c4.1-5.5,11.9-8.2,16.2-13.7c0.9-1.1,1.6-2.3,2.1-3.7c0.9-1.8,0.3-3.4,0.3-5c-1.1-3.2-1.6-6.4-1.6-9.6
		c-0.3-1.4-0.4-2.8-0.5-4.2c-0.1-1.4-0.1-2.8-0.1-4.2c-1-10.2,5.9-26.1-5.7-29.3c-6.9-2.1-15.4,1.1-19.1,5.8
		c-10.1,13.8-15.9,29.2-32.1,37c-1.6,1.1-3,2-4.4,3.1c-3.5,2.4-6.5,5.2-8.6,8.7c-1.1,1.1,0,3.2,0.9,4.2c0.7,1.3,1.6,2.6,2.5,3.8
		c5.3,7.5,12.4,13.7,13.5,23.2c0.2,1.7,0.2,3.4,0.2,5c0,1.7,0,3.4,0,5.1c0,1.4,0,2.9,0,4.3c1.5,12.2,14.8,15.9,20.6,25.4
		c0.5,1.1,0,2.1-0.5,3.2c-6.9,8-21.2,11.1-20.2,24.1c-0.1,1.6-0.5,3.1-1.1,4.3c-3.2,6.3-12.4,8.8-16.3,14.5
		c-8,10.6,12.7,16.4,15.9,27.1c0.5,2.1,1.6,4.2,1.6,6.8c0,1.7,0,3.3,0,5s0,3.3,0,5c0,1.5,0,3.1,0,4.6c1,11,16.9,13.1,18,21.6
		c1.6,13.8-20.2,18-29.4,28.4c-1,1.1-1.9,2.2-2.5,3.4c-0.3,0.8-0.4,1.7-0.4,2.6c0.2,0.2,0.3,0.3,0.5,0.5
		C3004.6,1853.5,3008.6,1858.5,3006.6,1862.5z"/>
	<path fill="#162818" d="M2832.6,1946.5c-1-3,0-7.1,3-9.1c5.7-4.8,12.7-9.3,18.9-14.4c3.1-4.8,7.1-9.2,11.5-12.8
		c2-3.6,3.3-7.6,3.6-12.1c0-2.9,0-5.8,0.1-8.7c-7.3-7.1-14.8-14.2-18.9-23.6c-1-1.5-2.1-2.7-3.4-3.8c-5.2-4.6-12.5-7.3-16.7-13.3
		c-0.5-1.6,0-3.2,1.1-3.7c14.9-8.5,30.2-19.1,27.6-38.2c0-1.8,0-3.6,0-5.4c0-1.2,0-2.4,0-3.6c-4.6-3.3-8.9-6.6-12.5-10
		c-2.6-1.9-5.1-3.9-7.5-6.1c-2.4-2.2-4.7-4.5-6.7-7.2c-1-2-2-4-1-6c7.6-16,29.4-22.1,34.9-38c-1.8-1.3-3.4-2.9-4.5-4.7
		c-0.8-1.3-1.6-2.7-2.1-4.1c-0.5-1.4-0.8-2.9-0.5-4.7c1-13.5-16-17.3-20.2-28.9c-0.5-1.1,0-2.1,0.5-3.2c4.6-5,11.6-7.7,16-12.7
		c-3.7-11-7.9-21.8-12.1-32.7c-1-3-1-7,0-10c1.2-2.3,2.7-4.4,4.7-6.5c3.6-4.1,8.3-7.7,13.4-11c-0.4-0.6-0.7-1.2-1-1.9
		c-0.7-1.6-1.1-3.4-1.2-5.3c-0.5-11.7-11.7-17.5-18.1-27.1c-1.1-1.6-2.7-3.7-1.1-5.3c4.1-5.5,11.9-8.2,16.2-13.7
		c0.9-1.1,1.6-2.3,2.1-3.7c0.9-1.8,0.3-3.4,0.3-5c-1.1-3.2-1.6-6.4-1.6-9.6c-0.3-1.4-0.4-2.8-0.5-4.2c-0.1-1.4-0.1-2.8-0.1-4.2
		c-1-10.2,5.9-26.1-5.7-29.3c-6.9-2.1-15.4,1.1-19.1,5.8c-10.1,13.8-15.9,29.2-32.1,37c-1.6,1.1-3,2-4.4,3.1
		c-3.5,2.4-6.5,5.2-8.6,8.7c-1.1,1.1,0,3.2,0.9,4.2c0.7,1.3,1.6,2.6,2.5,3.8c5.3,7.5,12.4,13.7,13.5,23.2c0.2,1.7,0.2,3.4,0.2,5
		c0,1.7,0,3.4,0,5.1c0,1.4,0,2.9,0,4.3c1.5,12.2,14.8,15.9,20.6,25.4c0.5,1.1,0,2.1-0.5,3.2c-6.9,8-21.2,11.1-20.2,24.1
		c-0.1,1.6-0.5,3.1-1.1,4.3c-3.2,6.3-12.4,8.8-16.3,14.5c-8,10.6,12.7,16.4,15.9,27.1c0.5,2.1,1.6,4.2,1.6,6.8c0,1.7,0,3.3,0,5
		c0,1.7,0,3.3,0,5c0,1.5,0,3.1,0,4.6c1,11,16.9,13.1,18,21.6c1.6,13.8-20.2,18-29.4,28.4c-1,1.1-1.9,2.2-2.5,3.4
		c-0.5,1.6-0.5,3.7,0,5.3c4.8,12.3,9.4,24.5,11.9,37.4c0.4,1.8,0.7,3.7,0.9,5.6c1,12.8-14.4,15.4-19.2,25.5c-0.5,1.1,0,2.1,0.5,3.2
		c1.1,1.4,2.3,2.7,3.6,3.8c1.3,1.2,2.6,2.2,4,3.2c10.5,9.9,30.6,17.4,30.1,30.6c0,8.5-17,11.7-18,23.4c0,1.6,0,3.1-0.1,4.6
		c-0.5,10.2-11.2,15-18.1,20.9c-1.6,1.1-2.1,3.2-1.6,4.8c1.6,3.7,3.7,6.3,6.4,9c11.1,11.1,34,21.8,28.7,38.2
		c-1.6,4.8-10.6,3.7-13.8,9.6c23.3,3.7,46.7,3.7,70.1,5.4c0,0-0.2-1.1-1.1-3.3c-3.7-9.9-14.1-16.3-14.8-27.4
		c-5.4-4.3-10.6-8.5-14.9-12.8C2839.6,1958.5,2835.6,1953.5,2832.6,1946.5z"/>
	<path fill="#1C4E24" d="M2974.7,2005.1c-0.1-2.3-0.1-4.7-0.1-7.2c0-4.9,0-10.1,0-15.6c0-2.3-0.1-4.6-0.3-7
		c-1.7-15.9-21.7-23.9-19.7-38.9c2-25,20-47,40.6-61.3c2.4-2,4.6-4,6.6-6.2c1.7-1.6,3.1-3.4,4.2-5.5c-1.4-3.9-2.9-7.9-4.5-11.8
		c-0.3-0.8-0.4-1.8-0.4-2.7c-15.9-15.8-33.6-30.7-42.6-51.3c-1.8-2.7-4-5.1-6.4-7.2c-9.8-8.6-23.5-13.7-31.5-25c-1-3,0-6,2-7
		c28-16,57-36,52-72c0-3.4,0-6.8,0-10.3c0-17.1,0-34.4,0-51.7c0-2.8,0-5.5,0.1-8.4c0.9-23.6,33.9-28.6,36.9-48.6c2-16-23-19-32-34
		c-1.5-2.5-3-5-4-7.7c-1-2.7-1.5-5.6-0.9-8.8c1.9-25.5-30.1-32.5-38.1-54.5c-1-2,0-4,1-6c12-13,33-18,36.9-37
		c0.1-2.9,0.1-5.7,0.1-8.6c0-3.2,0-6.3,0.3-9.5c1.7-19,20.7-26,32.7-38c2-3,4-6,3-9c-8.3-15-27.1-23.8-33.6-38.9
		c-1.3-3-2.1-6.3-2.3-10.1c-1-22.1-22-33.1-34-51.1c-2-3-5-7-2-10c7.6-10.4,22.5-15.5,30.5-25.8c1.6-2.1,2.9-4.3,3.9-6.9
		c1.6-3.3,0.6-6.3,0.6-9.3c-2-6-3-12-3-18c-0.5-2.6-0.8-5.3-1-7.9s-0.2-5.3-0.2-7.9c-1.8-19.2,11.2-49.2-10.8-55.2c-13-4-29,2-36,11
		c-19,26-30,55-60.5,69.8c-3,2-5.7,3.9-8.3,5.8c-6.6,4.6-12.3,9.9-16.2,16.4c-2,2,0,6,1.6,7.9c1.4,2.5,3,4.9,4.6,7.3
		c10,14.1,23.4,25.8,25.5,43.7c0.3,3.2,0.3,6.3,0.3,9.5c0,3.2,0,6.4,0,9.6c0,2.7,0,5.4,0,8.2c2.9,22.9,27.9,29.9,38.9,47.9
		c1,2,0,4-1,6c-13,15-40,21-38.1,45.5c-0.2,3.1-0.9,5.8-2.1,8.2c-6.1,11.9-23.3,16.5-30.8,27.4c-15,20,24,31,30,51c1,4,3,8,3.1,12.8
		c0,3.1,0,6.2,0,9.4c0,3.1,0,6.3,0,9.4c0,2.9,0,5.8,0.1,8.7c1.9,20.7,31.9,24.7,33.9,40.7c2.4,20.6-22.8,29.9-42,42.5
		c4.1,6.9,12.8,11.4,16.9,18.7c0.5,1.6-0.5,3.2-1.6,4.8c-6.4,6.4-16.4,10.1-17.4,20.1c-0.1,1.7-0.1,3.3-0.1,5c0,1.5,0,3-0.1,4.5
		c-0.6,2.8-1.9,5.1-3.6,7c4.2,12.4,7.8,24.9,10.3,37.7c0.7,3.5,1.3,6.9,1.7,10.5c0.3,3.8-0.2,7.1-1.2,10c5.7,4.4,13.3,6.8,12.5,13.3
		c-1.6,10.6-19.1,13.3-19.6,25.8c-0.1,1.5-0.1,3-0.1,4.4c0,8,0,15.9,0,23.8c20,14.2,45,27.3,44.2,47.7c0,16-32,22-33.9,44
		c0,0,0,0,0,0c1.3,1.3,2.7,2.6,4,3.9c1.6,2.1,3.7,4.8,2.7,6.9c-0.6,1.3-1.5,2.5-2.5,3.5c-1,1.2-2.2,2.2-3.5,3.3
		c-1.5,1-2.9,2.1-4.3,3.2c-2.8,4.9-6.9,9.1-11.5,12.8c-3.2,5-5.3,10.6-5.8,16.4c-1.1,8,9.6,12.2,10.5,20.6c0.1,1.2,0.1,2.5,0.2,3.7
		c0,2.9,0,5.7,0,8.3c0,1.3,0,2.6,0.1,3.8c0,0.1,0,0.2,0,0.3c12.9,10.1,27.3,20.6,35,32.6h80.6
		C2974.9,2007.6,2974.8,2006.4,2974.7,2005.1z"/>
	<path fill="#1C4E24" d="M3001.5,1851.8c1.5,3.9,3.1,7.8,4.5,11.8c0.2-0.4,0.4-0.7,0.6-1.1c2-4-2-9-5-13c-0.2-0.2-0.3-0.3-0.5-0.5
		C3001.1,1850,3001.2,1850.9,3001.5,1851.8z"/>
	<path fill="#1C4E24" d="M2848.2,1623c-1.9,2-3.5,4.2-4.7,6.5c-1,3-1,7,0,10c4.3,10.9,8.4,21.7,12.1,32.7c1.7-1.9,3-4.1,3.6-7
		c0.1-1.5,0.1-3,0.1-4.5c0-1.7,0-3.4,0.1-5c0.9-10.1,11-13.8,17.4-20.1c1.1-1.6,2.1-3.2,1.6-4.8c-4.1-7.3-12.8-11.8-16.9-18.7
		C2856.5,1615.3,2851.9,1618.9,2848.2,1623z"/>
	<path fill="#1C4E24" d="M2831.6,1768.5c-1,2,0,4,1,6c2,2.7,4.3,5,6.7,7.2c2.4,2.2,5,4.2,7.5,6.1c3.7,3.5,8,6.8,12.5,10
		c0-7.9,0-15.9,0-23.8c0-1.5,0-2.9,0.1-4.4c0.5-12.5,18-15.2,19.6-25.8c0.8-6.5-6.8-9-12.5-13.3
		C2861,1746.4,2839.2,1752.4,2831.6,1768.5z"/>
	<path fill="#1C4E24" d="M2866,1910.3c1.4-1.1,2.8-2.2,4.3-3.2c1.3-1.1,2.5-2.1,3.5-3.3c1-1,1.9-2.2,2.5-3.5
		c1.1-2.1-1.1-4.8-2.7-6.9c-1.3-1.3-2.6-2.6-4-3.9c-0.1,2.9-0.1,5.8-0.1,8.7C2869.4,1902.7,2868,1906.7,2866,1910.3z"/>
	<path fill="#1C4E24" d="M2859.4,1972.1c0-2.6,0-5.4,0-8.3c0-1.2-0.1-2.5-0.2-3.7c-0.9-8.4-11.5-12.7-10.5-20.6
		c0.5-5.9,2.6-11.4,5.8-16.4c-6.2,5.1-13.2,9.5-18.9,14.4c-3,2-4,6-3,9.1c3,6.9,7,11.9,12,16.9c4.3,4.3,9.4,8.5,14.9,12.8
		c0-0.1,0-0.2,0-0.3C2859.4,1974.7,2859.4,1973.4,2859.4,1972.1z"/>
	<path fill="#162818" d="M167,1482.8c-0.5,3.2-0.1,6.1,0.9,8.8c1,2.7,2.5,5.2,4,7.7c1.7,2.8,3.9,5.2,6.5,7.3
		c1.3-1.1,2.4-2.2,3.4-3.5c1-1.3,1.9-2.8,2.5-4.5c1.1-2.2,0.4-4.1,0.4-6.1c-1.3-3.9-2-7.8-2-11.7c-0.3-1.7-0.5-3.4-0.6-5.1
		s-0.1-3.4-0.1-5.2c-1.2-12.5,7.3-32-7-35.9c-8.5-2.6-18.9,1.3-23.4,7.2c-1.9,2.6-3.6,5.2-5.3,7.8
		C157.1,1458.8,168.2,1467.4,167,1482.8z"/>
	<path fill="#162818" d="M167.1,1581.9c-0.1,2.8-0.1,5.6-0.1,8.4c0,17.3,0,34.6,0,51.7c0,3.4,0,6.8,0,10.3c0,0.3,0.1,0.5,0.1,0.8
		c7.5-5.4,16.3-9.5,18.3-19.2c0.1-1.9,0.1-3.7,0.1-5.6c0-2.1,0-4.1,0.2-6.2c1.1-12.3,13.5-16.9,21.3-24.7c1.3-2,2.6-3.9,2-5.9
		c-5.4-9.8-17.6-15.5-21.9-25.3c-0.9-2-1.4-4.1-1.5-6.6c-0.1-1.3-0.2-2.5-0.5-3.6C176.2,1562.8,167.5,1569.9,167.1,1581.9z"/>
	<path fill="#162818" d="M166.7,1941.1c0.2,2.4,0.2,4.7,0.3,7c0,5.5,0,10.6,0,15.6c0,2.5,0,4.8,0.1,7.2
		c0.6,14.6,10.1,24.9,18.3,35.9c0-2.1,0-4.2,0-6.4c0-1.5-0.1-3-0.2-4.5c-1.1-10.4-14.1-15.6-12.8-25.3c1.3-16.3,13-30.6,26.4-39.9
		c1.5-1.3,3-2.6,4.3-4c1.3-1.3,2.4-2.6,3.1-4.3c1.3-2.6-1.3-5.9-3.3-8.5c-10.4-10.4-22.1-20.2-28-33.7c-1.2-1.8-2.6-3.3-4.2-4.7
		c-3.2-2.8-7-5-10.7-7.5c-7.2,10.3-12.1,22-13.1,34.4C145,1917.3,165,1925.3,166.7,1941.1z"/>
	<path fill="#162818" d="M125.9,1717.8c5.8,4.4,12.6,7.8,13.3,13.7c0.8,6.5-2.7,11.3-7.9,15.4c4.6,3,9.3,5.9,13.2,9.4
		c2.4,2.1,4.6,4.5,6.4,7.2c7.5,17.1,21,30.3,34.5,43.4c0-2,0-4,0-6c0-11.2,0-22.4,0-33.7c0-1.8,0-3.6,0.1-5.4
		c0.6-15.4,22.1-18.6,24-31.7c1.3-10.4-15-12.4-20.8-22.1c-1-1.6-2-3.3-2.6-5c-0.6-1.7-1-3.6-0.6-5.7c1-12.7-11-18.4-19-26.7
		C162.1,1691.5,144.9,1705.9,125.9,1717.8z"/>
	<path fill="#162818" d="M112.2,1487.2c-2,1.3-3.7,2.5-5.4,3.8c-4.3,3-8,6.4-10.6,10.7c-1.3,1.3,0,3.9,1.1,5.1
		c0.9,1.6,1.9,3.2,3,4.7c6.5,9.1,15.3,16.8,16.6,28.4c0.2,2.1,0.2,4.1,0.2,6.2c0,2.1,0,4.1,0,6.3c0,1.8,0,3.5,0,5.3
		c1.9,14.9,18.2,19.5,25.3,31.2c0.7,1.3,0,2.6-0.7,3.9c-8.5,9.8-26,13.7-24.8,29.6c-0.1,2-0.6,3.8-1.4,5.3
		c-4,7.8-15.2,10.8-20.1,17.8c-9.8,13,15.6,20.2,19.5,33.2c0.7,2.6,2,5.2,2,8.3c0,2,0,4.1,0,6.1c0,2,0,4.1,0,6.1c0,1.9,0,3.8,0,5.7
		c0.5,5.7,4.4,9.5,8.7,12.8c19-11.8,36.2-26.3,40.6-47.2c-2.5-2.6-4.6-5.4-5.8-8.8c-0.7-1.3,0-2.6,0.7-3.9c1.7-1.8,3.6-3.4,5.7-4.9
		c0-0.3-0.1-0.5-0.1-0.8c0-3.4,0-6.8,0-10.3c0-17.1,0-34.4,0-51.7c0-2.8,0-5.5,0.1-8.4c0.4-11.9,9.1-19.1,17.9-25.9
		c-2.6-12-14.6-18.9-21.7-29.6c-1.3-2-3.3-4.6-1.3-6.5c4-5.5,11.1-8.7,16.4-13.3c-2.5-2.1-4.8-4.5-6.5-7.3c-1.5-2.5-3-5-4-7.7
		c-1-2.7-1.5-5.6-0.9-8.8c1.2-15.4-10-24-20.8-33.3C136.8,1464.2,129.1,1479,112.2,1487.2z"/>
	<path fill="#162818" d="M150.9,1763.5c-1.8-2.7-4-5.1-6.4-7.2c-4-3.5-8.6-6.4-13.2-9.4c-8.3,6.6-21.1,11.6-28.1,19.4
		c-1.3,1.3-2.3,2.7-3,4.2c-0.7,2-0.7,4.6,0,6.5c5.9,15,11.5,30.1,14.6,45.8c0.4,2.3,0.8,4.5,1.1,6.8c1.2,15.7-17.7,18.9-23.5,31.3
		c-0.7,1.3,0,2.6,0.7,3.9c1.3,1.7,2.8,3.3,4.4,4.7c1.6,1.4,3.2,2.7,4.9,4c12.9,12.2,37.6,21.3,37,37.6c0,10.4-20.8,14.3-22,28.7
		c-0.1,1.9-0.1,3.8-0.1,5.7c-0.7,12.6-13.7,18.4-22.1,25.6c-2,1.3-2.6,3.9-2,5.9c2,4.5,4.6,7.8,7.8,11c6.8,6.8,17.1,13.4,25,20.9
		h59.7c0-0.7,0-1.4,0-2.1c-8.2-11-17.8-21.3-18.3-35.9c-0.1-2.3-0.1-4.7-0.1-7.2c0-4.9,0-10.1,0-15.6c0-2.3-0.1-4.6-0.3-7
		c-1.7-15.9-21.7-23.9-19.7-38.9c1-12.4,5.9-24,13.1-34.4c-3.7-2.4-7.2-5.1-9.8-8.8c-0.7-2,0-3.9,1.3-4.6
		c18.2-10.4,37.1-23.4,33.9-46.9c0-0.2,0-0.5,0-0.7C172,1793.8,158.4,1780.6,150.9,1763.5z"/>
	<path fill="#162818" d="M632.5,1987.1c1.3-16.3,13-30.6,26.4-39.9c1.5-1.3,3-2.6,4.3-4c1.3-1.3,2.4-2.6,3.1-4.3
		c1.3-2.6-1.3-5.9-3.3-8.5c-10.4-10.4-22.1-20.2-28-33.7c-1.2-1.8-2.6-3.3-4.2-4.7c-6.4-5.6-15.3-8.9-20.5-16.3
		c-0.7-2,0-3.9,1.3-4.6c18.2-10.4,37.1-23.4,33.9-46.9c0-2.2,0-4.5,0-6.7c0-11.2,0-22.4,0-33.7c0-1.8,0-3.6,0.1-5.4
		c0.6-15.4,22.1-18.6,24-31.7c1.3-10.4-15-12.4-20.8-22.1c-1-1.6-2-3.3-2.6-5c-0.6-1.7-1-3.6-0.6-5.7c1.3-16.6-19.6-21.2-24.8-35.5
		c-0.7-1.3,0-2.6,0.7-3.9c7.8-8.5,21.5-11.7,24-24.1c0.1-1.9,0.1-3.7,0.1-5.6c0-2.1,0-4.1,0.2-6.2c1.1-12.3,13.5-16.9,21.3-24.7
		c1.3-2,2.6-3.9,2-5.9c-5.4-9.8-17.6-15.5-21.9-25.3c-0.9-2-1.4-4.1-1.5-6.6c-0.7-14.4-14.3-21.5-22.2-33.2c-1.3-2-3.3-4.6-1.3-6.5
		c5-6.8,14.7-10.1,19.9-16.8c1-1.3,1.9-2.8,2.5-4.5c1.1-2.2,0.4-4.1,0.4-6.1c-1.3-3.9-2-7.8-2-11.7c-0.3-1.7-0.5-3.4-0.6-5.1
		c-0.1-1.7-0.1-3.4-0.1-5.2c-1.2-12.5,7.3-32-7-35.9c-8.5-2.6-18.9,1.3-23.4,7.2c-12.4,16.9-19.5,35.8-39.4,45.4
		c-2,1.3-3.7,2.5-5.4,3.8c-4.3,3-8,6.4-10.6,10.7c-1.3,1.3,0,3.9,1.1,5.1c0.9,1.6,1.9,3.2,3,4.7c6.5,9.1,15.3,16.8,16.6,28.4
		c0.2,2.1,0.2,4.1,0.2,6.2c0,2.1,0,4.1,0,6.3c0,1.8,0,3.5,0,5.3c1.9,14.9,18.2,19.5,25.3,31.2c0.7,1.3,0,2.6-0.7,3.9
		c-8.5,9.8-26,13.7-24.8,29.6c-0.1,2-0.6,3.8-1.4,5.3c-4,7.8-15.2,10.8-20.1,17.8c-9.8,13,15.6,20.2,19.5,33.2c0.7,2.6,2,5.2,2,8.3
		c0,2,0,4.1,0,6.1s0,4.1,0,6.1c0,1.9,0,3.8,0,5.7c1.2,13.5,20.8,16.1,22.1,26.5c2,16.9-24.7,22.1-36,34.8c-1.3,1.3-2.3,2.7-3,4.2
		c-0.7,2-0.7,4.6,0,6.5c5.9,15,11.5,30.1,14.6,45.8c0.4,2.3,0.8,4.5,1.1,6.8c1.2,15.7-17.7,18.9-23.5,31.3c-0.7,1.3,0,2.6,0.7,3.9
		c1.3,1.7,2.8,3.3,4.4,4.7c1.6,1.4,3.2,2.7,4.9,4c12.9,12.2,37.6,21.3,37,37.6c0,10.4-20.8,14.3-22,28.7c-0.1,1.9-0.1,3.8-0.1,5.7
		c-0.7,12.6-13.7,18.4-22.1,25.6c-2,1.3-2.6,3.9-2,5.9c2,4.5,4.6,7.8,7.8,11c1.4,1.4,2.9,2.8,4.6,4.2h79
		C641.2,2000.8,631.3,1995.7,632.5,1987.1z"/>
	<path fill="#162818" d="M2060.8,1990.6c0.9-0.7,1.7-1.4,2.4-2.2c0.7-0.7,1.3-1.5,1.7-2.4c0.7-1.4-0.7-3.3-1.8-4.7
		c-5.8-5.8-12.3-11.2-15.6-18.7c-0.6-1-1.4-1.8-2.3-2.6c-3.5-3.1-8.5-5-11.4-9.1c-0.4-1.1,0-2.2,0.7-2.5c10.1-5.8,20.6-13,18.8-26.1
		c0-1.2,0-2.5,0-3.7c0-6.2,0-12.4,0-18.7c0-1,0-2,0-3c0.3-8.5,12.3-10.4,13.3-17.6c0.7-5.8-8.3-6.9-11.6-12.3
		c-0.5-0.9-1.1-1.8-1.4-2.8s-0.5-2-0.3-3.2c0.7-9.2-10.9-11.8-13.8-19.7c-0.4-0.7,0-1.4,0.4-2.2c4.3-4.7,11.9-6.5,13.3-13.4
		c0-1,0-2.1,0-3.1c0-1.1,0-2.3,0.1-3.4c0.6-6.9,7.5-9.4,11.8-13.7c0.7-1.1,1.4-2.2,1.1-3.3c-3-5.4-9.8-8.6-12.2-14.1
		c-0.5-1.1-0.8-2.3-0.8-3.6c-0.4-8-8-12-12.3-18.5c-0.7-1.1-1.8-2.5-0.7-3.6c2.8-3.8,8.1-5.6,11-9.3c0.6-0.7,1.1-1.6,1.4-2.5
		c0.6-1.2,0.2-2.3,0.2-3.4c-0.7-2.2-1.1-4.3-1.1-6.5c-0.2-0.9-0.3-1.9-0.4-2.8c-0.1-0.9-0.1-1.9-0.1-2.9c-0.7-6.9,4.1-17.8-3.9-20
		c-4.7-1.4-10.5,0.7-13,4c-6.9,9.4-10.9,19.9-21.9,25.2c-1.1,0.7-2.1,1.4-3,2.1c-2.4,1.7-4.4,3.6-5.9,5.9c-0.7,0.7,0,2.2,0.6,2.8
		c0.5,0.9,1.1,1.8,1.7,2.6c3.6,5.1,8.5,9.3,9.2,15.8c0.1,1.2,0.1,2.3,0.1,3.4c0,1.1,0,2.3,0,3.5c0,1,0,2,0,3
		c1,8.3,10.1,10.8,14.1,17.3c0.4,0.7,0,1.4-0.4,2.2c-4.7,5.4-14.5,7.6-13.8,16.5c-0.1,1.1-0.3,2.1-0.8,3c-2.2,4.3-8.4,6-11.1,9.9
		c-5.4,7.2,8.7,11.2,10.9,18.4c0.4,1.4,1.1,2.9,1.1,4.6c0,1.1,0,2.3,0,3.4c0,1.1,0,2.3,0,3.4c0,1.1,0,2.1,0,3.2
		c0.7,7.5,11.5,8.9,12.3,14.7c1.1,9.4-13.7,12.3-20,19.4c-0.7,0.7-1.3,1.5-1.7,2.3c-0.4,1.1-0.4,2.5,0,3.6
		c3.3,8.4,6.4,16.7,8.1,25.5c0.2,1.3,0.5,2.5,0.6,3.8c0.7,8.7-9.8,10.5-13.1,17.4c-0.4,0.7,0,1.4,0.4,2.2c0.7,1,1.5,1.8,2.4,2.6
		c0.9,0.8,1.8,1.5,2.7,2.2c7.1,6.8,20.9,11.8,20.5,20.9c0,5.8-11.6,8-12.2,15.9c0,1.1,0,2.1,0,3.1c-0.2,4.5-3.3,7.4-6.7,10h38.1
		C2048.7,2001.4,2054.4,1995,2060.8,1990.6z"/>
	<path fill="#162818" d="M2399.4,2004.4c0.8-0.7,1.6-1.4,2.3-2.1c0.7-0.7,1.3-1.4,1.7-2.3c0.7-1.4-0.7-3.1-1.7-4.5
		c-5.6-5.6-11.8-10.8-15-18c-0.6-1-1.4-1.8-2.2-2.5c-3.4-3-8.2-4.8-11-8.7c-0.3-1,0-2.1,0.7-2.4c9.7-5.6,19.8-12.5,18.1-25.1
		c0-1.2,0-2.4,0-3.6c0-6,0-12,0-18c0-1,0-1.9,0-2.9c0.3-8.2,11.8-10,12.8-16.9c0.7-5.6-8-6.6-11.1-11.8c-0.5-0.9-1-1.7-1.4-2.7
		c-0.3-0.9-0.5-1.9-0.3-3.1c0.7-8.9-10.5-11.3-13.2-19c-0.3-0.7,0-1.4,0.3-2.1c4.2-4.5,11.5-6.3,12.8-12.9c0-1,0-2,0-3
		c0-1.1,0-2.2,0.1-3.3c0.6-6.6,7.2-9,11.4-13.2c0.7-1,1.4-2.1,1-3.1c-2.9-5.2-9.4-8.3-11.7-13.5c-0.5-1.1-0.7-2.2-0.8-3.5
		c-0.4-7.7-7.7-11.5-11.8-17.8c-0.7-1-1.7-2.4-0.7-3.5c2.7-3.6,7.8-5.4,10.6-9c0.6-0.7,1-1.5,1.4-2.4c0.6-1.2,0.2-2.2,0.2-3.2
		c-0.7-2.1-1-4.2-1-6.3c-0.2-0.9-0.3-1.8-0.3-2.7c-0.1-0.9-0.1-1.8-0.1-2.8c-0.6-6.7,3.9-17.1-3.8-19.2c-4.5-1.4-10.1,0.7-12.5,3.8
		c-6.6,9-10.4,19.1-21,24.3c-1.1,0.7-2,1.3-2.9,2c-2.3,1.6-4.3,3.4-5.6,5.7c-0.7,0.7,0,2.1,0.6,2.7c0.5,0.9,1,1.7,1.6,2.5
		c3.5,4.9,8.2,9,8.9,15.2c0.1,1.1,0.1,2.2,0.1,3.3c0,1.1,0,2.2,0,3.3c0,0.9,0,1.9,0,2.8c1,8,9.7,10.4,13.5,16.7
		c0.3,0.7,0,1.4-0.3,2.1c-4.5,5.2-13.9,7.3-13.2,15.8c-0.1,1.1-0.3,2-0.7,2.8c-2.1,4.2-8.1,5.7-10.7,9.5c-5.2,7,8.4,10.8,10.4,17.7
		c0.3,1.4,1,2.8,1.1,4.5c0,1.1,0,2.2,0,3.3s0,2.2,0,3.3c0,1,0,2,0,3c0.7,7.2,11.1,8.6,11.8,14.2c1,9-13.2,11.8-19.3,18.6
		c-0.7,0.7-1.2,1.4-1.6,2.3c-0.3,1-0.3,2.4,0,3.5c3.2,8,6.2,16.1,7.8,24.5c0.2,1.2,0.4,2.4,0.6,3.7c0.7,8.4-9.4,10.1-12.6,16.7
		c-0.3,0.7,0,1.4,0.3,2.1c0.7,0.9,1.5,1.7,2.3,2.5c0.8,0.8,1.7,1.4,2.6,2.1c6.9,6.5,20.1,11.4,19.7,20.1c0,5.5-10.7,7.6-11.7,14.9
		h38.2C2395.6,2007.2,2397.4,2005.7,2399.4,2004.4z"/>
</g>
<g>
	<path d="M2709.6,1475.2c0,0-31,410.5,76.9,448.3v-36.9c0,0-84.6-21.7-63.2-407.1L2709.6,1475.2z"/>
	<ellipse fill="#FFED00" stroke="#000000" stroke-width="8" stroke-miterlimit="10" cx="2274.2" cy="1234" rx="292.2" ry="263.3"/>
	<path fill="#448CCA" stroke="#000000" stroke-width="8" stroke-miterlimit="10" d="M1982,1234c0,36.5,8.2,71.2,23.1,102.7
		c31,10.1,64.4,15.6,99.2,15.6c161.4,0,292.2-117.9,292.2-263.3c0-36.5-8.2-71.2-23.1-102.7c-31-10.1-64.4-15.6-99.2-15.6
		C2112.8,970.7,1982,1088.6,1982,1234z"/>
	<g>
		<path fill="#448CCA" stroke="#000000" stroke-width="8" stroke-miterlimit="10" d="M1985.5,1274.8c0-0.2-0.1-0.4-0.1-0.6
			C1985.4,1274.4,1985.5,1274.6,1985.5,1274.8z"/>
		<path fill="#448CCA" stroke="#000000" stroke-width="8" stroke-miterlimit="10" d="M1983.7,1262.2c-0.1-0.4-0.1-0.8-0.2-1.3
			C1983.6,1261.4,1983.7,1261.8,1983.7,1262.2z"/>
		<path fill="#448CCA" stroke="#000000" stroke-width="8" stroke-miterlimit="10" d="M1984.5,1268.5c0-0.3-0.1-0.6-0.1-0.9
			C1984.4,1267.9,1984.5,1268.2,1984.5,1268.5z"/>
		<path fill="#448CCA" stroke="#000000" stroke-width="8" stroke-miterlimit="10" d="M1983,1255.8c0-0.5-0.1-1-0.2-1.5
			C1982.9,1254.8,1983,1255.3,1983,1255.8z"/>
		<path fill="#448CCA" stroke="#000000" stroke-width="8" stroke-miterlimit="10" d="M1982.2,1242.6c0-0.6-0.1-1.2-0.1-1.9
			C1982.1,1241.4,1982.2,1242,1982.2,1242.6z"/>
		<path fill="#448CCA" stroke="#000000" stroke-width="8" stroke-miterlimit="10" d="M1982.5,1249.5c0-0.6-0.1-1.3-0.1-1.9
			C1982.4,1248.2,1982.5,1248.8,1982.5,1249.5z"/>
		<path fill="#448CCA" stroke="#000000" stroke-width="8" stroke-miterlimit="10" d="M1989.6,1293.7
			C1989.6,1293.6,1989.6,1293.6,1989.6,1293.7C1989.6,1293.6,1989.6,1293.6,1989.6,1293.7z"/>
		<polygon fill="#448CCA" stroke="#000000" stroke-width="8" stroke-miterlimit="10" points="2005.1,1336.7 2005.1,1336.7 
			2005.1,1336.7 		"/>
		<path fill="#448CCA" stroke="#000000" stroke-width="8" stroke-miterlimit="10" d="M1988.1,1287.4c0-0.1,0-0.2-0.1-0.3
			C1988,1287.3,1988,1287.4,1988.1,1287.4z"/>
		<path fill="#448CCA" stroke="#000000" stroke-width="8" stroke-miterlimit="10" d="M1986.7,1281.2c0-0.2-0.1-0.3-0.1-0.5
			C1986.6,1280.9,1986.7,1281,1986.7,1281.2z"/>
		<path fill="#448CCA" stroke="#000000" stroke-width="8" stroke-miterlimit="10" d="M1983.2,1210.7c0.7-6.8,1.6-13.6,2.9-20.3
			C1984.8,1197,1983.8,1203.8,1983.2,1210.7z"/>
		<path fill="#448CCA" stroke="#000000" stroke-width="8" stroke-miterlimit="10" d="M1982.4,1221.7c0.1-1,0.1-2,0.2-3
			C1982.5,1219.7,1982.4,1220.7,1982.4,1221.7z"/>
		<path fill="#448CCA" stroke="#000000" stroke-width="8" stroke-miterlimit="10" d="M1982.7,1215.9c0.1-1.2,0.2-2.4,0.3-3.6
			C1982.9,1213.5,1982.8,1214.7,1982.7,1215.9z"/>
		<path fill="#448CCA" stroke="#000000" stroke-width="8" stroke-miterlimit="10" d="M1982.1,1227.8c0-0.8,0.1-1.6,0.1-2.3
			C1982.2,1226.2,1982.1,1227,1982.1,1227.8z"/>
		<path opacity="0.26" stroke="#000000" stroke-width="8" stroke-miterlimit="10" d="M1986.6,1280.7c-0.4-2-0.7-3.9-1.1-5.9
			C1985.9,1276.8,1986.2,1278.7,1986.6,1280.7z"/>
		<path opacity="0.26" stroke="#000000" stroke-width="8" stroke-miterlimit="10" d="M2566.3,1232.9
			c-23.1,124.7-144.1,214.1-288.9,214.1c-94.7,0-178.6-38.7-231.8-100.1c-13.9-2.6-27.4-6-40.5-10.2
			c44.4,94.4,148.2,160.6,269.1,160.6c161.4,0,292.2-117.9,292.2-263.3C2566.3,1233.6,2566.3,1233.3,2566.3,1232.9z"/>
		<path opacity="0.26" stroke="#000000" stroke-width="8" stroke-miterlimit="10" d="M1982,1234c0-2.1,0-4.1,0.1-6.2
			C1982.1,1229.8,1982,1231.9,1982,1234z"/>
		<path opacity="0.26" stroke="#000000" stroke-width="8" stroke-miterlimit="10" d="M1983,1212.3c0.1-0.6,0.1-1.1,0.2-1.7
			C1983.1,1211.2,1983.1,1211.8,1983,1212.3z"/>
		<path opacity="0.26" stroke="#000000" stroke-width="8" stroke-miterlimit="10" d="M1989.5,1293.6c-0.5-2-1-4.1-1.5-6.2
			C1988.5,1289.5,1989,1291.6,1989.5,1293.6z"/>
		<path opacity="0.26" stroke="#000000" stroke-width="8" stroke-miterlimit="10" d="M2005.1,1336.7c-6.5-13.8-11.7-28.2-15.5-43.1
			C1993.4,1308.5,1998.6,1322.9,2005.1,1336.7z"/>
		<path opacity="0.26" stroke="#000000" stroke-width="8" stroke-miterlimit="10" d="M1988,1287.2c-0.5-2-0.9-4-1.3-6
			C1987.1,1283.2,1987.5,1285.2,1988,1287.2z"/>
		<polygon opacity="0.26" stroke="#000000" stroke-width="8" stroke-miterlimit="10" points="1986,1190.4 1986,1190.4 1986,1190.4 
					"/>
		<path opacity="0.26" stroke="#000000" stroke-width="8" stroke-miterlimit="10" d="M1982.4,1247.6c-0.1-1.6-0.1-3.3-0.2-4.9
			C1982.3,1244.3,1982.3,1245.9,1982.4,1247.6z"/>
		<path opacity="0.26" stroke="#000000" stroke-width="8" stroke-miterlimit="10" d="M1982.9,1254.3c-0.1-1.6-0.2-3.2-0.3-4.8
			C1982.6,1251.1,1982.7,1252.7,1982.9,1254.3z"/>
		<path opacity="0.26" stroke="#000000" stroke-width="8" stroke-miterlimit="10" d="M1982.2,1225.5c0-1.2,0.1-2.5,0.2-3.7
			C1982.3,1223,1982.2,1224.2,1982.2,1225.5z"/>
		<path opacity="0.26" stroke="#000000" stroke-width="8" stroke-miterlimit="10" d="M1982.1,1240.8c-0.1-2.3-0.1-4.5-0.1-6.8
			C1982,1236.3,1982.1,1238.5,1982.1,1240.8z"/>
		<path opacity="0.26" stroke="#000000" stroke-width="8" stroke-miterlimit="10" d="M1984.4,1267.6c-0.3-1.8-0.5-3.6-0.7-5.4
			C1983.9,1264,1984.1,1265.8,1984.4,1267.6z"/>
		<path opacity="0.26" stroke="#000000" stroke-width="8" stroke-miterlimit="10" d="M1985.4,1274.2c-0.3-1.9-0.6-3.8-0.9-5.7
			C1984.8,1270.4,1985.1,1272.3,1985.4,1274.2z"/>
		<path opacity="0.26" stroke="#000000" stroke-width="8" stroke-miterlimit="10" d="M1983.5,1261c-0.2-1.7-0.4-3.4-0.5-5.1
			C1983.2,1257.5,1983.3,1259.3,1983.5,1261z"/>
		<path opacity="0.26" stroke="#000000" stroke-width="8" stroke-miterlimit="10" d="M1982.5,1218.7c0.1-0.9,0.1-1.9,0.2-2.8
			C1982.7,1216.8,1982.6,1217.8,1982.5,1218.7z"/>
	</g>
	<g>
		<path fill="#E94E1B" stroke="#000000" stroke-width="8" stroke-miterlimit="10" d="M2943.2,1194.7c-2.5-1.6-5.1-3.3-7.8-4.8
			c-6.8-4-14-7.8-21.4-11.3c20.9,20.9,35.4,68.1,35.4,123c0,53.3-13.7,99.2-33.6,121c5.7-2.7,11.3-5.6,16.6-8.7
			c4.7-2.7,9.2-5.5,13.5-8.4c17.8-17.5,30.2-57.5,30.2-104.2C2976.1,1252.4,2962.4,1210.6,2943.2,1194.7z"/>
		<path fill="#FFED00" stroke="#000000" stroke-width="8" stroke-miterlimit="10" d="M2913.8,1178.2c-8.8-4.1-18-7.9-27.6-11.2
			c-33.8-11.7-72.6-18.4-113.8-18.4c-131.9,0-238.7,68.1-238.7,152c0,83.9,106.9,152,238.7,152c40.3,0,78.3-6.4,111.7-17.7
			c11.1-3.7,21.7-8,31.7-12.8c19.9-21.8,33.6-67.8,33.6-121C2949.2,1246.3,2934.7,1199.1,2913.8,1178.2z"/>
	</g>
	<path fill="#E94E1B" stroke="#000000" stroke-width="8" stroke-miterlimit="10" d="M2970.4,1052.1L2970.4,1052.1
		c1.2,49.7-38.2,90.9-87.9,92.1l-71.1,1.7c-49.7,1.2-90.9-38.2-92.1-87.9v0c-1.2-49.7,38.2-90.9,87.9-92.1l71.1-1.7
		C2928,963.1,2969.2,1002.4,2970.4,1052.1z"/>
	<path fill="#E94E1B" stroke="#000000" stroke-width="8" stroke-miterlimit="10" d="M2525.8,1566.5l-60.8,1.3
		c-49.7,1.1-90.8-38.4-91.9-88v0c-1.1-49.7,38.4-90.8,88-91.9l60.8-1.3c49.7-1.1,90.8,38.4,91.9,88v0
		C2614.9,1524.3,2575.5,1565.4,2525.8,1566.5z"/>
	
		<ellipse transform="matrix(0.8634 -0.5045 0.5045 0.8634 -253.1778 1453.9916)" fill="#FFFFFF" stroke="#000000" stroke-width="8" stroke-miterlimit="10" cx="2558.9" cy="1194.6" rx="63.7" ry="64.4"/>
	
		<ellipse transform="matrix(0.8634 -0.5045 0.5045 0.8634 -227.9836 1547.0586)" fill="#FFFFFF" stroke="#000000" stroke-width="8" stroke-miterlimit="10" cx="2743.4" cy="1194.6" rx="63.7" ry="64.4"/>
	<ellipse fill="#FFFFFF" stroke="#000000" stroke-width="8" stroke-miterlimit="10" cx="2496" cy="986.8" rx="28" ry="9.3"/>
	
		<rect x="2405.7" y="703.3" fill="#FFED00" stroke="#000000" stroke-width="8" stroke-miterlimit="10" width="139.4" height="104.8"/>
	
		<rect x="2440.3" y="808.1" fill="#FFED00" stroke="#000000" stroke-width="8" stroke-miterlimit="10" width="104.8" height="206.8"/>
	<path fill="#FFED00" stroke="#000000" stroke-width="8" stroke-miterlimit="10" d="M2585.4,1041h-175.7c-7.3,0-13.2-5.9-13.2-13.2
		V852.1c0-7.3,5.9-13.2,13.2-13.2h175.7c7.3,0,13.2,5.9,13.2,13.2l53.3,188.9C2651.8,1048.3,2592.6,1041,2585.4,1041z"/>
	<path fill="#FFED00" stroke="#000000" stroke-width="8" stroke-miterlimit="10" d="M2913.7,1233.6c0-145.8-185.7-264-414.7-264
		c-7.6,0-15.2,0.1-22.7,0.4h-201.4v41.5c-0.2,0.1-0.5,0.2-0.7,0.3v443.7c0.2,0.1,0.5,0.2,0.7,0.3v41.9h224.6v0
		C2728.3,1497.5,2913.7,1379.3,2913.7,1233.6z"/>
	<ellipse fill="#48B5E8" stroke="#000000" stroke-width="8" stroke-miterlimit="10" cx="2405.7" cy="755.7" rx="17.5" ry="52.4"/>
	<circle fill="#48B5E8" stroke="#000000" stroke-width="8" stroke-miterlimit="10" cx="2393.2" cy="1116.5" r="52.2"/>
	<circle fill="#48B5E8" stroke="#000000" stroke-width="8" stroke-miterlimit="10" cx="2557.9" cy="1116.5" r="52.2"/>
	<circle fill="#48B5E8" stroke="#000000" stroke-width="8" stroke-miterlimit="10" cx="2722.7" cy="1116.5" r="52.2"/>
	<path opacity="0.11" d="M2306.5,1315.4v13.4c0,33.4,37.3,60.4,83.4,60.4h69.4c46.1,0,83.4-27.1,83.4-60.4v-13.4"/>
	<path fill="#E94E1B" stroke="#000000" stroke-width="8" stroke-miterlimit="10" d="M2306.5,1290.8v13.4c0,33.4,37.3,60.4,83.4,60.4
		h69.4c46.1,0,83.4-27.1,83.4-60.4v-13.4"/>
	<path opacity="0.21" stroke="#000000" stroke-width="8" stroke-miterlimit="10" d="M2551.3,1446.7c0,0-148.6,1.6-277.1,0.5v49.9
		c0.9,0,1.8,0,2.7,0c1.3,0,2.7,0,4-0.1v0.4h224.6v0c213.7-0.1,389.5-103.2,411.8-235.4C2723.3,1463.5,2551.3,1446.7,2551.3,1446.7z"
		/>
	<g>
		<path fill="#E94E1B" stroke="#000000" stroke-width="8" stroke-miterlimit="10" d="M2968.5,1240.7c-2.5-1.6-5.1-3.3-7.8-4.8
			c-6.8-4-14-7.8-21.4-11.3c20.9,20.9,35.4,68.1,35.4,123c0,53.3-13.7,99.2-33.6,121c5.7-2.7,11.3-5.6,16.6-8.7
			c4.7-2.7,9.2-5.5,13.5-8.4c17.8-17.5,30.2-57.5,30.2-104.2C3001.5,1298.4,2987.7,1256.6,2968.5,1240.7z"/>
		<path fill="#FFED00" stroke="#000000" stroke-width="8" stroke-miterlimit="10" d="M2939.1,1224.2c-8.8-4.1-18-7.9-27.6-11.2
			c-33.8-11.7-72.6-18.4-113.8-18.4c-131.9,0-238.7,68.1-238.7,152c0,83.9,106.9,152,238.7,152c40.3,0,78.3-6.4,111.7-17.7
			c11.1-3.7,21.7-8,31.7-12.8c19.9-21.8,33.6-67.8,33.6-121C2974.5,1292.3,2960,1245.1,2939.1,1224.2z"/>
	</g>
	<path opacity="0.25" d="M2961.3,1420c-0.1,0.3-0.1,0.5-0.2,0.8c-166.8,87-329.7,6.2-402.2-41c20.9,70.4,118,123.6,234.6,123.6
		c40.3,0,78.3-6.4,111.7-17.7c11.1-3.7,21.7-8,31.7-12.8c0.1-0.1,0.1-0.1,0.2-0.2c5.3-2.6,10.5-5.3,15.5-8.2
		c4.7-2.7,9.2-5.5,13.5-8.4c10.9-10.6,19.7-29.7,25-53.6C2981.1,1409.1,2971.2,1414.8,2961.3,1420z"/>
	
		<line opacity="0.25" fill="none" stroke="#000000" stroke-width="8" stroke-miterlimit="10" x1="2306.5" y1="1290.8" x2="2549" y2="1290.8"/>
	<g>
		<path fill="#ADADAD" stroke="#000000" stroke-width="4" stroke-miterlimit="10" d="M2895,2008.9h19c10.1-22,7.6-48.8-8.8-68.8
			c-5.3,7.9-5.3,7.9-7.6,10.5C2909.4,1967.3,2910.7,1989.6,2895,2008.9z"/>
		<path fill="#ADADAD" stroke="#000000" stroke-width="4" stroke-miterlimit="10" d="M2797.2,1920.7l17.6,21.5l-26.4,21.6l6.7,8.2
			l26.4-21.6l47.8,58.5h15.4l-54-66l26.6-21.8l-6.7-8.2l-26.6,21.8l-17.6-21.5c4.7-7.1,4.5-16.7-1.2-23.7c-7-8.6-19.6-9.8-28.2-2.8
			c-8.6,7-9.8,19.6-2.8,28.2C2779.9,1921.7,2789.2,1923.8,2797.2,1920.7z M2782.5,1893.3c4.8-3.9,11.9-3.2,15.9,1.6
			c3.5,4.3,3.3,10.4-0.2,14.5l-3.1,2.5c-4.7,2.6-10.7,1.6-14.2-2.7C2777,1904.4,2777.7,1897.3,2782.5,1893.3z"/>
	</g>
</g>
<g>
	
		<circle opacity="0.17" fill="#448CCA" stroke="#FFFFFF" stroke-width="4" stroke-miterlimit="10" cx="672.2" cy="1261.6" r="48.4"/>
	
		<circle opacity="0.17" fill="#448CCA" stroke="#FFFFFF" stroke-width="4" stroke-miterlimit="10" cx="738.1" cy="1454.7" r="20.1"/>
	
		<circle opacity="0.17" fill="#448CCA" stroke="#FFFFFF" stroke-width="4" stroke-miterlimit="10" cx="642.7" cy="1401.8" r="20.1"/>
	
		<circle opacity="0.17" fill="#448CCA" stroke="#FFFFFF" stroke-width="4" stroke-miterlimit="10" cx="707.6" cy="1604.6" r="20.1"/>
	<circle opacity="0.17" fill="#448CCA" stroke="#FFFFFF" stroke-width="4" stroke-miterlimit="10" cx="778.2" cy="1717" r="20.1"/>
	
		<circle opacity="0.17" fill="#448CCA" stroke="#FFFFFF" stroke-width="4" stroke-miterlimit="10" cx="672.2" cy="1814.2" r="20.1"/>
	
		<circle opacity="0.17" fill="#448CCA" stroke="#FFFFFF" stroke-width="4" stroke-miterlimit="10" cx="642.7" cy="1663.1" r="31.8"/>
	
		<circle opacity="0.17" fill="#448CCA" stroke="#FFFFFF" stroke-width="4" stroke-miterlimit="10" cx="655.6" cy="1536.8" r="31.8"/>
</g>
<g>
	
		<circle opacity="0.17" fill="#448CCA" stroke="#FFFFFF" stroke-width="4" stroke-miterlimit="10" cx="2143.5" cy="1687.7" r="24.2"/>
	
		<circle opacity="0.17" fill="#448CCA" stroke="#FFFFFF" stroke-width="4" stroke-miterlimit="10" cx="2110.4" cy="1784.5" r="10.1"/>
	<circle opacity="0.17" fill="#448CCA" stroke="#FFFFFF" stroke-width="4" stroke-miterlimit="10" cx="2158.3" cy="1758" r="10.1"/>
	
		<circle opacity="0.17" fill="#448CCA" stroke="#FFFFFF" stroke-width="4" stroke-miterlimit="10" cx="2125.7" cy="1859.6" r="10.1"/>
	
		<circle opacity="0.17" fill="#448CCA" stroke="#FFFFFF" stroke-width="4" stroke-miterlimit="10" cx="2090.3" cy="1915.9" r="10.1"/>
	
		<circle opacity="0.17" fill="#448CCA" stroke="#FFFFFF" stroke-width="4" stroke-miterlimit="10" cx="2143.5" cy="1964.7" r="10.1"/>
	<circle opacity="0.17" fill="#448CCA" stroke="#FFFFFF" stroke-width="4" stroke-miterlimit="10" cx="2158.3" cy="1889" r="15.9"/>
	
		<circle opacity="0.17" fill="#448CCA" stroke="#FFFFFF" stroke-width="4" stroke-miterlimit="10" cx="2151.8" cy="1825.7" r="15.9"/>
</g>
<path fill="#151A30" d="M2472.4,2008.9h204.8c-45.1-84.3-138.5-130.3-233.6-119.7c4.3,7.7,8.2,15.7,11.7,24
	C2468.3,1944.4,2473.7,1977,2472.4,2008.9z"/>
<path fill="#151A30" d="M1178.6,2008.9c-17.7-53.3-17-113.6,6.5-170.4c9.2-22.2,21.2-42.3,35.4-60.1
	c-112-31.5-233.7,28.1-280.8,141.9c-12,29.1-18.1,59.1-18.7,88.6H1178.6z"/>
</svg>
