<?xml version="1.0" encoding="utf-8"?>
<!-- Generator: Adobe Illustrator 18.0.0, SVG Export Plug-In . SVG Version: 6.00 Build 0)  -->
<!DOCTYPE svg PUBLIC "-//W3C//DTD SVG 1.1//EN" "http://www.w3.org/Graphics/SVG/1.1/DTD/svg11.dtd">
<svg version="1.1" id="Layer_1" xmlns="http://www.w3.org/2000/svg" xmlns:xlink="http://www.w3.org/1999/xlink" x="0px" y="0px"
	 viewBox="0 0 3164.9 2010.9" enable-background="new 0 0 3164.9 2010.9" xml:space="preserve">
<g>
	<linearGradient id="SVGID_1_" gradientUnits="userSpaceOnUse" x1="1582.449" y1="5256.8174" x2="1582.449" y2="-14.5944">
		<stop  offset="0.228" style="stop-color:#010202"/>
		<stop  offset="0.508" style="stop-color:#006633"/>
		<stop  offset="0.796" style="stop-color:#36A9E1"/>
		<stop  offset="0.96" style="stop-color:#FFFFFF"/>
	</linearGradient>
	<path fill="url(#SVGID_1_)" d="M3186.8,1.2c0-2.6,0-4.9,0-6.8c0-5.9,0-9,0-9s-899.3,0-1745.5,0c-3.1,0-6.3,0-9.4,0
		c-5.8,0.1-12.9,0.1-18.9,0c-3.1,0-6.3,0-9.4,0c-737.7,0-1424,0-1424,0s0,5.5,0,15.8c0,2.6,0,5.5,0,8.7c-4.3,32.9-2.2,65.3,0,97.5
		c0,3.4,0,6.8,0,10.2c0,34.1,0,461.9,0,506.5c43.5-7.1,84.1-2,127.6-11.1c59.9-14.2,119.7-3,178.6,9.4c3-0.3,6.1-0.8,9.1-1.3
		c28.4-3,61.9-27.4,88.3-5.1c1.7,1.5,3.6,2.8,5.6,3.8c2,1,4.2,1.8,6.5,2.4c3.4,0.3,6.7,0.5,10,0.6c3.3,0.1,6.7,0.2,10,0.2
		c73.4,7.3,145.4-9,218.4-10c3.6-0.1,7.1-0.2,10.7-0.3c21.8,0.3,40.1-7.9,60.4-12.9c20.3-6.1,32.5,9.1,48.7,15.2
		c6.1,2,12.2,3,18.5,2.4c3.5,0,7.1-0.1,10.7-0.2c7.2-0.2,14.4-0.6,21.6-1.2c3.5-0.3,7-0.5,10.4-0.6c3.5-0.1,7-0.2,10.5-0.3
		c27.8,0.9,52.1-9.2,77.5-17.3c10.1-3,23.3-9.1,30.4,1c11.2,15.2,26.4,22.3,44.4,19.1c2.5-0.2,4.9-0.4,7.4-0.6
		c7.4-0.6,14.8-1.4,22.3-2.3c16.2-3,32.5,1,48.4,3.8c2.8,0.4,5.7,0.7,8.5,1.1c76.1,10.4,150.1-4.8,224.2-17
		c72,40.6,163.3,14.2,239.4-8.1c19.3-5.1,23.3,11.2,24.3,27.4c0,2,3,3,5.1,3c12.2-1,22.3-9.1,34.5-9.1c13.9,0.3,27.6,1.7,41.3,3.2
		c3.4,0.4,6.9,0.8,10.3,1.1c20.4,5.8,38.7-1.3,56.9-11.4c6.1-4.1,15.2,3,23.3,3c49.7,2,99.4-5.1,149.5,2c3.5-0.1,7-0.1,10.5-0.1
		c10.5-0.1,21.1,0,31.7,0.2c14.2,1,27.4,0,41.4-0.9c3.8-0.1,7.5-0.2,11.3-0.3c3.8-0.1,7.5-0.1,11.3-0.1c3.8,0,7.5,0,11.3,0.1
		c17.1,1.2,32.3-4.8,46.5-14c31.5-19.3,61.9,22.3,96,23.6c3.2,0.3,6.3,0.4,9.5,0.6c3.1,0,6.2,0,9.4,0c8.5,0,17,0,25.5,0
		c2.8,0,5.7,0,8.5,0c15.5,0.1,29.7-2.9,41.9-14.1c5.1-3,12.2-5.1,18.3-5.1c18.3,0,35.5,9.1,53.8,4.1c48.7-12.2,96.4-9.1,145.1-6.8
		c3.9,0,7.7,0,11.6,0.1c3.9,0.1,7.8,0.3,11.6,0.5c30.4,2,58.8,17.2,88.9,15.4c3.5-0.3,6.9-0.6,10.4-0.9c20.8-1.8,41.6-3.1,62.7-2.8
		c3.7-0.4,7.3-0.8,11-1.2c15.5-1.5,31-2.5,46.6-2.9c3.9-0.1,7.8-0.2,11.6-0.2c11.3-0.3,22.4,1.7,32.6-1.3
		c32.5-10.1,64.9-1,94.9,10.8c4,0.8,7.8,1.5,11.6,2.1c3.8,0.6,7.7,1.3,11.5,2c32.1-4.7,60.5-23,95-15.9c18.3,3,35.5,7.1,53.9,6.8
		c3.9,0.2,7.7,0.3,11.6,0.6c3.9,0.2,7.7,0.5,11.6,0.7c15.4,1.2,30.8,2.2,46.3,3.2c3.9,0.2,7.8,0.5,11.6,0.7
		c14.1,0.2,25.2-10,37.4-16.1c6.1-3,13.2-4.1,20.3-1c16.2,7.1,29.4,21.3,47.6,21.2c1.1,0,1.7,0,1.7,0c0-48.6,0-479.5,0-515.6
		c0-3.3,0-6.6,0-9.9C3188.3,65.5,3188.3,34.1,3186.8,1.2z"/>
	<path opacity="0.4" fill="#01615E" d="M-20.7,624.2c0,0,0,5.1,0.2,7.7c0-2.6,0-5.2,0-7.7C-20.6,624.1-20.6,624.1-20.7,624.2z"/>
	<linearGradient id="SVGID_2_" gradientUnits="userSpaceOnUse" x1="104.7909" y1="2060.5276" x2="104.7909" y2="-14.5947">
		<stop  offset="0.228" style="stop-color:#010202"/>
		<stop  offset="0.508" style="stop-color:#006633"/>
		<stop  offset="0.82" style="stop-color:#36A9E1"/>
		<stop  offset="1" style="stop-color:#FFFFFF"/>
	</linearGradient>
	<path fill="url(#SVGID_2_)" d="M118.3,1742c-0.8-6.1-7.6-9.5-13.5-13.9c-3.7,2.3-7.4,4.5-11.1,6.6c-2,1-3,4.1-2,7.1
		c4.8,6.8,11.7,11.4,18.6,15.9C115.5,1753.5,119,1748.6,118.3,1742z"/>
	<path opacity="0.4" fill="#01615E" d="M118.3,1742c-0.8-6.1-7.6-9.5-13.5-13.9c-3.7,2.3-7.4,4.5-11.1,6.6c-2,1-3,4.1-2,7.1
		c4.8,6.8,11.7,11.4,18.6,15.9C115.5,1753.5,119,1748.6,118.3,1742z"/>
	<linearGradient id="SVGID_3_" gradientUnits="userSpaceOnUse" x1="2871.8489" y1="2060.5276" x2="2871.8489" y2="-14.5947">
		<stop  offset="0.228" style="stop-color:#010202"/>
		<stop  offset="0.508" style="stop-color:#006633"/>
		<stop  offset="0.82" style="stop-color:#36A9E1"/>
		<stop  offset="1" style="stop-color:#FFFFFF"/>
	</linearGradient>
	<path fill="url(#SVGID_3_)" d="M2858,1694.7c-0.5,1.1-1.1,2.2-0.5,3.2c4.3,11.8,21.5,15.6,20.5,29.4c-0.3,1.7,0,3.3,0.5,4.7
		c0.5,1.4,1.3,2.8,2.1,4.1c1.1,1.9,2.8,3.4,4.5,4.8c1-3,1.5-6.4,1.2-10.2c-0.4-3.6-1-7.1-1.7-10.7c-2.5-13-6.2-25.7-10.4-38.3
		C2869.8,1686.9,2862.7,1689.7,2858,1694.7z"/>
	<path opacity="0.4" fill="#01615E" d="M2858,1694.7c-0.5,1.1-1.1,2.2-0.5,3.2c4.3,11.8,21.5,15.6,20.5,29.4c-0.3,1.7,0,3.3,0.5,4.7
		c0.5,1.4,1.3,2.8,2.1,4.1c1.1,1.9,2.8,3.4,4.5,4.8c1-3,1.5-6.4,1.2-10.2c-0.4-3.6-1-7.1-1.7-10.7c-2.5-13-6.2-25.7-10.4-38.3
		C2869.8,1686.9,2862.7,1689.7,2858,1694.7z"/>
	<linearGradient id="SVGID_4_" gradientUnits="userSpaceOnUse" x1="2885.7122" y1="2060.5276" x2="2885.7122" y2="-14.5947">
		<stop  offset="0.228" style="stop-color:#010202"/>
		<stop  offset="0.508" style="stop-color:#006633"/>
		<stop  offset="0.82" style="stop-color:#36A9E1"/>
		<stop  offset="1" style="stop-color:#FFFFFF"/>
	</linearGradient>
	<path fill="url(#SVGID_4_)" d="M2877.9,1818.5c2.7,19.4-12.9,30.2-28,38.8c-1.1,0.5-1.6,2.2-1.1,3.8c4.3,6.1,11.7,8.9,17,13.5
		c1.3,1.2,2.5,2.4,3.5,3.9c4.1,9.4,11.7,16.7,19.1,23.9c0,0,0,0,0,0c1.9-22.3,34.3-28.4,34.3-44.6c0.8-20.6-24.6-33.9-44.9-48.4
		c0,1.2,0,2.4,0,3.7C2877.9,1814.8,2877.9,1816.7,2877.9,1818.5z"/>
	<path opacity="0.4" fill="#01615E" d="M2877.9,1818.5c2.7,19.4-12.9,30.2-28,38.8c-1.1,0.5-1.6,2.2-1.1,3.8
		c4.3,6.1,11.7,8.9,17,13.5c1.3,1.2,2.5,2.4,3.5,3.9c4.1,9.4,11.7,16.7,19.1,23.9c0,0,0,0,0,0c1.9-22.3,34.3-28.4,34.3-44.6
		c0.8-20.6-24.6-33.9-44.9-48.4c0,1.2,0,2.4,0,3.7C2877.9,1814.8,2877.9,1816.7,2877.9,1818.5z"/>
	<linearGradient id="SVGID_5_" gradientUnits="userSpaceOnUse" x1="3014.4045" y1="2060.5276" x2="3014.4045" y2="-14.5947">
		<stop  offset="0.228" style="stop-color:#010202"/>
		<stop  offset="0.508" style="stop-color:#006633"/>
		<stop  offset="0.82" style="stop-color:#36A9E1"/>
		<stop  offset="1" style="stop-color:#FFFFFF"/>
	</linearGradient>
	<path fill="url(#SVGID_5_)" d="M3036.1,2003.3c0-1.5,0-3.1,0.1-4.7c1-11.8,18.2-15.1,18.2-23.7c0.5-13.5-19.9-21-30.6-31.1
		c-1.4-1-2.8-2.1-4.1-3.3c-1.3-1.2-2.5-2.4-3.6-3.9c-0.5-1.1-1.1-2.2-0.5-3.2c4.8-10.2,20.5-12.9,19.4-25.9
		c-0.2-1.9-0.6-3.8-0.9-5.7c-1.7-8.9-4.4-17.4-7.5-25.9c-1.1,2.1-2.6,3.9-4.3,5.6c-2,2.3-4.3,4.2-6.7,6.3
		c-20.9,14.5-39.2,36.8-41.2,62.2c-2,15.2,18.3,23.3,20,39.5c0.2,2.4,0.2,4.8,0.3,7.1c0,5.5,0,10.8,0,15.8c0,2.5,0,4.9,0.1,7.3
		c0.1,1.3,0.2,2.6,0.4,3.9h23.8C3026,2018,3035.6,2013.1,3036.1,2003.3z"/>
	<path opacity="0.4" fill="#01615E" d="M3036.1,2003.3c0-1.5,0-3.1,0.1-4.7c1-11.8,18.2-15.1,18.2-23.7c0.5-13.5-19.9-21-30.6-31.1
		c-1.4-1-2.8-2.1-4.1-3.3c-1.3-1.2-2.5-2.4-3.6-3.9c-0.5-1.1-1.1-2.2-0.5-3.2c4.8-10.2,20.5-12.9,19.4-25.9
		c-0.2-1.9-0.6-3.8-0.9-5.7c-1.7-8.9-4.4-17.4-7.5-25.9c-1.1,2.1-2.6,3.9-4.3,5.6c-2,2.3-4.3,4.2-6.7,6.3
		c-20.9,14.5-39.2,36.8-41.2,62.2c-2,15.2,18.3,23.3,20,39.5c0.2,2.4,0.2,4.8,0.3,7.1c0,5.5,0,10.8,0,15.8c0,2.5,0,4.9,0.1,7.3
		c0.1,1.3,0.2,2.6,0.4,3.9h23.8C3026,2018,3035.6,2013.1,3036.1,2003.3z"/>
	<linearGradient id="SVGID_6_" gradientUnits="userSpaceOnUse" x1="2878.8394" y1="2060.5276" x2="2878.8394" y2="-14.5947">
		<stop  offset="0.228" style="stop-color:#010202"/>
		<stop  offset="0.508" style="stop-color:#006633"/>
		<stop  offset="0.82" style="stop-color:#36A9E1"/>
		<stop  offset="1" style="stop-color:#FFFFFF"/>
	</linearGradient>
	<path fill="url(#SVGID_6_)" d="M2873,1936.5c4.7-3.8,8.9-8,11.7-13C2880.2,1927.2,2876.1,1931.6,2873,1936.5z"/>
	<path opacity="0.4" fill="#01615E" d="M2873,1936.5c4.7-3.8,8.9-8,11.7-13C2880.2,1927.2,2876.1,1931.6,2873,1936.5z"/>
	<linearGradient id="SVGID_7_" gradientUnits="userSpaceOnUse" x1="302.7699" y1="2060.5276" x2="302.7699" y2="-14.5947">
		<stop  offset="0.228" style="stop-color:#010202"/>
		<stop  offset="0.508" style="stop-color:#006633"/>
		<stop  offset="0.82" style="stop-color:#36A9E1"/>
		<stop  offset="1" style="stop-color:#FFFFFF"/>
	</linearGradient>
	<path fill="url(#SVGID_7_)" d="M313.2,2007.1c0-1.9,0.1-3.9,0.3-5.8c1.7-13.3,22-20,20-32.5c-2-20.9-20.3-39.3-41.2-51.2
		c-2.4-1.7-4.7-3.3-6.7-5.2c-2-1.6-3.7-3.4-4.9-5.5c-2-3.3,2-7.5,5.1-10.9c16.2-13.4,34.5-25.9,43.7-43.2c1.8-2.3,4-4.3,6.5-6.1
		c9.9-7.2,23.9-11.4,32-20.9c1-2.5,0-5-2-5.8c-28.4-13.4-57.8-30.1-52.8-60.2c0-2.9,0-5.7,0-8.6c0-14.3,0-28.8,0-43.2
		c0-2.3,0-4.6-0.1-7c-0.7-15.4-21.3-21.3-31.7-31.2c-6.3,5.1-14.1,9.1-14.9,18c-0.1,1.7-0.1,3.4-0.1,5.1c0,1.5,0,3.1-0.1,4.6
		c-2.1,10.2-13.4,12.9-19.8,19.9c-0.5,1.1-1.1,2.2-0.5,3.2c4.3,11.8,21.5,15.6,20.5,29.4c-0.3,1.7,0,3.3,0.5,4.7
		c0.5,1.4,1.3,2.8,2.1,4.1c4.8,8.1,18.3,9.7,17.2,18.3c-1.6,10.8-19.4,13.5-19.9,26.2c-0.1,1.5-0.1,3-0.1,4.5c0,9.3,0,18.6,0,27.8
		c0,1.8,0,3.7,0,5.5c2.7,19.4-12.9,30.2-28,38.8c-1.1,0.5-1.6,2.2-1.1,3.8c4.3,6.1,11.7,8.9,17,13.5c1.3,1.2,2.5,2.4,3.5,3.9
		c4.9,11.2,14.6,19.2,23.2,27.8c1.6,2.2,3.8,4.8,2.7,7c-0.6,1.3-1.5,2.5-2.6,3.5c-1.1,1.2-2.3,2.2-3.6,3.3
		c-11.1,7.7-20.8,19.5-21.9,33c-1.1,8.1,9.7,12.4,10.6,20.9c0.1,1.3,0.1,2.5,0.2,3.8c0,2.9,0,5.7,0,8.4c0,1.3,0,2.6,0.1,3.9
		c0.2,4,1.6,7.4,3.5,10.6h43.2c0-1.1,0-2.2,0-3.3C313.2,2016,313.2,2011.7,313.2,2007.1z"/>
	<path opacity="0.4" fill="#01615E" d="M313.2,2007.1c0-1.9,0.1-3.9,0.3-5.8c1.7-13.3,22-20,20-32.5c-2-20.9-20.3-39.3-41.2-51.2
		c-2.4-1.7-4.7-3.3-6.7-5.2c-2-1.6-3.7-3.4-4.9-5.5c-2-3.3,2-7.5,5.1-10.9c16.2-13.4,34.5-25.9,43.7-43.2c1.8-2.3,4-4.3,6.5-6.1
		c9.9-7.2,23.9-11.4,32-20.9c1-2.5,0-5-2-5.8c-28.4-13.4-57.8-30.1-52.8-60.2c0-2.9,0-5.7,0-8.6c0-14.3,0-28.8,0-43.2
		c0-2.3,0-4.6-0.1-7c-0.7-15.4-21.3-21.3-31.7-31.2c-6.3,5.1-14.1,9.1-14.9,18c-0.1,1.7-0.1,3.4-0.1,5.1c0,1.5,0,3.1-0.1,4.6
		c-2.1,10.2-13.4,12.9-19.8,19.9c-0.5,1.1-1.1,2.2-0.5,3.2c4.3,11.8,21.5,15.6,20.5,29.4c-0.3,1.7,0,3.3,0.5,4.7
		c0.5,1.4,1.3,2.8,2.1,4.1c4.8,8.1,18.3,9.7,17.2,18.3c-1.6,10.8-19.4,13.5-19.9,26.2c-0.1,1.5-0.1,3-0.1,4.5c0,9.3,0,18.6,0,27.8
		c0,1.8,0,3.7,0,5.5c2.7,19.4-12.9,30.2-28,38.8c-1.1,0.5-1.6,2.2-1.1,3.8c4.3,6.1,11.7,8.9,17,13.5c1.3,1.2,2.5,2.4,3.5,3.9
		c4.9,11.2,14.6,19.2,23.2,27.8c1.6,2.2,3.8,4.8,2.7,7c-0.6,1.3-1.5,2.5-2.6,3.5c-1.1,1.2-2.3,2.2-3.6,3.3
		c-11.1,7.7-20.8,19.5-21.9,33c-1.1,8.1,9.7,12.4,10.6,20.9c0.1,1.3,0.1,2.5,0.2,3.8c0,2.9,0,5.7,0,8.4c0,1.3,0,2.6,0.1,3.9
		c0.2,4,1.6,7.4,3.5,10.6h43.2c0-1.1,0-2.2,0-3.3C313.2,2016,313.2,2011.7,313.2,2007.1z"/>
	<linearGradient id="SVGID_8_" gradientUnits="userSpaceOnUse" x1="1583.1455" y1="2052.6216" x2="1583.1455" y2="420.2248">
		<stop  offset="0.228" style="stop-color:#010202"/>
		<stop  offset="0.508" style="stop-color:#006633"/>
		<stop  offset="0.82" style="stop-color:#36A9E1"/>
		<stop  offset="1" style="stop-color:#FFFFFF"/>
	</linearGradient>
	<path fill="url(#SVGID_8_)" d="M3137.5,601.8c-7.1-3-14.2-2-20.3,1c-12.2,6.1-23.3,16.2-37.4,16.1c-3.9-0.2-7.8-0.5-11.6-0.7
		c-15.5-1-30.9-2-46.3-3.2c-3.9-0.3-7.7-0.5-11.6-0.7c-3.9-0.2-7.7-0.4-11.6-0.6c-18.4,0.3-35.6-3.8-53.9-6.8
		c-34.5-7.1-62.9,11.2-95,15.9c-3.8-0.7-7.6-1.3-11.5-2c-3.8-0.6-7.7-1.3-11.6-2.1c-30-11.8-62.5-21-94.9-10.8
		c-10.1,3-21.3,1-32.6,1.3c-3.9,0-7.8,0.1-11.6,0.2c-15.5,0.4-31.1,1.3-46.6,2.9c-3.7,0.4-7.3,0.8-11,1.2c-21.1-0.3-42,1-62.7,2.8
		c-3.5,0.3-6.9,0.6-10.4,0.9c-30,1.8-58.5-13.4-88.9-15.4c-3.9-0.3-7.8-0.4-11.6-0.5c-3.9-0.1-7.7-0.1-11.6-0.1
		c-48.8-2.4-96.4-5.4-145.1,6.8c-18.3,5.1-35.5-4.1-53.8-4.1c-6.1,0-13.2,2-18.3,5.1c-12.2,11.2-26.4,14.2-41.9,14.1
		c-2.8,0-5.6,0-8.5,0c-8.5,0-17,0-25.5,0c-3.1,0-6.2,0-9.4,0c-3.1-0.2-6.3-0.4-9.5-0.6c-34.1-1.3-64.6-42.9-96-23.6
		c-14.2,9.1-29.4,15.2-46.5,14c-3.8-0.1-7.5-0.1-11.3-0.1c-3.8,0-7.5,0-11.3,0.1c-3.8,0.1-7.5,0.2-11.3,0.3c-14,0.9-27.2,2-41.4,0.9
		c-10.7-0.2-21.2-0.3-31.7-0.2c-3.5,0-7,0.1-10.5,0.1c-50.1-7-99.8,0.1-149.5-2c-8.1,0-17.2-7.1-23.3-3
		c-18.3,10.1-36.5,17.2-56.9,11.4c-3.4-0.4-6.9-0.7-10.3-1.1c-13.7-1.5-27.5-2.9-41.3-3.2c-12.2,0-22.3,8.1-34.5,9.1
		c-2,0-5.1-1-5.1-3c-1-16.2-5.1-32.5-24.3-27.4c-76.1,22.3-167.4,48.7-239.4,8.1c-74.1,12.2-148.1,27.4-224.2,17
		c-2.8-0.3-5.6-0.7-8.5-1.1c-15.9-2.8-32.2-6.8-48.4-3.8c-7.5,0.9-14.9,1.6-22.3,2.3c-2.5,0.2-4.9,0.4-7.4,0.6
		c-18,3.2-33.2-3.9-44.4-19.1c-7.1-10.1-20.3-4.1-30.4-1c-25.4,8.1-49.7,18.3-77.5,17.3c-3.5,0-7,0.1-10.5,0.3
		c-3.5,0.1-7,0.4-10.4,0.6c-7.2,0.6-14.4,1-21.6,1.2c-3.6,0.1-7.2,0.2-10.7,0.2c-6.3,0.6-12.4-0.4-18.5-2.4
		c-16.2-6.1-28.4-21.3-48.7-15.2c-20.3,5.1-38.6,13.2-60.4,12.9c-3.6,0-7.1,0.1-10.7,0.3c-73,1-145.1,17.2-218.4,10
		c-3.3,0-6.6,0-10-0.2c-3.3-0.1-6.7-0.3-10-0.6c-2.3-0.6-4.5-1.3-6.5-2.4c-2-1-3.9-2.2-5.6-3.8c-26.4-22.3-59.9,2-88.3,5.1
		c-3,0.5-6.1,1-9.1,1.3c-58.8-12.4-118.7-23.6-178.6-9.4c-43.6,9.1-84.1,4.1-127.6,11.1c0,2.6,0,5.1,0,7.7c0,2.2,0,4.5,0,6.7
		c0,502.4,0,1173.8,0,1384.9H59c4.8-1.8,9-3.6,10.3-7.7c10.1-31.5-33.5-51.7-54.8-73c-5.1-5.1-9.1-10.1-12.2-17.2
		c-1-3.1,0-7.2,3-9.2c13.2-11.2,33.5-20.3,34.5-39.9c0-2.9,0-5.8,0.1-8.8c1.9-22.3,34.3-28.4,34.3-44.6c1-25.4-37.5-39.6-57.6-58.5
		c-2.6-2-5.2-4-7.7-6.2s-4.8-4.6-6.8-7.3c-1-2-2-4.1-1-6.1c9.1-19.3,38.6-24.3,36.6-48.8c-0.4-3.6-1-7.1-1.7-10.7
		c-4.8-24.6-13.5-48-22.7-71.4c-1-3-1-7.1,0-10.1c1.2-2.4,2.8-4.5,4.7-6.6c17.6-19.8,59.2-27.9,56.1-54.3
		c-2-16.2-32.5-20.3-34.4-41.3c0-3-0.1-5.9-0.1-8.9c0-3.2,0-6.4,0-9.6c0-3.2,0-6.4,0-9.5c-0.1-4.9-2.1-8.9-3.1-13
		c-6.1-20.3-45.7-31.5-30.4-51.7c7.6-11,25.1-15.6,31.2-27.8c1.2-2.4,2-5.1,2.2-8.3c-2-24.8,25.4-30.9,38.6-46.1c1-2,2-4.1,1-6.1
		c-11.2-18.3-36.5-25.4-39.5-48.6c0-2.8,0-5.6,0-8.3c0-3.3,0-6.6,0-9.8c0-3.2,0-6.4-0.3-9.6c-2.1-18.1-15.7-30-25.8-44.3
		c-1.7-2.4-3.3-4.8-4.7-7.4c-1.7-1.9-3.7-6-1.7-8c4-6.7,9.8-12,16.5-16.7c2.7-2,5.4-3.8,8.4-5.9c30.9-15,42.1-44.4,61.3-70.8
		c7.1-9.1,23.3-15.2,36.5-11.2c22.3,6.1,9.1,36.5,11,56c0,2.7,0,5.4,0.2,8.1c0.2,2.7,0.5,5.3,1,8c0,6.1,1,12.2,3,18.3
		c0,3,1,6.1-0.6,9.5c-1,2.6-2.3,4.9-3.9,7c-8.1,10.4-23.2,15.6-30.9,26.1c-3,3,0,7.1,2,10.1c12.2,18.3,33.5,29.4,34.5,51.8
		c0.2,3.8,1.1,7.1,2.4,10.2c6.6,15.4,25.7,24.2,34.1,39.4c1,3-1,6.1-3,9.1c-12.2,12.2-31.5,19.3-33.2,38.5c-0.3,3.2-0.3,6.4-0.3,9.6
		c0,2.9,0,5.8-0.1,8.7c-3.9,19.3-25.2,24.4-37.4,37.5c-1,2-2,4.1-1,6.1c3.2,8.9,10.3,15.4,17.6,21.6c1.7-2.6,3.5-5.3,5.4-7.9
		c4.6-5.9,15.2-9.9,23.8-7.3c14.5,4,5.9,23.8,7.1,36.5c0,1.8,0,3.5,0.1,5.2c0.1,1.7,0.3,3.5,0.7,5.2c0,4,0.7,7.9,2,11.9
		c0,2,0.7,4-0.4,6.2c-0.6,1.7-1.5,3.2-2.6,4.6c-1,1.3-2.2,2.5-3.5,3.6c11.1,9.4,27.5,13.9,25.9,27c-1.5,10-10.5,16.4-19.2,23.1
		c0.2,1.2,0.4,2.4,0.5,3.7c0.1,2.5,0.7,4.7,1.6,6.7c4.3,10,16.7,15.8,22.2,25.7c0.7,2-0.7,4-2,5.9c-7.9,7.9-20.5,12.6-21.6,25.1
		c-0.2,2.1-0.2,4.2-0.2,6.2c0,1.9,0,3.8-0.1,5.7c-2,9.9-11,14-18.6,19.5c0.8,6.4,0.6,12.3-0.6,17.8c8.1,8.5,20.3,14.2,19.3,27.1
		c-0.4,2.1,0,4,0.6,5.8c0.7,1.8,1.6,3.4,2.6,5.1c5.9,9.9,22.5,11.9,21.1,22.5c-2,13.2-23.8,16.5-24.4,32.1c-0.1,1.9-0.1,3.7-0.1,5.5
		c0,11.4,0,22.8,0,34.2c0,2,0,4,0,6c2.9,2.8,5.8,5.6,8.6,8.5c3,4.1,7.1,9.1,5.1,13.2c-1.2,2.5-2.9,4.7-4.9,6.7
		c-2,2.3-4.3,4.2-6.7,6.3c-10.5,7.3-20.4,16.6-27.9,27.3c3.8,2.5,7.7,4.8,10.9,7.6c1.6,1.4,3.1,3,4.2,4.8
		c6,13.7,17.9,23.6,28.4,34.2c2,2.6,4.6,5.9,3.3,8.6c-0.8,1.7-1.9,3.1-3.2,4.3c-1.3,1.5-2.8,2.7-4.4,4.1
		c-13.6,9.4-25.5,24-26.8,40.5c-1.3,9.9,11.9,15.2,13,25.7c0.1,1.6,0.2,3.1,0.2,4.6c0,2.3,0,4.4,0,6.5c0.5,0.7,1.1,1.4,1.6,2.1h59.5
		c-0.8-13.5-19.9-23-29.8-33c-2.7-2.7-4.8-5.4-6.5-9.1c-0.5-1.6,0-3.8,1.6-4.9c7-5.9,17.8-10.8,18.3-21.2c0-1.5,0-3.1,0.1-4.7
		c1-11.8,18.2-15.1,18.2-23.7c0.5-13.5-19.9-21-30.6-31.1c-1.4-1-2.8-2.1-4.1-3.3c-1.3-1.2-2.5-2.4-3.6-3.9
		c-0.5-1.1-1.1-2.2-0.5-3.2c4.8-10.2,20.5-12.9,19.4-25.9c-0.2-1.9-0.6-3.8-0.9-5.7c-2.5-13-7.2-25.5-12.1-37.9
		c-0.5-1.6-0.5-3.8,0-5.4c0.6-1.3,1.5-2.4,2.5-3.5c9.3-10.5,31.4-14.8,29.8-28.8c-1.1-8.6-17.2-10.8-18.2-21.9c0-1.6,0-3.1,0-4.7
		c0-1.7,0-3.4,0-5.1c0-1.7,0-3.4,0-5c0-2.6-1.1-4.7-1.6-6.9c-3.2-10.8-24.2-16.7-16.2-27.5c4-5.8,13.3-8.3,16.6-14.7
		c0.7-1.3,1.1-2.7,1.2-4.4c-1-13.2,13.5-16.4,20.5-24.5c0.5-1.1,1.1-2.2,0.5-3.2c-5.9-9.7-19.4-13.5-20.9-25.8c0-1.5,0-3,0-4.4
		c0-1.8,0-3.5,0-5.2c0-1.7,0-3.4-0.2-5.1c-1.1-9.6-8.3-15.9-13.7-23.5c-0.9-1.3-1.7-2.6-2.5-3.9c-0.9-1-2-3.2-0.9-4.2
		c2.1-3.5,5.2-6.4,8.7-8.8c1.4-1,2.8-2,4.5-3.1c16.4-8,22.3-23.6,32.6-37.6c3.8-4.8,12.4-8.1,19.4-5.9c11.8,3.2,4.8,19.4,5.8,29.7
		c0,1.4,0,2.9,0.1,4.3c0.1,1.4,0.3,2.8,0.5,4.2c0,3.2,0.5,6.5,1.6,9.7c0,1.6,0.5,3.2-0.3,5c-0.5,1.4-1.2,2.6-2.1,3.7
		c-4.3,5.5-12.3,8.3-16.4,13.9c-1.6,1.6,0,3.8,1.1,5.4c6.5,9.7,17.8,15.6,18.3,27.5c0.1,2,0.6,3.8,1.3,5.4c2,4.6,6,8,9.9,11.6
		c5.9-7.7,23.3-11.4,30.5-21.3c1.5-2.1,3-4.2,4-6.4c1-2.2,1.5-4.6,0.9-7.3c-2-21.3,30.5-27.2,38.6-45.6c1-1.7,0-3.3-1-5
		c-12.2-10.9-33.5-15-37.4-30.9c-0.1-2.4-0.1-4.8-0.1-7.2c0-2.6,0-5.3-0.3-7.9c-1.8-15.8-21-21.7-33.2-31.7c-2-2.5-4.1-5-3-7.5
		c8.5-12.5,27.5-19.8,34.1-32.5c1.3-2.5,2.2-5.3,2.4-8.4c1-18.4,22.3-27.6,34.5-42.7c2-2.5,5.1-5.8,2-8.4
		c-7.7-8.7-22.8-13-30.9-21.5c-1.6-1.7-3-3.6-3.9-5.8c-1.6-2.8-0.6-5.3-0.6-7.8c2-5,3-10,3-15c0.5-2.2,0.8-4.4,1-6.6
		c0.2-2.2,0.2-4.4,0.2-6.6c1.8-16-11.4-41.1,11-46.1c13.2-3.3,29.4,1.7,36.5,9.2c19.3,21.7,30.4,46,61.3,58.3
		c3.1,1.7,5.8,3.2,8.4,4.8c6.7,3.9,12.5,8.2,16.5,13.7c2,1.7,0,5-1.7,6.6c-1.4,2.1-3,4.1-4.7,6.1c-10.1,11.7-23.8,21.6-25.8,36.5
		c-0.3,2.7-0.3,5.3-0.3,7.9c0,2.6,0,5.3,0,8c0,2.3,0,4.5,0,6.8c-2.9,19.2-28.3,25-39.5,40c-1,1.7,0,3.3,1,5
		c13.2,12.5,40.6,17.5,38.6,38c0.2,2.6,0.9,4.8,2.2,6.8c6.2,10,23.6,13.8,31.2,22.9c15.2,16.7-24.3,25.9-30.4,42.6
		c-1,3.3-3,6.7-3.1,10.7c0,2.6,0,5.2,0,7.8c0,2.6,0,5.2,0,7.9c0,2.4,0,4.9-0.1,7.3c-1.9,17.3-32.4,20.6-34.4,34
		c-3,21.7,38.6,28.4,56.1,44.7c2,1.7,3.5,3.5,4.7,5.4c1,2.5,1,5.8,0,8.4c-9.2,19.3-18,38.6-22.7,58.8c-0.7,2.9-1.3,5.8-1.7,8.8
		c-1.9,20.1,27.5,24.3,36.6,40.2c1,1.7,0,3.3-1,5c-2,2.2-4.3,4.2-6.8,6c-2.5,1.8-5.1,3.5-7.7,5.1c-20,15.6-58.6,27.3-57.6,48.2
		c0,13.4,32.5,18.4,34.3,36.8c0.1,2.4,0.1,4.9,0.1,7.3c1,16.1,21.3,23.7,34.5,32.8c3,1.7,4.1,5,3,7.6c-3,5.8-7.1,10-12.2,14.2
		c-12.5,10.3-32.7,20.3-45.2,32.1h150.7c-1.7-1.4-3.2-2.8-4.6-4.2c-3.3-3.3-5.9-6.6-7.9-11.2c-0.7-2,0-4.7,2-6
		c8.6-7.3,21.8-13.2,22.5-26c0-1.9,0-3.8,0.1-5.7c1.2-14.5,22.4-18.5,22.4-29.1c0.7-16.5-24.4-25.8-37.5-38.1c-1.7-1.3-3.4-2.6-5-4
		c-1.6-1.4-3.1-3-4.4-4.8c-0.7-1.3-1.3-2.6-0.7-4c5.9-12.6,25.1-15.9,23.9-31.8c-0.3-2.4-0.7-4.7-1.1-6.9
		c-3.1-16-8.8-31.3-14.8-46.5c-0.7-2-0.7-4.6,0-6.6c0.8-1.5,1.8-2.9,3.1-4.3c11.5-12.9,38.5-18.2,36.6-35.3
		c-1.3-10.6-21.1-13.2-22.4-26.9c0-1.9,0-3.8,0-5.8c0-2.1,0-4.2,0-6.2c0-2.1,0-4.1,0-6.2c0-3.2-1.4-5.8-2-8.5
		c-4-13.2-29.7-20.5-19.8-33.7c5-7.2,16.3-10.2,20.3-18.1c0.8-1.6,1.3-3.3,1.4-5.4c-1.3-16.2,16.6-20.1,25.1-30
		c0.7-1.3,1.3-2.6,0.7-4c-7.3-11.9-23.8-16.5-25.7-31.7c0-1.8,0-3.6,0-5.4c0-2.1,0-4.3,0-6.4c0-2.1,0-4.2-0.2-6.3
		c-1.4-11.8-10.2-19.6-16.8-28.8c-1.1-1.5-2.1-3.1-3.1-4.8c-1.1-1.2-2.4-3.9-1.1-5.2c2.6-4.3,6.4-7.8,10.7-10.9
		c1.7-1.3,3.5-2.5,5.5-3.8c20.1-9.8,27.4-28.9,39.9-46.1c4.6-5.9,15.2-9.9,23.8-7.3c14.5,4,5.9,23.8,7.1,36.5c0,1.8,0,3.5,0.1,5.2
		c0.1,1.7,0.3,3.5,0.7,5.2c0,4,0.7,7.9,2,11.9c0,2,0.7,4-0.4,6.2c-0.6,1.7-1.5,3.2-2.6,4.6c-5.3,6.8-15.1,10.1-20.1,17
		c-2,2,0,4.6,1.3,6.6c7.9,11.9,21.8,19.2,22.5,33.7c0.1,2.5,0.7,4.7,1.6,6.7c4.3,10,16.7,15.8,22.2,25.7c0.7,2-0.7,4-2,5.9
		c-7.9,7.9-20.5,12.6-21.6,25.1c-0.2,2.1-0.2,4.2-0.2,6.2c0,1.9,0,3.8-0.1,5.7c-2.6,12.6-16.4,15.9-24.4,24.4
		c-0.7,1.3-1.3,2.6-0.7,4c5.3,14.5,26.4,19.2,25.2,36c-0.4,2.1,0,4,0.6,5.8c0.7,1.8,1.6,3.4,2.6,5.1c5.9,9.9,22.5,11.9,21.1,22.5
		c-2,13.2-23.8,16.5-24.4,32.1c-0.1,1.9-0.1,3.7-0.1,5.5c0,11.4,0,22.8,0,34.2c0,2.3,0,4.5,0,6.8c3.3,23.8-15.9,37-34.4,47.6
		c-1.3,0.7-2,2.6-1.3,4.6c5.3,7.5,14.4,10.9,20.8,16.5c1.6,1.4,3.1,3,4.2,4.8c6,13.7,17.9,23.6,28.4,34.2c2,2.6,4.6,5.9,3.3,8.6
		c-0.8,1.7-1.9,3.1-3.2,4.3c-1.3,1.5-2.8,2.7-4.4,4.1c-13.6,9.4-25.5,24-26.8,40.5c-1.2,8.7,8.9,13.8,12.1,22h1384.1
		c3.4-2.6,6.5-5.6,6.8-10.1c0-1.1,0-2.1,0-3.2c0.7-8.1,12.4-10.3,12.4-16.2c0.4-9.2-13.6-14.3-20.8-21.2c-0.9-0.7-1.9-1.4-2.8-2.2
		c-0.9-0.8-1.7-1.7-2.5-2.6c-0.4-0.7-0.7-1.5-0.4-2.2c3.3-7,13.9-8.8,13.3-17.6c-0.2-1.3-0.4-2.6-0.6-3.9
		c-1.7-8.9-4.9-17.4-8.2-25.8c-0.4-1.1-0.4-2.6,0-3.7c0.4-0.9,1-1.6,1.7-2.4c6.4-7.2,21.4-10.1,20.3-19.6
		c-0.7-5.9-11.7-7.3-12.4-14.9c0-1.1,0-2.1,0-3.2c0-1.2,0-2.3,0-3.5c0-1.2,0-2.3,0-3.4c0-1.8-0.8-3.2-1.1-4.7
		c-2.2-7.3-16.5-11.4-11-18.7c2.8-4,9.1-5.7,11.3-10c0.4-0.9,0.7-1.9,0.8-3c-0.7-9,9.2-11.2,14-16.7c0.4-0.7,0.7-1.5,0.4-2.2
		c-4-6.6-13.2-9.2-14.3-17.6c0-1,0-2,0-3c0-1.2,0-2.4,0-3.5c0-1.2,0-2.3-0.1-3.5c-0.8-6.5-5.7-10.9-9.4-16c-0.6-0.9-1.2-1.7-1.7-2.7
		c-0.6-0.7-1.3-2.2-0.6-2.9c1.4-2.4,3.5-4.3,6-6c1-0.7,1.9-1.4,3-2.1c11.2-5.4,15.2-16.1,22.2-25.6c2.6-3.3,8.4-5.5,13.2-4
		c8.1,2.2,3.3,13.2,4,20.3c0,1,0,2,0.1,2.9c0.1,1,0.2,1.9,0.4,2.9c0,2.2,0.4,4.4,1.1,6.6c0,1.1,0.4,2.2-0.2,3.4
		c-0.3,0.9-0.8,1.8-1.4,2.5c-2.9,3.8-8.4,5.6-11.2,9.5c-1.1,1.1,0,2.6,0.7,3.7c4.4,6.6,12.1,10.6,12.5,18.7c0.1,1.4,0.4,2.6,0.9,3.7
		c2.4,5.6,9.3,8.8,12.3,14.3c0.4,1.1-0.4,2.2-1.1,3.3c-4.4,4.4-11.4,7-12,13.9c-0.1,1.1-0.1,2.3-0.1,3.5c0,1,0,2.1,0,3.1
		c-1.4,7-9.1,8.8-13.5,13.6c-0.4,0.7-0.7,1.5-0.4,2.2c2.9,8.1,14.7,10.6,14,20c-0.2,1.2,0,2.2,0.3,3.2c0.4,1,0.9,1.9,1.5,2.8
		c3.3,5.5,12.5,6.6,11.7,12.5c-1.1,7.3-13.2,9.2-13.5,17.8c0,1,0,2.1,0,3.1c0,6.4,0,12.7,0,19c0,1.3,0,2.5,0,3.8
		c1.8,13.2-8.8,20.6-19.1,26.4c-0.7,0.4-1.1,1.5-0.7,2.6c2.9,4.2,8,6,11.6,9.2c0.9,0.8,1.7,1.7,2.4,2.7c3.3,7.6,9.9,13.1,15.8,19
		c1.1,1.5,2.6,3.3,1.8,4.8c-0.4,0.9-1,1.7-1.8,2.4c-0.7,0.8-1.6,1.5-2.4,2.3c-6.5,4.5-12.2,11-14.2,18.6H2367
		c1.1-7.4,11.9-9.5,11.9-15.1c0.4-8.8-13.1-13.8-20-20.4c-0.9-0.7-1.8-1.4-2.7-2.2c-0.9-0.8-1.7-1.6-2.4-2.5
		c-0.4-0.7-0.7-1.4-0.4-2.1c3.2-6.7,13.4-8.5,12.8-17c-0.2-1.3-0.4-2.5-0.6-3.7c-1.7-8.5-4.7-16.7-7.9-24.9c-0.4-1.1-0.4-2.5,0-3.5
		c0.4-0.8,1-1.6,1.6-2.3c6.1-6.9,20.6-9.7,19.5-18.9c-0.7-5.6-11.3-7.1-12-14.4c0-1,0-2.1,0-3.1c0-1.1,0-2.2,0-3.3s0-2.2,0-3.3
		c0-1.7-0.7-3.1-1.1-4.5c-2.1-7.1-15.9-10.9-10.6-18c2.6-3.8,8.7-5.4,10.9-9.7c0.4-0.8,0.7-1.8,0.8-2.9c-0.7-8.6,8.8-10.8,13.4-16.1
		c0.4-0.7,0.7-1.4,0.4-2.1c-3.9-6.4-12.7-8.8-13.7-16.9c0-1,0-1.9,0-2.9c0-1.1,0-2.3,0-3.4c0-1.1,0-2.2-0.1-3.3
		c-0.7-6.3-5.5-10.5-9-15.4c-0.6-0.8-1.1-1.7-1.6-2.6c-0.6-0.7-1.3-2.1-0.6-2.8c1.4-2.3,3.4-4.2,5.7-5.8c0.9-0.7,1.9-1.3,2.9-2
		c10.8-5.2,14.6-15.5,21.3-24.6c2.5-3.2,8.1-5.3,12.7-3.9c7.8,2.1,3.2,12.7,3.8,19.5c0,0.9,0,1.9,0.1,2.8c0.1,0.9,0.2,1.9,0.3,2.8
		c0,2.1,0.4,4.2,1.1,6.4c0,1.1,0.4,2.1-0.2,3.3c-0.3,0.9-0.8,1.7-1.4,2.4c-2.8,3.6-8.1,5.4-10.8,9.1c-1.1,1.1,0,2.5,0.7,3.5
		c4.2,6.4,11.6,10.2,12,18c0.1,1.3,0.4,2.5,0.8,3.6c2.3,5.3,8.9,8.4,11.9,13.7c0.4,1.1-0.4,2.1-1.1,3.2c-4.2,4.2-10.9,6.7-11.6,13.4
		c-0.1,1.1-0.1,2.2-0.1,3.3c0,1,0,2,0,3c-1.4,6.7-8.8,8.5-13,13.1c-0.4,0.7-0.7,1.4-0.4,2.1c2.8,7.8,14.1,10.2,13.4,19.3
		c-0.2,1.1,0,2.2,0.3,3.1c0.3,0.9,0.9,1.8,1.4,2.7c3.2,5.3,12,6.4,11.3,12c-1.1,7.1-12.7,8.8-13,17.2c0,1,0,2,0,3
		c0,6.1,0,12.2,0,18.3c0,1.2,0,2.4,0,3.6c1.8,12.7-8.5,19.8-18.4,25.4c-0.7,0.4-1.1,1.4-0.7,2.5c2.8,4,7.7,5.8,11.1,8.8
		c0.9,0.8,1.6,1.6,2.3,2.6c3.2,7.3,9.5,12.6,15.2,18.3c1.1,1.4,2.5,3.2,1.8,4.6c-0.4,0.9-1,1.6-1.7,2.3c-0.7,0.8-1.5,1.5-2.3,2.2
		c-1.9,1.3-3.8,2.9-5.5,4.6h507.8c-7.8-12.3-22.5-22.9-35.5-33.1c0.6,11.3,11.2,17.8,15,27.8c0.9,2.3,1.1,3.4,1.1,3.4
		c-23.7-1.7-47.4-1.7-71.1-5.4c3.2-5.9,12.4-4.8,14-9.7c5.4-16.7-17.8-27.5-29.1-38.8c-2.7-2.7-4.8-5.4-6.5-9.1
		c-0.5-1.6,0-3.8,1.6-4.9c7-5.9,17.8-10.8,18.3-21.2c0-1.5,0-3.1,0.1-4.7c1-11.8,18.2-15.1,18.2-23.7c0.5-13.5-19.9-21-30.6-31.1
		c-1.4-1-2.8-2.1-4.1-3.3c-1.3-1.2-2.5-2.4-3.6-3.9c-0.5-1.1-1.1-2.2-0.5-3.2c4.8-10.2,20.5-12.9,19.4-25.9
		c-0.2-1.9-0.6-3.8-0.9-5.7c-2.5-13-7.2-25.5-12.1-37.9c-0.5-1.6-0.5-3.8,0-5.4c0.6-1.3,1.5-2.4,2.5-3.5
		c9.3-10.5,31.4-14.8,29.8-28.8c-1.1-8.6-17.2-10.8-18.2-21.9c0-1.6,0-3.1,0-4.7c0-1.7,0-3.4,0-5.1c0-1.7,0-3.4,0-5
		c0-2.6-1.1-4.7-1.6-6.9c-3.2-10.8-24.2-16.7-16.2-27.5c4-5.8,13.3-8.3,16.6-14.7c0.7-1.3,1.1-2.7,1.2-4.4
		c-1-13.2,13.5-16.4,20.5-24.5c0.5-1.1,1.1-2.2,0.5-3.2c-5.9-9.7-19.4-13.5-20.9-25.8c0-1.5,0-3,0-4.4c0-1.8,0-3.5,0-5.2
		c0-1.7,0-3.4-0.2-5.1c-1.1-9.6-8.3-15.9-13.7-23.5c-0.9-1.3-1.7-2.6-2.5-3.9c-0.9-1-2-3.2-0.9-4.2c2.1-3.5,5.2-6.4,8.7-8.8
		c1.4-1,2.8-2,4.5-3.1c16.4-8,22.3-23.6,32.6-37.6c3.8-4.8,12.4-8.1,19.4-5.9c11.8,3.2,4.8,19.4,5.8,29.7c0,1.4,0,2.9,0.1,4.3
		c0.1,1.4,0.3,2.8,0.5,4.2c0,3.2,0.5,6.5,1.6,9.7c0,1.6,0.5,3.2-0.3,5c-0.5,1.4-1.2,2.6-2.1,3.7c-4.3,5.5-12.3,8.3-16.4,13.9
		c-1.6,1.6,0,3.8,1.1,5.4c6.5,9.7,17.8,15.6,18.3,27.5c0.1,2,0.6,3.8,1.3,5.4c0.3,0.7,0.6,1.3,1,1.9c19.5-12.8,45-22.3,42.6-43.1
		c-2-16.2-32.5-20.3-34.4-41.3c0-3-0.1-5.9-0.1-8.9c0-3.2,0-6.4,0-9.6c0-3.2,0-6.4,0-9.5c-0.1-4.9-2.1-8.9-3.1-13
		c-6.1-20.3-45.7-31.5-30.4-51.7c7.6-11,25.1-15.6,31.2-27.8c1.2-2.4,2-5.1,2.2-8.3c-2-24.8,25.4-30.9,38.6-46.1c1-2,2-4.1,1-6.1
		c-11.2-18.3-36.5-25.4-39.5-48.6c0-2.8,0-5.6,0-8.3c0-3.3,0-6.6,0-9.8c0-3.2,0-6.4-0.3-9.6c-2.1-18.1-15.7-30-25.8-44.3
		c-1.7-2.4-3.3-4.8-4.7-7.4c-1.7-1.9-3.7-6-1.7-8c4-6.7,9.8-12,16.5-16.7c2.7-2,5.4-3.8,8.4-5.9c30.9-15,42.1-44.4,61.3-70.8
		c7.1-9.1,23.3-15.2,36.5-11.2c22.3,6.1,9.1,36.5,11,56c0,2.7,0,5.4,0.2,8.1c0.2,2.7,0.5,5.3,1,8c0,6.1,1,12.2,3,18.3
		c0,3,1,6.1-0.6,9.5c-1,2.6-2.3,4.9-3.9,7c-8.1,10.4-23.2,15.6-30.9,26.1c-3,3,0,7.1,2,10.1c12.2,18.3,33.5,29.4,34.5,51.8
		c0.2,3.8,1.1,7.1,2.4,10.2c6.6,15.4,25.7,24.2,34.1,39.4c1,3-1,6.1-3,9.1c-12.2,12.2-31.5,19.3-33.2,38.5c-0.3,3.2-0.3,6.4-0.3,9.6
		c0,2.9,0,5.8-0.1,8.7c-3.9,19.3-25.2,24.4-37.4,37.5c-1,2-2,4.1-1,6.1c8.1,22.3,40.6,29.4,38.6,55.3c-0.5,3.3-0.1,6.2,0.9,8.9
		c1,2.7,2.5,5.3,4,7.8c9.1,15.2,34.5,18.3,32.5,34.5c-3,20.3-36.5,25.4-37.4,49.3c-0.1,2.9-0.1,5.7-0.1,8.5c0,17.6,0,35.1,0,52.5
		c0,3.5,0,6.9,0,10.4c5.1,36.6-24.3,56.8-52.8,73.1c-2,1-3,4.1-2,7.1c8.1,11.5,22.1,16.7,32,25.4c2.5,2.2,4.7,4.6,6.5,7.4
		c9.1,20.8,27.1,36,43.2,52c0-0.9,0.1-1.8,0.4-2.6c0.6-1.3,1.5-2.4,2.5-3.5c9.3-10.5,31.4-14.8,29.8-28.8
		c-1.1-8.6-17.2-10.8-18.2-21.9c0-1.6,0-3.1,0-4.7c0-1.7,0-3.4,0-5.1c0-1.7,0-3.4,0-5c0-2.6-1.1-4.7-1.6-6.9
		c-3.2-10.8-24.2-16.7-16.2-27.5c4-5.8,13.3-8.3,16.6-14.7c0.7-1.3,1.1-2.7,1.2-4.4c-1-13.2,13.5-16.4,20.5-24.5
		c0.5-1.1,1.1-2.2,0.5-3.2c-5.9-9.7-19.4-13.5-20.9-25.8c0-1.5,0-3,0-4.4c0-1.8,0-3.5,0-5.2c0-1.7,0-3.4-0.2-5.1
		c-1.1-9.6-8.3-15.9-13.7-23.5c-0.9-1.3-1.7-2.6-2.5-3.9c-0.9-1-2-3.2-0.9-4.2c2.1-3.5,5.2-6.4,8.7-8.8c1.4-1,2.8-2,4.5-3.1
		c16.4-8,22.3-23.6,32.6-37.6c3.8-4.8,12.4-8.1,19.4-5.9c11.8,3.2,4.8,19.4,5.8,29.7c0,1.4,0,2.9,0.1,4.3c0.1,1.4,0.3,2.8,0.5,4.2
		c0,3.2,0.5,6.5,1.6,9.7c0,1.6,0.5,3.2-0.3,5c-0.5,1.4-1.2,2.6-2.1,3.7c-4.3,5.5-12.3,8.3-16.4,13.9c-1.6,1.6,0,3.8,1.1,5.4
		c6.5,9.7,17.8,15.6,18.3,27.5c0.1,2,0.6,3.8,1.3,5.4c3.5,8.1,13.6,12.9,18.1,20.9c0.5,1.6-0.5,3.2-1.6,4.8
		c-6.5,6.5-16.7,10.2-17.6,20.4c-0.1,1.7-0.1,3.4-0.1,5.1c0,1.5,0,3.1-0.1,4.6c-2.1,10.2-13.4,12.9-19.8,19.9
		c-0.5,1.1-1.1,2.2-0.5,3.2c4.3,11.8,21.5,15.6,20.5,29.4c-0.3,1.7,0,3.3,0.5,4.7c0.5,1.4,1.3,2.8,2.1,4.1
		c4.8,8.1,18.3,9.7,17.2,18.3c-1.6,10.8-19.4,13.5-19.9,26.2c-0.1,1.5-0.1,3-0.1,4.5c0,9.3,0,18.6,0,27.8c0,1.8,0,3.7,0,5.5
		c2.7,19.4-12.9,30.2-28,38.8c-1.1,0.5-1.6,2.2-1.1,3.8c4.3,6.1,11.7,8.9,17,13.5c1.3,1.2,2.5,2.4,3.5,3.9
		c4.9,11.2,14.6,19.2,23.2,27.8c1.6,2.2,3.8,4.8,2.7,7c-0.6,1.3-1.5,2.5-2.6,3.5c-1.1,1.2-2.3,2.2-3.6,3.3
		c-11,7.6-20.5,19.2-21.8,32.5h104.9c0-213.3,0-904.7,0-1400.5c0,0-0.6,0-1.7,0C3167,623.1,3153.8,608.9,3137.5,601.8z"/>
	<path opacity="0.4" fill="#01615E" d="M3137.5,601.8c-7.1-3-14.2-2-20.3,1c-12.2,6.1-23.3,16.2-37.4,16.1
		c-3.9-0.2-7.8-0.5-11.6-0.7c-15.5-1-30.9-2-46.3-3.2c-3.9-0.3-7.7-0.5-11.6-0.7c-3.9-0.2-7.7-0.4-11.6-0.6
		c-18.4,0.3-35.6-3.8-53.9-6.8c-34.5-7.1-62.9,11.2-95,15.9c-3.8-0.7-7.6-1.3-11.5-2c-3.8-0.6-7.7-1.3-11.6-2.1
		c-30-11.8-62.5-21-94.9-10.8c-10.1,3-21.3,1-32.6,1.3c-3.9,0-7.8,0.1-11.6,0.2c-15.5,0.4-31.1,1.3-46.6,2.9
		c-3.7,0.4-7.3,0.8-11,1.2c-21.1-0.3-42,1-62.7,2.8c-3.5,0.3-6.9,0.6-10.4,0.9c-30,1.8-58.5-13.4-88.9-15.4
		c-3.9-0.3-7.8-0.4-11.6-0.5c-3.9-0.1-7.7-0.1-11.6-0.1c-48.8-2.4-96.4-5.4-145.1,6.8c-18.3,5.1-35.5-4.1-53.8-4.1
		c-6.1,0-13.2,2-18.3,5.1c-12.2,11.2-26.4,14.2-41.9,14.1c-2.8,0-5.6,0-8.5,0c-8.5,0-17,0-25.5,0c-3.1,0-6.2,0-9.4,0
		c-3.1-0.2-6.3-0.4-9.5-0.6c-34.1-1.3-64.6-42.9-96-23.6c-14.2,9.1-29.4,15.2-46.5,14c-3.8-0.1-7.5-0.1-11.3-0.1
		c-3.8,0-7.5,0-11.3,0.1c-3.8,0.1-7.5,0.2-11.3,0.3c-14,0.9-27.2,2-41.4,0.9c-10.7-0.2-21.2-0.3-31.7-0.2c-3.5,0-7,0.1-10.5,0.1
		c-50.1-7-99.8,0.1-149.5-2c-8.1,0-17.2-7.1-23.3-3c-18.3,10.1-36.5,17.2-56.9,11.4c-3.4-0.4-6.9-0.7-10.3-1.1
		c-13.7-1.5-27.5-2.9-41.3-3.2c-12.2,0-22.3,8.1-34.5,9.1c-2,0-5.1-1-5.1-3c-1-16.2-5.1-32.5-24.3-27.4
		c-76.1,22.3-167.4,48.7-239.4,8.1c-74.1,12.2-148.1,27.4-224.2,17c-2.8-0.3-5.6-0.7-8.5-1.1c-15.9-2.8-32.2-6.8-48.4-3.8
		c-7.5,0.9-14.9,1.6-22.3,2.3c-2.5,0.2-4.9,0.4-7.4,0.6c-18,3.2-33.2-3.9-44.4-19.1c-7.1-10.1-20.3-4.1-30.4-1
		c-25.4,8.1-49.7,18.3-77.5,17.3c-3.5,0-7,0.1-10.5,0.3c-3.5,0.1-7,0.4-10.4,0.6c-7.2,0.6-14.4,1-21.6,1.2
		c-3.6,0.1-7.2,0.2-10.7,0.2c-6.3,0.6-12.4-0.4-18.5-2.4c-16.2-6.1-28.4-21.3-48.7-15.2c-20.3,5.1-38.6,13.2-60.4,12.9
		c-3.6,0-7.1,0.1-10.7,0.3c-73,1-145.1,17.2-218.4,10c-3.3,0-6.6,0-10-0.2c-3.3-0.1-6.7-0.3-10-0.6c-2.3-0.6-4.5-1.3-6.5-2.4
		c-2-1-3.9-2.2-5.6-3.8c-26.4-22.3-59.9,2-88.3,5.1c-3,0.5-6.1,1-9.1,1.3c-58.8-12.4-118.7-23.6-178.6-9.4
		c-43.6,9.1-84.1,4.1-127.6,11.1c0,2.6,0,5.1,0,7.7c0,2.2,0,4.5,0,6.7c0,502.4,0,1173.8,0,1384.9H59c4.8-1.8,9-3.6,10.3-7.7
		c10.1-31.5-33.5-51.7-54.8-73c-5.1-5.1-9.1-10.1-12.2-17.2c-1-3.1,0-7.2,3-9.2c13.2-11.2,33.5-20.3,34.5-39.9c0-2.9,0-5.8,0.1-8.8
		c1.9-22.3,34.3-28.4,34.3-44.6c1-25.4-37.5-39.6-57.6-58.5c-2.6-2-5.2-4-7.7-6.2s-4.8-4.6-6.8-7.3c-1-2-2-4.1-1-6.1
		c9.1-19.3,38.6-24.3,36.6-48.8c-0.4-3.6-1-7.1-1.7-10.7c-4.8-24.6-13.5-48-22.7-71.4c-1-3-1-7.1,0-10.1c1.2-2.4,2.8-4.5,4.7-6.6
		c17.6-19.8,59.2-27.9,56.1-54.3c-2-16.2-32.5-20.3-34.4-41.3c0-3-0.1-5.9-0.1-8.9c0-3.2,0-6.4,0-9.6c0-3.2,0-6.4,0-9.5
		c-0.1-4.9-2.1-8.9-3.1-13c-6.1-20.3-45.7-31.5-30.4-51.7c7.6-11,25.1-15.6,31.2-27.8c1.2-2.4,2-5.1,2.2-8.3
		c-2-24.8,25.4-30.9,38.6-46.1c1-2,2-4.1,1-6.1c-11.2-18.3-36.5-25.4-39.5-48.6c0-2.8,0-5.6,0-8.3c0-3.3,0-6.6,0-9.8
		c0-3.2,0-6.4-0.3-9.6c-2.1-18.1-15.7-30-25.8-44.3c-1.7-2.4-3.3-4.8-4.7-7.4c-1.7-1.9-3.7-6-1.7-8c4-6.7,9.8-12,16.5-16.7
		c2.7-2,5.4-3.8,8.4-5.9c30.9-15,42.1-44.4,61.3-70.8c7.1-9.1,23.3-15.2,36.5-11.2c22.3,6.1,9.1,36.5,11,56c0,2.7,0,5.4,0.2,8.1
		c0.2,2.7,0.5,5.3,1,8c0,6.1,1,12.2,3,18.3c0,3,1,6.1-0.6,9.5c-1,2.6-2.3,4.9-3.9,7c-8.1,10.4-23.2,15.6-30.9,26.1
		c-3,3,0,7.1,2,10.1c12.2,18.3,33.5,29.4,34.5,51.8c0.2,3.8,1.1,7.1,2.4,10.2c6.6,15.4,25.7,24.2,34.1,39.4c1,3-1,6.1-3,9.1
		c-12.2,12.2-31.5,19.3-33.2,38.5c-0.3,3.2-0.3,6.4-0.3,9.6c0,2.9,0,5.8-0.1,8.7c-3.9,19.3-25.2,24.4-37.4,37.5c-1,2-2,4.1-1,6.1
		c3.2,8.9,10.3,15.4,17.6,21.6c1.7-2.6,3.5-5.3,5.4-7.9c4.6-5.9,15.2-9.9,23.8-7.3c14.5,4,5.9,23.8,7.1,36.5c0,1.8,0,3.5,0.1,5.2
		c0.1,1.7,0.3,3.5,0.7,5.2c0,4,0.7,7.9,2,11.9c0,2,0.7,4-0.4,6.2c-0.6,1.7-1.5,3.2-2.6,4.6c-1,1.3-2.2,2.5-3.5,3.6
		c11.1,9.4,27.5,13.9,25.9,27c-1.5,10-10.5,16.4-19.2,23.1c0.2,1.2,0.4,2.4,0.5,3.7c0.1,2.5,0.7,4.7,1.6,6.7
		c4.3,10,16.7,15.8,22.2,25.7c0.7,2-0.7,4-2,5.9c-7.9,7.9-20.5,12.6-21.6,25.1c-0.2,2.1-0.2,4.2-0.2,6.2c0,1.9,0,3.8-0.1,5.7
		c-2,9.9-11,14-18.6,19.5c0.8,6.4,0.6,12.3-0.6,17.8c8.1,8.5,20.3,14.2,19.3,27.1c-0.4,2.1,0,4,0.6,5.8c0.7,1.8,1.6,3.4,2.6,5.1
		c5.9,9.9,22.5,11.9,21.1,22.5c-2,13.2-23.8,16.5-24.4,32.1c-0.1,1.9-0.1,3.7-0.1,5.5c0,11.4,0,22.8,0,34.2c0,2,0,4,0,6
		c2.9,2.8,5.8,5.6,8.6,8.5c3,4.1,7.1,9.1,5.1,13.2c-1.2,2.5-2.9,4.7-4.9,6.7c-2,2.3-4.3,4.2-6.7,6.3c-10.5,7.3-20.4,16.6-27.9,27.3
		c3.8,2.5,7.7,4.8,10.9,7.6c1.6,1.4,3.1,3,4.2,4.8c6,13.7,17.9,23.6,28.4,34.2c2,2.6,4.6,5.9,3.3,8.6c-0.8,1.7-1.9,3.1-3.2,4.3
		c-1.3,1.5-2.8,2.7-4.4,4.1c-13.6,9.4-25.5,24-26.8,40.5c-1.3,9.9,11.9,15.2,13,25.7c0.1,1.6,0.2,3.1,0.2,4.6c0,2.3,0,4.4,0,6.5
		c0.5,0.7,1.1,1.4,1.6,2.1h59.5c-0.8-13.5-19.9-23-29.8-33c-2.7-2.7-4.8-5.4-6.5-9.1c-0.5-1.6,0-3.8,1.6-4.9
		c7-5.9,17.8-10.8,18.3-21.2c0-1.5,0-3.1,0.1-4.7c1-11.8,18.2-15.1,18.2-23.7c0.5-13.5-19.9-21-30.6-31.1c-1.4-1-2.8-2.1-4.1-3.3
		c-1.3-1.2-2.5-2.4-3.6-3.9c-0.5-1.1-1.1-2.2-0.5-3.2c4.8-10.2,20.5-12.9,19.4-25.9c-0.2-1.9-0.6-3.8-0.9-5.7
		c-2.5-13-7.2-25.5-12.1-37.9c-0.5-1.6-0.5-3.8,0-5.4c0.6-1.3,1.5-2.4,2.5-3.5c9.3-10.5,31.4-14.8,29.8-28.8
		c-1.1-8.6-17.2-10.8-18.2-21.9c0-1.6,0-3.1,0-4.7c0-1.7,0-3.4,0-5.1c0-1.7,0-3.4,0-5c0-2.6-1.1-4.7-1.6-6.9
		c-3.2-10.8-24.2-16.7-16.2-27.5c4-5.8,13.3-8.3,16.6-14.7c0.7-1.3,1.1-2.7,1.2-4.4c-1-13.2,13.5-16.4,20.5-24.5
		c0.5-1.1,1.1-2.2,0.5-3.2c-5.9-9.7-19.4-13.5-20.9-25.8c0-1.5,0-3,0-4.4c0-1.8,0-3.5,0-5.2c0-1.7,0-3.4-0.2-5.1
		c-1.1-9.6-8.3-15.9-13.7-23.5c-0.9-1.3-1.7-2.6-2.5-3.9c-0.9-1-2-3.2-0.9-4.2c2.1-3.5,5.2-6.4,8.7-8.8c1.4-1,2.8-2,4.5-3.1
		c16.4-8,22.3-23.6,32.6-37.6c3.8-4.8,12.4-8.1,19.4-5.9c11.8,3.2,4.8,19.4,5.8,29.7c0,1.4,0,2.9,0.1,4.3c0.1,1.4,0.3,2.8,0.5,4.2
		c0,3.2,0.5,6.5,1.6,9.7c0,1.6,0.5,3.2-0.3,5c-0.5,1.4-1.2,2.6-2.1,3.7c-4.3,5.5-12.3,8.3-16.4,13.9c-1.6,1.6,0,3.8,1.1,5.4
		c6.5,9.7,17.8,15.6,18.3,27.5c0.1,2,0.6,3.8,1.3,5.4c2,4.6,6,8,9.9,11.6c5.9-7.7,23.3-11.4,30.5-21.3c1.5-2.1,3-4.2,4-6.4
		c1-2.2,1.5-4.6,0.9-7.3c-2-21.3,30.5-27.2,38.6-45.6c1-1.7,0-3.3-1-5c-12.2-10.9-33.5-15-37.4-30.9c-0.1-2.4-0.1-4.8-0.1-7.2
		c0-2.6,0-5.3-0.3-7.9c-1.8-15.8-21-21.7-33.2-31.7c-2-2.5-4.1-5-3-7.5c8.5-12.5,27.5-19.8,34.1-32.5c1.3-2.5,2.2-5.3,2.4-8.4
		c1-18.4,22.3-27.6,34.5-42.7c2-2.5,5.1-5.8,2-8.4c-7.7-8.7-22.8-13-30.9-21.5c-1.6-1.7-3-3.6-3.9-5.8c-1.6-2.8-0.6-5.3-0.6-7.8
		c2-5,3-10,3-15c0.5-2.2,0.8-4.4,1-6.6c0.2-2.2,0.2-4.4,0.2-6.6c1.8-16-11.4-41.1,11-46.1c13.2-3.3,29.4,1.7,36.5,9.2
		c19.3,21.7,30.4,46,61.3,58.3c3.1,1.7,5.8,3.2,8.4,4.8c6.7,3.9,12.5,8.2,16.5,13.7c2,1.7,0,5-1.7,6.6c-1.4,2.1-3,4.1-4.7,6.1
		c-10.1,11.7-23.8,21.6-25.8,36.5c-0.3,2.7-0.3,5.3-0.3,7.9c0,2.6,0,5.3,0,8c0,2.3,0,4.5,0,6.8c-2.9,19.2-28.3,25-39.5,40
		c-1,1.7,0,3.3,1,5c13.2,12.5,40.6,17.5,38.6,38c0.2,2.6,0.9,4.8,2.2,6.8c6.2,10,23.6,13.8,31.2,22.9c15.2,16.7-24.3,25.9-30.4,42.6
		c-1,3.3-3,6.7-3.1,10.7c0,2.6,0,5.2,0,7.8c0,2.6,0,5.2,0,7.9c0,2.4,0,4.9-0.1,7.3c-1.9,17.3-32.4,20.6-34.4,34
		c-3,21.7,38.6,28.4,56.1,44.7c2,1.7,3.5,3.5,4.7,5.4c1,2.5,1,5.8,0,8.4c-9.2,19.3-18,38.6-22.7,58.8c-0.7,2.9-1.3,5.8-1.7,8.8
		c-1.9,20.1,27.5,24.3,36.6,40.2c1,1.7,0,3.3-1,5c-2,2.2-4.3,4.2-6.8,6c-2.5,1.8-5.1,3.5-7.7,5.1c-20,15.6-58.6,27.3-57.6,48.2
		c0,13.4,32.5,18.4,34.3,36.8c0.1,2.4,0.1,4.9,0.1,7.3c1,16.1,21.3,23.7,34.5,32.8c3,1.7,4.1,5,3,7.6c-3,5.8-7.1,10-12.2,14.2
		c-12.5,10.3-32.7,20.3-45.2,32.1h150.7c-1.7-1.4-3.2-2.8-4.6-4.2c-3.3-3.3-5.9-6.6-7.9-11.2c-0.7-2,0-4.7,2-6
		c8.6-7.3,21.8-13.2,22.5-26c0-1.9,0-3.8,0.1-5.7c1.2-14.5,22.4-18.5,22.4-29.1c0.7-16.5-24.4-25.8-37.5-38.1c-1.7-1.3-3.4-2.6-5-4
		c-1.6-1.4-3.1-3-4.4-4.8c-0.7-1.3-1.3-2.6-0.7-4c5.9-12.6,25.1-15.9,23.9-31.8c-0.3-2.4-0.7-4.7-1.1-6.9
		c-3.1-16-8.8-31.3-14.8-46.5c-0.7-2-0.7-4.6,0-6.6c0.8-1.5,1.8-2.9,3.1-4.3c11.5-12.9,38.5-18.2,36.6-35.3
		c-1.3-10.6-21.1-13.2-22.4-26.9c0-1.9,0-3.8,0-5.8c0-2.1,0-4.2,0-6.2c0-2.1,0-4.1,0-6.2c0-3.2-1.4-5.8-2-8.5
		c-4-13.2-29.7-20.5-19.8-33.7c5-7.2,16.3-10.2,20.3-18.1c0.8-1.6,1.3-3.3,1.4-5.4c-1.3-16.2,16.6-20.1,25.1-30
		c0.7-1.3,1.3-2.6,0.7-4c-7.3-11.9-23.8-16.5-25.7-31.7c0-1.8,0-3.6,0-5.4c0-2.1,0-4.3,0-6.4c0-2.1,0-4.2-0.2-6.3
		c-1.4-11.8-10.2-19.6-16.8-28.8c-1.1-1.5-2.1-3.1-3.1-4.8c-1.1-1.2-2.4-3.9-1.1-5.2c2.6-4.3,6.4-7.8,10.7-10.9
		c1.7-1.3,3.5-2.5,5.5-3.8c20.1-9.8,27.4-28.9,39.9-46.1c4.6-5.9,15.2-9.9,23.8-7.3c14.5,4,5.9,23.8,7.1,36.5c0,1.8,0,3.5,0.1,5.2
		c0.1,1.7,0.3,3.5,0.7,5.2c0,4,0.7,7.9,2,11.9c0,2,0.7,4-0.4,6.2c-0.6,1.7-1.5,3.2-2.6,4.6c-5.3,6.8-15.1,10.1-20.1,17
		c-2,2,0,4.6,1.3,6.6c7.9,11.9,21.8,19.2,22.5,33.7c0.1,2.5,0.7,4.7,1.6,6.7c4.3,10,16.7,15.8,22.2,25.7c0.7,2-0.7,4-2,5.9
		c-7.9,7.9-20.5,12.6-21.6,25.1c-0.2,2.1-0.2,4.2-0.2,6.2c0,1.9,0,3.8-0.1,5.7c-2.6,12.6-16.4,15.9-24.4,24.4
		c-0.7,1.3-1.3,2.6-0.7,4c5.3,14.5,26.4,19.2,25.2,36c-0.4,2.1,0,4,0.6,5.8c0.7,1.8,1.6,3.4,2.6,5.1c5.9,9.9,22.5,11.9,21.1,22.5
		c-2,13.2-23.8,16.5-24.4,32.1c-0.1,1.9-0.1,3.7-0.1,5.5c0,11.4,0,22.8,0,34.2c0,2.3,0,4.5,0,6.8c3.3,23.8-15.9,37-34.4,47.6
		c-1.3,0.7-2,2.6-1.3,4.6c5.3,7.5,14.4,10.9,20.8,16.5c1.6,1.4,3.1,3,4.2,4.8c6,13.7,17.9,23.6,28.4,34.2c2,2.6,4.6,5.9,3.3,8.6
		c-0.8,1.7-1.9,3.1-3.2,4.3c-1.3,1.5-2.8,2.7-4.4,4.1c-13.6,9.4-25.5,24-26.8,40.5c-1.2,8.7,8.9,13.8,12.1,22h1384.1
		c3.4-2.6,6.5-5.6,6.8-10.1c0-1.1,0-2.1,0-3.2c0.7-8.1,12.4-10.3,12.4-16.2c0.4-9.2-13.6-14.3-20.8-21.2c-0.9-0.7-1.9-1.4-2.8-2.2
		c-0.9-0.8-1.7-1.7-2.5-2.6c-0.4-0.7-0.7-1.5-0.4-2.2c3.3-7,13.9-8.8,13.3-17.6c-0.2-1.3-0.4-2.6-0.6-3.9
		c-1.7-8.9-4.9-17.4-8.2-25.8c-0.4-1.1-0.4-2.6,0-3.7c0.4-0.9,1-1.6,1.7-2.4c6.4-7.2,21.4-10.1,20.3-19.6
		c-0.7-5.9-11.7-7.3-12.4-14.9c0-1.1,0-2.1,0-3.2c0-1.2,0-2.3,0-3.5c0-1.2,0-2.3,0-3.4c0-1.8-0.8-3.2-1.1-4.7
		c-2.2-7.3-16.5-11.4-11-18.7c2.8-4,9.1-5.7,11.3-10c0.4-0.9,0.7-1.9,0.8-3c-0.7-9,9.2-11.2,14-16.7c0.4-0.7,0.7-1.5,0.4-2.2
		c-4-6.6-13.2-9.2-14.3-17.6c0-1,0-2,0-3c0-1.2,0-2.4,0-3.5c0-1.2,0-2.3-0.1-3.5c-0.8-6.5-5.7-10.9-9.4-16c-0.6-0.9-1.2-1.7-1.7-2.7
		c-0.6-0.7-1.3-2.2-0.6-2.9c1.4-2.4,3.5-4.3,6-6c1-0.7,1.9-1.4,3-2.1c11.2-5.4,15.2-16.1,22.2-25.6c2.6-3.3,8.4-5.5,13.2-4
		c8.1,2.2,3.3,13.2,4,20.3c0,1,0,2,0.1,2.9c0.1,1,0.2,1.9,0.4,2.9c0,2.2,0.4,4.4,1.1,6.6c0,1.1,0.4,2.2-0.2,3.4
		c-0.3,0.9-0.8,1.8-1.4,2.5c-2.9,3.8-8.4,5.6-11.2,9.5c-1.1,1.1,0,2.6,0.7,3.7c4.4,6.6,12.1,10.6,12.5,18.7c0.1,1.4,0.4,2.6,0.9,3.7
		c2.4,5.6,9.3,8.8,12.3,14.3c0.4,1.1-0.4,2.2-1.1,3.3c-4.4,4.4-11.4,7-12,13.9c-0.1,1.1-0.1,2.3-0.1,3.5c0,1,0,2.1,0,3.1
		c-1.4,7-9.1,8.8-13.5,13.6c-0.4,0.7-0.7,1.5-0.4,2.2c2.9,8.1,14.7,10.6,14,20c-0.2,1.2,0,2.2,0.3,3.2c0.4,1,0.9,1.9,1.5,2.8
		c3.3,5.5,12.5,6.6,11.7,12.5c-1.1,7.3-13.2,9.2-13.5,17.8c0,1,0,2.1,0,3.1c0,6.4,0,12.7,0,19c0,1.3,0,2.5,0,3.8
		c1.8,13.2-8.8,20.6-19.1,26.4c-0.7,0.4-1.1,1.5-0.7,2.6c2.9,4.2,8,6,11.6,9.2c0.9,0.8,1.7,1.7,2.4,2.7c3.3,7.6,9.9,13.1,15.8,19
		c1.1,1.5,2.6,3.3,1.8,4.8c-0.4,0.9-1,1.7-1.8,2.4c-0.7,0.8-1.6,1.5-2.4,2.3c-6.5,4.5-12.2,11-14.2,18.6H2367
		c1.1-7.4,11.9-9.5,11.9-15.1c0.4-8.8-13.1-13.8-20-20.4c-0.9-0.7-1.8-1.4-2.7-2.2c-0.9-0.8-1.7-1.6-2.4-2.5
		c-0.4-0.7-0.7-1.4-0.4-2.1c3.2-6.7,13.4-8.5,12.8-17c-0.2-1.3-0.4-2.5-0.6-3.7c-1.7-8.5-4.7-16.7-7.9-24.9c-0.4-1.1-0.4-2.5,0-3.5
		c0.4-0.8,1-1.6,1.6-2.3c6.1-6.9,20.6-9.7,19.5-18.9c-0.7-5.6-11.3-7.1-12-14.4c0-1,0-2.1,0-3.1c0-1.1,0-2.2,0-3.3s0-2.2,0-3.3
		c0-1.7-0.7-3.1-1.1-4.5c-2.1-7.1-15.9-10.9-10.6-18c2.6-3.8,8.7-5.4,10.9-9.7c0.4-0.8,0.7-1.8,0.8-2.9c-0.7-8.6,8.8-10.8,13.4-16.1
		c0.4-0.7,0.7-1.4,0.4-2.1c-3.9-6.4-12.7-8.8-13.7-16.9c0-1,0-1.9,0-2.9c0-1.1,0-2.3,0-3.4c0-1.1,0-2.2-0.1-3.3
		c-0.7-6.3-5.5-10.5-9-15.4c-0.6-0.8-1.1-1.7-1.6-2.6c-0.6-0.7-1.3-2.1-0.6-2.8c1.4-2.3,3.4-4.2,5.7-5.8c0.9-0.7,1.9-1.3,2.9-2
		c10.8-5.2,14.6-15.5,21.3-24.6c2.5-3.2,8.1-5.3,12.7-3.9c7.8,2.1,3.2,12.7,3.8,19.5c0,0.9,0,1.9,0.1,2.8c0.1,0.9,0.2,1.9,0.3,2.8
		c0,2.1,0.4,4.2,1.1,6.4c0,1.1,0.4,2.1-0.2,3.3c-0.3,0.9-0.8,1.7-1.4,2.4c-2.8,3.6-8.1,5.4-10.8,9.1c-1.1,1.1,0,2.5,0.7,3.5
		c4.2,6.4,11.6,10.2,12,18c0.1,1.3,0.4,2.5,0.8,3.6c2.3,5.3,8.9,8.4,11.9,13.7c0.4,1.1-0.4,2.1-1.1,3.2c-4.2,4.2-10.9,6.7-11.6,13.4
		c-0.1,1.1-0.1,2.2-0.1,3.3c0,1,0,2,0,3c-1.4,6.7-8.8,8.5-13,13.1c-0.4,0.7-0.7,1.4-0.4,2.1c2.8,7.8,14.1,10.2,13.4,19.3
		c-0.2,1.1,0,2.2,0.3,3.1c0.3,0.9,0.9,1.8,1.4,2.7c3.2,5.3,12,6.4,11.3,12c-1.1,7.1-12.7,8.8-13,17.2c0,1,0,2,0,3
		c0,6.1,0,12.2,0,18.3c0,1.2,0,2.4,0,3.6c1.8,12.7-8.5,19.8-18.4,25.4c-0.7,0.4-1.1,1.4-0.7,2.5c2.8,4,7.7,5.8,11.1,8.8
		c0.9,0.8,1.6,1.6,2.3,2.6c3.2,7.3,9.5,12.6,15.2,18.3c1.1,1.4,2.5,3.2,1.8,4.6c-0.4,0.9-1,1.6-1.7,2.3c-0.7,0.8-1.5,1.5-2.3,2.2
		c-1.9,1.3-3.8,2.9-5.5,4.6h507.8c-7.8-12.3-22.5-22.9-35.5-33.1c0.6,11.3,11.2,17.8,15,27.8c0.9,2.3,1.1,3.4,1.1,3.4
		c-23.7-1.7-47.4-1.7-71.1-5.4c3.2-5.9,12.4-4.8,14-9.7c5.4-16.7-17.8-27.5-29.1-38.8c-2.7-2.7-4.8-5.4-6.5-9.1
		c-0.5-1.6,0-3.8,1.6-4.9c7-5.9,17.8-10.8,18.3-21.2c0-1.5,0-3.1,0.1-4.7c1-11.8,18.2-15.1,18.2-23.7c0.5-13.5-19.9-21-30.6-31.1
		c-1.4-1-2.8-2.1-4.1-3.3c-1.3-1.2-2.5-2.4-3.6-3.9c-0.5-1.1-1.1-2.2-0.5-3.2c4.8-10.2,20.5-12.9,19.4-25.9
		c-0.2-1.9-0.6-3.8-0.9-5.7c-2.5-13-7.2-25.5-12.1-37.9c-0.5-1.6-0.5-3.8,0-5.4c0.6-1.3,1.5-2.4,2.5-3.5
		c9.3-10.5,31.4-14.8,29.8-28.8c-1.1-8.6-17.2-10.8-18.2-21.9c0-1.6,0-3.1,0-4.7c0-1.7,0-3.4,0-5.1c0-1.7,0-3.4,0-5
		c0-2.6-1.1-4.7-1.6-6.9c-3.2-10.8-24.2-16.7-16.2-27.5c4-5.8,13.3-8.3,16.6-14.7c0.7-1.3,1.1-2.7,1.2-4.4
		c-1-13.2,13.5-16.4,20.5-24.5c0.5-1.1,1.1-2.2,0.5-3.2c-5.9-9.7-19.4-13.5-20.9-25.8c0-1.5,0-3,0-4.4c0-1.8,0-3.5,0-5.2
		c0-1.7,0-3.4-0.2-5.1c-1.1-9.6-8.3-15.9-13.7-23.5c-0.9-1.3-1.7-2.6-2.5-3.9c-0.9-1-2-3.2-0.9-4.2c2.1-3.5,5.2-6.4,8.7-8.8
		c1.4-1,2.8-2,4.5-3.1c16.4-8,22.3-23.6,32.6-37.6c3.8-4.8,12.4-8.1,19.4-5.9c11.8,3.2,4.8,19.4,5.8,29.7c0,1.4,0,2.9,0.1,4.3
		c0.1,1.4,0.3,2.8,0.5,4.2c0,3.2,0.5,6.5,1.6,9.7c0,1.6,0.5,3.2-0.3,5c-0.5,1.4-1.2,2.6-2.1,3.7c-4.3,5.5-12.3,8.3-16.4,13.9
		c-1.6,1.6,0,3.8,1.1,5.4c6.5,9.7,17.8,15.6,18.3,27.5c0.1,2,0.6,3.8,1.3,5.4c0.3,0.7,0.6,1.3,1,1.9c19.5-12.8,45-22.3,42.6-43.1
		c-2-16.2-32.5-20.3-34.4-41.3c0-3-0.1-5.9-0.1-8.9c0-3.2,0-6.4,0-9.6c0-3.2,0-6.4,0-9.5c-0.1-4.9-2.1-8.9-3.1-13
		c-6.1-20.3-45.7-31.5-30.4-51.7c7.6-11,25.1-15.6,31.2-27.8c1.2-2.4,2-5.1,2.2-8.3c-2-24.8,25.4-30.9,38.6-46.1c1-2,2-4.1,1-6.1
		c-11.2-18.3-36.5-25.4-39.5-48.6c0-2.8,0-5.6,0-8.3c0-3.3,0-6.6,0-9.8c0-3.2,0-6.4-0.3-9.6c-2.1-18.1-15.7-30-25.8-44.3
		c-1.7-2.4-3.3-4.8-4.7-7.4c-1.7-1.9-3.7-6-1.7-8c4-6.7,9.8-12,16.5-16.7c2.7-2,5.4-3.8,8.4-5.9c30.9-15,42.1-44.4,61.3-70.8
		c7.1-9.1,23.3-15.2,36.5-11.2c22.3,6.1,9.1,36.5,11,56c0,2.7,0,5.4,0.2,8.1c0.2,2.7,0.5,5.3,1,8c0,6.1,1,12.2,3,18.3
		c0,3,1,6.1-0.6,9.5c-1,2.6-2.3,4.9-3.9,7c-8.1,10.4-23.2,15.6-30.9,26.1c-3,3,0,7.1,2,10.1c12.2,18.3,33.5,29.4,34.5,51.8
		c0.2,3.8,1.1,7.1,2.4,10.2c6.6,15.4,25.7,24.2,34.1,39.4c1,3-1,6.1-3,9.1c-12.2,12.2-31.5,19.3-33.2,38.5c-0.3,3.2-0.3,6.4-0.3,9.6
		c0,2.9,0,5.8-0.1,8.7c-3.9,19.3-25.2,24.4-37.4,37.5c-1,2-2,4.1-1,6.1c8.1,22.3,40.6,29.4,38.6,55.3c-0.5,3.3-0.1,6.2,0.9,8.9
		c1,2.7,2.5,5.3,4,7.8c9.1,15.2,34.5,18.3,32.5,34.5c-3,20.3-36.5,25.4-37.4,49.3c-0.1,2.9-0.1,5.7-0.1,8.5c0,17.6,0,35.1,0,52.5
		c0,3.5,0,6.9,0,10.4c5.1,36.6-24.3,56.8-52.8,73.1c-2,1-3,4.1-2,7.1c8.1,11.5,22.1,16.7,32,25.4c2.5,2.2,4.7,4.6,6.5,7.4
		c9.1,20.8,27.1,36,43.2,52c0-0.9,0.1-1.8,0.4-2.6c0.6-1.3,1.5-2.4,2.5-3.5c9.3-10.5,31.4-14.8,29.8-28.8
		c-1.1-8.6-17.2-10.8-18.2-21.9c0-1.6,0-3.1,0-4.7c0-1.7,0-3.4,0-5.1c0-1.7,0-3.4,0-5c0-2.6-1.1-4.7-1.6-6.9
		c-3.2-10.8-24.2-16.7-16.2-27.5c4-5.8,13.3-8.3,16.6-14.7c0.7-1.3,1.1-2.7,1.2-4.4c-1-13.2,13.5-16.4,20.5-24.5
		c0.5-1.1,1.1-2.2,0.5-3.2c-5.9-9.7-19.4-13.5-20.9-25.8c0-1.5,0-3,0-4.4c0-1.8,0-3.5,0-5.2c0-1.7,0-3.4-0.2-5.1
		c-1.1-9.6-8.3-15.9-13.7-23.5c-0.9-1.3-1.7-2.6-2.5-3.9c-0.9-1-2-3.2-0.9-4.2c2.1-3.5,5.2-6.4,8.7-8.8c1.4-1,2.8-2,4.5-3.1
		c16.4-8,22.3-23.6,32.6-37.6c3.8-4.8,12.4-8.1,19.4-5.9c11.8,3.2,4.8,19.4,5.8,29.7c0,1.4,0,2.9,0.1,4.3c0.1,1.4,0.3,2.8,0.5,4.2
		c0,3.2,0.5,6.5,1.6,9.7c0,1.6,0.5,3.2-0.3,5c-0.5,1.4-1.2,2.6-2.1,3.7c-4.3,5.5-12.3,8.3-16.4,13.9c-1.6,1.6,0,3.8,1.1,5.4
		c6.5,9.7,17.8,15.6,18.3,27.5c0.1,2,0.6,3.8,1.3,5.4c3.5,8.1,13.6,12.9,18.1,20.9c0.5,1.6-0.5,3.2-1.6,4.8
		c-6.5,6.5-16.7,10.2-17.6,20.4c-0.1,1.7-0.1,3.4-0.1,5.1c0,1.5,0,3.1-0.1,4.6c-2.1,10.2-13.4,12.9-19.8,19.9
		c-0.5,1.1-1.1,2.2-0.5,3.2c4.3,11.8,21.5,15.6,20.5,29.4c-0.3,1.7,0,3.3,0.5,4.7c0.5,1.4,1.3,2.8,2.1,4.1
		c4.8,8.1,18.3,9.7,17.2,18.3c-1.6,10.8-19.4,13.5-19.9,26.2c-0.1,1.5-0.1,3-0.1,4.5c0,9.3,0,18.6,0,27.8c0,1.8,0,3.7,0,5.5
		c2.7,19.4-12.9,30.2-28,38.8c-1.1,0.5-1.6,2.2-1.1,3.8c4.3,6.1,11.7,8.9,17,13.5c1.3,1.2,2.5,2.4,3.5,3.9
		c4.9,11.2,14.6,19.2,23.2,27.8c1.6,2.2,3.8,4.8,2.7,7c-0.6,1.3-1.5,2.5-2.6,3.5c-1.1,1.2-2.3,2.2-3.6,3.3
		c-11,7.6-20.5,19.2-21.8,32.5h104.9c0-213.3,0-904.7,0-1400.5c0,0-0.6,0-1.7,0C3167,623.1,3153.8,608.9,3137.5,601.8z"/>
	<path fill="#79B829" d="M266.5,2012.9c-0.1-1.3-0.1-2.5-0.1-3.9c0-2.6,0-5.4,0-8.4c0-1.2-0.1-2.5-0.2-3.8
		c-0.9-8.6-11.7-12.9-10.6-20.9c1.1-13.5,10.8-25.3,21.9-33c1.3-1.1,2.5-2.1,3.6-3.3c1.1-1,2-2.2,2.6-3.5c1.1-2.2-1.1-4.8-2.7-7
		c-8.6-8.6-18.3-16.7-23.2-27.8c-1-1.5-2.1-2.7-3.5-3.9c-5.3-4.6-12.7-7.4-17-13.5c-0.5-1.6,0-3.2,1.1-3.8
		c15.1-8.6,30.7-19.4,28-38.8c0-1.8,0-3.7,0-5.5c0-9.2,0-18.5,0-27.8c0-1.5,0-3,0.1-4.5c0.5-12.7,18.2-15.4,19.9-26.2
		c1.1-8.6-12.4-10.2-17.2-18.3c-0.8-1.3-1.6-2.7-2.1-4.1c-0.5-1.4-0.8-3-0.5-4.7c1-13.7-16.2-17.5-20.5-29.4c-0.5-1.1,0-2.2,0.5-3.2
		c6.5-7,17.8-9.7,19.8-19.9c0.1-1.5,0.1-3.1,0.1-4.6c0-1.7,0-3.4,0.1-5.1c0.8-8.9,8.6-12.9,14.9-18c-2.9-2.8-5-5.8-5.7-9.5
		c-0.4-2.8,0.4-5.1,1.9-7.1c-4-3.6-8-7.1-9.9-11.6c-0.7-1.6-1.1-3.4-1.3-5.4c-0.6-11.9-11.9-17.8-18.3-27.5
		c-1.1-1.6-2.7-3.8-1.1-5.4c4.1-5.6,12.1-8.4,16.4-13.9c0.9-1.1,1.6-2.3,2.1-3.7c0.9-1.8,0.3-3.4,0.3-5c-1.1-3.2-1.6-6.5-1.6-9.7
		c-0.3-1.4-0.4-2.8-0.5-4.2c-0.1-1.4-0.1-2.8-0.1-4.3c-1-10.3,6-26.5-5.8-29.7c-7-2.2-15.6,1.1-19.4,5.9
		c-10.2,14-16.2,29.6-32.6,37.6c-1.6,1.1-3.1,2.1-4.5,3.1c-3.5,2.5-6.6,5.3-8.7,8.8c-1.1,1.1,0,3.2,0.9,4.2c0.8,1.3,1.6,2.6,2.5,3.9
		c5.4,7.6,12.6,13.9,13.7,23.5c0.2,1.7,0.2,3.4,0.2,5.1c0,1.7,0,3.4,0,5.2c0,1.4,0,2.9,0,4.4c1.6,12.3,15,16.1,20.9,25.8
		c0.5,1.1,0,2.2-0.5,3.2c-7,8.1-21.5,11.3-20.5,24.5c-0.1,1.7-0.5,3.1-1.2,4.4c-3.3,6.4-12.5,8.9-16.6,14.7
		c-8.1,10.8,12.9,16.7,16.2,27.5c0.5,2.2,1.6,4.3,1.6,6.9c0,1.7,0,3.4,0,5c0,1.7,0,3.4,0,5.1c0,1.6,0,3.1,0,4.7
		c1,11.1,17.2,13.3,18.2,21.9c1.6,14-20.5,18.3-29.8,28.8c-1,1.1-1.9,2.2-2.5,3.5c-0.5,1.6-0.5,3.8,0,5.4
		c4.9,12.4,9.5,24.9,12.1,37.9c0.4,1.9,0.7,3.7,0.9,5.7c1,13-14.6,15.7-19.4,25.9c-0.5,1.1,0,2.2,0.5,3.2c1.1,1.4,2.3,2.7,3.6,3.9
		c1.3,1.2,2.7,2.2,4.1,3.3c10.6,10.1,31.1,17.6,30.6,31.1c0,8.6-17.2,11.8-18.2,23.7c0,1.6,0,3.1-0.1,4.7
		c-0.5,10.4-11.3,15.2-18.3,21.2c-1.6,1.1-2.2,3.2-1.6,4.9c1.6,3.7,3.8,6.4,6.5,9.1c9.9,9.9,29,19.5,29.8,33H270
		C268.1,2020.3,266.6,2016.9,266.5,2012.9z"/>
	<path fill="#1C4E24" d="M285.8,1662.6c0.5,1.6-0.5,3.2-1.6,4.8c-0.9,0.9-1.8,1.7-2.8,2.5c10.4,9.8,31,15.7,31.7,31.2
		c0.1,2.4,0.1,4.7,0.1,7c0,14.5,0,28.9,0,43.2c0,2.9,0,5.7,0,8.6c-5.1,30.1,24.3,46.8,52.8,60.2c2,0.8,3,3.3,2,5.8
		c-8.1,9.5-22.1,13.7-32,20.9c-2.5,1.8-4.7,3.8-6.5,6.1c-9.2,17.3-27.4,29.9-43.7,43.2c-3,3.3-7.1,7.5-5.1,10.9
		c1.2,2.1,2.9,3.9,4.9,5.5c2,1.9,4.3,3.5,6.7,5.2c20.9,11.9,39.2,30.3,41.2,51.2c2,12.5-18.3,19.2-20,32.5c-0.2,2-0.2,3.9-0.3,5.8
		c0,4.6,0,8.9,0,13c0,1.1,0,2.2,0,3.3h86.7c12.5-11.8,32.7-21.8,45.2-32.1c5.1-4.2,9.1-8.4,12.2-14.2c1-2.5,0-5.9-3-7.6
		c-13.2-9.2-33.5-16.7-34.5-32.8c0-2.4,0-4.8-0.1-7.3c-1.9-18.4-34.3-23.4-34.3-36.8c-1-20.9,37.5-32.6,57.6-48.2
		c2.6-1.6,5.2-3.3,7.7-5.1c2.5-1.8,4.8-3.8,6.8-6c1-1.7,2-3.3,1-5c-9.1-15.9-38.6-20.1-36.6-40.2c0.4-3,1-5.9,1.7-8.8
		c4.8-20.2,13.5-39.5,22.7-58.8c1-2.5,1-5.8,0-8.4c-1.2-1.9-2.8-3.7-4.7-5.4c-17.6-16.3-59.2-23-56.1-44.7c2-13.4,32.5-16.7,34.4-34
		c0-2.4,0.1-4.9,0.1-7.3c0-2.6,0-5.3,0-7.9c0-2.6,0-5.2,0-7.8c0.1-4,2.1-7.4,3.1-10.7c6.1-16.7,45.7-25.9,30.4-42.6
		c-7.6-9.1-25.1-12.9-31.2-22.9c-1.2-2-2-4.2-2.2-6.8c2-20.5-25.4-25.5-38.6-38c-1-1.7-2-3.3-1-5c11.2-15,36.5-20.9,39.5-40
		c0-2.3,0-4.6,0-6.8c0-2.7,0-5.4,0-8c0-2.6,0-5.3,0.3-7.9c2.1-14.9,15.7-24.7,25.8-36.5c1.7-2,3.3-4,4.7-6.1
		c1.7-1.6,3.7-4.9,1.7-6.6c-4-5.5-9.8-9.9-16.5-13.7c-2.7-1.6-5.4-3.1-8.4-4.8c-30.9-12.3-42.1-36.6-61.3-58.3
		c-7.1-7.5-23.3-12.5-36.5-9.2c-22.3,5-9.1,30.1-11,46.1c0,2.2,0,4.4-0.2,6.6c-0.2,2.2-0.5,4.4-1,6.6c0,5-1,10-3,15
		c0,2.5-1,5,0.6,7.8c1,2.2,2.3,4,3.9,5.8c8.1,8.6,23.2,12.8,30.9,21.5c3,2.5,0,5.8-2,8.4c-12.2,15-33.5,24.2-34.5,42.7
		c-0.2,3.1-1.1,5.9-2.4,8.4c-6.6,12.6-25.7,20-34.1,32.5c-1,2.5,1,5,3,7.5c12.2,10,31.5,15.9,33.2,31.7c0.3,2.6,0.3,5.3,0.3,7.9
		c0,2.4,0,4.8,0.1,7.2c3.9,15.9,25.2,20.1,37.4,30.9c1,1.7,2,3.3,1,5c-8.1,18.4-40.6,24.2-38.6,45.6c0.5,2.7,0.1,5.1-0.9,7.3
		c-1,2.2-2.5,4.3-4,6.4c-7.2,9.9-24.6,13.6-30.5,21.3C280.7,1656.2,283.8,1659.1,285.8,1662.6z"/>
	<path fill="#1C4E24" d="M275.7,1660.5c0.7,3.7,2.8,6.7,5.7,9.5c1-0.8,1.9-1.6,2.8-2.5c1.1-1.6,2.2-3.2,1.6-4.8
		c-2-3.6-5-6.5-8.2-9.3C276.1,1655.4,275.3,1657.7,275.7,1660.5z"/>
	<path fill="#1C4E24" d="M166.7,2023.5c-0.5-0.7-1-1.4-1.6-2.1c0,0.7,0,1.4,0,2.1H166.7z"/>
	<path fill="#1C4E24" d="M130.8,1866.9c-1.3,0.7-2,2.6-1.3,4.6c2.6,3.7,6.2,6.4,9.9,8.9c7.5-10.7,17.3-20,27.9-27.3
		c2.4-2,4.7-4,6.7-6.3c2-2,3.7-4.1,4.9-6.7c2-4.1-2-9.1-5.1-13.2c-2.8-2.8-5.7-5.6-8.6-8.5c0,0.2,0,0.5,0,0.7
		C168.5,1843.1,149.3,1856.3,130.8,1866.9z"/>
	<path fill="#1C4E24" d="M141.4,1527.4c-2,2,0,4.6,1.3,6.6c7.2,10.8,19.4,17.9,22,30.1c8.8-6.7,17.7-13,19.2-23.1
		c1.6-13.2-14.8-17.7-25.9-27C152.7,1518.5,145.5,1521.8,141.4,1527.4z"/>
	<path fill="#1C4E24" d="M79.3,2002.3c-3.3-3.3-5.9-6.6-7.9-11.2c-0.7-2,0-4.7,2-6c8.6-7.3,21.8-13.2,22.5-26c0-1.9,0-3.8,0.1-5.7
		c1.2-14.5,22.4-18.5,22.4-29.1c0.7-16.5-24.4-25.8-37.5-38.1c-1.7-1.3-3.4-2.6-5-4c-1.6-1.4-3.1-3-4.4-4.8c-0.7-1.3-1.3-2.6-0.7-4
		c5.9-12.6,25.1-15.9,23.9-31.8c-0.3-2.4-0.7-4.7-1.1-6.9c-3.1-16-8.8-31.3-14.8-46.5c-0.7-2-0.7-4.6,0-6.6c0.8-1.5,1.8-2.9,3.1-4.3
		c7.1-7.9,20-13,28.5-19.7c-6.9-4.4-13.8-9-18.6-15.9c-1-3,0-6.1,2-7.1c3.7-2.1,7.4-4.3,11.1-6.6c-4.4-3.3-8.3-7.1-8.9-12.9
		c0-1.9,0-3.8,0-5.8c0-2.1,0-4.2,0-6.2c0-2.1,0-4.1,0-6.2c0-3.2-1.4-5.8-2-8.5c-4-13.2-29.7-20.5-19.8-33.7
		c5-7.2,16.3-10.2,20.3-18.1c0.8-1.6,1.3-3.3,1.4-5.4c-1.3-16.2,16.6-20.1,25.1-30c0.7-1.3,1.3-2.6,0.7-4
		c-7.3-11.9-23.8-16.5-25.7-31.7c0-1.8,0-3.6,0-5.4c0-2.1,0-4.3,0-6.4c0-2.1,0-4.2-0.2-6.3c-1.4-11.8-10.2-19.6-16.8-28.8
		c-1.1-1.5-2.1-3.1-3.1-4.8c-1.1-1.2-2.4-3.9-1.1-5.2c2.6-4.3,6.4-7.8,10.7-10.9c1.7-1.3,3.5-2.5,5.5-3.8
		c17.1-8.3,24.9-23.3,34.5-38.2c-7.2-6.2-14.3-12.7-17.6-21.6c-1-2,0-4.1,1-6.1c12.2-13.2,33.5-18.3,37.4-37.5
		c0.1-2.9,0.1-5.8,0.1-8.7c0-3.2,0-6.4,0.3-9.6c1.8-19.2,21-26.3,33.2-38.5c2-3,4.1-6.1,3-9.1c-8.5-15.2-27.5-24.1-34.1-39.4
		c-1.3-3.1-2.2-6.4-2.4-10.2c-1-22.4-22.3-33.5-34.5-51.8c-2-3-5.1-7.1-2-10.1c7.7-10.6,22.8-15.8,30.9-26.1c1.6-2.1,3-4.4,3.9-7
		c1.6-3.4,0.6-6.4,0.6-9.5c-2-6.1-3-12.2-3-18.3c-0.5-2.7-0.8-5.3-1-8c-0.2-2.7-0.2-5.3-0.2-8.1c-1.8-19.5,11.4-49.9-11-56
		c-13.2-4.1-29.4,2-36.5,11.2c-19.3,26.4-30.4,55.8-61.3,70.8c-3.1,2.1-5.8,3.9-8.4,5.9c-6.7,4.7-12.5,10-16.5,16.7
		c-2,2,0,6.1,1.7,8c1.4,2.5,3,5,4.7,7.4c10.1,14.3,23.8,26.2,25.8,44.3c0.3,3.2,0.3,6.4,0.3,9.6c0,3.2,0,6.5,0,9.8
		c0,2.7,0,5.5,0,8.3c2.9,23.3,28.3,30.4,39.5,48.6c1,2,0,4.1-1,6.1c-13.2,15.2-40.6,21.3-38.6,46.1c-0.2,3.1-0.9,5.9-2.2,8.3
		c-6.2,12.1-23.6,16.8-31.2,27.8c-15.2,20.3,24.3,31.5,30.4,51.7c1,4.1,3,8.1,3.1,13c0,3.2,0,6.3,0,9.5c0,3.2,0,6.4,0,9.6
		c0,2.9,0,5.9,0.1,8.9c1.9,21,32.4,25,34.4,41.3c3,26.4-38.6,34.5-56.1,54.3c-2,2.1-3.5,4.2-4.7,6.6c-1,3-1,7.1,0,10.1
		c9.2,23.4,18,46.9,22.7,71.4c0.7,3.5,1.3,7,1.7,10.7c1.9,24.4-27.5,29.5-36.6,48.8c-1,2,0,4.1,1,6.1c2,2.7,4.3,5.1,6.8,7.3
		s5.1,4.2,7.7,6.2c20,19,58.6,33.2,57.6,58.5c0,16.2-32.5,22.3-34.3,44.6c-0.1,3-0.1,5.9-0.1,8.8c-1,19.6-21.3,28.7-34.5,39.9
		c-3,2-4.1,6.1-3,9.2c3,7,7.1,12.1,12.2,17.2c21.3,21.3,64.9,41.6,54.8,73c-1.4,4.1-5.6,5.9-10.3,7.7h45.7
		C96.6,2015.9,86.2,2009.2,79.3,2002.3z"/>
	<path fill="#1C4E24" d="M140.7,1667.4c-0.7,1.3-1.3,2.6-0.7,4c1.2,3.4,3.4,6.3,5.9,8.9c1.1-5.5,1.4-11.4,0.6-17.8
		C144.4,1663.9,142.4,1665.5,140.7,1667.4z"/>
	<path fill="#79B829" d="M3027.3,1874.9c-0.2,0.4-0.4,0.7-0.6,1.1c3.1,8.5,5.8,17.1,7.5,25.9c0.4,1.9,0.7,3.7,0.9,5.7
		c1,13-14.6,15.7-19.4,25.9c-0.5,1.1,0,2.2,0.5,3.2c1.1,1.4,2.3,2.7,3.6,3.9c1.3,1.2,2.7,2.2,4.1,3.3c10.6,10.1,31.1,17.6,30.6,31.1
		c0,8.6-17.2,11.8-18.2,23.7c0,1.6,0,3.1-0.1,4.7c-0.5,9.8-10.1,14.7-17.1,20.1h62.9c1.3-13.3,10.8-24.9,21.8-32.5
		c1.3-1.1,2.5-2.1,3.6-3.3c1.1-1,2-2.2,2.6-3.5c1.1-2.2-1.1-4.8-2.7-7c-8.6-8.6-18.3-16.7-23.2-27.8c-1-1.5-2.1-2.7-3.5-3.9
		c-5.3-4.6-12.7-7.4-17-13.5c-0.5-1.6,0-3.2,1.1-3.8c15.1-8.6,30.7-19.4,28-38.8c0-1.8,0-3.7,0-5.5c0-9.2,0-18.5,0-27.8
		c0-1.5,0-3,0.1-4.5c0.5-12.7,18.2-15.4,19.9-26.2c1.1-8.6-12.4-10.2-17.2-18.3c-0.8-1.3-1.6-2.7-2.1-4.1c-0.5-1.4-0.8-3-0.5-4.7
		c1-13.7-16.2-17.5-20.5-29.4c-0.5-1.1,0-2.2,0.5-3.2c6.5-7,17.8-9.7,19.8-19.9c0.1-1.5,0.1-3.1,0.1-4.6c0-1.7,0-3.4,0.1-5.1
		c0.9-10.2,11.2-14,17.6-20.4c1.1-1.6,2.2-3.2,1.6-4.8c-4.5-8.1-14.6-12.8-18.1-20.9c-0.7-1.6-1.1-3.4-1.3-5.4
		c-0.6-11.9-11.9-17.8-18.3-27.5c-1.1-1.6-2.7-3.8-1.1-5.4c4.1-5.6,12.1-8.4,16.4-13.9c0.9-1.1,1.6-2.3,2.1-3.7
		c0.9-1.8,0.3-3.4,0.3-5c-1.1-3.2-1.6-6.5-1.6-9.7c-0.3-1.4-0.4-2.8-0.5-4.2c-0.1-1.4-0.1-2.8-0.1-4.3c-1-10.3,6-26.5-5.8-29.7
		c-7-2.2-15.6,1.1-19.4,5.9c-10.2,14-16.2,29.6-32.6,37.6c-1.6,1.1-3.1,2.1-4.5,3.1c-3.5,2.5-6.6,5.3-8.7,8.8
		c-1.1,1.1,0,3.2,0.9,4.2c0.8,1.3,1.6,2.6,2.5,3.9c5.4,7.6,12.6,13.9,13.7,23.5c0.2,1.7,0.2,3.4,0.2,5.1c0,1.7,0,3.4,0,5.2
		c0,1.4,0,2.9,0,4.4c1.6,12.3,15,16.1,20.9,25.8c0.5,1.1,0,2.2-0.5,3.2c-7,8.1-21.5,11.3-20.5,24.5c-0.1,1.7-0.5,3.1-1.2,4.4
		c-3.3,6.4-12.5,8.9-16.6,14.7c-8.1,10.8,12.9,16.7,16.2,27.5c0.5,2.2,1.6,4.3,1.6,6.9c0,1.7,0,3.4,0,5c0,1.7,0,3.4,0,5.1
		c0,1.6,0,3.1,0,4.7c1,11.1,17.2,13.3,18.2,21.9c1.6,14-20.5,18.3-29.8,28.8c-1,1.1-1.9,2.2-2.5,3.5c-0.3,0.8-0.4,1.7-0.4,2.6
		c0.2,0.2,0.3,0.3,0.5,0.5C3025.2,1865.8,3029.3,1870.9,3027.3,1874.9z"/>
	<path fill="#162818" d="M2850.7,1960.2c-1-3.1,0-7.2,3-9.2c5.8-4.9,12.9-9.4,19.2-14.6c3.1-4.9,7.2-9.3,11.7-13
		c2-3.6,3.4-7.7,3.6-12.3c0-2.9,0-5.8,0.1-8.8c-7.5-7.2-15-14.5-19.1-23.9c-1-1.5-2.1-2.7-3.5-3.9c-5.3-4.6-12.7-7.4-17-13.5
		c-0.5-1.6,0-3.2,1.1-3.8c15.1-8.6,30.7-19.4,28-38.8c0-1.8,0-3.7,0-5.5c0-1.2,0-2.4,0-3.7c-4.6-3.3-9-6.7-12.7-10.2
		c-2.6-2-5.2-4-7.7-6.2c-2.5-2.2-4.8-4.6-6.8-7.3c-1-2-2-4.1-1-6.1c7.7-16.3,29.8-22.4,35.4-38.6c-1.8-1.4-3.4-2.9-4.5-4.8
		c-0.8-1.3-1.6-2.7-2.1-4.1c-0.5-1.4-0.8-3-0.5-4.7c1-13.7-16.2-17.5-20.5-29.4c-0.5-1.1,0-2.2,0.5-3.2c4.7-5,11.8-7.9,16.2-12.9
		c-3.8-11.1-8-22.2-12.3-33.2c-1-3-1-7.1,0-10.1c1.2-2.4,2.8-4.5,4.7-6.6c3.7-4.1,8.4-7.8,13.6-11.2c-0.4-0.6-0.7-1.3-1-1.9
		c-0.7-1.6-1.1-3.4-1.3-5.4c-0.6-11.9-11.9-17.8-18.3-27.5c-1.1-1.6-2.7-3.8-1.1-5.4c4.1-5.6,12.1-8.4,16.4-13.9
		c0.9-1.1,1.6-2.3,2.1-3.7c0.9-1.8,0.3-3.4,0.3-5c-1.1-3.2-1.6-6.5-1.6-9.7c-0.3-1.4-0.4-2.8-0.5-4.2c-0.1-1.4-0.1-2.8-0.1-4.3
		c-1-10.3,6-26.5-5.8-29.7c-7-2.2-15.6,1.1-19.4,5.9c-10.2,14-16.2,29.6-32.6,37.6c-1.6,1.1-3.1,2.1-4.5,3.1
		c-3.5,2.5-6.6,5.3-8.7,8.8c-1.1,1.1,0,3.2,0.9,4.2c0.8,1.3,1.6,2.6,2.5,3.9c5.4,7.6,12.6,13.9,13.7,23.5c0.2,1.7,0.2,3.4,0.2,5.1
		c0,1.7,0,3.4,0,5.2c0,1.4,0,2.9,0,4.4c1.6,12.3,15,16.1,20.9,25.8c0.5,1.1,0,2.2-0.5,3.2c-7,8.1-21.5,11.3-20.5,24.5
		c-0.1,1.7-0.5,3.1-1.2,4.4c-3.3,6.4-12.5,8.9-16.6,14.7c-8.1,10.8,12.9,16.7,16.2,27.5c0.5,2.2,1.6,4.3,1.6,6.9c0,1.7,0,3.4,0,5
		c0,1.7,0,3.4,0,5.1c0,1.6,0,3.1,0,4.7c1,11.1,17.2,13.3,18.2,21.9c1.6,14-20.5,18.3-29.8,28.8c-1,1.1-1.9,2.2-2.5,3.5
		c-0.5,1.6-0.5,3.8,0,5.4c4.9,12.4,9.5,24.9,12.1,37.9c0.4,1.9,0.7,3.7,0.9,5.7c1,13-14.6,15.7-19.4,25.9c-0.5,1.1,0,2.2,0.5,3.2
		c1.1,1.4,2.3,2.7,3.6,3.9c1.3,1.2,2.7,2.2,4.1,3.3c10.6,10.1,31.1,17.6,30.6,31.1c0,8.6-17.2,11.8-18.2,23.7c0,1.6,0,3.1-0.1,4.7
		c-0.5,10.4-11.3,15.2-18.3,21.2c-1.6,1.1-2.2,3.2-1.6,4.9c1.6,3.7,3.8,6.4,6.5,9.1c11.3,11.3,34.5,22.1,29.1,38.8
		c-1.6,4.8-10.8,3.8-14,9.7c23.7,3.8,47.4,3.8,71.1,5.4c0,0-0.2-1.1-1.1-3.4c-3.7-10.1-14.3-16.5-15-27.8c-5.5-4.3-10.8-8.6-15.1-13
		C2857.8,1972.3,2853.8,1967.3,2850.7,1960.2z"/>
	<path fill="#1C4E24" d="M2994.9,2019.6c-0.1-2.4-0.1-4.8-0.1-7.3c0-5,0-10.2,0-15.8c0-2.3-0.1-4.7-0.3-7.1
		c-1.7-16.1-22-24.2-20-39.5c2-25.4,20.3-47.7,41.2-62.2c2.4-2,4.7-4,6.7-6.3c1.7-1.7,3.2-3.5,4.3-5.6c-1.5-4-3-8-4.6-12
		c-0.3-0.8-0.4-1.8-0.4-2.8c-16.1-16.1-34.1-31.2-43.2-52c-1.8-2.8-4-5.2-6.5-7.4c-9.9-8.7-23.9-13.9-32-25.4c-1-3,0-6.1,2-7.1
		c28.4-16.2,57.8-36.5,52.8-73.1c0-3.5,0-6.9,0-10.4c0-17.4,0-34.9,0-52.5c0-2.8,0-5.6,0.1-8.5c0.9-24,34.4-29,37.4-49.3
		c2-16.2-23.3-19.3-32.5-34.5c-1.5-2.5-3-5.1-4-7.8c-1-2.7-1.5-5.6-0.9-8.9c2-25.9-30.5-33-38.6-55.3c-1-2,0-4.1,1-6.1
		c12.2-13.2,33.5-18.3,37.4-37.5c0.1-2.9,0.1-5.8,0.1-8.7c0-3.2,0-6.4,0.3-9.6c1.8-19.2,21.1-26.3,33.2-38.5c2-3,4.1-6.1,3-9.1
		c-8.5-15.2-27.5-24.1-34.1-39.4c-1.3-3.1-2.2-6.4-2.4-10.2c-1-22.4-22.3-33.5-34.5-51.8c-2-3-5.1-7.1-2-10.1
		c7.7-10.6,22.8-15.8,30.9-26.1c1.6-2.1,3-4.4,3.9-7c1.6-3.4,0.6-6.4,0.6-9.5c-2-6.1-3-12.2-3-18.3c-0.5-2.7-0.8-5.3-1-8
		c-0.2-2.7-0.2-5.3-0.2-8.1c-1.8-19.5,11.4-49.9-11-56c-13.2-4.1-29.4,2-36.5,11.2c-19.3,26.4-30.4,55.8-61.3,70.8
		c-3.1,2.1-5.8,3.9-8.4,5.9c-6.7,4.7-12.5,10-16.5,16.7c-2,2,0,6.1,1.7,8c1.4,2.5,3,5,4.7,7.4c10.1,14.3,23.8,26.2,25.8,44.3
		c0.3,3.2,0.3,6.4,0.3,9.6c0,3.2,0,6.5,0,9.8c0,2.7,0,5.5,0,8.3c2.9,23.3,28.3,30.4,39.5,48.6c1,2,0,4.1-1,6.1
		c-13.2,15.2-40.6,21.3-38.6,46.1c-0.2,3.1-0.9,5.9-2.2,8.3c-6.2,12.1-23.6,16.8-31.2,27.8c-15.2,20.3,24.3,31.5,30.4,51.7
		c1,4.1,3,8.1,3.1,13c0,3.2,0,6.3,0,9.5c0,3.2,0,6.4,0,9.6c0,2.9,0,5.9,0.1,8.9c1.9,21,32.4,25,34.4,41.3
		c2.4,20.9-23.1,30.3-42.6,43.1c4.1,7,13,11.6,17.1,19c0.5,1.6-0.5,3.2-1.6,4.8c-6.5,6.5-16.7,10.2-17.6,20.4
		c-0.1,1.7-0.1,3.4-0.1,5.1c0,1.5,0,3.1-0.1,4.6c-0.6,2.9-1.9,5.1-3.6,7.1c4.2,12.5,7.9,25.2,10.4,38.3c0.7,3.5,1.3,7,1.7,10.7
		c0.3,3.8-0.2,7.2-1.2,10.2c5.8,4.4,13.5,6.9,12.7,13.5c-1.6,10.8-19.4,13.5-19.9,26.2c-0.1,1.5-0.1,3-0.1,4.5c0,8.1,0,16.2,0,24.2
		c20.3,14.5,45.7,27.7,44.9,48.4c0,16.2-32.5,22.3-34.3,44.6c0,0,0,0,0,0c1.4,1.3,2.7,2.6,4,4c1.6,2.2,3.8,4.8,2.7,7
		c-0.6,1.3-1.5,2.5-2.6,3.5c-1.1,1.2-2.3,2.2-3.6,3.3c-1.5,1-2.9,2.1-4.3,3.3c-2.8,5-7,9.2-11.7,13c-3.2,5.1-5.4,10.7-5.9,16.7
		c-1.1,8.1,9.7,12.4,10.6,20.9c0.1,1.3,0.1,2.5,0.2,3.8c0,2.9,0,5.7,0,8.4c0,1.3,0,2.6,0.1,3.9c0,0.1,0,0.2,0,0.3
		c13.1,10.3,27.7,20.8,35.5,33.1h81.8C2995.1,2022.2,2995,2020.9,2994.9,2019.6z"/>
	<path fill="#1C4E24" d="M3022.1,1864.1c1.6,4,3.1,8,4.6,12c0.2-0.4,0.4-0.7,0.6-1.1c2-4.1-2-9.1-5.1-13.2c-0.2-0.2-0.3-0.3-0.5-0.5
		C3021.7,1862.3,3021.9,1863.2,3022.1,1864.1z"/>
	<path fill="#1C4E24" d="M2866.6,1632c-2,2.1-3.5,4.2-4.7,6.6c-1,3-1,7.1,0,10.1c4.3,11,8.6,22,12.3,33.2c1.7-1.9,3-4.2,3.6-7.1
		c0.1-1.5,0.1-3.1,0.1-4.6c0-1.7,0-3.4,0.1-5.1c0.9-10.2,11.2-14,17.6-20.4c1.1-1.6,2.2-3.2,1.6-4.8c-4.1-7.4-13-12-17.1-19
		C2875,1624.2,2870.3,1627.8,2866.6,1632z"/>
	<path fill="#1C4E24" d="M2849.7,1779.6c-1,2,0,4.1,1,6.1c2,2.7,4.3,5.1,6.8,7.3c2.5,2.2,5.1,4.2,7.7,6.2c3.7,3.5,8.1,6.9,12.7,10.2
		c0-8,0-16.1,0-24.2c0-1.5,0-3,0.1-4.5c0.5-12.7,18.2-15.4,19.9-26.2c0.8-6.6-6.9-9.1-12.7-13.5
		C2879.6,1757.2,2857.4,1763.3,2849.7,1779.6z"/>
	<path fill="#1C4E24" d="M2884.7,1923.4c1.4-1.2,2.9-2.3,4.3-3.3c1.3-1.1,2.5-2.1,3.6-3.3c1.1-1,2-2.2,2.6-3.5
		c1.1-2.2-1.1-4.8-2.7-7c-1.3-1.3-2.7-2.6-4-4c-0.1,3-0.1,5.9-0.1,8.8C2888,1915.8,2886.7,1919.8,2884.7,1923.4z"/>
	<path fill="#1C4E24" d="M2877.9,1986.2c0-2.6,0-5.4,0-8.4c0-1.2-0.1-2.5-0.2-3.8c-0.9-8.6-11.7-12.9-10.6-20.9
		c0.5-5.9,2.6-11.6,5.9-16.7c-6.3,5.2-13.4,9.7-19.2,14.6c-3,2-4.1,6.1-3,9.2c3,7,7.1,12.1,12.2,17.2c4.3,4.3,9.6,8.6,15.1,13
		c0-0.1,0-0.2,0-0.3C2877.9,1988.8,2877.9,1987.5,2877.9,1986.2z"/>
	<path fill="#162818" d="M146.5,1489.7c-0.5,3.3-0.1,6.2,0.9,8.9c1,2.7,2.5,5.3,4,7.8c1.7,2.9,4,5.3,6.6,7.5
		c1.3-1.1,2.5-2.3,3.5-3.6c1.1-1.4,1.9-2.9,2.6-4.6c1.1-2.2,0.4-4.2,0.4-6.2c-1.3-4-2-7.9-2-11.9c-0.3-1.7-0.5-3.5-0.7-5.2
		c-0.1-1.7-0.1-3.5-0.1-5.2c-1.2-12.7,7.4-32.5-7.1-36.5c-8.6-2.6-19.2,1.3-23.8,7.3c-1.9,2.6-3.7,5.2-5.4,7.9
		C136.4,1465.4,147.7,1474.1,146.5,1489.7z"/>
	<path fill="#162818" d="M146.5,1590.3c-0.1,2.9-0.1,5.7-0.1,8.5c0,17.6,0,35.1,0,52.5c0,3.5,0,6.9,0,10.4c0,0.3,0.1,0.5,0.1,0.8
		c7.6-5.5,16.6-9.6,18.6-19.5c0.1-1.9,0.1-3.8,0.1-5.7c0-2.1,0-4.2,0.2-6.2c1.2-12.5,13.7-17.2,21.6-25.1c1.3-2,2.6-4,2-5.9
		c-5.5-9.9-17.9-15.7-22.2-25.7c-0.9-2-1.4-4.2-1.6-6.7c-0.1-1.3-0.2-2.5-0.5-3.7C155.7,1570.9,147,1578.2,146.5,1590.3z"/>
	<path fill="#162818" d="M146.1,1954.8c0.2,2.4,0.2,4.8,0.3,7.1c0,5.5,0,10.8,0,15.8c0,2.5,0,4.9,0.1,7.3
		c0.6,14.8,10.3,25.2,18.6,36.4c0-2.1,0-4.3,0-6.5c0-1.5-0.1-3.1-0.2-4.6c-1.1-10.5-14.3-15.8-13-25.7c1.3-16.5,13.2-31,26.8-40.5
		c1.6-1.3,3.1-2.6,4.4-4.1c1.3-1.3,2.4-2.7,3.2-4.3c1.3-2.6-1.3-5.9-3.3-8.6c-10.6-10.6-22.5-20.5-28.4-34.2
		c-1.2-1.8-2.6-3.4-4.2-4.8c-3.2-2.8-7.1-5.1-10.9-7.6c-7.3,10.5-12.3,22.3-13.3,34.9C124.1,1930.5,144.4,1938.6,146.1,1954.8z"/>
	<path fill="#162818" d="M104.7,1728.1c5.9,4.4,12.8,7.9,13.5,13.9c0.8,6.6-2.8,11.4-8.1,15.6c4.7,3,9.4,6,13.4,9.5
		c2.5,2.2,4.7,4.6,6.5,7.4c7.6,17.3,21.3,30.7,35,44c0-2,0-4,0-6c0-11.3,0-22.7,0-34.2c0-1.8,0-3.7,0.1-5.5
		c0.6-15.6,22.4-18.9,24.4-32.1c1.3-10.6-15.2-12.6-21.1-22.5c-1-1.7-2-3.3-2.6-5.1c-0.7-1.8-1-3.7-0.6-5.8
		c1-12.9-11.2-18.6-19.3-27.1C141.5,1701.5,124,1716.1,104.7,1728.1z"/>
	<path fill="#162818" d="M90.9,1494.2c-2,1.4-3.7,2.5-5.5,3.8c-4.3,3-8.1,6.5-10.7,10.9c-1.3,1.3,0,4,1.1,5.2c0.9,1.7,2,3.2,3.1,4.8
		c6.6,9.3,15.5,17.1,16.8,28.8c0.2,2.1,0.2,4.2,0.2,6.3c0,2.1,0,4.2,0,6.4c0,1.8,0,3.6,0,5.4c1.9,15.1,18.4,19.8,25.7,31.7
		c0.7,1.3,0,2.6-0.7,4c-8.6,9.9-26.4,13.9-25.1,30c-0.1,2-0.6,3.8-1.4,5.4c-4,7.9-15.4,10.9-20.3,18.1
		c-9.9,13.2,15.9,20.5,19.8,33.7c0.7,2.6,2,5.3,2,8.5c0,2.1,0,4.1,0,6.2c0,2.1,0,4.1,0,6.2c0,1.9,0,3.8,0,5.8
		c0.5,5.8,4.5,9.7,8.9,12.9c19.2-12,36.8-26.6,41.2-47.9c-2.5-2.6-4.6-5.5-5.9-8.9c-0.7-1.3,0-2.6,0.7-4c1.7-1.9,3.7-3.5,5.8-5
		c0-0.3-0.1-0.5-0.1-0.8c0-3.5,0-6.9,0-10.4c0-17.4,0-34.9,0-52.5c0-2.8,0-5.6,0.1-8.5c0.5-12.1,9.2-19.4,18.2-26.2
		c-2.6-12.2-14.8-19.2-22-30.1c-1.3-2-3.3-4.6-1.3-6.6c4.1-5.6,11.3-8.8,16.7-13.5c-2.6-2.2-4.9-4.6-6.6-7.5c-1.5-2.5-3-5.1-4-7.8
		c-1-2.7-1.5-5.6-0.9-8.9c1.2-15.6-10.1-24.4-21.1-33.8C115.8,1470.8,107.9,1485.9,90.9,1494.2z"/>
	<path fill="#162818" d="M130.1,1774.6c-1.8-2.8-4-5.2-6.5-7.4c-4-3.5-8.7-6.5-13.4-9.5c-8.5,6.7-21.4,11.8-28.5,19.7
		c-1.3,1.4-2.3,2.7-3.1,4.3c-0.7,2-0.7,4.6,0,6.6c6,15.3,11.7,30.5,14.8,46.5c0.4,2.3,0.8,4.6,1.1,6.9c1.2,15.9-17.9,19.2-23.9,31.8
		c-0.7,1.3,0,2.6,0.7,4c1.3,1.8,2.8,3.3,4.4,4.8c1.6,1.4,3.3,2.8,5,4c13,12.4,38.2,21.6,37.5,38.1c0,10.6-21.1,14.5-22.4,29.1
		c-0.1,1.9-0.1,3.8-0.1,5.7c-0.7,12.8-13.9,18.7-22.5,26c-2,1.3-2.6,4-2,6c2,4.6,4.6,7.9,7.9,11.2c6.9,6.9,17.4,13.6,25.4,21.2h60.5
		c0-0.7,0-1.4,0-2.1c-8.3-11.2-18-21.6-18.6-36.4c-0.1-2.4-0.1-4.8-0.1-7.3c0-5,0-10.2,0-15.8c0-2.3-0.1-4.7-0.3-7.1
		c-1.7-16.1-22-24.2-20-39.5c1-12.6,6-24.4,13.3-34.9c-3.7-2.5-7.3-5.2-9.9-8.9c-0.7-2,0-4,1.3-4.6c18.5-10.6,37.7-23.8,34.4-47.6
		c0-0.2,0-0.5,0-0.7C151.5,1805.3,137.7,1791.9,130.1,1774.6z"/>
	<path fill="#162818" d="M618.7,2001.4c1.3-16.5,13.2-31,26.8-40.5c1.6-1.3,3.1-2.6,4.4-4.1c1.3-1.3,2.4-2.7,3.2-4.3
		c1.3-2.6-1.3-5.9-3.3-8.6c-10.6-10.6-22.5-20.5-28.4-34.2c-1.2-1.8-2.6-3.4-4.2-4.8c-6.5-5.7-15.6-9-20.8-16.5c-0.7-2,0-4,1.3-4.6
		c18.5-10.6,37.7-23.8,34.4-47.6c0-2.3,0-4.5,0-6.8c0-11.3,0-22.7,0-34.2c0-1.8,0-3.7,0.1-5.5c0.6-15.6,22.4-18.9,24.4-32.1
		c1.3-10.6-15.2-12.6-21.1-22.5c-1-1.7-2-3.3-2.6-5.1c-0.7-1.8-1-3.7-0.6-5.8c1.3-16.9-19.9-21.5-25.2-36c-0.7-1.3,0-2.6,0.7-4
		c7.9-8.6,21.8-11.9,24.4-24.4c0.1-1.9,0.1-3.8,0.1-5.7c0-2.1,0-4.2,0.2-6.2c1.2-12.5,13.7-17.2,21.6-25.1c1.3-2,2.6-4,2-5.9
		c-5.5-9.9-17.9-15.7-22.2-25.7c-0.9-2-1.4-4.2-1.6-6.7c-0.7-14.6-14.6-21.8-22.5-33.7c-1.3-2-3.3-4.6-1.3-6.6
		c5-6.9,14.9-10.3,20.1-17c1.1-1.4,1.9-2.9,2.6-4.6c1.1-2.2,0.4-4.2,0.4-6.2c-1.3-4-2-7.9-2-11.9c-0.3-1.7-0.5-3.5-0.7-5.2
		c-0.1-1.7-0.1-3.5-0.1-5.2c-1.2-12.7,7.4-32.5-7.1-36.5c-8.6-2.6-19.2,1.3-23.8,7.3c-12.6,17.2-19.8,36.3-39.9,46.1
		c-2,1.4-3.7,2.5-5.5,3.8c-4.3,3-8.1,6.5-10.7,10.9c-1.3,1.3,0,4,1.1,5.2c0.9,1.7,2,3.2,3.1,4.8c6.6,9.3,15.5,17.1,16.8,28.8
		c0.2,2.1,0.2,4.2,0.2,6.3c0,2.1,0,4.2,0,6.4c0,1.8,0,3.6,0,5.4c1.9,15.1,18.4,19.8,25.7,31.7c0.7,1.3,0,2.6-0.7,4
		c-8.6,9.9-26.4,13.9-25.1,30c-0.1,2-0.6,3.8-1.4,5.4c-4,7.9-15.4,10.9-20.3,18.1c-9.9,13.2,15.9,20.5,19.8,33.7
		c0.7,2.6,2,5.3,2,8.5c0,2.1,0,4.1,0,6.2c0,2.1,0,4.1,0,6.2c0,1.9,0,3.8,0,5.8c1.3,13.7,21.1,16.3,22.4,26.9
		c2,17.2-25.1,22.5-36.6,35.3c-1.3,1.4-2.3,2.7-3.1,4.3c-0.7,2-0.7,4.6,0,6.6c6,15.3,11.7,30.5,14.8,46.5c0.4,2.3,0.8,4.6,1.1,6.9
		c1.2,15.9-17.9,19.2-23.9,31.8c-0.7,1.3,0,2.6,0.7,4c1.3,1.8,2.8,3.3,4.4,4.8c1.6,1.4,3.3,2.8,5,4c13,12.4,38.2,21.6,37.5,38.1
		c0,10.6-21.1,14.5-22.4,29.1c-0.1,1.9-0.1,3.8-0.1,5.7c-0.7,12.8-13.9,18.7-22.5,26c-2,1.3-2.6,4-2,6c2,4.6,4.6,7.9,7.9,11.2
		c1.4,1.4,3,2.8,4.6,4.2h80.1C627.5,2015.3,617.5,2010.1,618.7,2001.4z"/>
	<path fill="#162818" d="M2067.7,2004.9c0.9-0.7,1.7-1.5,2.4-2.3c0.7-0.7,1.3-1.5,1.8-2.4c0.7-1.5-0.7-3.3-1.8-4.8
		c-5.9-5.9-12.5-11.4-15.8-19c-0.7-1-1.5-1.9-2.4-2.7c-3.6-3.2-8.6-5-11.6-9.2c-0.4-1.1,0-2.2,0.7-2.6c10.3-5.9,20.9-13.2,19.1-26.4
		c0-1.3,0-2.5,0-3.8c0-6.3,0-12.6,0-19c0-1,0-2,0-3.1c0.3-8.7,12.4-10.5,13.5-17.8c0.7-5.9-8.4-7-11.7-12.5
		c-0.6-0.9-1.1-1.8-1.5-2.8c-0.4-1-0.5-2-0.3-3.2c0.7-9.4-11-11.9-14-20c-0.4-0.7,0-1.5,0.4-2.2c4.4-4.8,12.1-6.6,13.5-13.6
		c0-1.1,0-2.1,0-3.1c0-1.2,0-2.3,0.1-3.5c0.6-7,7.6-9.5,12-13.9c0.7-1.1,1.5-2.2,1.1-3.3c-3.1-5.5-9.9-8.7-12.3-14.3
		c-0.5-1.1-0.8-2.3-0.9-3.7c-0.4-8.1-8.1-12.1-12.5-18.7c-0.7-1.1-1.8-2.6-0.7-3.7c2.8-3.8,8.3-5.7,11.2-9.5
		c0.6-0.8,1.1-1.6,1.4-2.5c0.6-1.2,0.2-2.3,0.2-3.4c-0.7-2.2-1.1-4.4-1.1-6.6c-0.2-1-0.3-1.9-0.4-2.9c-0.1-1-0.1-1.9-0.1-2.9
		c-0.7-7,4.1-18.1-4-20.3c-4.8-1.5-10.6,0.7-13.2,4c-7,9.5-11,20.2-22.2,25.6c-1.1,0.8-2.1,1.4-3,2.1c-2.4,1.7-4.5,3.6-6,6
		c-0.7,0.7,0,2.2,0.6,2.9c0.5,0.9,1.1,1.8,1.7,2.7c3.7,5.2,8.6,9.5,9.4,16c0.1,1.2,0.1,2.3,0.1,3.5c0,1.2,0,2.3,0,3.5c0,1,0,2,0,3
		c1.1,8.4,10.2,11,14.3,17.6c0.4,0.7,0,1.5-0.4,2.2c-4.8,5.5-14.7,7.7-14,16.7c-0.1,1.1-0.3,2.1-0.8,3c-2.2,4.4-8.5,6.1-11.3,10
		c-5.5,7.3,8.8,11.4,11,18.7c0.4,1.5,1.1,2.9,1.1,4.7c0,1.1,0,2.3,0,3.4c0,1.1,0,2.3,0,3.5c0,1.1,0,2.1,0,3.2
		c0.7,7.6,11.7,9.1,12.4,14.9c1.1,9.5-13.9,12.5-20.3,19.6c-0.7,0.8-1.3,1.5-1.7,2.4c-0.4,1.1-0.4,2.6,0,3.7
		c3.3,8.5,6.5,17,8.2,25.8c0.2,1.3,0.5,2.5,0.6,3.9c0.7,8.8-10,10.7-13.3,17.6c-0.4,0.7,0,1.5,0.4,2.2c0.7,1,1.6,1.8,2.5,2.6
		c0.9,0.8,1.8,1.5,2.8,2.2c7.2,6.9,21.2,12,20.8,21.2c0,5.9-11.7,8.1-12.4,16.2c0,1.1,0,2.1,0,3.2c-0.2,4.5-3.3,7.5-6.8,10.1h38.7
		C2055.5,2015.9,2061.2,2009.4,2067.7,2004.9z"/>
	<path fill="#162818" d="M2411.2,2018.9c0.8-0.7,1.6-1.4,2.3-2.2c0.7-0.7,1.3-1.4,1.7-2.3c0.7-1.4-0.7-3.2-1.8-4.6
		c-5.6-5.6-12-10.9-15.2-18.3c-0.6-1-1.4-1.8-2.3-2.6c-3.4-3-8.3-4.8-11.1-8.8c-0.4-1.1,0-2.1,0.7-2.5c9.9-5.6,20.1-12.7,18.4-25.4
		c0-1.2,0-2.4,0-3.6c0-6,0-12.1,0-18.3c0-1,0-2,0-3c0.3-8.3,12-10.1,13-17.2c0.7-5.6-8.1-6.7-11.3-12c-0.5-0.9-1.1-1.8-1.4-2.7
		c-0.3-0.9-0.5-2-0.3-3.1c0.7-9-10.6-11.5-13.4-19.3c-0.4-0.7,0-1.4,0.4-2.1c4.2-4.6,11.6-6.4,13-13.1c0-1,0-2,0-3
		c0-1.1,0-2.2,0.1-3.3c0.6-6.7,7.3-9.2,11.6-13.4c0.7-1.1,1.4-2.1,1.1-3.2c-2.9-5.3-9.6-8.4-11.9-13.7c-0.5-1.1-0.8-2.2-0.8-3.6
		c-0.4-7.8-7.8-11.7-12-18c-0.7-1.1-1.8-2.5-0.7-3.5c2.7-3.7,7.9-5.5,10.8-9.1c0.6-0.7,1-1.5,1.4-2.4c0.6-1.2,0.2-2.2,0.2-3.3
		c-0.7-2.1-1.1-4.2-1.1-6.4c-0.2-0.9-0.3-1.9-0.3-2.8c-0.1-0.9-0.1-1.9-0.1-2.8c-0.6-6.8,4-17.4-3.8-19.5
		c-4.6-1.4-10.2,0.7-12.7,3.9c-6.7,9.2-10.6,19.4-21.3,24.6c-1.1,0.7-2,1.4-2.9,2c-2.3,1.6-4.3,3.5-5.7,5.8c-0.7,0.7,0,2.1,0.6,2.8
		c0.5,0.9,1,1.7,1.6,2.6c3.5,5,8.3,9.1,9,15.4c0.1,1.1,0.1,2.2,0.1,3.3c0,1.1,0,2.2,0,3.4c0,1,0,1.9,0,2.9c1,8.1,9.8,10.6,13.7,16.9
		c0.4,0.7,0,1.4-0.4,2.1c-4.6,5.3-14.1,7.4-13.4,16.1c-0.1,1.1-0.3,2-0.8,2.9c-2.1,4.2-8.2,5.8-10.9,9.7c-5.3,7.1,8.5,10.9,10.6,18
		c0.4,1.4,1.1,2.8,1.1,4.5c0,1.1,0,2.2,0,3.3s0,2.2,0,3.3c0,1,0,2.1,0,3.1c0.7,7.3,11.3,8.7,12,14.4c1.1,9.2-13.4,12-19.5,18.9
		c-0.7,0.7-1.2,1.5-1.6,2.3c-0.4,1.1-0.4,2.5,0,3.5c3.2,8.2,6.3,16.3,7.9,24.9c0.2,1.2,0.4,2.4,0.6,3.7c0.7,8.5-9.6,10.3-12.8,17
		c-0.4,0.7,0,1.4,0.4,2.1c0.7,0.9,1.5,1.8,2.4,2.5c0.9,0.8,1.8,1.5,2.7,2.2c7,6.6,20.4,11.5,20,20.4c0,5.5-10.8,7.7-11.9,15.1h38.7
		C2407.4,2021.8,2409.3,2020.2,2411.2,2018.9z"/>
</g>
<g>
	<path d="M2700.2,1615.7c0,0-23.2,307.3,57.6,335.7v-27.6c0,0-63.3-16.2-47.3-304.8L2700.2,1615.7z"/>
	
		<ellipse fill="#FFED00" stroke="#000000" stroke-width="8" stroke-miterlimit="10" cx="2374.1" cy="1435.1" rx="218.8" ry="197.1"/>
	<path fill="#448CCA" stroke="#000000" stroke-width="8" stroke-miterlimit="10" d="M2155.4,1435.1c0,27.3,6.2,53.3,17.3,76.9
		c23.2,7.5,48.2,11.7,74.3,11.7c120.8,0,218.8-88.3,218.8-197.1c0-27.3-6.2-53.3-17.3-76.9c-23.2-7.5-48.2-11.7-74.3-11.7
		C2253.3,1237.9,2155.4,1326.2,2155.4,1435.1z"/>
	<g>
		<path fill="#448CCA" stroke="#000000" stroke-width="8" stroke-miterlimit="10" d="M2158,1465.6c0-0.2-0.1-0.3-0.1-0.5
			C2157.9,1465.3,2158,1465.5,2158,1465.6z"/>
		<path fill="#448CCA" stroke="#000000" stroke-width="8" stroke-miterlimit="10" d="M2156.6,1456.2c0-0.3-0.1-0.6-0.1-1
			C2156.5,1455.6,2156.6,1455.9,2156.6,1456.2z"/>
		<path fill="#448CCA" stroke="#000000" stroke-width="8" stroke-miterlimit="10" d="M2157.3,1460.9c0-0.2-0.1-0.5-0.1-0.7
			C2157.2,1460.5,2157.2,1460.7,2157.3,1460.9z"/>
		<path fill="#448CCA" stroke="#000000" stroke-width="8" stroke-miterlimit="10" d="M2156.1,1451.4c0-0.4-0.1-0.8-0.1-1.1
			C2156,1450.6,2156.1,1451,2156.1,1451.4z"/>
		<path fill="#448CCA" stroke="#000000" stroke-width="8" stroke-miterlimit="10" d="M2155.5,1441.5c0-0.5,0-0.9-0.1-1.4
			C2155.5,1440.6,2155.5,1441.1,2155.5,1441.5z"/>
		<path fill="#448CCA" stroke="#000000" stroke-width="8" stroke-miterlimit="10" d="M2155.8,1446.7c0-0.5-0.1-1-0.1-1.4
			C2155.7,1445.7,2155.7,1446.2,2155.8,1446.7z"/>
		<path fill="#448CCA" stroke="#000000" stroke-width="8" stroke-miterlimit="10" d="M2161,1479.7
			C2161,1479.7,2161,1479.7,2161,1479.7C2161,1479.7,2161,1479.7,2161,1479.7z"/>
		<polygon fill="#448CCA" stroke="#000000" stroke-width="8" stroke-miterlimit="10" points="2172.7,1512 2172.7,1512 2172.7,1512 
					"/>
		<path fill="#448CCA" stroke="#000000" stroke-width="8" stroke-miterlimit="10" d="M2159.9,1475.1c0-0.1,0-0.1,0-0.2
			C2159.9,1475,2159.9,1475,2159.9,1475.1z"/>
		<path fill="#448CCA" stroke="#000000" stroke-width="8" stroke-miterlimit="10" d="M2158.9,1470.4c0-0.1-0.1-0.2-0.1-0.4
			C2158.8,1470.2,2158.9,1470.3,2158.9,1470.4z"/>
		<path fill="#448CCA" stroke="#000000" stroke-width="8" stroke-miterlimit="10" d="M2156.2,1417.6c0.5-5.1,1.2-10.2,2.1-15.2
			C2157.5,1407.4,2156.7,1412.5,2156.2,1417.6z"/>
		<path fill="#448CCA" stroke="#000000" stroke-width="8" stroke-miterlimit="10" d="M2155.6,1425.9c0-0.7,0.1-1.5,0.1-2.2
			C2155.7,1424.4,2155.7,1425.1,2155.6,1425.9z"/>
		<path fill="#448CCA" stroke="#000000" stroke-width="8" stroke-miterlimit="10" d="M2155.9,1421.5c0.1-0.9,0.1-1.8,0.2-2.7
			C2156,1419.7,2156,1420.6,2155.9,1421.5z"/>
		<path fill="#448CCA" stroke="#000000" stroke-width="8" stroke-miterlimit="10" d="M2155.4,1430.4c0-0.6,0-1.2,0.1-1.7
			C2155.5,1429.3,2155.5,1429.8,2155.4,1430.4z"/>
		<path opacity="0.26" stroke="#000000" stroke-width="8" stroke-miterlimit="10" d="M2158.8,1470c-0.3-1.5-0.6-2.9-0.8-4.4
			C2158.3,1467.1,2158.5,1468.6,2158.8,1470z"/>
		<path opacity="0.26" stroke="#000000" stroke-width="8" stroke-miterlimit="10" d="M2592.9,1434.3
			c-17.3,93.3-107.9,160.3-216.3,160.3c-70.9,0-133.7-29-173.5-74.9c-10.4-1.9-20.5-4.5-30.4-7.7c33.3,70.7,110.9,120.2,201.5,120.2
			c120.8,0,218.8-88.3,218.8-197.1C2592.9,1434.8,2592.9,1434.5,2592.9,1434.3z"/>
		<path opacity="0.26" stroke="#000000" stroke-width="8" stroke-miterlimit="10" d="M2155.4,1435.1c0-1.6,0-3.1,0.1-4.6
			C2155.4,1432,2155.4,1433.5,2155.4,1435.1z"/>
		<path opacity="0.26" stroke="#000000" stroke-width="8" stroke-miterlimit="10" d="M2156.1,1418.9c0-0.4,0.1-0.8,0.1-1.3
			C2156.2,1418,2156.2,1418.4,2156.1,1418.9z"/>
		<path opacity="0.26" stroke="#000000" stroke-width="8" stroke-miterlimit="10" d="M2161,1479.7c-0.4-1.5-0.8-3.1-1.1-4.6
			C2160.2,1476.6,2160.6,1478.2,2161,1479.7z"/>
		<path opacity="0.26" stroke="#000000" stroke-width="8" stroke-miterlimit="10" d="M2172.7,1512c-4.9-10.3-8.8-21.1-11.6-32.2
			C2163.9,1490.9,2167.8,1501.7,2172.7,1512z"/>
		<path opacity="0.26" stroke="#000000" stroke-width="8" stroke-miterlimit="10" d="M2159.8,1474.9c-0.3-1.5-0.7-3-1-4.5
			C2159.2,1471.9,2159.5,1473.4,2159.8,1474.9z"/>
		<polygon opacity="0.26" stroke="#000000" stroke-width="8" stroke-miterlimit="10" points="2158.4,1402.4 2158.4,1402.4 
			2158.4,1402.4 		"/>
		<path opacity="0.26" stroke="#000000" stroke-width="8" stroke-miterlimit="10" d="M2155.7,1445.2c-0.1-1.2-0.1-2.5-0.2-3.7
			C2155.6,1442.8,2155.6,1444,2155.7,1445.2z"/>
		<path opacity="0.26" stroke="#000000" stroke-width="8" stroke-miterlimit="10" d="M2156,1450.3c-0.1-1.2-0.2-2.4-0.3-3.6
			C2155.8,1447.9,2155.9,1449.1,2156,1450.3z"/>
		<path opacity="0.26" stroke="#000000" stroke-width="8" stroke-miterlimit="10" d="M2155.5,1428.7c0-0.9,0.1-1.9,0.1-2.8
			C2155.6,1426.8,2155.5,1427.7,2155.5,1428.7z"/>
		<path opacity="0.26" stroke="#000000" stroke-width="8" stroke-miterlimit="10" d="M2155.4,1440.2c0-1.7-0.1-3.4-0.1-5.1
			C2155.4,1436.8,2155.4,1438.5,2155.4,1440.2z"/>
		<path opacity="0.26" stroke="#000000" stroke-width="8" stroke-miterlimit="10" d="M2157.1,1460.2c-0.2-1.3-0.4-2.7-0.5-4
			C2156.8,1457.6,2157,1458.9,2157.1,1460.2z"/>
		<path opacity="0.26" stroke="#000000" stroke-width="8" stroke-miterlimit="10" d="M2157.9,1465.2c-0.2-1.4-0.5-2.8-0.7-4.2
			C2157.5,1462.3,2157.7,1463.8,2157.9,1465.2z"/>
		<path opacity="0.26" stroke="#000000" stroke-width="8" stroke-miterlimit="10" d="M2156.5,1455.3c-0.1-1.3-0.3-2.6-0.4-3.9
			C2156.2,1452.7,2156.4,1454,2156.5,1455.3z"/>
		<path opacity="0.26" stroke="#000000" stroke-width="8" stroke-miterlimit="10" d="M2155.8,1423.6c0-0.7,0.1-1.4,0.1-2.1
			C2155.8,1422.2,2155.8,1422.9,2155.8,1423.6z"/>
	</g>
	<g>
		<path fill="#E94E1B" stroke="#000000" stroke-width="8" stroke-miterlimit="10" d="M2875,1405.7c-1.9-1.2-3.8-2.4-5.8-3.6
			c-5.1-3-10.5-5.8-16.1-8.5c15.6,15.6,26.5,51,26.5,92.1c0,39.9-10.3,74.3-25.1,90.6c4.3-2.1,8.4-4.2,12.4-6.5
			c3.5-2,6.9-4.1,10.1-6.3c13.3-13.1,22.6-43.1,22.6-78C2899.7,1448.8,2889.4,1417.6,2875,1405.7z"/>
		<path fill="#FFED00" stroke="#000000" stroke-width="8" stroke-miterlimit="10" d="M2853.1,1393.3c-6.6-3.1-13.5-5.9-20.7-8.4
			c-25.3-8.8-54.4-13.8-85.2-13.8c-98.7,0-178.8,51-178.8,113.8s80,113.8,178.8,113.8c30.2,0,58.6-4.8,83.6-13.2
			c8.3-2.8,16.2-6,23.7-9.6c14.9-16.3,25.1-50.7,25.1-90.6C2879.6,1444.3,2868.7,1408.9,2853.1,1393.3z"/>
	</g>
	<path fill="#E94E1B" stroke="#000000" stroke-width="8" stroke-miterlimit="10" d="M2895.4,1297.9l0,1.9
		c0.9,36.7-28.2,67.1-64.9,68l-55.2,1.3c-36.7,0.9-67.1-28.2-68-64.9l0-1.9c-0.9-36.7,28.2-67.1,64.9-68l55.2-1.3
		C2864.1,1232.2,2894.5,1261.3,2895.4,1297.9z"/>
	<path fill="#E94E1B" stroke="#000000" stroke-width="8" stroke-miterlimit="10" d="M2563.5,1684l-47.4,1c-36.7,0.8-67-28.3-67.8-65
		l0-1.9c-0.8-36.7,28.3-67,65-67.8l47.4-1c36.7-0.8,67,28.3,67.8,65l0,1.9C2629.2,1652.8,2600.2,1683.2,2563.5,1684z"/>
	
		<ellipse transform="matrix(0.8634 -0.5045 0.5045 0.8634 -355.7244 1497.1294)" fill="#FFFFFF" stroke="#000000" stroke-width="8" stroke-miterlimit="10" cx="2587.3" cy="1405.6" rx="47.7" ry="48.2"/>
	
		<ellipse transform="matrix(0.8634 -0.5045 0.5045 0.8634 -336.8604 1566.8125)" fill="#FFFFFF" stroke="#000000" stroke-width="8" stroke-miterlimit="10" cx="2725.5" cy="1405.6" rx="47.7" ry="48.2"/>
	<ellipse fill="#FFFFFF" stroke="#000000" stroke-width="8" stroke-miterlimit="10" cx="2540.2" cy="1250" rx="21" ry="7"/>
	
		<rect x="2472.6" y="1037.7" fill="#FFED00" stroke="#000000" stroke-width="8" stroke-miterlimit="10" width="104.4" height="78.5"/>
	
		<rect x="2498.5" y="1116.2" fill="#FFED00" stroke="#000000" stroke-width="8" stroke-miterlimit="10" width="78.5" height="154.8"/>
	<path fill="#FFED00" stroke="#000000" stroke-width="8" stroke-miterlimit="10" d="M2607.1,1290.6h-131.5c-5.4,0-9.9-4.5-9.9-9.9
		v-131.5c0-5.4,4.5-9.9,9.9-9.9h131.5c5.4,0,9.9,4.5,9.9,9.9l39.9,141.4C2656.9,1296,2612.6,1290.6,2607.1,1290.6z"/>
	<path fill="#FFED00" stroke="#000000" stroke-width="8" stroke-miterlimit="10" d="M2852.9,1434.8c0-109.2-139-197.7-310.5-197.7
		c-5.7,0-11.4,0.1-17,0.3h-150.8v31.1c-0.2,0.1-0.3,0.1-0.5,0.2v332.2c0.2,0.1,0.3,0.1,0.5,0.2v31.3h168.2v0
		C2714.1,1632.3,2852.9,1543.9,2852.9,1434.8z"/>
	<ellipse fill="#48B5E8" stroke="#000000" stroke-width="8" stroke-miterlimit="10" cx="2472.6" cy="1077" rx="13.1" ry="39.2"/>
	<circle fill="#48B5E8" stroke="#000000" stroke-width="8" stroke-miterlimit="10" cx="2463.2" cy="1347.1" r="39.1"/>
	<circle fill="#48B5E8" stroke="#000000" stroke-width="8" stroke-miterlimit="10" cx="2586.6" cy="1347.1" r="39.1"/>
	<circle fill="#48B5E8" stroke="#000000" stroke-width="8" stroke-miterlimit="10" cx="2709.9" cy="1347.1" r="39.1"/>
	<path opacity="0.11" d="M2398.3,1496v10c0,25,28,45.2,62.4,45.2h52c34.5,0,62.4-20.3,62.4-45.2v-10"/>
	<path fill="#E94E1B" stroke="#000000" stroke-width="8" stroke-miterlimit="10" d="M2398.3,1477.6v10c0,25,28,45.2,62.4,45.2h52
		c34.5,0,62.4-20.3,62.4-45.2v-10"/>
	<path opacity="0.21" stroke="#000000" stroke-width="8" stroke-miterlimit="10" d="M2581.6,1594.3c0,0-111.3,1.2-207.5,0.4v37.4
		c0.7,0,1.4,0,2,0c1,0,2,0,3,0v0.3h168.2v0c160-0.1,291.6-77.2,308.3-176.3C2710.4,1606.9,2581.6,1594.3,2581.6,1594.3z"/>
	<g>
		<path fill="#E94E1B" stroke="#000000" stroke-width="8" stroke-miterlimit="10" d="M2894,1440.1c-1.9-1.2-3.8-2.4-5.8-3.6
			c-5.1-3-10.5-5.8-16.1-8.5c15.6,15.6,26.5,51,26.5,92.1c0,39.9-10.3,74.3-25.1,90.6c4.3-2.1,8.4-4.2,12.4-6.5
			c3.5-2,6.9-4.1,10.1-6.3c13.3-13.1,22.6-43.1,22.6-78C2918.7,1483.3,2908.4,1452,2894,1440.1z"/>
		<path fill="#FFED00" stroke="#000000" stroke-width="8" stroke-miterlimit="10" d="M2872,1427.8c-6.6-3.1-13.5-5.9-20.7-8.4
			c-25.3-8.8-54.4-13.8-85.2-13.8c-98.7,0-178.8,51-178.8,113.8s80,113.8,178.8,113.8c30.2,0,58.6-4.8,83.6-13.2
			c8.3-2.8,16.2-6,23.7-9.6c14.9-16.3,25.1-50.7,25.1-90.6C2898.5,1478.7,2887.6,1443.4,2872,1427.8z"/>
	</g>
	<path opacity="0.25" d="M2888.6,1574.4c0,0.2-0.1,0.4-0.2,0.6c-124.9,65.2-246.9,4.6-301.2-30.7c15.7,52.7,88.3,92.5,175.6,92.5
		c30.2,0,58.6-4.8,83.6-13.2c8.3-2.8,16.2-6,23.7-9.6c0,0,0.1-0.1,0.1-0.1c4-1.9,7.9-4,11.6-6.1c3.5-2,6.9-4.1,10.1-6.3
		c8.1-8,14.8-22.3,18.7-40.1C2903.4,1566.1,2896,1570.5,2888.6,1574.4z"/>
	
		<line opacity="0.25" fill="none" stroke="#000000" stroke-width="8" stroke-miterlimit="10" x1="2398.3" y1="1477.6" x2="2579.9" y2="1477.6"/>
	<g>
		<path fill="#ADADAD" stroke="#000000" stroke-width="4" stroke-miterlimit="10" d="M2839,2015.3h14.2c7.6-16.5,5.7-36.5-6.6-51.5
			c-4,5.9-4,5.9-5.7,7.9C2849.7,1984.1,2850.7,2000.9,2839,2015.3z"/>
		<path fill="#ADADAD" stroke="#000000" stroke-width="4" stroke-miterlimit="10" d="M2765.7,1949.2l13.2,16.1l-19.7,16.1l5,6.2
			l19.7-16.1l35.8,43.8h11.5l-40.4-49.4l19.9-16.3l-5-6.2l-19.9,16.3l-13.2-16.1c3.5-5.3,3.3-12.5-0.9-17.7
			c-5.2-6.4-14.7-7.4-21.1-2.1c-6.4,5.2-7.4,14.7-2.1,21.1C2752.7,1950,2759.8,1951.6,2765.7,1949.2z M2754.7,1928.8
			c3.6-3,8.9-2.4,11.9,1.2c2.6,3.2,2.5,7.8-0.1,10.8l-2.3,1.9c-3.5,2-8,1.2-10.7-2C2750.6,1937,2751.1,1931.7,2754.7,1928.8z"/>
	</g>
</g>
<g>
	
		<circle opacity="0.17" fill="#448CCA" stroke="#FFFFFF" stroke-width="4" stroke-miterlimit="10" cx="658.9" cy="1265.3" r="49.1"/>
	
		<circle opacity="0.17" fill="#448CCA" stroke="#FFFFFF" stroke-width="4" stroke-miterlimit="10" cx="725.8" cy="1461.2" r="20.3"/>
	<circle opacity="0.17" fill="#448CCA" stroke="#FFFFFF" stroke-width="4" stroke-miterlimit="10" cx="629" cy="1407.6" r="20.3"/>
	
		<circle opacity="0.17" fill="#448CCA" stroke="#FFFFFF" stroke-width="4" stroke-miterlimit="10" cx="694.9" cy="1613.3" r="20.3"/>
	
		<circle opacity="0.17" fill="#448CCA" stroke="#FFFFFF" stroke-width="4" stroke-miterlimit="10" cx="766.5" cy="1727.3" r="20.3"/>
	
		<circle opacity="0.17" fill="#448CCA" stroke="#FFFFFF" stroke-width="4" stroke-miterlimit="10" cx="658.9" cy="1825.9" r="20.3"/>
	<circle opacity="0.17" fill="#448CCA" stroke="#FFFFFF" stroke-width="4" stroke-miterlimit="10" cx="629" cy="1672.7" r="32.2"/>
	
		<circle opacity="0.17" fill="#448CCA" stroke="#FFFFFF" stroke-width="4" stroke-miterlimit="10" cx="642.1" cy="1544.6" r="32.2"/>
</g>
<g>
	
		<circle opacity="0.17" fill="#448CCA" stroke="#FFFFFF" stroke-width="4" stroke-miterlimit="10" cx="2151.6" cy="1697.6" r="24.6"/>
	
		<circle opacity="0.17" fill="#448CCA" stroke="#FFFFFF" stroke-width="4" stroke-miterlimit="10" cx="2118.1" cy="1795.8" r="10.2"/>
	
		<circle opacity="0.17" fill="#448CCA" stroke="#FFFFFF" stroke-width="4" stroke-miterlimit="10" cx="2166.6" cy="1768.9" r="10.2"/>
	<circle opacity="0.17" fill="#448CCA" stroke="#FFFFFF" stroke-width="4" stroke-miterlimit="10" cx="2133.6" cy="1872" r="10.2"/>
	
		<circle opacity="0.17" fill="#448CCA" stroke="#FFFFFF" stroke-width="4" stroke-miterlimit="10" cx="2097.7" cy="1929.2" r="10.2"/>
	
		<circle opacity="0.17" fill="#448CCA" stroke="#FFFFFF" stroke-width="4" stroke-miterlimit="10" cx="2151.6" cy="1978.6" r="10.2"/>
	
		<circle opacity="0.17" fill="#448CCA" stroke="#FFFFFF" stroke-width="4" stroke-miterlimit="10" cx="2166.6" cy="1901.8" r="16.2"/>
	
		<circle opacity="0.17" fill="#448CCA" stroke="#FFFFFF" stroke-width="4" stroke-miterlimit="10" cx="2160.1" cy="1837.6" r="16.2"/>
</g>
<path fill="#151A30" d="M2485.3,2023.5h207.8c-45.7-85.5-140.6-132.2-237-121.4c4.4,7.8,8.4,15.9,11.9,24.4
	C2481.2,1958.1,2486.7,1991.1,2485.3,2023.5z"/>
<path fill="#151A30" d="M1172.7,2023.5c-18-54-17.2-115.3,6.6-172.9c9.3-22.5,21.5-42.9,35.9-61c-113.6-31.9-237.1,28.5-284.8,144
	c-12.2,29.5-18.3,59.9-19,89.9H1172.7z"/>
</svg>
