<?xml version="1.0" encoding="utf-8"?>
<!-- Generator: Adobe Illustrator 18.0.0, SVG Export Plug-In . SVG Version: 6.00 Build 0)  -->
<!DOCTYPE svg PUBLIC "-//W3C//DTD SVG 1.1//EN" "http://www.w3.org/Graphics/SVG/1.1/DTD/svg11.dtd">
<svg version="1.1" id="Layer_1" xmlns="http://www.w3.org/2000/svg" xmlns:xlink="http://www.w3.org/1999/xlink" x="0px" y="0px"
	 viewBox="83.8 -7.8 1724.5 1094.7" enable-background="new 83.8 -7.8 1724.5 1094.7" xml:space="preserve">
<g>
	
		<linearGradient id="SVGID_1_" gradientUnits="userSpaceOnUse" x1="1556.4526" y1="-4227.8457" x2="1556.4526" y2="1106.8242" gradientTransform="matrix(0.5371 0 0 -0.5371 110.1089 580.0388)">
		<stop  offset="0.228" style="stop-color:#010202"/>
		<stop  offset="0.508" style="stop-color:#006633"/>
		<stop  offset="0.796" style="stop-color:#36A9E1"/>
		<stop  offset="0.96" style="stop-color:#FFFFFF"/>
	</linearGradient>
	<path fill="url(#SVGID_1_)" d="M1818-5.8c0-1.4,0-2.7,0-3.7c0-3.2,0-4.9,0-4.9s-488.8,0-948.7,0c-1.7,0-3.4,0-5.1,0
		c-3.2,0.1-7,0.1-10.3,0c-1.7,0-3.4,0-5.1,0c-401,0-774,0-774,0s0,3,0,8.6c0,1.4,0,3,0,4.7c-2.3,17.9-1.2,35.5,0,53
		c0,1.8,0,3.7,0,5.5c0,18.5,0,251.1,0,275.3c23.6-3.9,45.7-1.1,69.4-6c32.6-7.7,65.1-1.6,97.1,5.1c1.6-0.2,3.3-0.4,4.9-0.7
		c15.4-1.6,33.6-14.9,48-2.8c0.9,0.8,2,1.5,3,2.1s2.3,1,3.5,1.3c1.8,0.2,3.6,0.3,5.4,0.3c1.8,0.1,3.6,0.1,5.4,0.1
		c39.9,4,79-4.9,118.7-5.4c2-0.1,3.9-0.1,5.8-0.2c11.8,0.2,21.8-4.3,32.8-7c11-3.3,17.7,4.9,26.5,8.3c3.3,1.1,6.6,1.6,10.1,1.3
		c1.9,0,3.9-0.1,5.8-0.1c3.9-0.1,7.8-0.3,11.7-0.7c1.9-0.2,3.8-0.3,5.7-0.3c1.9-0.1,3.8-0.1,5.7-0.2c15.1,0.5,28.3-5,42.1-9.4
		c5.5-1.6,12.7-4.9,16.5,0.5c6.1,8.3,14.3,12.1,24.1,10.4c1.4-0.1,2.7-0.2,4-0.3c4-0.3,8-0.8,12.1-1.3c8.8-1.6,17.7,0.5,26.3,2.1
		c1.5,0.2,3.1,0.4,4.6,0.6c41.4,5.7,81.6-2.6,121.9-9.2c39.1,22.1,88.8,7.7,130.1-4.4c10.5-2.8,12.7,6.1,13.2,14.9
		c0,1.1,1.6,1.6,2.8,1.6c6.6-0.5,12.1-4.9,18.8-4.9c7.6,0.2,15,0.9,22.4,1.7c1.8,0.2,3.8,0.4,5.6,0.6c11.1,3.2,21-0.7,30.9-6.2
		c3.3-2.2,8.3,1.6,12.7,1.6c27,1.1,54-2.8,81.3,1.1c1.9-0.1,3.8-0.1,5.7-0.1c5.7-0.1,11.5,0,17.2,0.1c7.7,0.5,14.9,0,22.5-0.5
		c2.1-0.1,4.1-0.1,6.1-0.2c2.1-0.1,4.1-0.1,6.1-0.1s4.1,0,6.1,0.1c9.3,0.7,17.6-2.6,25.3-7.6c17.1-10.5,33.6,12.1,52.2,12.8
		c1.7,0.2,3.4,0.2,5.2,0.3c1.7,0,3.4,0,5.1,0c4.6,0,9.2,0,13.9,0c1.5,0,3.1,0,4.6,0c8.4,0.1,16.1-1.6,22.8-7.7
		c2.8-1.6,6.6-2.8,9.9-2.8c9.9,0,19.3,4.9,29.2,2.2c26.5-6.6,52.4-4.9,78.9-3.7c2.1,0,4.2,0,6.3,0.1c2.1,0.1,4.2,0.2,6.3,0.3
		c16.5,1.1,32,9.3,48.3,8.4c1.9-0.2,3.8-0.3,5.7-0.5c11.3-1,22.6-1.7,34.1-1.5c2-0.2,4-0.4,6-0.7c8.4-0.8,16.8-1.4,25.3-1.6
		c2.1-0.1,4.2-0.1,6.3-0.1c6.1-0.2,12.2,0.9,17.7-0.7c17.7-5.5,35.3-0.5,51.6,5.9c2.2,0.4,4.2,0.8,6.3,1.1c2.1,0.3,4.2,0.7,6.3,1.1
		c17.4-2.6,32.9-12.5,51.6-8.6c9.9,1.6,19.3,3.9,29.3,3.7c2.1,0.1,4.2,0.2,6.3,0.3c2.1,0.1,4.2,0.3,6.3,0.4
		c8.4,0.7,16.7,1.2,25.2,1.7c2.1,0.1,4.2,0.3,6.3,0.4c7.7,0.1,13.7-5.4,20.3-8.8c3.3-1.6,7.2-2.2,11-0.5c8.8,3.9,16,11.6,25.9,11.5
		c0.6,0,0.9,0,0.9,0c0-26.4,0-260.6,0-280.2c0-1.8,0-3.6,0-5.4C1818.8,29.1,1818.8,12.1,1818-5.8z"/>
	<path opacity="0.4" fill="#01615E" enable-background="new    " d="M74.7,332.8c0,0,0,2.8,0.1,4.2c0-1.4,0-2.8,0-4.2
		C74.7,332.7,74.7,332.7,74.7,332.8z"/>
	
		<linearGradient id="SVGID_2_" gradientUnits="userSpaceOnUse" x1="61.0487" y1="-993.1996" x2="61.0487" y2="1106.8247" gradientTransform="matrix(0.5371 0 0 -0.5371 110.1089 580.0388)">
		<stop  offset="0.228" style="stop-color:#010202"/>
		<stop  offset="0.508" style="stop-color:#006633"/>
		<stop  offset="0.82" style="stop-color:#36A9E1"/>
		<stop  offset="1" style="stop-color:#FFFFFF"/>
	</linearGradient>
	<path fill="url(#SVGID_2_)" d="M150.2,940.3c-0.4-3.3-4.1-5.2-7.3-7.6c-2,1.3-4,2.4-6,3.6c-1.1,0.5-1.6,2.2-1.1,3.9
		c2.6,3.7,6.4,6.2,10.1,8.6C148.7,946.6,150.6,943.9,150.2,940.3z"/>
	<path opacity="0.4" fill="#01615E" enable-background="new    " d="M150.2,940.3c-0.4-3.3-4.1-5.2-7.3-7.6c-2,1.3-4,2.4-6,3.6
		c-1.1,0.5-1.6,2.2-1.1,3.9c2.6,3.7,6.4,6.2,10.1,8.6C148.7,946.6,150.6,943.9,150.2,940.3z"/>
	
		<linearGradient id="SVGID_3_" gradientUnits="userSpaceOnUse" x1="2861.2224" y1="-993.1996" x2="2861.2224" y2="1106.8247" gradientTransform="matrix(0.5371 0 0 -0.5371 110.1089 580.0388)">
		<stop  offset="0.228" style="stop-color:#010202"/>
		<stop  offset="0.508" style="stop-color:#006633"/>
		<stop  offset="0.82" style="stop-color:#36A9E1"/>
		<stop  offset="1" style="stop-color:#FFFFFF"/>
	</linearGradient>
	<path fill="url(#SVGID_3_)" d="M1639.3,914.6c-0.3,0.6-0.6,1.2-0.3,1.7c2.3,6.4,11.7,8.5,11.1,16c-0.2,0.9,0,1.8,0.3,2.6
		s0.7,1.5,1.1,2.2c0.6,1,1.5,1.8,2.4,2.6c0.5-1.6,0.8-3.5,0.7-5.5c-0.2-2-0.5-3.9-0.9-5.8c-1.4-7.1-3.4-14-5.7-20.8
		C1645.7,910.4,1641.8,911.9,1639.3,914.6z"/>
	<path opacity="0.4" fill="#01615E" enable-background="new    " d="M1639.3,914.6c-0.3,0.6-0.6,1.2-0.3,1.7
		c2.3,6.4,11.7,8.5,11.1,16c-0.2,0.9,0,1.8,0.3,2.6s0.7,1.5,1.1,2.2c0.6,1,1.5,1.8,2.4,2.6c0.5-1.6,0.8-3.5,0.7-5.5
		c-0.2-2-0.5-3.9-0.9-5.8c-1.4-7.1-3.4-14-5.7-20.8C1645.7,910.4,1641.8,911.9,1639.3,914.6z"/>
	
		<linearGradient id="SVGID_4_" gradientUnits="userSpaceOnUse" x1="2875.2327" y1="-993.1996" x2="2875.2327" y2="1106.8247" gradientTransform="matrix(0.5371 0 0 -0.5371 110.1089 580.0388)">
		<stop  offset="0.228" style="stop-color:#010202"/>
		<stop  offset="0.508" style="stop-color:#006633"/>
		<stop  offset="0.82" style="stop-color:#36A9E1"/>
		<stop  offset="1" style="stop-color:#FFFFFF"/>
	</linearGradient>
	<path fill="url(#SVGID_4_)" d="M1650.1,981.9c1.5,10.5-7,16.4-15.2,21.1c-0.6,0.3-0.9,1.2-0.6,2.1c2.3,3.3,6.4,4.8,9.2,7.3
		c0.7,0.7,1.4,1.3,1.9,2.1c2.2,5.1,6.4,9.1,10.4,13l0,0c1-12.1,18.6-15.4,18.6-24.2c0.4-11.2-13.4-18.4-24.4-26.3c0,0.7,0,1.3,0,2
		C1650.1,979.9,1650.1,980.9,1650.1,981.9z"/>
	<path opacity="0.4" fill="#01615E" enable-background="new    " d="M1650.1,981.9c1.5,10.5-7,16.4-15.2,21.1
		c-0.6,0.3-0.9,1.2-0.6,2.1c2.3,3.3,6.4,4.8,9.2,7.3c0.7,0.7,1.4,1.3,1.9,2.1c2.2,5.1,6.4,9.1,10.4,13l0,0
		c1-12.1,18.6-15.4,18.6-24.2c0.4-11.2-13.4-18.4-24.4-26.3c0,0.7,0,1.3,0,2C1650.1,979.9,1650.1,980.9,1650.1,981.9z"/>
	
		<linearGradient id="SVGID_5_" gradientUnits="userSpaceOnUse" x1="3005.4502" y1="-993.1996" x2="3005.4502" y2="1106.8247" gradientTransform="matrix(0.5371 0 0 -0.5371 110.1089 580.0388)">
		<stop  offset="0.228" style="stop-color:#010202"/>
		<stop  offset="0.508" style="stop-color:#006633"/>
		<stop  offset="0.82" style="stop-color:#36A9E1"/>
		<stop  offset="1" style="stop-color:#FFFFFF"/>
	</linearGradient>
	<path fill="url(#SVGID_5_)" d="M1736.1,1082.4c0-0.8,0-1.7,0.1-2.6c0.5-6.4,9.9-8.2,9.9-12.9c0.3-7.3-10.8-11.4-16.6-16.9
		c-0.8-0.5-1.5-1.1-2.2-1.8c-0.7-0.7-1.4-1.3-2-2.1c-0.3-0.6-0.6-1.2-0.3-1.7c2.6-5.5,11.1-7,10.5-14.1c-0.1-1-0.3-2.1-0.5-3.1
		c-0.9-4.8-2.4-9.5-4.1-14.1c-0.6,1.1-1.4,2.1-2.3,3c-1.1,1.3-2.3,2.3-3.6,3.4c-11.4,7.9-21.3,20-22.4,33.8
		c-1.1,8.3,9.9,12.7,10.9,21.5c0.1,1.3,0.1,2.6,0.2,3.9c0,3,0,5.9,0,8.6c0,1.4,0,2.7,0.1,4c0.1,0.7,0.1,1.4,0.2,2.1h12.9
		C1730.6,1090.3,1735.8,1087.7,1736.1,1082.4z"/>
	<path opacity="0.4" fill="#01615E" enable-background="new    " d="M1736.1,1082.4c0-0.8,0-1.7,0.1-2.6c0.5-6.4,9.9-8.2,9.9-12.9
		c0.3-7.3-10.8-11.4-16.6-16.9c-0.8-0.5-1.5-1.1-2.2-1.8c-0.7-0.7-1.4-1.3-2-2.1c-0.3-0.6-0.6-1.2-0.3-1.7c2.6-5.5,11.1-7,10.5-14.1
		c-0.1-1-0.3-2.1-0.5-3.1c-0.9-4.8-2.4-9.5-4.1-14.1c-0.6,1.1-1.4,2.1-2.3,3c-1.1,1.3-2.3,2.3-3.6,3.4c-11.4,7.9-21.3,20-22.4,33.8
		c-1.1,8.3,9.9,12.7,10.9,21.5c0.1,1.3,0.1,2.6,0.2,3.9c0,3,0,5.9,0,8.6c0,1.4,0,2.7,0.1,4c0.1,0.7,0.1,1.4,0.2,2.1h12.9
		C1730.6,1090.3,1735.8,1087.7,1736.1,1082.4z"/>
	
		<linearGradient id="SVGID_6_" gradientUnits="userSpaceOnUse" x1="2868.3391" y1="-993.1996" x2="2868.3391" y2="1106.8247" gradientTransform="matrix(0.5371 0 0 -0.5371 110.1089 580.0388)">
		<stop  offset="0.228" style="stop-color:#010202"/>
		<stop  offset="0.508" style="stop-color:#006633"/>
		<stop  offset="0.82" style="stop-color:#36A9E1"/>
		<stop  offset="1" style="stop-color:#FFFFFF"/>
	</linearGradient>
	<path fill="url(#SVGID_6_)" d="M1647.4,1046c2.6-2.1,4.8-4.3,6.4-7.1C1651.3,1041,1649.1,1043.4,1647.4,1046z"/>
	<path opacity="0.4" fill="#01615E" enable-background="new    " d="M1647.4,1046c2.6-2.1,4.8-4.3,6.4-7.1
		C1651.3,1041,1649.1,1043.4,1647.4,1046z"/>
	
		<linearGradient id="SVGID_7_" gradientUnits="userSpaceOnUse" x1="261.2737" y1="-993.1996" x2="261.2737" y2="1106.8247" gradientTransform="matrix(0.5371 0 0 -0.5371 110.1089 580.0388)">
		<stop  offset="0.228" style="stop-color:#010202"/>
		<stop  offset="0.508" style="stop-color:#006633"/>
		<stop  offset="0.82" style="stop-color:#36A9E1"/>
		<stop  offset="1" style="stop-color:#FFFFFF"/>
	</linearGradient>
	<path fill="url(#SVGID_7_)" d="M256.1,1084.4c0-1,0.1-2.1,0.2-3.2c0.9-7.2,12-10.9,10.9-17.7c-1.1-11.4-11-21.4-22.4-27.8
		c-1.3-0.9-2.6-1.8-3.6-2.8c-1.1-0.9-2-1.8-2.7-3c-1.1-1.8,1.1-4.1,2.8-5.9c8.8-7.3,18.8-14.1,23.8-23.5c1-1.3,2.2-2.3,3.5-3.3
		c5.4-3.9,13-6.2,17.4-11.4c0.5-1.4,0-2.7-1.1-3.2c-15.4-7.3-31.4-16.4-28.7-32.7c0-1.6,0-3.1,0-4.7c0-7.8,0-15.7,0-23.5
		c0-1.3,0-2.5-0.1-3.8c-0.4-8.4-11.6-11.6-17.2-17c-3.4,2.8-7.7,4.9-8.1,9.8c-0.1,0.9-0.1,1.8-0.1,2.8c0,0.8,0,1.7-0.1,2.5
		c-1.1,5.5-7.3,7-10.8,10.8c-0.3,0.6-0.6,1.2-0.3,1.7c2.3,6.4,11.7,8.5,11.1,16c-0.2,0.9,0,1.8,0.3,2.6c0.3,0.8,0.7,1.5,1.1,2.2
		c2.6,4.4,9.9,5.3,9.3,9.9c-0.9,5.9-10.5,7.3-10.8,14.2c-0.1,0.8-0.1,1.6-0.1,2.4c0,5.1,0,10.1,0,15.1c0,1,0,2,0,3
		c1.5,10.5-7,16.4-15.2,21.1c-0.6,0.3-0.9,1.2-0.6,2.1c2.3,3.3,6.4,4.8,9.2,7.3c0.7,0.7,1.4,1.3,1.9,2.1c2.7,6.1,7.9,10.4,12.6,15.1
		c0.9,1.2,2.1,2.6,1.5,3.8c-0.3,0.7-0.8,1.4-1.4,1.9c-0.6,0.7-1.3,1.2-2,1.8c-6,4.2-11.3,10.6-11.9,17.9c-0.6,4.4,5.3,6.7,5.8,11.4
		c0.1,0.7,0.1,1.4,0.1,2.1c0,1.6,0,3.1,0,4.6c0,0.7,0,1.4,0.1,2.1c0.1,2.2,0.9,4,1.9,5.8h23.5c0-0.6,0-1.2,0-1.8
		C256.1,1089.3,256.1,1086.9,256.1,1084.4z"/>
	<path opacity="0.4" fill="#01615E" enable-background="new    " d="M256.1,1084.4c0-1,0.1-2.1,0.2-3.2c0.9-7.2,12-10.9,10.9-17.7
		c-1.1-11.4-11-21.4-22.4-27.8c-1.3-0.9-2.6-1.8-3.6-2.8c-1.1-0.9-2-1.8-2.7-3c-1.1-1.8,1.1-4.1,2.8-5.9
		c8.8-7.3,18.8-14.1,23.8-23.5c1-1.3,2.2-2.3,3.5-3.3c5.4-3.9,13-6.2,17.4-11.4c0.5-1.4,0-2.7-1.1-3.2
		c-15.4-7.3-31.4-16.4-28.7-32.7c0-1.6,0-3.1,0-4.7c0-7.8,0-15.7,0-23.5c0-1.3,0-2.5-0.1-3.8c-0.4-8.4-11.6-11.6-17.2-17
		c-3.4,2.8-7.7,4.9-8.1,9.8c-0.1,0.9-0.1,1.8-0.1,2.8c0,0.8,0,1.7-0.1,2.5c-1.1,5.5-7.3,7-10.8,10.8c-0.3,0.6-0.6,1.2-0.3,1.7
		c2.3,6.4,11.7,8.5,11.1,16c-0.2,0.9,0,1.8,0.3,2.6c0.3,0.8,0.7,1.5,1.1,2.2c2.6,4.4,9.9,5.3,9.3,9.9c-0.9,5.9-10.5,7.3-10.8,14.2
		c-0.1,0.8-0.1,1.6-0.1,2.4c0,5.1,0,10.1,0,15.1c0,1,0,2,0,3c1.5,10.5-7,16.4-15.2,21.1c-0.6,0.3-0.9,1.2-0.6,2.1
		c2.3,3.3,6.4,4.8,9.2,7.3c0.7,0.7,1.4,1.3,1.9,2.1c2.7,6.1,7.9,10.4,12.6,15.1c0.9,1.2,2.1,2.6,1.5,3.8c-0.3,0.7-0.8,1.4-1.4,1.9
		c-0.6,0.7-1.3,1.2-2,1.8c-6,4.2-11.3,10.6-11.9,17.9c-0.6,4.4,5.3,6.7,5.8,11.4c0.1,0.7,0.1,1.4,0.1,2.1c0,1.6,0,3.1,0,4.6
		c0,0.7,0,1.4,0.1,2.1c0.1,2.2,0.9,4,1.9,5.8h23.5c0-0.6,0-1.2,0-1.8C256.1,1089.3,256.1,1086.9,256.1,1084.4z"/>
	
		<linearGradient id="SVGID_8_" gradientUnits="userSpaceOnUse" x1="1557.09" y1="-985.1987" x2="1557.09" y2="666.7872" gradientTransform="matrix(0.5371 0 0 -0.5371 110.1089 580.0388)">
		<stop  offset="0.228" style="stop-color:#010202"/>
		<stop  offset="0.508" style="stop-color:#006633"/>
		<stop  offset="0.82" style="stop-color:#36A9E1"/>
		<stop  offset="1" style="stop-color:#FFFFFF"/>
	</linearGradient>
	<path fill="url(#SVGID_8_)" d="M1791.2,320.6c-3.9-1.6-7.7-1.1-11,0.5c-6.6,3.3-12.7,8.8-20.3,8.8c-2.1-0.1-4.2-0.3-6.3-0.4
		c-8.4-0.5-16.8-1.1-25.2-1.7c-2.1-0.2-4.2-0.3-6.3-0.4s-4.2-0.2-6.3-0.3c-10,0.2-19.3-2.1-29.3-3.7c-18.8-3.9-34.2,6.1-51.6,8.6
		c-2.1-0.4-4.1-0.7-6.3-1.1c-2.1-0.3-4.2-0.7-6.3-1.1c-16.3-6.4-34-11.4-51.6-5.9c-5.5,1.6-11.6,0.5-17.7,0.7
		c-2.1,0-4.2,0.1-6.3,0.1c-8.4,0.2-16.9,0.7-25.3,1.6c-2,0.2-4,0.4-6,0.7c-11.5-0.2-22.8,0.5-34.1,1.5c-1.9,0.2-3.8,0.3-5.7,0.5
		c-16.3,1-31.8-7.3-48.3-8.4c-2.1-0.2-4.2-0.2-6.3-0.3c-2.1-0.1-4.2-0.1-6.3-0.1c-26.5-1.3-52.4-2.9-78.9,3.7
		c-9.9,2.8-19.3-2.2-29.2-2.2c-3.3,0-7.2,1.1-9.9,2.8c-6.6,6.1-14.3,7.7-22.8,7.7c-1.5,0-3,0-4.6,0c-4.6,0-9.2,0-13.9,0
		c-1.7,0-3.4,0-5.1,0c-1.7-0.1-3.4-0.2-5.2-0.3c-18.5-0.7-35.1-23.3-52.2-12.8c-7.7,4.9-16,8.3-25.3,7.6c-2.1-0.1-4.1-0.1-6.1-0.1
		s-4.1,0-6.1,0.1c-2.1,0.1-4.1,0.1-6.1,0.2c-7.6,0.5-14.8,1.1-22.5,0.5c-5.8-0.1-11.5-0.2-17.2-0.1c-1.9,0-3.8,0.1-5.7,0.1
		c-27.2-3.8-54.2,0.1-81.3-1.1c-4.4,0-9.3-3.9-12.7-1.6c-9.9,5.5-19.8,9.3-30.9,6.2c-1.8-0.2-3.8-0.4-5.6-0.6
		c-7.4-0.8-14.9-1.6-22.4-1.7c-6.6,0-12.1,4.4-18.8,4.9c-1.1,0-2.8-0.5-2.8-1.6c-0.5-8.8-2.8-17.7-13.2-14.9
		c-41.4,12.1-91,26.5-130.1,4.4c-40.3,6.6-80.5,14.9-121.9,9.2c-1.5-0.2-3-0.4-4.6-0.6c-8.6-1.5-17.5-3.7-26.3-2.1
		c-4.1,0.5-8.1,0.9-12.1,1.3c-1.4,0.1-2.7,0.2-4,0.3c-9.8,1.7-18-2.1-24.1-10.4c-3.9-5.5-11-2.2-16.5-0.5c-13.8,4.4-27,9.9-42.1,9.4
		c-1.9,0-3.8,0.1-5.7,0.2c-1.9,0.1-3.8,0.2-5.7,0.3c-3.9,0.3-7.8,0.5-11.7,0.7c-2,0.1-3.9,0.1-5.8,0.1c-3.4,0.3-6.7-0.2-10.1-1.3
		c-8.8-3.3-15.4-11.6-26.5-8.3c-11,2.8-21,7.2-32.8,7c-2,0-3.9,0.1-5.8,0.2c-39.7,0.5-78.9,9.3-118.7,5.4c-1.8,0-3.6,0-5.4-0.1
		c-1.8-0.1-3.6-0.2-5.4-0.3c-1.3-0.3-2.4-0.7-3.5-1.3c-1.1-0.5-2.1-1.2-3-2.1c-14.3-12.1-32.6,1.1-48,2.8c-1.6,0.3-3.3,0.5-4.9,0.7
		c-32-6.7-64.5-12.8-97.1-5.1c-23.7,4.9-45.7,2.2-69.4,6c0,1.4,0,2.8,0,4.2c0,1.2,0,2.4,0,3.6c0,273.1,0,638,0,752.7H118
		c2.6-1,4.9-2,5.6-4.2c5.5-17.1-18.2-28.1-29.8-39.7c-2.8-2.8-4.9-5.5-6.6-9.3c-0.5-1.7,0-3.9,1.6-5c7.2-6.1,18.2-11,18.8-21.7
		c0-1.6,0-3.2,0.1-4.8c1-12.1,18.6-15.4,18.6-24.2c0.5-13.8-20.4-21.5-31.3-31.8c-1.4-1.1-2.8-2.2-4.2-3.4c-1.4-1.2-2.6-2.5-3.7-4
		c-0.5-1.1-1.1-2.2-0.5-3.3c4.9-10.5,21-13.2,19.9-26.5c-0.2-2-0.5-3.9-0.9-5.8c-2.6-13.4-7.3-26.1-12.3-38.8
		c-0.5-1.6-0.5-3.9,0-5.5c0.7-1.3,1.5-2.4,2.6-3.6c9.6-10.8,32.2-15.2,30.5-29.5c-1.1-8.8-17.7-11-18.7-22.4c0-1.6-0.1-3.2-0.1-4.8
		c0-1.7,0-3.5,0-5.2c0-1.7,0-3.5,0-5.2c-0.1-2.7-1.1-4.8-1.7-7.1c-3.3-11-24.8-17.1-16.5-28.1c4.1-6,13.6-8.5,17-15.1
		c0.7-1.3,1.1-2.8,1.2-4.5c-1.1-13.5,13.8-16.8,21-25.1c0.5-1.1,1.1-2.2,0.5-3.3c-6.1-9.9-19.8-13.8-21.5-26.4c0-1.5,0-3,0-4.5
		c0-1.8,0-3.6,0-5.3c0-1.7,0-3.5-0.2-5.2c-1.1-9.8-8.5-16.3-14-24.1c-0.9-1.3-1.8-2.6-2.6-4c-0.9-1-2-3.3-0.9-4.3
		c2.2-3.6,5.3-6.5,9-9.1c1.5-1.1,2.9-2.1,4.6-3.2c16.8-8.2,22.9-24.1,33.3-38.5c3.9-4.9,12.7-8.3,19.8-6.1c12.1,3.3,4.9,19.8,6,30.4
		c0,1.5,0,2.9,0.1,4.4s0.3,2.9,0.5,4.3c0,3.3,0.5,6.6,1.6,9.9c0,1.6,0.5,3.3-0.3,5.2c-0.5,1.4-1.3,2.7-2.1,3.8
		c-4.4,5.7-12.6,8.5-16.8,14.2c-1.6,1.6,0,3.9,1.1,5.5c6.6,9.9,18.2,16,18.8,28.2c0.1,2.1,0.6,3.9,1.3,5.5
		c3.6,8.4,14,13.2,18.5,21.4c0.5,1.6-0.5,3.3-1.6,4.9c-6.6,6.6-17.1,10.5-18,20.9c-0.2,1.7-0.2,3.5-0.2,5.2c0,1.6,0,3.2-0.1,4.7
		c-2.1,10.5-13.7,13.3-20.3,20.4c-0.5,1.1-1.1,2.2-0.5,3.3c1.7,4.8,5.6,8.4,9.6,11.7c0.9-1.4,1.9-2.9,2.9-4.3
		c2.5-3.2,8.3-5.4,12.9-4c7.9,2.2,3.2,12.9,3.9,19.8c0,1,0,1.9,0.1,2.8c0.1,0.9,0.2,1.9,0.4,2.8c0,2.2,0.4,4.3,1.1,6.5
		c0,1.1,0.4,2.2-0.2,3.4c-0.3,0.9-0.8,1.7-1.4,2.5c-0.5,0.7-1.2,1.4-1.9,2c6,5.1,14.9,7.6,14.1,14.7c-0.8,5.4-5.7,8.9-10.4,12.6
		c0.1,0.7,0.2,1.3,0.3,2c0.1,1.4,0.4,2.6,0.9,3.6c2.3,5.4,9.1,8.6,12.1,14c0.4,1.1-0.4,2.2-1.1,3.2c-4.3,4.3-11.1,6.8-11.7,13.6
		c-0.1,1.1-0.1,2.3-0.1,3.4c0,1,0,2.1-0.1,3.1c-1.1,5.4-6,7.6-10.1,10.6c0.4,3.5,0.3,6.7-0.3,9.7c4.4,4.6,11,7.7,10.5,14.7
		c-0.2,1.1,0,2.2,0.3,3.2c0.4,1,0.9,1.8,1.4,2.8c3.2,5.4,12.2,6.5,11.5,12.2c-1.1,7.2-12.9,9-13.3,17.4c-0.1,1-0.1,2-0.1,3
		c0,6.2,0,12.4,0,18.6c0,1.1,0,2.2,0,3.3c1.6,1.5,3.2,3,4.7,4.6c1.6,2.2,3.9,4.9,2.8,7.2c-0.7,1.4-1.6,2.6-2.7,3.6
		c-1.1,1.3-2.3,2.3-3.6,3.4c-5.7,4-11.1,9-15.2,14.8c2.1,1.4,4.2,2.6,5.9,4.1c0.9,0.8,1.7,1.6,2.3,2.6c3.3,7.4,9.7,12.8,15.4,18.6
		c1.1,1.4,2.5,3.2,1.8,4.7c-0.4,0.9-1,1.7-1.7,2.3c-0.7,0.8-1.5,1.5-2.4,2.2c-7.4,5.1-13.9,13-14.6,22c-0.7,5.4,6.5,8.3,7.1,14
		c0.1,0.9,0.1,1.7,0.1,2.5c0,1.3,0,2.4,0,3.5c0.3,0.4,0.6,0.8,0.9,1.1h32.3c-0.4-7.3-10.8-12.5-16.2-17.9c-1.5-1.5-2.6-2.9-3.5-4.9
		c-0.3-0.9,0-2.1,0.9-2.7c3.8-3.2,9.7-5.9,9.9-11.5c0-0.8,0-1.7,0.1-2.6c0.5-6.4,9.9-8.2,9.9-12.9c0.3-7.3-10.8-11.4-16.6-16.9
		c-0.8-0.5-1.5-1.1-2.2-1.8c-0.7-0.7-1.4-1.3-2-2.1c-0.3-0.6-0.6-1.2-0.3-1.7c2.6-5.5,11.1-7,10.5-14.1c-0.1-1-0.3-2.1-0.5-3.1
		c-1.4-7.1-3.9-13.9-6.6-20.6c-0.3-0.9-0.3-2.1,0-2.9c0.3-0.7,0.8-1.3,1.4-1.9c5.1-5.7,17.1-8,16.2-15.7c-0.6-4.7-9.3-5.9-9.9-11.9
		c0-0.9,0-1.7,0-2.6c0-0.9,0-1.8,0-2.8s0-1.8,0-2.7c0-1.4-0.6-2.6-0.9-3.8c-1.7-5.9-13.2-9.1-8.8-14.9c2.2-3.2,7.2-4.5,9-8
		c0.4-0.7,0.6-1.5,0.7-2.4c-0.5-7.2,7.3-8.9,11.1-13.3c0.3-0.6,0.6-1.2,0.3-1.7c-3.2-5.3-10.5-7.3-11.4-14c0-0.8,0-1.6,0-2.4
		c0-1,0-1.9,0-2.8s0-1.8-0.1-2.8c-0.6-5.2-4.5-8.6-7.4-12.8c-0.5-0.7-0.9-1.4-1.4-2.1c-0.5-0.5-1.1-1.7-0.5-2.3
		c1.1-1.9,2.8-3.5,4.7-4.8c0.8-0.5,1.5-1.1,2.4-1.7c8.9-4.3,12.1-12.8,17.7-20.4c2.1-2.6,6.7-4.4,10.5-3.2
		c6.4,1.7,2.6,10.5,3.2,16.1c0,0.8,0,1.6,0.1,2.3c0.1,0.8,0.2,1.5,0.3,2.3c0,1.7,0.3,3.5,0.9,5.3c0,0.9,0.3,1.7-0.2,2.7
		c-0.3,0.8-0.7,1.4-1.1,2c-2.3,3-6.7,4.5-8.9,7.6c-0.9,0.9,0,2.1,0.6,2.9c3.5,5.3,9.7,8.5,9.9,14.9c0.1,1.1,0.3,2.1,0.7,2.9
		c1.1,2.5,3.3,4.3,5.4,6.3c3.2-4.2,12.7-6.2,16.6-11.6c0.8-1.1,1.6-2.3,2.2-3.5c0.5-1.2,0.8-2.5,0.5-4c-1.1-11.6,16.6-14.8,21-24.8
		c0.5-0.9,0-1.8-0.5-2.7c-6.6-5.9-18.2-8.2-20.3-16.8c-0.1-1.3-0.1-2.6-0.1-3.9c0-1.4,0-2.9-0.2-4.3c-1-8.6-11.4-11.8-18-17.2
		c-1.1-1.4-2.2-2.7-1.6-4.1c4.6-6.8,14.9-10.8,18.5-17.7c0.7-1.4,1.2-2.9,1.3-4.6c0.5-10,12.1-15,18.8-23.2c1.1-1.4,2.8-3.2,1.1-4.6
		c-4.2-4.7-12.4-7.1-16.8-11.7c-0.9-0.9-1.6-2-2.1-3.2c-0.9-1.5-0.3-2.9-0.3-4.2c1.1-2.7,1.6-5.4,1.6-8.2c0.3-1.2,0.4-2.4,0.5-3.6
		c0.1-1.2,0.1-2.4,0.1-3.6c1-8.7-6.2-22.3,6-25.1c7.2-1.8,16,0.9,19.8,5c10.5,11.8,16.5,25,33.3,31.7c1.7,0.9,3.2,1.7,4.6,2.6
		c3.6,2.1,6.8,4.5,9,7.4c1.1,0.9,0,2.7-0.9,3.6c-0.8,1.1-1.6,2.2-2.6,3.3c-5.5,6.4-12.9,11.7-14,19.8c-0.2,1.5-0.2,2.9-0.2,4.3
		c0,1.4,0,2.9,0,4.3c0,1.3,0,2.4,0,3.7c-1.6,10.4-15.4,13.6-21.5,21.7c-0.5,0.9,0,1.8,0.5,2.7c7.2,6.8,22.1,9.5,21,20.7
		c0.1,1.4,0.5,2.6,1.2,3.7c3.4,5.4,12.8,7.5,17,12.4c8.3,9.1-13.2,14.1-16.5,23.2c-0.5,1.8-1.6,3.6-1.7,5.8c0,1.4,0,2.8,0,4.2
		c0,1.4,0,2.8,0,4.3c0,1.3,0,2.7-0.1,4c-1,9.4-17.6,11.2-18.7,18.5c-1.6,11.8,21,15.4,30.5,24.3c1.1,0.9,1.9,1.9,2.6,2.9
		c0.5,1.4,0.5,3.2,0,4.6c-5,10.5-9.8,21-12.3,32c-0.4,1.6-0.7,3.2-0.9,4.8c-1,10.9,14.9,13.2,19.9,21.8c0.5,0.9,0,1.8-0.5,2.7
		c-1.1,1.2-2.3,2.3-3.7,3.3c-1.4,1-2.8,1.9-4.2,2.8c-10.9,8.5-31.9,14.8-31.3,26.2c0,7.3,17.7,10,18.6,20c0.1,1.3,0.1,2.7,0.1,4
		c0.5,8.8,11.6,12.9,18.8,17.8c1.6,0.9,2.2,2.7,1.6,4.1c-1.6,3.2-3.9,5.4-6.6,7.7c-6.8,5.6-17.8,11-24.6,17.4h81.9
		c-0.9-0.8-1.7-1.5-2.5-2.3c-1.8-1.8-3.2-3.6-4.3-6.1c-0.4-1.1,0-2.6,1.1-3.3c4.7-4,11.8-7.2,12.2-14.1c0-1,0-2.1,0.1-3.1
		c0.7-7.9,12.2-10.1,12.2-15.8c0.4-9-13.3-14-20.4-20.7c-0.9-0.7-1.8-1.4-2.7-2.2c-0.9-0.8-1.7-1.6-2.4-2.6
		c-0.4-0.7-0.7-1.4-0.4-2.2c3.2-6.8,13.6-8.6,13-17.3c-0.2-1.3-0.4-2.6-0.6-3.8c-1.7-8.7-4.8-17-8-25.3c-0.4-1.1-0.4-2.5,0-3.6
		c0.4-0.8,1-1.6,1.7-2.3c6.3-7,20.9-9.9,19.9-19.2c-0.7-5.8-11.5-7.2-12.2-14.6c0-1,0-2.1,0-3.2c0-1.1,0-2.3,0-3.4
		c0-1.1,0-2.2,0-3.4c0-1.7-0.8-3.2-1.1-4.6c-2.2-7.2-16.1-11.1-10.8-18.3c2.7-3.9,8.9-5.5,11-9.8c0.4-0.9,0.7-1.8,0.8-2.9
		c-0.7-8.8,9-10.9,13.6-16.3c0.4-0.7,0.7-1.4,0.4-2.2c-4-6.5-12.9-9-14-17.2c0-1,0-2,0-2.9c0-1.1,0-2.3,0-3.5c0-1.1,0-2.3-0.1-3.4
		c-0.8-6.4-5.5-10.7-9.1-15.7c-0.6-0.8-1.1-1.7-1.7-2.6c-0.6-0.7-1.3-2.1-0.6-2.8c1.4-2.3,3.5-4.2,5.8-5.9c0.9-0.7,1.9-1.4,3-2.1
		c10.9-5.3,14.9-15.7,21.7-25.1c2.5-3.2,8.3-5.4,12.9-4c7.9,2.2,3.2,12.9,3.9,19.8c0,1,0,1.9,0.1,2.8c0.1,0.9,0.2,1.9,0.4,2.8
		c0,2.2,0.4,4.3,1.1,6.5c0,1.1,0.4,2.2-0.2,3.4c-0.3,0.9-0.8,1.7-1.4,2.5c-2.9,3.7-8.2,5.5-10.9,9.2c-1.1,1.1,0,2.5,0.7,3.6
		c4.3,6.5,11.8,10.4,12.2,18.3c0.1,1.4,0.4,2.6,0.9,3.6c2.3,5.4,9.1,8.6,12.1,14c0.4,1.1-0.4,2.2-1.1,3.2
		c-4.3,4.3-11.1,6.8-11.7,13.6c-0.1,1.1-0.1,2.3-0.1,3.4c0,1,0,2.1-0.1,3.1c-1.4,6.8-8.9,8.6-13.3,13.3c-0.4,0.7-0.7,1.4-0.4,2.2
		c2.9,7.9,14.3,10.4,13.7,19.6c-0.2,1.1,0,2.2,0.3,3.2c0.4,1,0.9,1.8,1.4,2.8c3.2,5.4,12.2,6.5,11.5,12.2c-1.1,7.2-12.9,9-13.3,17.4
		c-0.1,1-0.1,2-0.1,3c0,6.2,0,12.4,0,18.6c0,1.3,0,2.4,0,3.7c1.8,12.9-8.6,20.1-18.7,25.9c-0.7,0.4-1.1,1.4-0.7,2.5
		c2.9,4.1,7.8,5.9,11.3,9c0.9,0.8,1.7,1.6,2.3,2.6c3.3,7.4,9.7,12.8,15.4,18.6c1.1,1.4,2.5,3.2,1.8,4.7c-0.4,0.9-1,1.7-1.7,2.3
		c-0.7,0.8-1.5,1.5-2.4,2.2c-7.4,5.1-13.9,13-14.6,22c-0.7,4.7,4.8,7.5,6.6,12h752.3c1.8-1.4,3.5-3,3.7-5.5c0-0.6,0-1.1,0-1.7
		c0.4-4.4,6.7-5.6,6.7-8.8c0.2-5-7.4-7.8-11.3-11.5c-0.5-0.4-1-0.8-1.5-1.2c-0.5-0.4-0.9-0.9-1.4-1.4c-0.2-0.4-0.4-0.8-0.2-1.2
		c1.8-3.8,7.6-4.8,7.2-9.6c-0.1-0.7-0.2-1.4-0.3-2.1c-0.9-4.8-2.7-9.5-4.5-14c-0.2-0.6-0.2-1.4,0-2c0.2-0.5,0.5-0.9,0.9-1.3
		c3.5-3.9,11.6-5.5,11-10.7c-0.4-3.2-6.4-4-6.7-8.1c0-0.6,0-1.1,0-1.7c0-0.7,0-1.3,0-1.9c0-0.7,0-1.3,0-1.8c0-1-0.4-1.7-0.6-2.6
		c-1.2-4-9-6.2-6-10.2c1.5-2.2,4.9-3.1,6.1-5.4c0.2-0.5,0.4-1,0.4-1.6c-0.4-4.9,5-6.1,7.6-9.1c0.2-0.4,0.4-0.8,0.2-1.2
		c-2.2-3.6-7.2-5-7.8-9.6c0-0.5,0-1.1,0-1.6c0-0.7,0-1.3,0-1.9c0-0.7,0-1.3-0.1-1.9c-0.4-3.5-3.1-5.9-5.1-8.7
		c-0.3-0.5-0.7-0.9-0.9-1.5c-0.3-0.4-0.7-1.2-0.3-1.6c0.8-1.3,1.9-2.3,3.3-3.3c0.5-0.4,1-0.8,1.6-1.1c6.1-2.9,8.3-8.8,12.1-13.9
		c1.4-1.8,4.6-3,7.2-2.2c4.4,1.2,1.8,7.2,2.2,11c0,0.5,0,1.1,0.1,1.6c0.1,0.5,0.1,1,0.2,1.6c0,1.2,0.2,2.4,0.6,3.6
		c0,0.6,0.2,1.2-0.1,1.8c-0.2,0.5-0.4,1-0.8,1.4c-1.6,2.1-4.6,3-6.1,5.2c-0.6,0.6,0,1.4,0.4,2c2.4,3.6,6.6,5.8,6.8,10.2
		c0.1,0.8,0.2,1.4,0.5,2c1.3,3,5.1,4.8,6.7,7.8c0.2,0.6-0.2,1.2-0.6,1.8c-2.4,2.4-6.2,3.8-6.5,7.6c-0.1,0.6-0.1,1.3-0.1,1.9
		c0,0.5,0,1.1,0,1.7c-0.8,3.8-4.9,4.8-7.3,7.4c-0.2,0.4-0.4,0.8-0.2,1.2c1.6,4.4,8,5.8,7.6,10.9c-0.1,0.7,0,1.2,0.2,1.7
		c0.2,0.5,0.5,1,0.8,1.5c1.8,3,6.8,3.6,6.4,6.8c-0.6,4-7.2,5-7.3,9.7c0,0.5,0,1.1,0,1.7c0,3.5,0,6.9,0,10.3c0,0.7,0,1.4,0,2.1
		c1,7.2-4.8,11.2-10.4,14.3c-0.4,0.2-0.6,0.8-0.4,1.4c1.6,2.3,4.3,3.3,6.3,5c0.5,0.4,0.9,0.9,1.3,1.5c1.8,4.1,5.4,7.1,8.6,10.3
		c0.6,0.8,1.4,1.8,1,2.6c-0.2,0.5-0.5,0.9-1,1.3c-0.4,0.4-0.9,0.8-1.3,1.3c-3.5,2.4-6.6,6-7.7,10.1h170.8c0.6-4,6.5-5.2,6.5-8.2
		c0.2-4.8-7.1-7.5-10.9-11.1c-0.5-0.4-1-0.8-1.5-1.2s-0.9-0.9-1.3-1.4c-0.2-0.4-0.4-0.8-0.2-1.1c1.7-3.6,7.3-4.6,7-9.2
		c-0.1-0.7-0.2-1.4-0.3-2c-0.9-4.6-2.6-9.1-4.3-13.5c-0.2-0.6-0.2-1.4,0-1.9c0.2-0.4,0.5-0.9,0.9-1.3c3.3-3.8,11.2-5.3,10.6-10.3
		c-0.4-3-6.1-3.9-6.5-7.8c0-0.5,0-1.1,0-1.7c0-0.6,0-1.2,0-1.8c0-0.6,0-1.2,0-1.8c0-0.9-0.4-1.7-0.6-2.4c-1.1-3.9-8.6-5.9-5.8-9.8
		c1.4-2.1,4.7-2.9,5.9-5.3c0.2-0.4,0.4-1,0.4-1.6c-0.4-4.7,4.8-5.9,7.3-8.8c0.2-0.4,0.4-0.8,0.2-1.1c-2.1-3.5-6.9-4.8-7.4-9.2
		c0-0.5,0-1,0-1.6c0-0.6,0-1.3,0-1.8c0-0.6,0-1.2-0.1-1.8c-0.4-3.4-3-5.7-4.9-8.4c-0.3-0.4-0.6-0.9-0.9-1.4
		c-0.3-0.4-0.7-1.1-0.3-1.5c0.8-1.3,1.8-2.3,3.1-3.2c0.5-0.4,1-0.7,1.6-1.1c5.9-2.8,7.9-8.4,11.6-13.4c1.4-1.7,4.4-2.9,6.9-2.1
		c4.2,1.1,1.7,6.9,2.1,10.6c0,0.5,0,1,0.1,1.5c0.1,0.5,0.1,1,0.2,1.5c0,1.1,0.2,2.3,0.6,3.5c0,0.6,0.2,1.1-0.1,1.8
		c-0.2,0.5-0.4,0.9-0.8,1.3c-1.5,2-4.4,2.9-5.9,4.9c-0.6,0.6,0,1.4,0.4,1.9c2.3,3.5,6.3,5.5,6.5,9.8c0.1,0.7,0.2,1.4,0.4,2
		c1.3,2.9,4.8,4.6,6.5,7.4c0.2,0.6-0.2,1.1-0.6,1.7c-2.3,2.3-5.9,3.6-6.3,7.3c-0.1,0.6-0.1,1.2-0.1,1.8c0,0.5,0,1.1,0,1.6
		c-0.8,3.6-4.8,4.6-7.1,7.1c-0.2,0.4-0.4,0.8-0.2,1.1c1.5,4.2,7.7,5.5,7.3,10.5c-0.1,0.6,0,1.2,0.2,1.7s0.5,1,0.8,1.5
		c1.7,2.9,6.5,3.5,6.1,6.5c-0.6,3.9-6.9,4.8-7.1,9.3c0,0.5,0,1.1,0,1.6c0,3.3,0,6.6,0,9.9c0,0.7,0,1.3,0,2c1,6.9-4.6,10.8-10,13.8
		c-0.4,0.2-0.6,0.8-0.4,1.4c1.5,2.2,4.2,3.2,6,4.8c0.5,0.4,0.9,0.9,1.3,1.4c1.7,4,5.2,6.8,8.3,9.9c0.6,0.8,1.4,1.7,1,2.5
		c-0.2,0.5-0.5,0.9-0.9,1.3c-0.4,0.4-0.8,0.8-1.3,1.2c-1,0.7-2.1,1.6-3,2.5h276c-4.2-6.7-12.2-12.4-19.3-18
		c0.3,6.1,6.1,9.7,8.2,15.1c0.5,1.3,0.6,1.8,0.6,1.8c-12.9-0.9-25.8-0.9-38.6-2.9c1.7-3.2,6.7-2.6,7.6-5.3
		c2.9-9.1-9.7-14.9-15.8-21.1c-1.5-1.5-2.6-2.9-3.5-4.9c-0.3-0.9,0-2.1,0.9-2.7c3.8-3.2,9.7-5.9,9.9-11.5c0-0.8,0-1.7,0.1-2.6
		c0.5-6.4,9.9-8.2,9.9-12.9c0.3-7.3-10.8-11.4-16.6-16.9c-0.8-0.5-1.5-1.1-2.2-1.8c-0.7-0.7-1.4-1.3-2-2.1c-0.3-0.6-0.6-1.2-0.3-1.7
		c2.6-5.5,11.1-7,10.5-14.1c-0.1-1-0.3-2.1-0.5-3.1c-1.4-7.1-3.9-13.9-6.6-20.6c-0.3-0.9-0.3-2.1,0-2.9c0.3-0.7,0.8-1.3,1.4-1.9
		c5.1-5.7,17.1-8,16.2-15.7c-0.6-4.7-9.3-5.9-9.9-11.9c0-0.9,0-1.7,0-2.6c0-0.9,0-1.8,0-2.8s0-1.8,0-2.7c0-1.4-0.6-2.6-0.9-3.8
		c-1.7-5.9-13.2-9.1-8.8-14.9c2.2-3.2,7.2-4.5,9-8c0.4-0.7,0.6-1.5,0.7-2.4c-0.5-7.2,7.3-8.9,11.1-13.3c0.3-0.6,0.6-1.2,0.3-1.7
		c-3.2-5.3-10.5-7.3-11.4-14c0-0.8,0-1.6,0-2.4c0-1,0-1.9,0-2.8s0-1.8-0.1-2.8c-0.6-5.2-4.5-8.6-7.4-12.8c-0.5-0.7-0.9-1.4-1.4-2.1
		c-0.5-0.5-1.1-1.7-0.5-2.3c1.1-1.9,2.8-3.5,4.7-4.8c0.8-0.5,1.5-1.1,2.4-1.7c8.9-4.3,12.1-12.8,17.7-20.4c2.1-2.6,6.7-4.4,10.5-3.2
		c6.4,1.7,2.6,10.5,3.2,16.1c0,0.8,0,1.6,0.1,2.3c0.1,0.8,0.2,1.5,0.3,2.3c0,1.7,0.3,3.5,0.9,5.3c0,0.9,0.3,1.7-0.2,2.7
		c-0.3,0.8-0.7,1.4-1.1,2c-2.3,3-6.7,4.5-8.9,7.6c-0.9,0.9,0,2.1,0.6,2.9c3.5,5.3,9.7,8.5,9.9,14.9c0.1,1.1,0.3,2.1,0.7,2.9
		c0.2,0.4,0.3,0.7,0.5,1c10.6-7,24.5-12.1,23.2-23.4c-1.1-8.8-17.7-11-18.7-22.4c0-1.6-0.1-3.2-0.1-4.8c0-1.7,0-3.5,0-5.2
		c0-1.7,0-3.5,0-5.2c-0.1-2.7-1.1-4.8-1.7-7.1c-3.3-11-24.8-17.1-16.5-28.1c4.1-6,13.6-8.5,17-15.1c0.7-1.3,1.1-2.8,1.2-4.5
		c-1.1-13.5,13.8-16.8,21-25.1c0.5-1.1,1.1-2.2,0.5-3.3c-6.1-9.9-19.8-13.8-21.5-26.4c0-1.5,0-3,0-4.5c0-1.8,0-3.6,0-5.3
		s0-3.5-0.2-5.2c-1.1-9.8-8.5-16.3-14-24.1c-0.9-1.3-1.8-2.6-2.6-4c-0.9-1-2-3.3-0.9-4.3c2.2-3.6,5.3-6.5,9-9.1
		c1.5-1.1,2.9-2.1,4.6-3.2c16.8-8.2,22.9-24.1,33.3-38.5c3.9-4.9,12.7-8.3,19.8-6.1c12.1,3.3,4.9,19.8,6,30.4c0,1.5,0,2.9,0.1,4.4
		c0.1,1.5,0.3,2.9,0.5,4.3c0,3.3,0.5,6.6,1.6,9.9c0,1.6,0.5,3.3-0.3,5.2c-0.5,1.4-1.3,2.7-2.1,3.8c-4.4,5.7-12.6,8.5-16.8,14.2
		c-1.6,1.6,0,3.9,1.1,5.5c6.6,9.9,18.2,16,18.8,28.2c0.1,2.1,0.6,3.9,1.3,5.5c3.6,8.4,14,13.2,18.5,21.4c0.5,1.6-0.5,3.3-1.6,4.9
		c-6.6,6.6-17.1,10.5-18,20.9c-0.2,1.7-0.2,3.5-0.2,5.2c0,1.6,0,3.2-0.1,4.7c-2.1,10.5-13.7,13.3-20.3,20.4
		c-0.5,1.1-1.1,2.2-0.5,3.3c4.4,12.1,22.1,16,21,30.1c-0.3,1.8-0.1,3.4,0.5,4.8c0.5,1.5,1.4,2.9,2.2,4.2c4.9,8.3,18.8,9.9,17.7,18.8
		c-1.6,11-19.8,13.8-20.3,26.8c-0.1,1.6-0.1,3.1-0.1,4.6c0,9.6,0,19.1,0,28.5c0,1.9,0,3.8,0,5.7c2.8,19.9-13.2,30.9-28.7,39.7
		c-1.1,0.5-1.6,2.2-1.1,3.9c4.4,6.3,12,9.1,17.4,13.8c1.4,1.2,2.6,2.5,3.5,4c4.9,11.3,14.7,19.6,23.5,28.3c0-0.5,0.1-1,0.2-1.4
		c0.3-0.7,0.8-1.3,1.4-1.9c5.1-5.7,17.1-8,16.2-15.7c-0.6-4.7-9.3-5.9-9.9-11.9c0-0.9,0-1.7,0-2.6c0-0.9,0-1.8,0-2.8s0-1.8,0-2.7
		c0-1.4-0.6-2.6-0.9-3.8c-1.7-5.9-13.2-9.1-8.8-14.9c2.2-3.2,7.2-4.5,9-8c0.4-0.7,0.6-1.5,0.7-2.4c-0.5-7.2,7.3-8.9,11.1-13.3
		c0.3-0.6,0.6-1.2,0.3-1.7c-3.2-5.3-10.5-7.3-11.4-14c0-0.8,0-1.6,0-2.4c0-1,0-1.9,0-2.8s0-1.8-0.1-2.8c-0.6-5.2-4.5-8.6-7.4-12.8
		c-0.5-0.7-0.9-1.4-1.4-2.1c-0.5-0.5-1.1-1.7-0.5-2.3c1.1-1.9,2.8-3.5,4.7-4.8c0.8-0.5,1.5-1.1,2.4-1.7c8.9-4.3,12.1-12.8,17.7-20.4
		c2.1-2.6,6.7-4.4,10.5-3.2c6.4,1.7,2.6,10.5,3.2,16.1c0,0.8,0,1.6,0.1,2.3c0.1,0.8,0.2,1.5,0.3,2.3c0,1.7,0.3,3.5,0.9,5.3
		c0,0.9,0.3,1.7-0.2,2.7c-0.3,0.8-0.7,1.4-1.1,2c-2.3,3-6.7,4.5-8.9,7.6c-0.9,0.9,0,2.1,0.6,2.9c3.5,5.3,9.7,8.5,9.9,14.9
		c0.1,1.1,0.3,2.1,0.7,2.9c1.9,4.4,7.4,7,9.8,11.4c0.3,0.9-0.3,1.7-0.9,2.6c-3.5,3.5-9.1,5.5-9.6,11.1c-0.1,0.9-0.1,1.8-0.1,2.8
		c0,0.8,0,1.7-0.1,2.5c-1.1,5.5-7.3,7-10.8,10.8c-0.3,0.6-0.6,1.2-0.3,1.7c2.3,6.4,11.7,8.5,11.1,16c-0.2,0.9,0,1.8,0.3,2.6
		c0.3,0.8,0.7,1.5,1.1,2.2c2.6,4.4,9.9,5.3,9.3,9.9c-0.9,5.9-10.5,7.3-10.8,14.2c-0.1,0.8-0.1,1.6-0.1,2.4c0,5.1,0,10.1,0,15.1
		c0,1,0,2,0,3c1.5,10.5-7,16.4-15.2,21.1c-0.6,0.3-0.9,1.2-0.6,2.1c2.3,3.3,6.4,4.8,9.2,7.3c0.7,0.7,1.4,1.3,1.9,2.1
		c2.7,6.1,7.9,10.4,12.6,15.1c0.9,1.2,2.1,2.6,1.5,3.8c-0.3,0.7-0.8,1.4-1.4,1.9c-0.6,0.7-1.3,1.2-2,1.8c-6,4.1-11.1,10.4-11.8,17.7
		h57c0-115.9,0-491.7,0-761.2c0,0-0.3,0-0.9,0C1807.2,332.2,1800.1,324.5,1791.2,320.6z"/>
	<path opacity="0.4" fill="#01615E" enable-background="new    " d="M1791.2,320.6c-3.9-1.6-7.7-1.1-11,0.5
		c-6.6,3.3-12.7,8.8-20.3,8.8c-2.1-0.1-4.2-0.3-6.3-0.4c-8.4-0.5-16.8-1.1-25.2-1.7c-2.1-0.2-4.2-0.3-6.3-0.4s-4.2-0.2-6.3-0.3
		c-10,0.2-19.3-2.1-29.3-3.7c-18.8-3.9-34.2,6.1-51.6,8.6c-2.1-0.4-4.1-0.7-6.3-1.1c-2.1-0.3-4.2-0.7-6.3-1.1
		c-16.3-6.4-34-11.4-51.6-5.9c-5.5,1.6-11.6,0.5-17.7,0.7c-2.1,0-4.2,0.1-6.3,0.1c-8.4,0.2-16.9,0.7-25.3,1.6c-2,0.2-4,0.4-6,0.7
		c-11.5-0.2-22.8,0.5-34.1,1.5c-1.9,0.2-3.8,0.3-5.7,0.5c-16.3,1-31.8-7.3-48.3-8.4c-2.1-0.2-4.2-0.2-6.3-0.3
		c-2.1-0.1-4.2-0.1-6.3-0.1c-26.5-1.3-52.4-2.9-78.9,3.7c-9.9,2.8-19.3-2.2-29.2-2.2c-3.3,0-7.2,1.1-9.9,2.8
		c-6.6,6.1-14.3,7.7-22.8,7.7c-1.5,0-3,0-4.6,0c-4.6,0-9.2,0-13.9,0c-1.7,0-3.4,0-5.1,0c-1.7-0.1-3.4-0.2-5.2-0.3
		c-18.5-0.7-35.1-23.3-52.2-12.8c-7.7,4.9-16,8.3-25.3,7.6c-2.1-0.1-4.1-0.1-6.1-0.1s-4.1,0-6.1,0.1c-2.1,0.1-4.1,0.1-6.1,0.2
		c-7.6,0.5-14.8,1.1-22.5,0.5c-5.8-0.1-11.5-0.2-17.2-0.1c-1.9,0-3.8,0.1-5.7,0.1c-27.2-3.8-54.2,0.1-81.3-1.1
		c-4.4,0-9.3-3.9-12.7-1.6c-9.9,5.5-19.8,9.3-30.9,6.2c-1.8-0.2-3.8-0.4-5.6-0.6c-7.4-0.8-14.9-1.6-22.4-1.7
		c-6.6,0-12.1,4.4-18.8,4.9c-1.1,0-2.8-0.5-2.8-1.6c-0.5-8.8-2.8-17.7-13.2-14.9c-41.4,12.1-91,26.5-130.1,4.4
		c-40.3,6.6-80.5,14.9-121.9,9.2c-1.5-0.2-3-0.4-4.6-0.6c-8.6-1.5-17.5-3.7-26.3-2.1c-4.1,0.5-8.1,0.9-12.1,1.3
		c-1.4,0.1-2.7,0.2-4,0.3c-9.8,1.7-18-2.1-24.1-10.4c-3.9-5.5-11-2.2-16.5-0.5c-13.8,4.4-27,9.9-42.1,9.4c-1.9,0-3.8,0.1-5.7,0.2
		c-1.9,0.1-3.8,0.2-5.7,0.3c-3.9,0.3-7.8,0.5-11.7,0.7c-2,0.1-3.9,0.1-5.8,0.1c-3.4,0.3-6.7-0.2-10.1-1.3
		c-8.8-3.3-15.4-11.6-26.5-8.3c-11,2.8-21,7.2-32.8,7c-2,0-3.9,0.1-5.8,0.2c-39.7,0.5-78.9,9.3-118.7,5.4c-1.8,0-3.6,0-5.4-0.1
		c-1.8-0.1-3.6-0.2-5.4-0.3c-1.3-0.3-2.4-0.7-3.5-1.3c-1.1-0.5-2.1-1.2-3-2.1c-14.3-12.1-32.6,1.1-48,2.8c-1.6,0.3-3.3,0.5-4.9,0.7
		c-32-6.7-64.5-12.8-97.1-5.1c-23.7,4.9-45.7,2.2-69.4,6c0,1.4,0,2.8,0,4.2c0,1.2,0,2.4,0,3.6c0,273.1,0,638,0,752.7H118
		c2.6-1,4.9-2,5.6-4.2c5.5-17.1-18.2-28.1-29.8-39.7c-2.8-2.8-4.9-5.5-6.6-9.3c-0.5-1.7,0-3.9,1.6-5c7.2-6.1,18.2-11,18.8-21.7
		c0-1.6,0-3.2,0.1-4.8c1-12.1,18.6-15.4,18.6-24.2c0.5-13.8-20.4-21.5-31.3-31.8c-1.4-1.1-2.8-2.2-4.2-3.4c-1.4-1.2-2.6-2.5-3.7-4
		c-0.5-1.1-1.1-2.2-0.5-3.3c4.9-10.5,21-13.2,19.9-26.5c-0.2-2-0.5-3.9-0.9-5.8c-2.6-13.4-7.3-26.1-12.3-38.8
		c-0.5-1.6-0.5-3.9,0-5.5c0.7-1.3,1.5-2.4,2.6-3.6c9.6-10.8,32.2-15.2,30.5-29.5c-1.1-8.8-17.7-11-18.7-22.4c0-1.6-0.1-3.2-0.1-4.8
		c0-1.7,0-3.5,0-5.2c0-1.7,0-3.5,0-5.2c-0.1-2.7-1.1-4.8-1.7-7.1c-3.3-11-24.8-17.1-16.5-28.1c4.1-6,13.6-8.5,17-15.1
		c0.7-1.3,1.1-2.8,1.2-4.5c-1.1-13.5,13.8-16.8,21-25.1c0.5-1.1,1.1-2.2,0.5-3.3c-6.1-9.9-19.8-13.8-21.5-26.4c0-1.5,0-3,0-4.5
		c0-1.8,0-3.6,0-5.3c0-1.7,0-3.5-0.2-5.2c-1.1-9.8-8.5-16.3-14-24.1c-0.9-1.3-1.8-2.6-2.6-4c-0.9-1-2-3.3-0.9-4.3
		c2.2-3.6,5.3-6.5,9-9.1c1.5-1.1,2.9-2.1,4.6-3.2c16.8-8.2,22.9-24.1,33.3-38.5c3.9-4.9,12.7-8.3,19.8-6.1c12.1,3.3,4.9,19.8,6,30.4
		c0,1.5,0,2.9,0.1,4.4s0.3,2.9,0.5,4.3c0,3.3,0.5,6.6,1.6,9.9c0,1.6,0.5,3.3-0.3,5.2c-0.5,1.4-1.3,2.7-2.1,3.8
		c-4.4,5.7-12.6,8.5-16.8,14.2c-1.6,1.6,0,3.9,1.1,5.5c6.6,9.9,18.2,16,18.8,28.2c0.1,2.1,0.6,3.9,1.3,5.5
		c3.6,8.4,14,13.2,18.5,21.4c0.5,1.6-0.5,3.3-1.6,4.9c-6.6,6.6-17.1,10.5-18,20.9c-0.2,1.7-0.2,3.5-0.2,5.2c0,1.6,0,3.2-0.1,4.7
		c-2.1,10.5-13.7,13.3-20.3,20.4c-0.5,1.1-1.1,2.2-0.5,3.3c1.7,4.8,5.6,8.4,9.6,11.7c0.9-1.4,1.9-2.9,2.9-4.3
		c2.5-3.2,8.3-5.4,12.9-4c7.9,2.2,3.2,12.9,3.9,19.8c0,1,0,1.9,0.1,2.8c0.1,0.9,0.2,1.9,0.4,2.8c0,2.2,0.4,4.3,1.1,6.5
		c0,1.1,0.4,2.2-0.2,3.4c-0.3,0.9-0.8,1.7-1.4,2.5c-0.5,0.7-1.2,1.4-1.9,2c6,5.1,14.9,7.6,14.1,14.7c-0.8,5.4-5.7,8.9-10.4,12.6
		c0.1,0.7,0.2,1.3,0.3,2c0.1,1.4,0.4,2.6,0.9,3.6c2.3,5.4,9.1,8.6,12.1,14c0.4,1.1-0.4,2.2-1.1,3.2c-4.3,4.3-11.1,6.8-11.7,13.6
		c-0.1,1.1-0.1,2.3-0.1,3.4c0,1,0,2.1-0.1,3.1c-1.1,5.4-6,7.6-10.1,10.6c0.4,3.5,0.3,6.7-0.3,9.7c4.4,4.6,11,7.7,10.5,14.7
		c-0.2,1.1,0,2.2,0.3,3.2c0.4,1,0.9,1.8,1.4,2.8c3.2,5.4,12.2,6.5,11.5,12.2c-1.1,7.2-12.9,9-13.3,17.4c-0.1,1-0.1,2-0.1,3
		c0,6.2,0,12.4,0,18.6c0,1.1,0,2.2,0,3.3c1.6,1.5,3.2,3,4.7,4.6c1.6,2.2,3.9,4.9,2.8,7.2c-0.7,1.4-1.6,2.6-2.7,3.6
		c-1.1,1.3-2.3,2.3-3.6,3.4c-5.7,4-11.1,9-15.2,14.8c2.1,1.4,4.2,2.6,5.9,4.1c0.9,0.8,1.7,1.6,2.3,2.6c3.3,7.4,9.7,12.8,15.4,18.6
		c1.1,1.4,2.5,3.2,1.8,4.7c-0.4,0.9-1,1.7-1.7,2.3c-0.7,0.8-1.5,1.5-2.4,2.2c-7.4,5.1-13.9,13-14.6,22c-0.7,5.4,6.5,8.3,7.1,14
		c0.1,0.9,0.1,1.7,0.1,2.5c0,1.3,0,2.4,0,3.5c0.3,0.4,0.6,0.8,0.9,1.1h32.3c-0.4-7.3-10.8-12.5-16.2-17.9c-1.5-1.5-2.6-2.9-3.5-4.9
		c-0.3-0.9,0-2.1,0.9-2.7c3.8-3.2,9.7-5.9,9.9-11.5c0-0.8,0-1.7,0.1-2.6c0.5-6.4,9.9-8.2,9.9-12.9c0.3-7.3-10.8-11.4-16.6-16.9
		c-0.8-0.5-1.5-1.1-2.2-1.8c-0.7-0.7-1.4-1.3-2-2.1c-0.3-0.6-0.6-1.2-0.3-1.7c2.6-5.5,11.1-7,10.5-14.1c-0.1-1-0.3-2.1-0.5-3.1
		c-1.4-7.1-3.9-13.9-6.6-20.6c-0.3-0.9-0.3-2.1,0-2.9c0.3-0.7,0.8-1.3,1.4-1.9c5.1-5.7,17.1-8,16.2-15.7c-0.6-4.7-9.3-5.9-9.9-11.9
		c0-0.9,0-1.7,0-2.6c0-0.9,0-1.8,0-2.8s0-1.8,0-2.7c0-1.4-0.6-2.6-0.9-3.8c-1.7-5.9-13.2-9.1-8.8-14.9c2.2-3.2,7.2-4.5,9-8
		c0.4-0.7,0.6-1.5,0.7-2.4c-0.5-7.2,7.3-8.9,11.1-13.3c0.3-0.6,0.6-1.2,0.3-1.7c-3.2-5.3-10.5-7.3-11.4-14c0-0.8,0-1.6,0-2.4
		c0-1,0-1.9,0-2.8s0-1.8-0.1-2.8c-0.6-5.2-4.5-8.6-7.4-12.8c-0.5-0.7-0.9-1.4-1.4-2.1c-0.5-0.5-1.1-1.7-0.5-2.3
		c1.1-1.9,2.8-3.5,4.7-4.8c0.8-0.5,1.5-1.1,2.4-1.7c8.9-4.3,12.1-12.8,17.7-20.4c2.1-2.6,6.7-4.4,10.5-3.2
		c6.4,1.7,2.6,10.5,3.2,16.1c0,0.8,0,1.6,0.1,2.3c0.1,0.8,0.2,1.5,0.3,2.3c0,1.7,0.3,3.5,0.9,5.3c0,0.9,0.3,1.7-0.2,2.7
		c-0.3,0.8-0.7,1.4-1.1,2c-2.3,3-6.7,4.5-8.9,7.6c-0.9,0.9,0,2.1,0.6,2.9c3.5,5.3,9.7,8.5,9.9,14.9c0.1,1.1,0.3,2.1,0.7,2.9
		c1.1,2.5,3.3,4.3,5.4,6.3c3.2-4.2,12.7-6.2,16.6-11.6c0.8-1.1,1.6-2.3,2.2-3.5c0.5-1.2,0.8-2.5,0.5-4c-1.1-11.6,16.6-14.8,21-24.8
		c0.5-0.9,0-1.8-0.5-2.7c-6.6-5.9-18.2-8.2-20.3-16.8c-0.1-1.3-0.1-2.6-0.1-3.9c0-1.4,0-2.9-0.2-4.3c-1-8.6-11.4-11.8-18-17.2
		c-1.1-1.4-2.2-2.7-1.6-4.1c4.6-6.8,14.9-10.8,18.5-17.7c0.7-1.4,1.2-2.9,1.3-4.6c0.5-10,12.1-15,18.8-23.2c1.1-1.4,2.8-3.2,1.1-4.6
		c-4.2-4.7-12.4-7.1-16.8-11.7c-0.9-0.9-1.6-2-2.1-3.2c-0.9-1.5-0.3-2.9-0.3-4.2c1.1-2.7,1.6-5.4,1.6-8.2c0.3-1.2,0.4-2.4,0.5-3.6
		c0.1-1.2,0.1-2.4,0.1-3.6c1-8.7-6.2-22.3,6-25.1c7.2-1.8,16,0.9,19.8,5c10.5,11.8,16.5,25,33.3,31.7c1.7,0.9,3.2,1.7,4.6,2.6
		c3.6,2.1,6.8,4.5,9,7.4c1.1,0.9,0,2.7-0.9,3.6c-0.8,1.1-1.6,2.2-2.6,3.3c-5.5,6.4-12.9,11.7-14,19.8c-0.2,1.5-0.2,2.9-0.2,4.3
		c0,1.4,0,2.9,0,4.3c0,1.3,0,2.4,0,3.7c-1.6,10.4-15.4,13.6-21.5,21.7c-0.5,0.9,0,1.8,0.5,2.7c7.2,6.8,22.1,9.5,21,20.7
		c0.1,1.4,0.5,2.6,1.2,3.7c3.4,5.4,12.8,7.5,17,12.4c8.3,9.1-13.2,14.1-16.5,23.2c-0.5,1.8-1.6,3.6-1.7,5.8c0,1.4,0,2.8,0,4.2
		c0,1.4,0,2.8,0,4.3c0,1.3,0,2.7-0.1,4c-1,9.4-17.6,11.2-18.7,18.5c-1.6,11.8,21,15.4,30.5,24.3c1.1,0.9,1.9,1.9,2.6,2.9
		c0.5,1.4,0.5,3.2,0,4.6c-5,10.5-9.8,21-12.3,32c-0.4,1.6-0.7,3.2-0.9,4.8c-1,10.9,14.9,13.2,19.9,21.8c0.5,0.9,0,1.8-0.5,2.7
		c-1.1,1.2-2.3,2.3-3.7,3.3c-1.4,1-2.8,1.9-4.2,2.8c-10.9,8.5-31.9,14.8-31.3,26.2c0,7.3,17.7,10,18.6,20c0.1,1.3,0.1,2.7,0.1,4
		c0.5,8.8,11.6,12.9,18.8,17.8c1.6,0.9,2.2,2.7,1.6,4.1c-1.6,3.2-3.9,5.4-6.6,7.7c-6.8,5.6-17.8,11-24.6,17.4h81.9
		c-0.9-0.8-1.7-1.5-2.5-2.3c-1.8-1.8-3.2-3.6-4.3-6.1c-0.4-1.1,0-2.6,1.1-3.3c4.7-4,11.8-7.2,12.2-14.1c0-1,0-2.1,0.1-3.1
		c0.7-7.9,12.2-10.1,12.2-15.8c0.4-9-13.3-14-20.4-20.7c-0.9-0.7-1.8-1.4-2.7-2.2c-0.9-0.8-1.7-1.6-2.4-2.6
		c-0.4-0.7-0.7-1.4-0.4-2.2c3.2-6.8,13.6-8.6,13-17.3c-0.2-1.3-0.4-2.6-0.6-3.8c-1.7-8.7-4.8-17-8-25.3c-0.4-1.1-0.4-2.5,0-3.6
		c0.4-0.8,1-1.6,1.7-2.3c6.3-7,20.9-9.9,19.9-19.2c-0.7-5.8-11.5-7.2-12.2-14.6c0-1,0-2.1,0-3.2c0-1.1,0-2.3,0-3.4
		c0-1.1,0-2.2,0-3.4c0-1.7-0.8-3.2-1.1-4.6c-2.2-7.2-16.1-11.1-10.8-18.3c2.7-3.9,8.9-5.5,11-9.8c0.4-0.9,0.7-1.8,0.8-2.9
		c-0.7-8.8,9-10.9,13.6-16.3c0.4-0.7,0.7-1.4,0.4-2.2c-4-6.5-12.9-9-14-17.2c0-1,0-2,0-2.9c0-1.1,0-2.3,0-3.5c0-1.1,0-2.3-0.1-3.4
		c-0.8-6.4-5.5-10.7-9.1-15.7c-0.6-0.8-1.1-1.7-1.7-2.6c-0.6-0.7-1.3-2.1-0.6-2.8c1.4-2.3,3.5-4.2,5.8-5.9c0.9-0.7,1.9-1.4,3-2.1
		c10.9-5.3,14.9-15.7,21.7-25.1c2.5-3.2,8.3-5.4,12.9-4c7.9,2.2,3.2,12.9,3.9,19.8c0,1,0,1.9,0.1,2.8c0.1,0.9,0.2,1.9,0.4,2.8
		c0,2.2,0.4,4.3,1.1,6.5c0,1.1,0.4,2.2-0.2,3.4c-0.3,0.9-0.8,1.7-1.4,2.5c-2.9,3.7-8.2,5.5-10.9,9.2c-1.1,1.1,0,2.5,0.7,3.6
		c4.3,6.5,11.8,10.4,12.2,18.3c0.1,1.4,0.4,2.6,0.9,3.6c2.3,5.4,9.1,8.6,12.1,14c0.4,1.1-0.4,2.2-1.1,3.2
		c-4.3,4.3-11.1,6.8-11.7,13.6c-0.1,1.1-0.1,2.3-0.1,3.4c0,1,0,2.1-0.1,3.1c-1.4,6.8-8.9,8.6-13.3,13.3c-0.4,0.7-0.7,1.4-0.4,2.2
		c2.9,7.9,14.3,10.4,13.7,19.6c-0.2,1.1,0,2.2,0.3,3.2c0.4,1,0.9,1.8,1.4,2.8c3.2,5.4,12.2,6.5,11.5,12.2c-1.1,7.2-12.9,9-13.3,17.4
		c-0.1,1-0.1,2-0.1,3c0,6.2,0,12.4,0,18.6c0,1.3,0,2.4,0,3.7c1.8,12.9-8.6,20.1-18.7,25.9c-0.7,0.4-1.1,1.4-0.7,2.5
		c2.9,4.1,7.8,5.9,11.3,9c0.9,0.8,1.7,1.6,2.3,2.6c3.3,7.4,9.7,12.8,15.4,18.6c1.1,1.4,2.5,3.2,1.8,4.7c-0.4,0.9-1,1.7-1.7,2.3
		c-0.7,0.8-1.5,1.5-2.4,2.2c-7.4,5.1-13.9,13-14.6,22c-0.7,4.7,4.8,7.5,6.6,12h752.3c1.8-1.4,3.5-3,3.7-5.5c0-0.6,0-1.1,0-1.7
		c0.4-4.4,6.7-5.6,6.7-8.8c0.2-5-7.4-7.8-11.3-11.5c-0.5-0.4-1-0.8-1.5-1.2c-0.5-0.4-0.9-0.9-1.4-1.4c-0.2-0.4-0.4-0.8-0.2-1.2
		c1.8-3.8,7.6-4.8,7.2-9.6c-0.1-0.7-0.2-1.4-0.3-2.1c-0.9-4.8-2.7-9.5-4.5-14c-0.2-0.6-0.2-1.4,0-2c0.2-0.5,0.5-0.9,0.9-1.3
		c3.5-3.9,11.6-5.5,11-10.7c-0.4-3.2-6.4-4-6.7-8.1c0-0.6,0-1.1,0-1.7c0-0.7,0-1.3,0-1.9c0-0.7,0-1.3,0-1.8c0-1-0.4-1.7-0.6-2.6
		c-1.2-4-9-6.2-6-10.2c1.5-2.2,4.9-3.1,6.1-5.4c0.2-0.5,0.4-1,0.4-1.6c-0.4-4.9,5-6.1,7.6-9.1c0.2-0.4,0.4-0.8,0.2-1.2
		c-2.2-3.6-7.2-5-7.8-9.6c0-0.5,0-1.1,0-1.6c0-0.7,0-1.3,0-1.9c0-0.7,0-1.3-0.1-1.9c-0.4-3.5-3.1-5.9-5.1-8.7
		c-0.3-0.5-0.7-0.9-0.9-1.5c-0.3-0.4-0.7-1.2-0.3-1.6c0.8-1.3,1.9-2.3,3.3-3.3c0.5-0.4,1-0.8,1.6-1.1c6.1-2.9,8.3-8.8,12.1-13.9
		c1.4-1.8,4.6-3,7.2-2.2c4.4,1.2,1.8,7.2,2.2,11c0,0.5,0,1.1,0.1,1.6c0.1,0.5,0.1,1,0.2,1.6c0,1.2,0.2,2.4,0.6,3.6
		c0,0.6,0.2,1.2-0.1,1.8c-0.2,0.5-0.4,1-0.8,1.4c-1.6,2.1-4.6,3-6.1,5.2c-0.6,0.6,0,1.4,0.4,2c2.4,3.6,6.6,5.8,6.8,10.2
		c0.1,0.8,0.2,1.4,0.5,2c1.3,3,5.1,4.8,6.7,7.8c0.2,0.6-0.2,1.2-0.6,1.8c-2.4,2.4-6.2,3.8-6.5,7.6c-0.1,0.6-0.1,1.3-0.1,1.9
		c0,0.5,0,1.1,0,1.7c-0.8,3.8-4.9,4.8-7.3,7.4c-0.2,0.4-0.4,0.8-0.2,1.2c1.6,4.4,8,5.8,7.6,10.9c-0.1,0.7,0,1.2,0.2,1.7
		c0.2,0.5,0.5,1,0.8,1.5c1.8,3,6.8,3.6,6.4,6.8c-0.6,4-7.2,5-7.3,9.7c0,0.5,0,1.1,0,1.7c0,3.5,0,6.9,0,10.3c0,0.7,0,1.4,0,2.1
		c1,7.2-4.8,11.2-10.4,14.3c-0.4,0.2-0.6,0.8-0.4,1.4c1.6,2.3,4.3,3.3,6.3,5c0.5,0.4,0.9,0.9,1.3,1.5c1.8,4.1,5.4,7.1,8.6,10.3
		c0.6,0.8,1.4,1.8,1,2.6c-0.2,0.5-0.5,0.9-1,1.3c-0.4,0.4-0.9,0.8-1.3,1.3c-3.5,2.4-6.6,6-7.7,10.1h170.8c0.6-4,6.5-5.2,6.5-8.2
		c0.2-4.8-7.1-7.5-10.9-11.1c-0.5-0.4-1-0.8-1.5-1.2s-0.9-0.9-1.3-1.4c-0.2-0.4-0.4-0.8-0.2-1.1c1.7-3.6,7.3-4.6,7-9.2
		c-0.1-0.7-0.2-1.4-0.3-2c-0.9-4.6-2.6-9.1-4.3-13.5c-0.2-0.6-0.2-1.4,0-1.9c0.2-0.4,0.5-0.9,0.9-1.3c3.3-3.8,11.2-5.3,10.6-10.3
		c-0.4-3-6.1-3.9-6.5-7.8c0-0.5,0-1.1,0-1.7c0-0.6,0-1.2,0-1.8c0-0.6,0-1.2,0-1.8c0-0.9-0.4-1.7-0.6-2.4c-1.1-3.9-8.6-5.9-5.8-9.8
		c1.4-2.1,4.7-2.9,5.9-5.3c0.2-0.4,0.4-1,0.4-1.6c-0.4-4.7,4.8-5.9,7.3-8.8c0.2-0.4,0.4-0.8,0.2-1.1c-2.1-3.5-6.9-4.8-7.4-9.2
		c0-0.5,0-1,0-1.6c0-0.6,0-1.3,0-1.8c0-0.6,0-1.2-0.1-1.8c-0.4-3.4-3-5.7-4.9-8.4c-0.3-0.4-0.6-0.9-0.9-1.4
		c-0.3-0.4-0.7-1.1-0.3-1.5c0.8-1.3,1.8-2.3,3.1-3.2c0.5-0.4,1-0.7,1.6-1.1c5.9-2.8,7.9-8.4,11.6-13.4c1.4-1.7,4.4-2.9,6.9-2.1
		c4.2,1.1,1.7,6.9,2.1,10.6c0,0.5,0,1,0.1,1.5c0.1,0.5,0.1,1,0.2,1.5c0,1.1,0.2,2.3,0.6,3.5c0,0.6,0.2,1.1-0.1,1.8
		c-0.2,0.5-0.4,0.9-0.8,1.3c-1.5,2-4.4,2.9-5.9,4.9c-0.6,0.6,0,1.4,0.4,1.9c2.3,3.5,6.3,5.5,6.5,9.8c0.1,0.7,0.2,1.4,0.4,2
		c1.3,2.9,4.8,4.6,6.5,7.4c0.2,0.6-0.2,1.1-0.6,1.7c-2.3,2.3-5.9,3.6-6.3,7.3c-0.1,0.6-0.1,1.2-0.1,1.8c0,0.5,0,1.1,0,1.6
		c-0.8,3.6-4.8,4.6-7.1,7.1c-0.2,0.4-0.4,0.8-0.2,1.1c1.5,4.2,7.7,5.5,7.3,10.5c-0.1,0.6,0,1.2,0.2,1.7s0.5,1,0.8,1.5
		c1.7,2.9,6.5,3.5,6.1,6.5c-0.6,3.9-6.9,4.8-7.1,9.3c0,0.5,0,1.1,0,1.6c0,3.3,0,6.6,0,9.9c0,0.7,0,1.3,0,2c1,6.9-4.6,10.8-10,13.8
		c-0.4,0.2-0.6,0.8-0.4,1.4c1.5,2.2,4.2,3.2,6,4.8c0.5,0.4,0.9,0.9,1.3,1.4c1.7,4,5.2,6.8,8.3,9.9c0.6,0.8,1.4,1.7,1,2.5
		c-0.2,0.5-0.5,0.9-0.9,1.3c-0.4,0.4-0.8,0.8-1.3,1.2c-1,0.7-2.1,1.6-3,2.5h276c-4.2-6.7-12.2-12.4-19.3-18
		c0.3,6.1,6.1,9.7,8.2,15.1c0.5,1.3,0.6,1.8,0.6,1.8c-12.9-0.9-25.8-0.9-38.6-2.9c1.7-3.2,6.7-2.6,7.6-5.3
		c2.9-9.1-9.7-14.9-15.8-21.1c-1.5-1.5-2.6-2.9-3.5-4.9c-0.3-0.9,0-2.1,0.9-2.7c3.8-3.2,9.7-5.9,9.9-11.5c0-0.8,0-1.7,0.1-2.6
		c0.5-6.4,9.9-8.2,9.9-12.9c0.3-7.3-10.8-11.4-16.6-16.9c-0.8-0.5-1.5-1.1-2.2-1.8c-0.7-0.7-1.4-1.3-2-2.1c-0.3-0.6-0.6-1.2-0.3-1.7
		c2.6-5.5,11.1-7,10.5-14.1c-0.1-1-0.3-2.1-0.5-3.1c-1.4-7.1-3.9-13.9-6.6-20.6c-0.3-0.9-0.3-2.1,0-2.9c0.3-0.7,0.8-1.3,1.4-1.9
		c5.1-5.7,17.1-8,16.2-15.7c-0.6-4.7-9.3-5.9-9.9-11.9c0-0.9,0-1.7,0-2.6c0-0.9,0-1.8,0-2.8s0-1.8,0-2.7c0-1.4-0.6-2.6-0.9-3.8
		c-1.7-5.9-13.2-9.1-8.8-14.9c2.2-3.2,7.2-4.5,9-8c0.4-0.7,0.6-1.5,0.7-2.4c-0.5-7.2,7.3-8.9,11.1-13.3c0.3-0.6,0.6-1.2,0.3-1.7
		c-3.2-5.3-10.5-7.3-11.4-14c0-0.8,0-1.6,0-2.4c0-1,0-1.9,0-2.8s0-1.8-0.1-2.8c-0.6-5.2-4.5-8.6-7.4-12.8c-0.5-0.7-0.9-1.4-1.4-2.1
		c-0.5-0.5-1.1-1.7-0.5-2.3c1.1-1.9,2.8-3.5,4.7-4.8c0.8-0.5,1.5-1.1,2.4-1.7c8.9-4.3,12.1-12.8,17.7-20.4c2.1-2.6,6.7-4.4,10.5-3.2
		c6.4,1.7,2.6,10.5,3.2,16.1c0,0.8,0,1.6,0.1,2.3c0.1,0.8,0.2,1.5,0.3,2.3c0,1.7,0.3,3.5,0.9,5.3c0,0.9,0.3,1.7-0.2,2.7
		c-0.3,0.8-0.7,1.4-1.1,2c-2.3,3-6.7,4.5-8.9,7.6c-0.9,0.9,0,2.1,0.6,2.9c3.5,5.3,9.7,8.5,9.9,14.9c0.1,1.1,0.3,2.1,0.7,2.9
		c0.2,0.4,0.3,0.7,0.5,1c10.6-7,24.5-12.1,23.2-23.4c-1.1-8.8-17.7-11-18.7-22.4c0-1.6-0.1-3.2-0.1-4.8c0-1.7,0-3.5,0-5.2
		c0-1.7,0-3.5,0-5.2c-0.1-2.7-1.1-4.8-1.7-7.1c-3.3-11-24.8-17.1-16.5-28.1c4.1-6,13.6-8.5,17-15.1c0.7-1.3,1.1-2.8,1.2-4.5
		c-1.1-13.5,13.8-16.8,21-25.1c0.5-1.1,1.1-2.2,0.5-3.3c-6.1-9.9-19.8-13.8-21.5-26.4c0-1.5,0-3,0-4.5c0-1.8,0-3.6,0-5.3
		s0-3.5-0.2-5.2c-1.1-9.8-8.5-16.3-14-24.1c-0.9-1.3-1.8-2.6-2.6-4c-0.9-1-2-3.3-0.9-4.3c2.2-3.6,5.3-6.5,9-9.1
		c1.5-1.1,2.9-2.1,4.6-3.2c16.8-8.2,22.9-24.1,33.3-38.5c3.9-4.9,12.7-8.3,19.8-6.1c12.1,3.3,4.9,19.8,6,30.4c0,1.5,0,2.9,0.1,4.4
		c0.1,1.5,0.3,2.9,0.5,4.3c0,3.3,0.5,6.6,1.6,9.9c0,1.6,0.5,3.3-0.3,5.2c-0.5,1.4-1.3,2.7-2.1,3.8c-4.4,5.7-12.6,8.5-16.8,14.2
		c-1.6,1.6,0,3.9,1.1,5.5c6.6,9.9,18.2,16,18.8,28.2c0.1,2.1,0.6,3.9,1.3,5.5c3.6,8.4,14,13.2,18.5,21.4c0.5,1.6-0.5,3.3-1.6,4.9
		c-6.6,6.6-17.1,10.5-18,20.9c-0.2,1.7-0.2,3.5-0.2,5.2c0,1.6,0,3.2-0.1,4.7c-2.1,10.5-13.7,13.3-20.3,20.4
		c-0.5,1.1-1.1,2.2-0.5,3.3c4.4,12.1,22.1,16,21,30.1c-0.3,1.8-0.1,3.4,0.5,4.8c0.5,1.5,1.4,2.9,2.2,4.2c4.9,8.3,18.8,9.9,17.7,18.8
		c-1.6,11-19.8,13.8-20.3,26.8c-0.1,1.6-0.1,3.1-0.1,4.6c0,9.6,0,19.1,0,28.5c0,1.9,0,3.8,0,5.7c2.8,19.9-13.2,30.9-28.7,39.7
		c-1.1,0.5-1.6,2.2-1.1,3.9c4.4,6.3,12,9.1,17.4,13.8c1.4,1.2,2.6,2.5,3.5,4c4.9,11.3,14.7,19.6,23.5,28.3c0-0.5,0.1-1,0.2-1.4
		c0.3-0.7,0.8-1.3,1.4-1.9c5.1-5.7,17.1-8,16.2-15.7c-0.6-4.7-9.3-5.9-9.9-11.9c0-0.9,0-1.7,0-2.6c0-0.9,0-1.8,0-2.8s0-1.8,0-2.7
		c0-1.4-0.6-2.6-0.9-3.8c-1.7-5.9-13.2-9.1-8.8-14.9c2.2-3.2,7.2-4.5,9-8c0.4-0.7,0.6-1.5,0.7-2.4c-0.5-7.2,7.3-8.9,11.1-13.3
		c0.3-0.6,0.6-1.2,0.3-1.7c-3.2-5.3-10.5-7.3-11.4-14c0-0.8,0-1.6,0-2.4c0-1,0-1.9,0-2.8s0-1.8-0.1-2.8c-0.6-5.2-4.5-8.6-7.4-12.8
		c-0.5-0.7-0.9-1.4-1.4-2.1c-0.5-0.5-1.1-1.7-0.5-2.3c1.1-1.9,2.8-3.5,4.7-4.8c0.8-0.5,1.5-1.1,2.4-1.7c8.9-4.3,12.1-12.8,17.7-20.4
		c2.1-2.6,6.7-4.4,10.5-3.2c6.4,1.7,2.6,10.5,3.2,16.1c0,0.8,0,1.6,0.1,2.3c0.1,0.8,0.2,1.5,0.3,2.3c0,1.7,0.3,3.5,0.9,5.3
		c0,0.9,0.3,1.7-0.2,2.7c-0.3,0.8-0.7,1.4-1.1,2c-2.3,3-6.7,4.5-8.9,7.6c-0.9,0.9,0,2.1,0.6,2.9c3.5,5.3,9.7,8.5,9.9,14.9
		c0.1,1.1,0.3,2.1,0.7,2.9c1.9,4.4,7.4,7,9.8,11.4c0.3,0.9-0.3,1.7-0.9,2.6c-3.5,3.5-9.1,5.5-9.6,11.1c-0.1,0.9-0.1,1.8-0.1,2.8
		c0,0.8,0,1.7-0.1,2.5c-1.1,5.5-7.3,7-10.8,10.8c-0.3,0.6-0.6,1.2-0.3,1.7c2.3,6.4,11.7,8.5,11.1,16c-0.2,0.9,0,1.8,0.3,2.6
		c0.3,0.8,0.7,1.5,1.1,2.2c2.6,4.4,9.9,5.3,9.3,9.9c-0.9,5.9-10.5,7.3-10.8,14.2c-0.1,0.8-0.1,1.6-0.1,2.4c0,5.1,0,10.1,0,15.1
		c0,1,0,2,0,3c1.5,10.5-7,16.4-15.2,21.1c-0.6,0.3-0.9,1.2-0.6,2.1c2.3,3.3,6.4,4.8,9.2,7.3c0.7,0.7,1.4,1.3,1.9,2.1
		c2.7,6.1,7.9,10.4,12.6,15.1c0.9,1.2,2.1,2.6,1.5,3.8c-0.3,0.7-0.8,1.4-1.4,1.9c-0.6,0.7-1.3,1.2-2,1.8c-6,4.1-11.1,10.4-11.8,17.7
		h57c0-115.9,0-491.7,0-761.2c0,0-0.3,0-0.9,0C1807.2,332.2,1800.1,324.5,1791.2,320.6z"/>
	<path fill="#79B829" d="M230.8,1087.6c-0.1-0.7-0.1-1.4-0.1-2.1c0-1.4,0-2.9,0-4.6c0-0.7-0.1-1.4-0.1-2.1c-0.5-4.7-6.4-7-5.8-11.4
		c0.6-7.3,5.9-13.8,11.9-17.9c0.7-0.6,1.4-1.1,2-1.8c0.6-0.5,1.1-1.2,1.4-1.9c0.6-1.2-0.6-2.6-1.5-3.8c-4.7-4.7-9.9-9.1-12.6-15.1
		c-0.5-0.8-1.1-1.5-1.9-2.1c-2.9-2.5-6.9-4-9.2-7.3c-0.3-0.9,0-1.7,0.6-2.1c8.2-4.7,16.7-10.5,15.2-21.1c0-1,0-2,0-3
		c0-5,0-10.1,0-15.1c0-0.8,0-1.6,0.1-2.4c0.3-6.9,9.9-8.4,10.8-14.2c0.6-4.7-6.7-5.5-9.3-9.9c-0.4-0.7-0.9-1.5-1.1-2.2
		s-0.4-1.6-0.3-2.6c0.5-7.4-8.8-9.5-11.1-16c-0.3-0.6,0-1.2,0.3-1.7c3.5-3.8,9.7-5.3,10.8-10.8c0.1-0.8,0.1-1.7,0.1-2.5
		c0-0.9,0-1.8,0.1-2.8c0.4-4.8,4.7-7,8.1-9.8c-1.6-1.5-2.7-3.2-3.1-5.2c-0.2-1.5,0.2-2.8,1-3.9c-2.2-2-4.3-3.9-5.4-6.3
		c-0.4-0.9-0.6-1.8-0.7-2.9c-0.3-6.5-6.5-9.7-9.9-14.9c-0.6-0.9-1.5-2.1-0.6-2.9c2.2-3,6.6-4.6,8.9-7.6c0.5-0.6,0.9-1.3,1.1-2
		c0.5-1,0.2-1.8,0.2-2.7c-0.6-1.7-0.9-3.5-0.9-5.3c-0.2-0.8-0.2-1.5-0.3-2.3c-0.1-0.8-0.1-1.5-0.1-2.3c-0.5-5.6,3.3-14.4-3.2-16.1
		c-3.8-1.2-8.5,0.6-10.5,3.2c-5.5,7.6-8.8,16.1-17.7,20.4c-0.9,0.6-1.7,1.1-2.4,1.7c-1.9,1.4-3.6,2.9-4.7,4.8
		c-0.6,0.6,0,1.7,0.5,2.3c0.4,0.7,0.9,1.4,1.4,2.1c2.9,4.1,6.8,7.6,7.4,12.8c0.1,0.9,0.1,1.8,0.1,2.8s0,1.8,0,2.8c0,0.8,0,1.6,0,2.4
		c0.9,6.7,8.2,8.8,11.4,14c0.3,0.6,0,1.2-0.3,1.7c-3.8,4.4-11.7,6.1-11.1,13.3c-0.1,0.9-0.3,1.7-0.7,2.4c-1.8,3.5-6.8,4.8-9,8
		c-4.4,5.9,7,9.1,8.8,14.9c0.3,1.2,0.9,2.3,0.9,3.8c0,0.9,0,1.8,0,2.7c0,0.9,0,1.8,0,2.8c0,0.9,0,1.7,0,2.6c0.5,6,9.3,7.2,9.9,11.9
		c0.9,7.6-11.1,9.9-16.2,15.7c-0.5,0.6-1,1.2-1.4,1.9c-0.3,0.9-0.3,2.1,0,2.9c2.7,6.7,5.2,13.5,6.6,20.6c0.2,1,0.4,2,0.5,3.1
		c0.5,7.1-7.9,8.5-10.5,14.1c-0.3,0.6,0,1.2,0.3,1.7c0.6,0.8,1.3,1.5,2,2.1c0.7,0.7,1.5,1.2,2.2,1.8c5.8,5.5,16.9,9.6,16.6,16.9
		c0,4.7-9.3,6.4-9.9,12.9c0,0.9,0,1.7-0.1,2.6c-0.3,5.7-6.1,8.3-9.9,11.5c-0.9,0.6-1.2,1.7-0.9,2.7c0.9,2,2.1,3.5,3.5,4.9
		c5.4,5.4,15.8,10.6,16.2,17.9h23.8C231.6,1091.6,230.8,1089.7,230.8,1087.6z"/>
	<path fill="#1C4E24" d="M237.3,897.2c0.3,0.9-0.3,1.7-0.9,2.6c-0.5,0.5-1,0.9-1.6,1.4c5.9,5.3,17.6,8.5,17.9,17
		c0.1,1.3,0.1,2.6,0.1,3.8c0,7.9,0,15.7,0,23.5c0,1.6,0,3.1,0,4.7c-2.9,16.4,13.8,25.4,29.9,32.7c1.1,0.4,1.7,1.8,1.1,3.2
		c-4.6,5.2-12.5,7.4-18.1,11.4c-1.4,1-2.7,2.1-3.7,3.3c-5.2,9.4-15.5,16.3-24.7,23.5c-1.7,1.8-4,4.1-2.9,5.9c0.7,1.1,1.6,2.1,2.8,3
		c1.1,1,2.4,1.9,3.8,2.8c11.8,6.5,22.2,16.5,23.3,27.8c1.1,6.8-10.4,10.4-11.3,17.7c-0.1,1.1-0.1,2.1-0.2,3.2c0,2.5,0,4.8,0,7.1
		c0,0.6,0,1.2,0,1.8h49.1c7.1-6.4,18.5-11.8,25.6-17.4c2.9-2.3,5.2-4.6,6.9-7.7c0.6-1.4,0-3.2-1.7-4.1c-7.5-5-19-9.1-19.5-17.8
		c0-1.3,0-2.6-0.1-4c-1.1-10-19.4-12.7-19.4-20c-0.6-11.4,21.2-17.7,32.6-26.2c1.5-0.9,2.9-1.8,4.4-2.8c1.4-1,2.7-2.1,3.9-3.3
		c0.6-0.9,1.1-1.8,0.6-2.7c-5.2-8.6-21.9-10.9-20.7-21.8c0.2-1.6,0.6-3.2,1-4.8c2.7-11,7.6-21.5,12.9-32c0.6-1.4,0.6-3.2,0-4.6
		c-0.7-1-1.6-2-2.7-2.9c-10-8.9-33.5-12.5-31.8-24.3c1.1-7.3,18.4-9.1,19.5-18.5c0-1.3,0.1-2.7,0.1-4c0-1.4,0-2.9,0-4.3
		c0-1.4,0-2.8,0-4.2c0.1-2.2,1.2-4,1.8-5.8c3.5-9.1,25.9-14.1,17.2-23.2c-4.3-4.9-14.2-7-17.7-12.4c-0.7-1.1-1.1-2.3-1.2-3.7
		c1.1-11.1-14.4-13.9-21.9-20.7c-0.6-0.9-1.1-1.8-0.6-2.7c6.3-8.2,20.7-11.4,22.4-21.7c0-1.3,0-2.5,0-3.7c0-1.5,0-2.9,0-4.3
		s0-2.9,0.2-4.3c1.2-8.1,8.9-13.4,14.6-19.8c1-1.1,1.9-2.2,2.7-3.3c1-0.9,2.1-2.7,1-3.6c-2.3-3-5.5-5.4-9.3-7.4
		c-1.5-0.9-3.1-1.7-4.8-2.6c-17.5-6.7-23.8-19.9-34.7-31.7c-4-4.1-13.2-6.8-20.7-5c-12.6,2.7-5.2,16.4-6.2,25.1c0,1.2,0,2.4-0.1,3.6
		c-0.1,1.2-0.3,2.4-0.6,3.6c0,2.7-0.6,5.4-1.7,8.2c0,1.4-0.6,2.7,0.3,4.2c0.6,1.2,1.3,2.2,2.2,3.2c4.6,4.7,13.1,7,17.5,11.7
		c1.7,1.4,0,3.2-1.1,4.6c-6.9,8.2-19,13.2-19.5,23.2c-0.1,1.7-0.6,3.2-1.4,4.6c-3.7,6.8-14.6,10.9-19.3,17.7
		c-0.6,1.4,0.6,2.7,1.7,4.1c6.9,5.4,17.8,8.6,18.8,17.2c0.2,1.4,0.2,2.9,0.2,4.3c0,1.3,0,2.6,0.1,3.9c2.2,8.6,14.3,10.9,21.2,16.8
		c0.6,0.9,1.1,1.8,0.6,2.7c-4.6,10-23,13.2-21.9,24.8c0.3,1.5,0.1,2.8-0.5,4c-0.6,1.2-1.4,2.3-2.3,3.5c-4.1,5.4-13.9,7.4-17.3,11.6
		C234.4,893.7,236.2,895.3,237.3,897.2z"/>
	<path fill="#1C4E24" d="M235.8,896c0.4,2,1.5,3.6,3.1,5.2c0.5-0.4,1-0.9,1.5-1.4c0.6-0.9,1.2-1.7,0.9-2.6c-1.1-2-2.7-3.5-4.5-5.1
		C236,893.3,235.5,894.5,235.8,896z"/>
	<path fill="#1C4E24" d="M176.5,1093.3c-0.3-0.4-0.5-0.8-0.9-1.1c0,0.4,0,0.8,0,1.1H176.5z"/>
	<path fill="#1C4E24" d="M157,1008.2c-0.7,0.4-1.1,1.4-0.7,2.5c1.4,2,3.4,3.5,5.4,4.8c4.1-5.8,9.4-10.9,15.2-14.8
		c1.3-1.1,2.6-2.2,3.6-3.4c1.1-1.1,2-2.2,2.7-3.6c1.1-2.2-1.1-4.9-2.8-7.2c-1.5-1.5-3.1-3-4.7-4.6c0,0.1,0,0.3,0,0.4
		C177.5,995.3,167.1,1002.5,157,1008.2z"/>
	<path fill="#1C4E24" d="M162.8,823.7c-1.1,1.1,0,2.5,0.7,3.6c3.9,5.9,10.5,9.7,12,16.4c4.8-3.6,9.6-7.1,10.4-12.6
		c0.9-7.2-8-9.6-14.1-14.7C168.9,818.9,165,820.7,162.8,823.7z"/>
	<path fill="#1C4E24" d="M129,1081.8c-1.8-1.8-3.2-3.6-4.3-6.1c-0.4-1.1,0-2.6,1.1-3.3c4.7-4,11.8-7.2,12.2-14.1c0-1,0-2.1,0.1-3.1
		c0.7-7.9,12.2-10.1,12.2-15.8c0.4-9-13.3-14-20.4-20.7c-0.9-0.7-1.8-1.4-2.7-2.2s-1.7-1.6-2.4-2.6c-0.4-0.7-0.7-1.4-0.4-2.2
		c3.2-6.8,13.6-8.6,13-17.3c-0.2-1.3-0.4-2.6-0.6-3.8c-1.7-8.7-4.8-17-8-25.3c-0.4-1.1-0.4-2.5,0-3.6c0.4-0.8,1-1.6,1.7-2.3
		c3.9-4.3,10.9-7.1,15.5-10.7c-3.8-2.4-7.5-4.9-10.1-8.6c-0.5-1.6,0-3.3,1.1-3.9c2-1.1,4-2.3,6-3.6c-2.4-1.8-4.5-3.9-4.8-7
		c0-1,0-2.1,0-3.2c0-1.1,0-2.3,0-3.4c0-1.1,0-2.2,0-3.4c0-1.7-0.8-3.2-1.1-4.6c-2.2-7.2-16.1-11.1-10.8-18.3c2.7-3.9,8.9-5.5,11-9.8
		c0.4-0.9,0.7-1.8,0.8-2.9c-0.7-8.8,9-10.9,13.6-16.3c0.4-0.7,0.7-1.4,0.4-2.2c-4-6.5-12.9-9-14-17.2c0-1,0-2,0-2.9
		c0-1.1,0-2.3,0-3.5s0-2.3-0.1-3.4c-0.8-6.4-5.5-10.7-9.1-15.7c-0.6-0.8-1.1-1.7-1.7-2.6c-0.6-0.7-1.3-2.1-0.6-2.8
		c1.4-2.3,3.5-4.2,5.8-5.9c0.9-0.7,1.9-1.4,3-2.1c9.3-4.5,13.5-12.7,18.8-20.8c-3.9-3.4-7.8-6.9-9.6-11.7c-0.5-1.1,0-2.2,0.5-3.3
		c6.6-7.2,18.2-9.9,20.3-20.4c0.1-1.6,0.1-3.2,0.1-4.7c0-1.7,0-3.5,0.2-5.2c1-10.4,11.4-14.3,18-20.9c1.1-1.6,2.2-3.3,1.6-4.9
		c-4.6-8.3-14.9-13.1-18.5-21.4c-0.7-1.7-1.2-3.5-1.3-5.5c-0.5-12.2-12.1-18.2-18.8-28.2c-1.1-1.6-2.8-3.9-1.1-5.5
		c4.2-5.8,12.4-8.6,16.8-14.2c0.9-1.1,1.6-2.4,2.1-3.8c0.9-1.8,0.3-3.5,0.3-5.2c-1.1-3.3-1.6-6.6-1.6-9.9c-0.3-1.5-0.4-2.9-0.5-4.3
		s-0.1-2.9-0.1-4.4c-1-10.6,6.2-27.1-6-30.4c-7.2-2.2-16,1.1-19.8,6.1c-10.5,14.3-16.5,30.3-33.3,38.5c-1.7,1.1-3.2,2.1-4.6,3.2
		c-3.6,2.6-6.8,5.4-9,9.1c-1.1,1.1,0,3.3,0.9,4.3c0.8,1.4,1.6,2.7,2.6,4c5.5,7.8,12.9,14.2,14,24.1c0.2,1.7,0.2,3.5,0.2,5.2
		c0,1.7,0,3.5,0,5.3c0,1.5,0,3,0,4.5c1.6,12.7,15.4,16.5,21.5,26.4c0.5,1.1,0,2.2-0.5,3.3c-7.2,8.3-22.1,11.6-21,25.1
		c-0.1,1.7-0.5,3.2-1.2,4.5c-3.4,6.6-12.8,9.1-17,15.1c-8.3,11,13.2,17.1,16.5,28.1c0.5,2.2,1.6,4.4,1.7,7.1c0,1.7,0,3.4,0,5.2
		c0,1.7,0,3.5,0,5.2c0,1.6,0,3.2,0.1,4.8c1,11.4,17.6,13.6,18.7,22.4c1.6,14.3-21,18.8-30.5,29.5c-1.1,1.1-1.9,2.3-2.6,3.6
		c-0.5,1.6-0.5,3.9,0,5.5c5,12.7,9.8,25.5,12.3,38.8c0.4,1.9,0.7,3.8,0.9,5.8c1,13.3-14.9,16-19.9,26.5c-0.5,1.1,0,2.2,0.5,3.3
		c1.1,1.5,2.3,2.8,3.7,4c1.4,1.2,2.8,2.3,4.2,3.4c10.9,10.3,31.9,18,31.3,31.8c0,8.8-17.7,12.1-18.6,24.2c-0.1,1.6-0.1,3.2-0.1,4.8
		c-0.5,10.7-11.6,15.6-18.8,21.7c-1.6,1.1-2.2,3.3-1.6,5c1.6,3.8,3.9,6.6,6.6,9.3c11.6,11.6,35.3,22.6,29.8,39.7
		c-0.8,2.2-3,3.2-5.6,4.2H143C138.4,1089.2,132.8,1085.6,129,1081.8z"/>
	<path fill="#1C4E24" d="M162.4,899.8c-0.4,0.7-0.7,1.4-0.4,2.2c0.7,1.8,1.8,3.4,3.2,4.8c0.6-3,0.8-6.2,0.3-9.7
		C164.4,897.9,163.3,898.8,162.4,899.8z"/>
	<path fill="#79B829" d="M1731.3,1012.6c-0.1,0.2-0.2,0.4-0.3,0.6c1.7,4.6,3.2,9.3,4.1,14.1c0.2,1,0.4,2,0.5,3.1
		c0.5,7.1-7.9,8.5-10.5,14.1c-0.3,0.6,0,1.2,0.3,1.7c0.6,0.8,1.3,1.5,2,2.1c0.7,0.7,1.5,1.2,2.2,1.8c5.8,5.5,16.9,9.6,16.6,16.9
		c0,4.7-9.3,6.4-9.9,12.9c0,0.9,0,1.7-0.1,2.6c-0.3,5.3-5.5,8-9.3,10.9h34.2c0.7-7.2,5.9-13.5,11.8-17.7c0.7-0.6,1.4-1.1,2-1.8
		c0.6-0.5,1.1-1.2,1.4-1.9c0.6-1.2-0.6-2.6-1.5-3.8c-4.7-4.7-9.9-9.1-12.6-15.1c-0.5-0.8-1.1-1.5-1.9-2.1c-2.9-2.5-6.9-4-9.2-7.3
		c-0.3-0.9,0-1.7,0.6-2.1c8.2-4.7,16.7-10.5,15.2-21.1c0-1,0-2,0-3c0-5,0-10.1,0-15.1c0-0.8,0-1.6,0.1-2.4
		c0.3-6.9,9.9-8.4,10.8-14.2c0.6-4.7-6.7-5.5-9.3-9.9c-0.4-0.7-0.9-1.5-1.1-2.2s-0.4-1.6-0.3-2.6c0.5-7.4-8.8-9.5-11.1-16
		c-0.3-0.6,0-1.2,0.3-1.7c3.5-3.8,9.7-5.3,10.8-10.8c0.1-0.8,0.1-1.7,0.1-2.5c0-0.9,0-1.8,0.1-2.8c0.5-5.5,6.1-7.6,9.6-11.1
		c0.6-0.9,1.2-1.7,0.9-2.6c-2.4-4.4-7.9-7-9.8-11.4c-0.4-0.9-0.6-1.8-0.7-2.9c-0.3-6.5-6.5-9.7-9.9-14.9c-0.6-0.9-1.5-2.1-0.6-2.9
		c2.2-3,6.6-4.6,8.9-7.6c0.5-0.6,0.9-1.3,1.1-2c0.5-1,0.2-1.8,0.2-2.7c-0.6-1.7-0.9-3.5-0.9-5.3c-0.2-0.8-0.2-1.5-0.3-2.3
		c-0.1-0.8-0.1-1.5-0.1-2.3c-0.5-5.6,3.3-14.4-3.2-16.1c-3.8-1.2-8.5,0.6-10.5,3.2c-5.5,7.6-8.8,16.1-17.7,20.4
		c-0.9,0.6-1.7,1.1-2.4,1.7c-1.9,1.4-3.6,2.9-4.7,4.8c-0.6,0.6,0,1.7,0.5,2.3c0.4,0.7,0.9,1.4,1.4,2.1c2.9,4.1,6.8,7.6,7.4,12.8
		c0.1,0.9,0.1,1.8,0.1,2.8s0,1.8,0,2.8c0,0.8,0,1.6,0,2.4c0.9,6.7,8.2,8.8,11.4,14c0.3,0.6,0,1.2-0.3,1.7
		c-3.8,4.4-11.7,6.1-11.1,13.3c-0.1,0.9-0.3,1.7-0.7,2.4c-1.8,3.5-6.8,4.8-9,8c-4.4,5.9,7,9.1,8.8,14.9c0.3,1.2,0.9,2.3,0.9,3.8
		c0,0.9,0,1.8,0,2.7c0,0.9,0,1.8,0,2.8c0,0.9,0,1.7,0,2.6c0.5,6,9.3,7.2,9.9,11.9c0.9,7.6-11.1,9.9-16.2,15.7
		c-0.5,0.6-1,1.2-1.4,1.9c-0.2,0.4-0.2,0.9-0.2,1.4c0.1,0.1,0.2,0.2,0.3,0.3C1730.2,1007.6,1732.4,1010.4,1731.3,1012.6z"/>
	<path fill="#162818" d="M1635.3,1058.9c-0.5-1.7,0-3.9,1.6-5c3.2-2.7,7-5.1,10.4-7.9c1.7-2.7,3.9-5.1,6.4-7.1c1.1-2,1.8-4.2,2-6.7
		c0-1.6,0-3.2,0.1-4.8c-4.1-3.9-8.2-7.9-10.4-13c-0.5-0.8-1.1-1.5-1.9-2.1c-2.9-2.5-6.9-4-9.2-7.3c-0.3-0.9,0-1.7,0.6-2.1
		c8.2-4.7,16.7-10.5,15.2-21.1c0-1,0-2,0-3c0-0.7,0-1.3,0-2c-2.5-1.8-4.9-3.6-6.9-5.5c-1.4-1.1-2.8-2.2-4.2-3.4
		c-1.4-1.2-2.6-2.5-3.7-4c-0.5-1.1-1.1-2.2-0.5-3.3c4.2-8.9,16.2-12.2,19.2-21c-1-0.8-1.8-1.6-2.4-2.6c-0.4-0.7-0.9-1.5-1.1-2.2
		c-0.3-0.8-0.4-1.6-0.3-2.6c0.5-7.4-8.8-9.5-11.1-16c-0.3-0.6,0-1.2,0.3-1.7c2.6-2.7,6.4-4.3,8.8-7c-2.1-6-4.3-12.1-6.7-18
		c-0.5-1.6-0.5-3.9,0-5.5c0.7-1.3,1.5-2.4,2.6-3.6c2-2.2,4.6-4.2,7.4-6.1c-0.2-0.3-0.4-0.7-0.5-1c-0.4-0.9-0.6-1.8-0.7-2.9
		c-0.3-6.5-6.5-9.7-9.9-14.9c-0.6-0.9-1.5-2.1-0.6-2.9c2.2-3,6.6-4.6,8.9-7.6c0.5-0.6,0.9-1.3,1.1-2c0.5-1,0.2-1.8,0.2-2.7
		c-0.6-1.7-0.9-3.5-0.9-5.3c-0.2-0.8-0.2-1.5-0.3-2.3c-0.1-0.8-0.1-1.5-0.1-2.3c-0.5-5.6,3.3-14.4-3.2-16.1
		c-3.8-1.2-8.5,0.6-10.5,3.2c-5.5,7.6-8.8,16.1-17.7,20.4c-0.9,0.6-1.7,1.1-2.4,1.7c-1.9,1.4-3.6,2.9-4.7,4.8
		c-0.6,0.6,0,1.7,0.5,2.3c0.4,0.7,0.9,1.4,1.4,2.1c2.9,4.1,6.8,7.6,7.4,12.8c0.1,0.9,0.1,1.8,0.1,2.8s0,1.8,0,2.8c0,0.8,0,1.6,0,2.4
		c0.9,6.7,8.2,8.8,11.4,14c0.3,0.6,0,1.2-0.3,1.7c-3.8,4.4-11.7,6.1-11.1,13.3c-0.1,0.9-0.3,1.7-0.7,2.4c-1.8,3.5-6.8,4.8-9,8
		c-4.4,5.9,7,9.1,8.8,14.9c0.3,1.2,0.9,2.3,0.9,3.8c0,0.9,0,1.8,0,2.7c0,0.9,0,1.8,0,2.8c0,0.9,0,1.7,0,2.6c0.5,6,9.3,7.2,9.9,11.9
		c0.9,7.6-11.1,9.9-16.2,15.7c-0.5,0.6-1,1.2-1.4,1.9c-0.3,0.9-0.3,2.1,0,2.9c2.7,6.7,5.2,13.5,6.6,20.6c0.2,1,0.4,2,0.5,3.1
		c0.5,7.1-7.9,8.5-10.5,14.1c-0.3,0.6,0,1.2,0.3,1.7c0.6,0.8,1.3,1.5,2,2.1s1.5,1.2,2.2,1.8c5.8,5.5,16.9,9.6,16.6,16.9
		c0,4.7-9.3,6.4-9.9,12.9c0,0.9,0,1.7-0.1,2.6c-0.3,5.7-6.1,8.3-9.9,11.5c-0.9,0.6-1.2,1.7-0.9,2.7c0.9,2,2.1,3.5,3.5,4.9
		c6.1,6.1,18.8,12,15.8,21.1c-0.9,2.6-5.9,2.1-7.6,5.3c12.9,2.1,25.8,2.1,38.6,2.9c0,0-0.1-0.6-0.6-1.8c-2-5.5-7.8-9-8.2-15.1
		c-3-2.3-5.9-4.7-8.2-7.1C1639.2,1065.5,1637,1062.8,1635.3,1058.9z"/>
	<path fill="#1C4E24" d="M1713.7,1091.2c-0.1-1.3-0.1-2.6-0.1-4c0-2.7,0-5.5,0-8.6c0-1.3-0.1-2.6-0.2-3.9
		c-0.9-8.8-12-13.2-10.9-21.5c1.1-13.8,11-25.9,22.4-33.8c1.3-1.1,2.6-2.2,3.6-3.4c0.9-0.9,1.7-1.9,2.3-3c-0.8-2.2-1.6-4.3-2.5-6.5
		c-0.2-0.4-0.2-1-0.2-1.5c-8.8-8.8-18.5-17-23.5-28.3c-1-1.5-2.2-2.8-3.5-4c-5.4-4.7-13-7.6-17.4-13.8c-0.5-1.6,0-3.3,1.1-3.9
		c15.4-8.8,31.4-19.8,28.7-39.7c0-1.9,0-3.8,0-5.7c0-9.5,0-19,0-28.5c0-1.5,0-3,0.1-4.6c0.5-13,18.7-15.8,20.3-26.8
		c1.1-8.8-12.7-10.5-17.7-18.8c-0.8-1.4-1.6-2.8-2.2-4.2c-0.5-1.5-0.8-3-0.5-4.8c1.1-14.1-16.6-17.9-21-30.1c-0.5-1.1,0-2.2,0.5-3.3
		c6.6-7.2,18.2-9.9,20.3-20.4c0.1-1.6,0.1-3.2,0.1-4.7c0-1.7,0-3.5,0.2-5.2c1-10.4,11.5-14.3,18-20.9c1.1-1.6,2.2-3.3,1.6-4.9
		c-4.6-8.3-14.9-13.1-18.5-21.4c-0.7-1.7-1.2-3.5-1.3-5.5c-0.5-12.2-12.1-18.2-18.8-28.2c-1.1-1.6-2.8-3.9-1.1-5.5
		c4.2-5.8,12.4-8.6,16.8-14.2c0.9-1.1,1.6-2.4,2.1-3.8c0.9-1.8,0.3-3.5,0.3-5.2c-1.1-3.3-1.6-6.6-1.6-9.9c-0.3-1.5-0.4-2.9-0.5-4.3
		s-0.1-2.9-0.1-4.4c-1-10.6,6.2-27.1-6-30.4c-7.2-2.2-16,1.1-19.8,6.1c-10.5,14.3-16.5,30.3-33.3,38.5c-1.7,1.1-3.2,2.1-4.6,3.2
		c-3.6,2.6-6.8,5.4-9,9.1c-1.1,1.1,0,3.3,0.9,4.3c0.8,1.4,1.6,2.7,2.6,4c5.5,7.8,12.9,14.2,14,24.1c0.2,1.7,0.2,3.5,0.2,5.2
		c0,1.7,0,3.5,0,5.3c0,1.5,0,3,0,4.5c1.6,12.7,15.4,16.5,21.5,26.4c0.5,1.1,0,2.2-0.5,3.3c-7.2,8.3-22.1,11.6-21,25.1
		c-0.1,1.7-0.5,3.2-1.2,4.5c-3.4,6.6-12.8,9.1-17,15.1c-8.3,11,13.2,17.1,16.5,28.1c0.5,2.2,1.6,4.4,1.7,7.1c0,1.7,0,3.4,0,5.2
		c0,1.7,0,3.5,0,5.2c0,1.6,0,3.2,0.1,4.8c1,11.4,17.6,13.6,18.7,22.4c1.3,11.4-12.6,16.5-23.2,23.4c2.2,3.8,7.1,6.3,9.3,10.3
		c0.3,0.9-0.3,1.7-0.9,2.6c-3.5,3.5-9.1,5.5-9.6,11.1c-0.1,0.9-0.1,1.8-0.1,2.8c0,0.8,0,1.7-0.1,2.5c-0.3,1.6-1,2.8-2,3.9
		c2.3,6.8,4.3,13.7,5.7,20.8c0.4,1.9,0.7,3.8,0.9,5.8c0.2,2.1-0.1,3.9-0.7,5.5c3.2,2.4,7.3,3.8,6.9,7.3c-0.9,5.9-10.5,7.3-10.8,14.2
		c-0.1,0.8-0.1,1.6-0.1,2.4c0,4.4,0,8.8,0,13.2c11,7.9,24.8,15.1,24.4,26.3c0,8.8-17.7,12.1-18.6,24.2l0,0c0.8,0.7,1.5,1.4,2.2,2.2
		c0.9,1.2,2.1,2.6,1.5,3.8c-0.3,0.7-0.8,1.4-1.4,1.9c-0.6,0.7-1.3,1.2-2,1.8c-0.8,0.5-1.6,1.1-2.3,1.8c-1.5,2.7-3.8,5-6.4,7.1
		c-1.7,2.8-2.9,5.8-3.2,9.1c-0.6,4.4,5.3,6.7,5.8,11.4c0.1,0.7,0.1,1.4,0.1,2.1c0,1.6,0,3.1,0,4.6c0,0.7,0,1.4,0.1,2.1
		c0,0.1,0,0.1,0,0.2c7.1,5.6,15.1,11.3,19.3,18h44.5C1713.8,1092.6,1713.7,1091.9,1713.7,1091.2z"/>
	<path fill="#1C4E24" d="M1728.5,1006.7c0.9,2.2,1.7,4.3,2.5,6.5c0.1-0.2,0.2-0.4,0.3-0.6c1.1-2.2-1.1-4.9-2.8-7.2
		c-0.1-0.1-0.2-0.2-0.3-0.3C1728.3,1005.7,1728.4,1006.2,1728.5,1006.7z"/>
	<path fill="#1C4E24" d="M1644,880.5c-1.1,1.1-1.9,2.3-2.6,3.6c-0.5,1.6-0.5,3.9,0,5.5c2.3,6,4.7,12,6.7,18c0.9-1,1.6-2.3,2-3.9
		c0.1-0.8,0.1-1.7,0.1-2.5c0-0.9,0-1.8,0.1-2.8c0.5-5.5,6.1-7.6,9.6-11.1c0.6-0.9,1.2-1.7,0.9-2.6c-2.2-4-7.1-6.5-9.3-10.3
		C1648.5,876.3,1646,878.3,1644,880.5z"/>
	<path fill="#1C4E24" d="M1634.8,960.8c-0.5,1.1,0,2.2,0.5,3.3c1.1,1.5,2.3,2.8,3.7,4c1.4,1.2,2.8,2.3,4.2,3.4
		c2,1.9,4.4,3.8,6.9,5.5c0-4.3,0-8.8,0-13.2c0-0.8,0-1.6,0.1-2.4c0.3-6.9,9.9-8.4,10.8-14.2c0.4-3.6-3.8-4.9-6.9-7.3
		C1651,948.6,1639,951.9,1634.8,960.8z"/>
	<path fill="#1C4E24" d="M1653.8,1038.9c0.8-0.7,1.6-1.3,2.3-1.8c0.7-0.6,1.4-1.1,2-1.8c0.6-0.5,1.1-1.2,1.4-1.9
		c0.6-1.2-0.6-2.6-1.5-3.8c-0.7-0.7-1.5-1.4-2.2-2.2c-0.1,1.6-0.1,3.2-0.1,4.8C1655.6,1034.8,1654.9,1037,1653.8,1038.9z"/>
	<path fill="#1C4E24" d="M1650.1,1073.1c0-1.4,0-2.9,0-4.6c0-0.7-0.1-1.4-0.1-2.1c-0.5-4.7-6.4-7-5.8-11.4c0.3-3.2,1.4-6.3,3.2-9.1
		c-3.4,2.8-7.3,5.3-10.4,7.9c-1.6,1.1-2.2,3.3-1.6,5c1.6,3.8,3.9,6.6,6.6,9.3c2.3,2.3,5.2,4.7,8.2,7.1c0-0.1,0-0.1,0-0.2
		C1650.1,1074.5,1650.1,1073.8,1650.1,1073.1z"/>
	<path fill="#162818" d="M165.5,803.2c-0.3,1.8-0.1,3.4,0.5,4.8c0.5,1.5,1.4,2.9,2.2,4.2c0.9,1.6,2.2,2.9,3.6,4.1
		c0.7-0.6,1.4-1.3,1.9-2c0.6-0.8,1-1.6,1.4-2.5c0.6-1.2,0.2-2.3,0.2-3.4c-0.7-2.2-1.1-4.3-1.1-6.5c-0.2-0.9-0.3-1.9-0.4-2.8
		c-0.1-0.9-0.1-1.9-0.1-2.8c-0.7-6.9,4-17.7-3.9-19.8c-4.7-1.4-10.4,0.7-12.9,4c-1,1.4-2,2.8-2.9,4.3
		C160,790,166.2,794.7,165.5,803.2z"/>
	<path fill="#162818" d="M165.5,857.9c-0.1,1.6-0.1,3.1-0.1,4.6c0,9.6,0,19.1,0,28.5c0,1.9,0,3.8,0,5.7c0,0.2,0.1,0.3,0.1,0.4
		c4.1-3,9-5.2,10.1-10.6c0.1-1,0.1-2.1,0.1-3.1c0-1.1,0-2.3,0.1-3.4c0.7-6.8,7.4-9.3,11.7-13.6c0.7-1.1,1.4-2.2,1.1-3.2
		c-3-5.4-9.7-8.5-12.1-14c-0.5-1.1-0.8-2.3-0.9-3.6c-0.1-0.7-0.1-1.4-0.3-2C170.5,847.3,165.8,851.3,165.5,857.9z"/>
	<path fill="#162818" d="M165.3,1056c0.1,1.3,0.1,2.6,0.2,3.9c0,3,0,5.9,0,8.6c0,1.4,0,2.7,0.1,4c0.3,8,5.6,13.7,10.1,19.8
		c0-1.1,0-2.3,0-3.5c0-0.8-0.1-1.7-0.1-2.5c-0.6-5.7-7.8-8.6-7.1-14c0.7-9,7.2-16.8,14.6-22c0.9-0.7,1.7-1.4,2.4-2.2
		c0.7-0.7,1.3-1.5,1.7-2.3c0.7-1.4-0.7-3.2-1.8-4.7c-5.8-5.8-12.2-11.1-15.4-18.6c-0.7-1-1.4-1.8-2.3-2.6c-1.7-1.5-3.9-2.8-5.9-4.1
		c-4,5.7-6.7,12.1-7.2,19C153.4,1042.8,164.4,1047.2,165.3,1056z"/>
	<path fill="#162818" d="M142.8,932.8c3.2,2.4,7,4.3,7.3,7.6c0.4,3.6-1.5,6.2-4.4,8.5c2.6,1.6,5.1,3.3,7.3,5.2
		c1.4,1.2,2.6,2.5,3.5,4c4.1,9.4,11.6,16.7,19,23.9c0-1.1,0-2.2,0-3.3c0-6.1,0-12.3,0-18.6c0-1,0-2,0.1-3
		c0.3-8.5,12.2-10.3,13.3-17.4c0.7-5.8-8.3-6.8-11.5-12.2c-0.5-0.9-1.1-1.8-1.4-2.8c-0.4-1-0.5-2-0.3-3.2c0.5-7-6.1-10.1-10.5-14.7
		C162.8,918.3,153.3,926.3,142.8,932.8z"/>
	<path fill="#162818" d="M135.3,805.7c-1.1,0.8-2,1.4-3,2.1c-2.3,1.6-4.4,3.5-5.8,5.9c-0.7,0.7,0,2.2,0.6,2.8
		c0.5,0.9,1.1,1.7,1.7,2.6c3.6,5.1,8.4,9.3,9.1,15.7c0.1,1.1,0.1,2.3,0.1,3.4c0,1.1,0,2.3,0,3.5c0,1,0,2,0,2.9
		c1,8.2,10,10.8,14,17.2c0.4,0.7,0,1.4-0.4,2.2c-4.7,5.4-14.3,7.6-13.6,16.3c-0.1,1.1-0.3,2.1-0.8,2.9c-2.2,4.3-8.4,5.9-11,9.8
		c-5.4,7.2,8.6,11.1,10.8,18.3c0.4,1.4,1.1,2.9,1.1,4.6c0,1.1,0,2.2,0,3.4s0,2.2,0,3.4c0,1,0,2.1,0,3.2c0.3,3.2,2.4,5.3,4.8,7
		c10.4-6.5,20-14.5,22.4-26c-1.4-1.4-2.5-3-3.2-4.8c-0.4-0.7,0-1.4,0.4-2.2c0.9-1,2-1.9,3.2-2.7c0-0.2-0.1-0.3-0.1-0.4
		c0-1.9,0-3.8,0-5.7c0-9.5,0-19,0-28.5c0-1.5,0-3,0.1-4.6c0.3-6.6,5-10.5,9.9-14.2c-1.4-6.6-8-10.4-12-16.4
		c-0.7-1.1-1.8-2.5-0.7-3.6c2.2-3,6.1-4.8,9.1-7.3c-1.4-1.2-2.7-2.5-3.6-4.1c-0.8-1.4-1.6-2.8-2.2-4.2c-0.5-1.5-0.8-3-0.5-4.8
		c0.7-8.5-5.5-13.3-11.5-18.4C148.8,792.9,144.6,801.1,135.3,805.7z"/>
	<path fill="#162818" d="M156.6,958.1c-1-1.5-2.2-2.8-3.5-4c-2.2-1.9-4.7-3.5-7.3-5.2c-4.6,3.6-11.6,6.4-15.5,10.7
		c-0.7,0.8-1.3,1.5-1.7,2.3c-0.4,1.1-0.4,2.5,0,3.6c3.3,8.3,6.4,16.6,8,25.3c0.2,1.3,0.4,2.5,0.6,3.8c0.7,8.6-9.7,10.4-13,17.3
		c-0.4,0.7,0,1.4,0.4,2.2c0.7,1,1.5,1.8,2.4,2.6c0.9,0.8,1.8,1.5,2.7,2.2c7.1,6.7,20.8,11.7,20.4,20.7c0,5.8-11.5,7.9-12.2,15.8
		c-0.1,1-0.1,2.1-0.1,3.1c-0.4,7-7.6,10.2-12.2,14.1c-1.1,0.7-1.4,2.2-1.1,3.3c1.1,2.5,2.5,4.3,4.3,6.1c3.8,3.8,9.5,7.4,13.8,11.5
		h32.9c0-0.4,0-0.8,0-1.1c-4.5-6.1-9.8-11.7-10.1-19.8c-0.1-1.3-0.1-2.6-0.1-4c0-2.7,0-5.5,0-8.6c0-1.3-0.1-2.6-0.2-3.9
		c-0.9-8.8-12-13.2-10.9-21.5c0.5-6.8,3.3-13.3,7.2-19c-2-1.4-4-2.8-5.4-4.8c-0.4-1.1,0-2.2,0.7-2.5c10.1-5.8,20.5-12.9,18.7-25.9
		c0-0.1,0-0.3,0-0.4C168.3,974.7,160.8,967.5,156.6,958.1z"/>
	<path fill="#162818" d="M422.2,1081.3c0.7-9,7.2-16.8,14.6-22c0.9-0.7,1.7-1.4,2.4-2.2c0.7-0.7,1.3-1.5,1.7-2.3
		c0.7-1.4-0.7-3.2-1.8-4.7c-5.8-5.8-12.2-11.1-15.4-18.6c-0.7-1-1.4-1.8-2.3-2.6c-3.5-3.1-8.5-4.9-11.3-9c-0.4-1.1,0-2.2,0.7-2.5
		c10.1-5.8,20.5-12.9,18.7-25.9c0-1.3,0-2.4,0-3.7c0-6.1,0-12.3,0-18.6c0-1,0-2,0.1-3c0.3-8.5,12.2-10.3,13.3-17.4
		c0.7-5.8-8.3-6.8-11.5-12.2c-0.5-0.9-1.1-1.8-1.4-2.8c-0.4-1-0.5-2-0.3-3.2c0.7-9.2-10.8-11.7-13.7-19.6c-0.4-0.7,0-1.4,0.4-2.2
		c4.3-4.7,11.8-6.5,13.3-13.3c0.1-1,0.1-2.1,0.1-3.1c0-1.1,0-2.3,0.1-3.4c0.7-6.8,7.4-9.3,11.7-13.6c0.7-1.1,1.4-2.2,1.1-3.2
		c-3-5.4-9.7-8.5-12.1-14c-0.5-1.1-0.8-2.3-0.9-3.6c-0.4-7.9-7.9-11.8-12.2-18.3c-0.7-1.1-1.8-2.5-0.7-3.6c2.7-3.8,8.1-5.6,10.9-9.2
		c0.6-0.8,1-1.6,1.4-2.5c0.6-1.2,0.2-2.3,0.2-3.4c-0.7-2.2-1.1-4.3-1.1-6.5c-0.2-0.9-0.3-1.9-0.4-2.8c-0.1-0.9-0.1-1.9-0.1-2.8
		c-0.7-6.9,4-17.7-3.9-19.8c-4.7-1.4-10.4,0.7-12.9,4c-6.8,9.3-10.8,19.7-21.7,25.1c-1.1,0.8-2,1.4-3,2.1c-2.3,1.6-4.4,3.5-5.8,5.9
		c-0.7,0.7,0,2.2,0.6,2.8c0.5,0.9,1.1,1.7,1.7,2.6c3.6,5.1,8.4,9.3,9.1,15.7c0.1,1.1,0.1,2.3,0.1,3.4c0,1.1,0,2.3,0,3.5
		c0,1,0,2,0,2.9c1,8.2,10,10.8,14,17.2c0.4,0.7,0,1.4-0.4,2.2c-4.7,5.4-14.3,7.6-13.6,16.3c-0.1,1.1-0.3,2.1-0.8,2.9
		c-2.2,4.3-8.4,5.9-11,9.8c-5.4,7.2,8.6,11.1,10.8,18.3c0.4,1.4,1.1,2.9,1.1,4.6c0,1.1,0,2.2,0,3.4c0,1.1,0,2.2,0,3.4
		c0,1,0,2.1,0,3.2c0.7,7.4,11.5,8.9,12.2,14.6c1.1,9.3-13.6,12.2-19.9,19.2c-0.7,0.8-1.3,1.5-1.7,2.3c-0.4,1.1-0.4,2.5,0,3.6
		c3.3,8.3,6.4,16.6,8,25.3c0.2,1.3,0.4,2.5,0.6,3.8c0.7,8.6-9.7,10.4-13,17.3c-0.4,0.7,0,1.4,0.4,2.2c0.7,1,1.5,1.8,2.4,2.6
		c0.9,0.8,1.8,1.5,2.7,2.2c7.1,6.7,20.8,11.7,20.4,20.7c0,5.8-11.5,7.9-12.2,15.8c-0.1,1-0.1,2.1-0.1,3.1c-0.4,7-7.6,10.2-12.2,14.1
		c-1.1,0.7-1.4,2.2-1.1,3.3c1.1,2.5,2.5,4.3,4.3,6.1c0.8,0.8,1.6,1.5,2.5,2.3h43.5C427,1088.9,421.5,1086.1,422.2,1081.3z"/>
	<path fill="#162818" d="M1209.7,1083.2c0.5-0.4,0.9-0.8,1.3-1.3c0.4-0.4,0.7-0.8,1-1.3c0.4-0.8-0.4-1.8-1-2.6
		c-3.2-3.2-6.8-6.2-8.6-10.3c-0.4-0.5-0.8-1-1.3-1.5c-2-1.7-4.7-2.7-6.3-5c-0.2-0.6,0-1.2,0.4-1.4c5.6-3.2,11.4-7.2,10.4-14.3
		c0-0.7,0-1.4,0-2.1c0-3.4,0-6.8,0-10.3c0-0.5,0-1.1,0-1.7c0.2-4.7,6.7-5.7,7.3-9.7c0.4-3.2-4.6-3.8-6.4-6.8c-0.3-0.5-0.6-1-0.8-1.5
		c-0.2-0.5-0.3-1.1-0.2-1.7c0.4-5.1-6-6.5-7.6-10.9c-0.2-0.4,0-0.8,0.2-1.2c2.4-2.6,6.6-3.6,7.3-7.4c0-0.6,0-1.1,0-1.7
		c0-0.7,0-1.3,0.1-1.9c0.3-3.8,4.1-5.2,6.5-7.6c0.4-0.6,0.8-1.2,0.6-1.8c-1.7-3-5.4-4.7-6.7-7.8c-0.3-0.6-0.4-1.3-0.5-2
		c-0.2-4.4-4.4-6.6-6.8-10.2c-0.4-0.6-1-1.4-0.4-2c1.5-2.1,4.5-3.1,6.1-5.2c0.3-0.4,0.6-0.9,0.8-1.4c0.3-0.7,0.1-1.3,0.1-1.8
		c-0.4-1.2-0.6-2.4-0.6-3.6c-0.1-0.5-0.2-1-0.2-1.6s-0.1-1-0.1-1.6c-0.4-3.8,2.2-9.8-2.2-11c-2.6-0.8-5.8,0.4-7.2,2.2
		c-3.8,5.2-6,11-12.1,13.9c-0.6,0.4-1.1,0.8-1.6,1.1c-1.3,0.9-2.4,2-3.3,3.3c-0.4,0.4,0,1.2,0.3,1.6c0.3,0.5,0.6,1,0.9,1.5
		c2,2.8,4.7,5.2,5.1,8.7c0.1,0.7,0.1,1.3,0.1,1.9c0,0.7,0,1.3,0,1.9c0,0.5,0,1.1,0,1.6c0.6,4.6,5.5,6,7.8,9.6c0.2,0.4,0,0.8-0.2,1.2
		c-2.6,3-8,4.2-7.6,9.1c-0.1,0.6-0.2,1.1-0.4,1.6c-1.2,2.4-4.6,3.3-6.1,5.4c-3,4,4.8,6.2,6,10.2c0.2,0.8,0.6,1.6,0.6,2.6
		c0,0.6,0,1.3,0,1.8c0,0.6,0,1.3,0,1.9c0,0.6,0,1.1,0,1.7c0.4,4.1,6.4,4.9,6.7,8.1c0.6,5.2-7.6,6.8-11,10.7
		c-0.4,0.4-0.7,0.8-0.9,1.3c-0.2,0.6-0.2,1.4,0,2c1.8,4.6,3.5,9.2,4.5,14c0.1,0.7,0.3,1.4,0.3,2.1c0.4,4.8-5.4,5.8-7.2,9.6
		c-0.2,0.4,0,0.8,0.2,1.2c0.4,0.5,0.9,1,1.4,1.4c0.5,0.4,1,0.8,1.5,1.2c3.9,3.8,11.5,6.5,11.3,11.5c0,3.2-6.4,4.4-6.7,8.8
		c0,0.6,0,1.1,0,1.7c-0.1,2.4-1.8,4.1-3.7,5.5h21C1203.1,1089.2,1206.2,1085.7,1209.7,1083.2z"/>
	<path fill="#162818" d="M1396.4,1090.8c0.4-0.4,0.9-0.8,1.3-1.2c0.4-0.4,0.7-0.8,0.9-1.3c0.4-0.8-0.4-1.7-1-2.5
		c-3-3-6.5-5.9-8.3-9.9c-0.3-0.5-0.8-1-1.3-1.4c-1.8-1.6-4.5-2.6-6-4.8c-0.2-0.6,0-1.1,0.4-1.4c5.4-3,10.9-6.9,10-13.8
		c0-0.7,0-1.3,0-2c0-3.3,0-6.6,0-9.9c0-0.5,0-1.1,0-1.6c0.2-4.5,6.5-5.5,7.1-9.3c0.4-3-4.4-3.6-6.1-6.5c-0.3-0.5-0.6-1-0.8-1.5
		c-0.2-0.5-0.3-1.1-0.2-1.7c0.4-4.9-5.8-6.3-7.3-10.5c-0.2-0.4,0-0.8,0.2-1.1c2.3-2.5,6.3-3.5,7.1-7.1c0-0.5,0-1.1,0-1.6
		c0-0.6,0-1.2,0.1-1.8c0.3-3.6,4-5,6.3-7.3c0.4-0.6,0.8-1.1,0.6-1.7c-1.6-2.9-5.2-4.6-6.5-7.4c-0.3-0.6-0.4-1.2-0.4-2
		c-0.2-4.2-4.2-6.4-6.5-9.8c-0.4-0.6-1-1.4-0.4-1.9c1.5-2,4.3-3,5.9-4.9c0.3-0.4,0.5-0.8,0.8-1.3c0.3-0.7,0.1-1.2,0.1-1.8
		c-0.4-1.1-0.6-2.3-0.6-3.5c-0.1-0.5-0.2-1-0.2-1.5c-0.1-0.5-0.1-1-0.1-1.5c-0.3-3.7,2.2-9.5-2.1-10.6c-2.5-0.8-5.5,0.4-6.9,2.1
		c-3.6,5-5.8,10.5-11.6,13.4c-0.6,0.4-1.1,0.8-1.6,1.1c-1.3,0.9-2.3,1.9-3.1,3.2c-0.4,0.4,0,1.1,0.3,1.5c0.3,0.5,0.5,0.9,0.9,1.4
		c1.9,2.7,4.5,4.9,4.9,8.4c0.1,0.6,0.1,1.2,0.1,1.8c0,0.6,0,1.2,0,1.8c0,0.5,0,1,0,1.6c0.5,4.4,5.3,5.8,7.4,9.2
		c0.2,0.4,0,0.8-0.2,1.1c-2.5,2.9-7.7,4-7.3,8.8c-0.1,0.6-0.2,1.1-0.4,1.6c-1.1,2.3-4.5,3.2-5.9,5.3c-2.9,3.9,4.6,5.9,5.8,9.8
		c0.2,0.8,0.6,1.5,0.6,2.4c0,0.6,0,1.2,0,1.8c0,0.6,0,1.2,0,1.8c0,0.5,0,1.1,0,1.7c0.4,4,6.1,4.7,6.5,7.8c0.6,5-7.3,6.5-10.6,10.3
		c-0.4,0.4-0.7,0.8-0.9,1.3c-0.2,0.6-0.2,1.4,0,1.9c1.7,4.5,3.4,8.9,4.3,13.5c0.1,0.7,0.2,1.3,0.3,2c0.4,4.6-5.2,5.6-7,9.2
		c-0.2,0.4,0,0.8,0.2,1.1c0.4,0.5,0.8,1,1.3,1.4c0.5,0.4,1,0.8,1.5,1.2c3.8,3.6,11.1,6.3,10.9,11.1c0,3-5.9,4.2-6.5,8.2h21
		C1394.4,1092.4,1395.4,1091.5,1396.4,1090.8z"/>
</g>
<g>
	<path d="M1328.2,958.9c0,0-7.5,100,18.7,109.2v-9c0,0-20.6-5.3-15.4-99.2L1328.2,958.9z"/>
	<ellipse fill="#FFED00" stroke="#000000" stroke-width="2" stroke-miterlimit="10" cx="1222.1" cy="900.1" rx="71.2" ry="64.1"/>
	<path fill="#448CCA" stroke="#000000" stroke-width="2" stroke-miterlimit="10" d="M1150.9,900.1c0,8.9,2,17.3,5.6,25
		c7.5,2.4,15.7,3.8,24.2,3.8c39.3,0,71.2-28.7,71.2-64.1c0-8.9-2-17.3-5.6-25c-7.5-2.4-15.7-3.8-24.2-3.8
		C1182.8,835.9,1150.9,864.7,1150.9,900.1z"/>
	<g>
		<path fill="#448CCA" stroke="#000000" stroke-width="2" stroke-miterlimit="10" d="M1151.8,910c0-0.1,0-0.1,0-0.2
			C1151.7,909.9,1151.8,910,1151.8,910z"/>
		<path fill="#448CCA" stroke="#000000" stroke-width="2" stroke-miterlimit="10" d="M1151.3,907c0-0.1,0-0.2,0-0.3
			C1151.3,906.8,1151.3,906.9,1151.3,907z"/>
		<path fill="#448CCA" stroke="#000000" stroke-width="2" stroke-miterlimit="10" d="M1151.5,908.5c0-0.1,0-0.2,0-0.2
			C1151.5,908.4,1151.5,908.4,1151.5,908.5z"/>
		<path fill="#448CCA" stroke="#000000" stroke-width="2" stroke-miterlimit="10" d="M1151.1,905.4c0-0.1,0-0.3,0-0.4
			C1151.1,905.1,1151.1,905.3,1151.1,905.4z"/>
		<path fill="#448CCA" stroke="#000000" stroke-width="2" stroke-miterlimit="10" d="M1150.9,902.2c0-0.2,0-0.3,0-0.5
			C1150.9,901.9,1150.9,902,1150.9,902.2z"/>
		<path fill="#448CCA" stroke="#000000" stroke-width="2" stroke-miterlimit="10" d="M1151,903.9c0-0.2,0-0.3,0-0.5
			C1151,903.5,1151,903.7,1151,903.9z"/>
		<path fill="#448CCA" stroke="#000000" stroke-width="2" stroke-miterlimit="10" d="M1152.7,914.6L1152.7,914.6L1152.7,914.6z"/>
		<path fill="#448CCA" stroke="#000000" stroke-width="2" stroke-miterlimit="10" d="M1156.5,925.1L1156.5,925.1L1156.5,925.1z"/>
		<path fill="#448CCA" stroke="#000000" stroke-width="2" stroke-miterlimit="10" d="M1152.4,913.1
			C1152.4,913.1,1152.4,913.1,1152.4,913.1C1152.4,913.1,1152.4,913.1,1152.4,913.1z"/>
		<path fill="#448CCA" stroke="#000000" stroke-width="2" stroke-miterlimit="10" d="M1152,911.6c0,0,0-0.1,0-0.1
			C1152,911.5,1152,911.5,1152,911.6z"/>
		<path fill="#448CCA" stroke="#000000" stroke-width="2" stroke-miterlimit="10" d="M1151.2,894.4c0.2-1.7,0.4-3.3,0.7-4.9
			C1151.6,891.1,1151.3,892.7,1151.2,894.4z"/>
		<path fill="#448CCA" stroke="#000000" stroke-width="2" stroke-miterlimit="10" d="M1151,897.1c0-0.2,0-0.5,0-0.7
			C1151,896.6,1151,896.8,1151,897.1z"/>
		<path fill="#448CCA" stroke="#000000" stroke-width="2" stroke-miterlimit="10" d="M1151.1,895.7c0-0.3,0-0.6,0.1-0.9
			C1151.1,895.1,1151.1,895.4,1151.1,895.7z"/>
		<path fill="#448CCA" stroke="#000000" stroke-width="2" stroke-miterlimit="10" d="M1150.9,898.6c0-0.2,0-0.4,0-0.6
			C1150.9,898.2,1150.9,898.4,1150.9,898.6z"/>
		<path opacity="0.26" stroke="#000000" stroke-width="2" stroke-miterlimit="10" enable-background="new    " d="M1152,911.4
			c-0.1-0.5-0.2-0.9-0.3-1.4C1151.8,910.5,1151.9,911,1152,911.4z"/>
		<path opacity="0.26" stroke="#000000" stroke-width="2" stroke-miterlimit="10" enable-background="new    " d="M1293.3,899.8
			c-5.6,30.4-35.1,52.2-70.4,52.2c-23.1,0-43.5-9.4-56.5-24.4c-3.4-0.6-6.7-1.5-9.9-2.5c10.8,23,36.1,39.1,65.6,39.1
			c39.3,0,71.2-28.7,71.2-64.1C1293.3,900,1293.3,899.9,1293.3,899.8z"/>
		<path opacity="0.26" stroke="#000000" stroke-width="2" stroke-miterlimit="10" enable-background="new    " d="M1150.9,900.1
			c0-0.5,0-1,0-1.5C1150.9,899.1,1150.9,899.6,1150.9,900.1z"/>
		<path opacity="0.26" stroke="#000000" stroke-width="2" stroke-miterlimit="10" enable-background="new    " d="M1151.1,894.8
			c0-0.1,0-0.3,0-0.4C1151.2,894.5,1151.2,894.7,1151.1,894.8z"/>
		<path opacity="0.26" stroke="#000000" stroke-width="2" stroke-miterlimit="10" enable-background="new    " d="M1152.7,914.6
			c-0.1-0.5-0.3-1-0.4-1.5C1152.5,913.6,1152.6,914.1,1152.7,914.6z"/>
		<path opacity="0.26" stroke="#000000" stroke-width="2" stroke-miterlimit="10" enable-background="new    " d="M1156.5,925.1
			c-1.6-3.4-2.9-6.9-3.8-10.5C1153.7,918.2,1154.9,921.8,1156.5,925.1z"/>
		<path opacity="0.26" stroke="#000000" stroke-width="2" stroke-miterlimit="10" enable-background="new    " d="M1152.3,913
			c-0.1-0.5-0.2-1-0.3-1.5C1152.1,912.1,1152.2,912.6,1152.3,913z"/>
		<path opacity="0.26" stroke="#000000" stroke-width="2" stroke-miterlimit="10" enable-background="new    " d="M1151.9,889.5
			L1151.9,889.5L1151.9,889.5z"/>
		<path opacity="0.26" stroke="#000000" stroke-width="2" stroke-miterlimit="10" enable-background="new    " d="M1151,903.4
			c0-0.4,0-0.8-0.1-1.2C1151,902.6,1151,903,1151,903.4z"/>
		<path opacity="0.26" stroke="#000000" stroke-width="2" stroke-miterlimit="10" enable-background="new    " d="M1151.1,905
			c0-0.4-0.1-0.8-0.1-1.2C1151,904.3,1151.1,904.6,1151.1,905z"/>
		<path opacity="0.26" stroke="#000000" stroke-width="2" stroke-miterlimit="10" enable-background="new    " d="M1150.9,898
			c0-0.3,0-0.6,0-0.9C1151,897.4,1150.9,897.7,1150.9,898z"/>
		<path opacity="0.26" stroke="#000000" stroke-width="2" stroke-miterlimit="10" enable-background="new    " d="M1150.9,901.8
			c0-0.6,0-1.1,0-1.7C1150.9,900.6,1150.9,901.2,1150.9,901.8z"/>
		<path opacity="0.26" stroke="#000000" stroke-width="2" stroke-miterlimit="10" enable-background="new    " d="M1151.5,908.3
			c-0.1-0.4-0.1-0.9-0.2-1.3C1151.4,907.4,1151.4,907.8,1151.5,908.3z"/>
		<path opacity="0.26" stroke="#000000" stroke-width="2" stroke-miterlimit="10" enable-background="new    " d="M1151.7,909.9
			c-0.1-0.5-0.2-0.9-0.2-1.4C1151.6,908.9,1151.7,909.4,1151.7,909.9z"/>
		<path opacity="0.26" stroke="#000000" stroke-width="2" stroke-miterlimit="10" enable-background="new    " d="M1151.3,906.7
			c0-0.4-0.1-0.8-0.1-1.3C1151.2,905.8,1151.2,906.2,1151.3,906.7z"/>
		<path opacity="0.26" stroke="#000000" stroke-width="2" stroke-miterlimit="10" enable-background="new    " d="M1151,896.4
			c0-0.2,0-0.5,0-0.7C1151,895.9,1151,896.1,1151,896.4z"/>
	</g>
	<g>
		<path fill="#E94E1B" stroke="#000000" stroke-width="2" stroke-miterlimit="10" d="M1385,890.5c-0.6-0.4-1.2-0.8-1.9-1.2
			c-1.7-1-3.4-1.9-5.2-2.8c5.1,5.1,8.6,16.6,8.6,30c0,13-3.4,24.2-8.2,29.5c1.4-0.7,2.7-1.4,4-2.1c1.1-0.7,2.2-1.3,3.3-2
			c4.3-4.3,7.4-14,7.4-25.4C1393.1,904.5,1389.7,894.4,1385,890.5z"/>
		<path fill="#FFED00" stroke="#000000" stroke-width="2" stroke-miterlimit="10" d="M1377.9,886.5c-2.1-1-4.4-1.9-6.7-2.7
			c-8.2-2.9-17.7-4.5-27.7-4.5c-32.1,0-58.2,16.6-58.2,37c0,20.4,26,37,58.2,37c9.8,0,19.1-1.6,27.2-4.3c2.7-0.9,5.3-2,7.7-3.1
			c4.8-5.3,8.2-16.5,8.2-29.5C1386.5,903.1,1383,891.6,1377.9,886.5z"/>
	</g>
	<path fill="#E94E1B" stroke="#000000" stroke-width="2" stroke-miterlimit="10" d="M1391.7,855.4v0.6c0.3,11.9-9.2,21.8-21.1,22.1
		l-18,0.4c-11.9,0.3-21.8-9.2-22.1-21.1v-0.6c-0.3-11.9,9.2-21.8,21.1-22.1l18-0.4C1381.5,834.1,1391.4,843.5,1391.7,855.4z"/>
	<path fill="#E94E1B" stroke="#000000" stroke-width="2" stroke-miterlimit="10" d="M1283.7,981.1l-15.4,0.3
		c-11.9,0.3-21.8-9.2-22.1-21.1v-0.6c-0.3-11.9,9.2-21.8,21.1-22.1l15.4-0.3c11.9-0.3,21.8,9.2,22.1,21.1v0.6
		C1305.1,970.9,1295.6,980.8,1283.7,981.1z"/>
	
		<ellipse transform="matrix(-0.5045 -0.8634 0.8634 -0.5045 1174.1504 2454.7009)" fill="#FFFFFF" stroke="#000000" stroke-width="2" stroke-miterlimit="10" cx="1291.4" cy="890.4" rx="15.7" ry="15.5"/>
	
		<ellipse transform="matrix(-0.5045 -0.8634 0.8634 -0.5045 1241.8082 2493.5032)" fill="#FFFFFF" stroke="#000000" stroke-width="2" stroke-miterlimit="10" cx="1336.4" cy="890.4" rx="15.7" ry="15.5"/>
	<ellipse fill="#FFFFFF" stroke="#000000" stroke-width="2" stroke-miterlimit="10" cx="1276.1" cy="839.9" rx="6.8" ry="2.3"/>
	<rect x="1254.1" y="770.8" fill="#FFED00" stroke="#000000" stroke-width="2" stroke-miterlimit="10" width="34" height="25.5"/>
	<rect x="1262.5" y="796.3" fill="#FFED00" stroke="#000000" stroke-width="2" stroke-miterlimit="10" width="25.5" height="50.4"/>
	<path fill="#FFED00" stroke="#000000" stroke-width="2" stroke-miterlimit="10" d="M1297.9,853.1h-42.8c-1.8,0-3.2-1.5-3.2-3.2
		v-42.8c0-1.8,1.5-3.2,3.2-3.2h42.8c1.8,0,3.2,1.5,3.2,3.2l13,46C1314.1,854.8,1299.7,853.1,1297.9,853.1z"/>
	<path fill="#FFED00" stroke="#000000" stroke-width="2" stroke-miterlimit="10" d="M1377.9,900c0-35.5-45.2-64.3-101-64.3
		c-1.9,0-3.7,0-5.5,0.1h-49.1v10.1c-0.1,0-0.1,0-0.2,0.1V954c0.1,0,0.1,0,0.2,0.1v10.2h54.7l0,0
		C1332.7,964.3,1377.9,935.5,1377.9,900z"/>
	<ellipse fill="#48B5E8" stroke="#000000" stroke-width="2" stroke-miterlimit="10" cx="1254.1" cy="783.6" rx="4.3" ry="12.8"/>
	<circle fill="#48B5E8" stroke="#000000" stroke-width="2" stroke-miterlimit="10" cx="1251.1" cy="871.5" r="12.7"/>
	<circle fill="#48B5E8" stroke="#000000" stroke-width="2" stroke-miterlimit="10" cx="1291.2" cy="871.5" r="12.7"/>
	<circle fill="#48B5E8" stroke="#000000" stroke-width="2" stroke-miterlimit="10" cx="1331.3" cy="871.5" r="12.7"/>
	<path opacity="0.11" enable-background="new    " d="M1229.9,919.9v3.3c0,8.1,9.1,14.7,20.3,14.7h16.9c11.2,0,20.3-6.6,20.3-14.7
		v-3.3"/>
	<path fill="#E94E1B" stroke="#000000" stroke-width="2" stroke-miterlimit="10" d="M1229.9,913.9v3.3c0,8.1,9.1,14.7,20.3,14.7
		h16.9c11.2,0,20.3-6.6,20.3-14.7v-3.3"/>
	<path opacity="0.21" stroke="#000000" stroke-width="2" stroke-miterlimit="10" enable-background="new    " d="M1289.6,951.9
		c0,0-36.2,0.4-67.5,0.1v12.2c0.2,0,0.5,0,0.7,0c0.3,0,0.7,0,1,0v0.1h54.7l0,0c52.1,0,94.9-25.1,100.3-57.4
		C1331.5,956,1289.6,951.9,1289.6,951.9z"/>
	<g>
		<path fill="#E94E1B" stroke="#000000" stroke-width="2" stroke-miterlimit="10" d="M1391.2,901.7c-0.6-0.4-1.2-0.8-1.9-1.2
			c-1.7-1-3.4-1.9-5.2-2.8c5.1,5.1,8.6,16.6,8.6,30c0,13-3.4,24.2-8.2,29.5c1.4-0.7,2.7-1.4,4-2.1c1.1-0.7,2.2-1.3,3.3-2
			c4.3-4.3,7.4-14,7.4-25.4C1399.3,915.8,1395.9,905.6,1391.2,901.7z"/>
		<path fill="#FFED00" stroke="#000000" stroke-width="2" stroke-miterlimit="10" d="M1384.1,897.7c-2.1-1-4.4-1.9-6.7-2.7
			c-8.2-2.9-17.7-4.5-27.7-4.5c-32.1,0-58.2,16.6-58.2,37s26,37,58.2,37c9.8,0,19.1-1.6,27.2-4.3c2.7-0.9,5.3-2,7.7-3.1
			c4.8-5.3,8.2-16.5,8.2-29.5C1392.7,914.3,1389.1,902.8,1384.1,897.7z"/>
	</g>
	<path opacity="0.25" enable-background="new    " d="M1389.5,945.4c0,0.1,0,0.1-0.1,0.2c-40.6,21.2-80.3,1.5-98-10
		c5.1,17.1,28.7,30.1,57.1,30.1c9.8,0,19.1-1.6,27.2-4.3c2.7-0.9,5.3-2,7.7-3.1l0,0c1.3-0.6,2.6-1.3,3.8-2c1.1-0.7,2.2-1.3,3.3-2
		c2.6-2.6,4.8-7.3,6.1-13C1394.3,942.7,1391.9,944.1,1389.5,945.4z"/>
	
		<line opacity="0.25" fill="none" stroke="#000000" stroke-width="2" stroke-miterlimit="10" enable-background="new    " x1="1229.9" y1="913.9" x2="1289" y2="913.9"/>
	<g>
		<path fill="#ADADAD" stroke="#000000" stroke-width="2" stroke-miterlimit="10" d="M1373.3,1088.9h4.6c2.5-5.4,1.9-11.9-2.1-16.8
			c-1.3,1.9-1.3,1.9-1.9,2.6C1376.8,1078.7,1377.1,1084.2,1373.3,1088.9z"/>
		<path fill="#ADADAD" stroke="#000000" stroke-width="2" stroke-miterlimit="10" d="M1349.5,1067.4l4.3,5.2l-6.4,5.2l1.6,2l6.4-5.2
			l11.6,14.3h3.7l-13.1-16.1l6.5-5.3l-1.6-2l-6.5,5.3l-4.3-5.2c1.1-1.7,1.1-4.1-0.3-5.8c-1.7-2.1-4.8-2.4-6.9-0.7
			c-2.1,1.7-2.4,4.8-0.7,6.9C1345.3,1067.6,1347.6,1068.2,1349.5,1067.4z M1345.9,1060.7c1.2-1,2.9-0.8,3.9,0.4c0.8,1,0.8,2.5,0,3.5
			l-0.7,0.6c-1.1,0.7-2.6,0.4-3.5-0.7C1344.6,1063.4,1344.7,1061.7,1345.9,1060.7z"/>
	</g>
</g>
<g>
	
		<circle opacity="0.17" fill="#448CCA" stroke="#FFFFFF" stroke-width="4" stroke-miterlimit="10" enable-background="new    " cx="458.2" cy="681.2" r="26.7"/>
	
		<circle opacity="0.17" fill="#448CCA" stroke="#FFFFFF" stroke-width="4" stroke-miterlimit="10" enable-background="new    " cx="494.6" cy="787.7" r="11"/>
	
		<circle opacity="0.17" fill="#448CCA" stroke="#FFFFFF" stroke-width="4" stroke-miterlimit="10" enable-background="new    " cx="442" cy="758.6" r="11"/>
	
		<circle opacity="0.17" fill="#448CCA" stroke="#FFFFFF" stroke-width="4" stroke-miterlimit="10" enable-background="new    " cx="477.8" cy="870.4" r="11"/>
	
		<circle opacity="0.17" fill="#448CCA" stroke="#FFFFFF" stroke-width="4" stroke-miterlimit="10" enable-background="new    " cx="516.7" cy="932.3" r="11"/>
	
		<circle opacity="0.17" fill="#448CCA" stroke="#FFFFFF" stroke-width="4" stroke-miterlimit="10" enable-background="new    " cx="458.2" cy="985.9" r="11"/>
	
		<circle opacity="0.17" fill="#448CCA" stroke="#FFFFFF" stroke-width="4" stroke-miterlimit="10" enable-background="new    " cx="442" cy="902.7" r="17.5"/>
	
		<circle opacity="0.17" fill="#448CCA" stroke="#FFFFFF" stroke-width="4" stroke-miterlimit="10" enable-background="new    " cx="449.1" cy="833" r="17.5"/>
</g>
<g>
	
		<circle opacity="0.17" fill="#448CCA" stroke="#FFFFFF" stroke-width="4" stroke-miterlimit="10" enable-background="new    " cx="1269.5" cy="916.2" r="13.4"/>
	
		<circle opacity="0.17" fill="#448CCA" stroke="#FFFFFF" stroke-width="4" stroke-miterlimit="10" enable-background="new    " cx="1251.3" cy="969.6" r="5.5"/>
	
		<circle opacity="0.17" fill="#448CCA" stroke="#FFFFFF" stroke-width="4" stroke-miterlimit="10" enable-background="new    " cx="1277.7" cy="955" r="5.5"/>
	
		<circle opacity="0.17" fill="#448CCA" stroke="#FFFFFF" stroke-width="4" stroke-miterlimit="10" enable-background="new    " cx="1259.7" cy="1011" r="5.5"/>
	
		<circle opacity="0.17" fill="#448CCA" stroke="#FFFFFF" stroke-width="4" stroke-miterlimit="10" enable-background="new    " cx="1240.2" cy="1042.1" r="5.5"/>
	
		<circle opacity="0.17" fill="#448CCA" stroke="#FFFFFF" stroke-width="4" stroke-miterlimit="10" enable-background="new    " cx="1269.5" cy="1068.9" r="5.5"/>
	
		<circle opacity="0.17" fill="#448CCA" stroke="#FFFFFF" stroke-width="4" stroke-miterlimit="10" enable-background="new    " cx="1277.7" cy="1027.2" r="8.8"/>
	
		<circle opacity="0.17" fill="#448CCA" stroke="#FFFFFF" stroke-width="4" stroke-miterlimit="10" enable-background="new    " cx="1274.1" cy="992.3" r="8.8"/>
</g>
<path fill="#151A30" d="M1450.9,1093.3h112.9c-24.8-46.5-76.4-71.9-128.8-66c2.4,4.2,4.6,8.6,6.5,13.3
	C1448.7,1057.8,1451.6,1075.7,1450.9,1093.3z"/>
<path fill="#151A30" d="M737.5,1093.3c-9.8-29.3-9.3-62.7,3.6-94c5.1-12.2,11.7-23.3,19.5-33.2c-61.7-17.3-128.9,15.5-154.8,78.3
	c-6.6,16-9.9,32.6-10.3,48.9H737.5z"/>
</svg>
