<?xml version="1.0" encoding="utf-8"?>
<!-- Generator: Adobe Illustrator 18.0.0, SVG Export Plug-In . SVG Version: 6.00 Build 0)  -->
<!DOCTYPE svg PUBLIC "-//W3C//DTD SVG 1.1//EN" "http://www.w3.org/Graphics/SVG/1.1/DTD/svg11.dtd">
<svg version="1.1" id="Layer_1" xmlns="http://www.w3.org/2000/svg" xmlns:xlink="http://www.w3.org/1999/xlink" x="0px" y="0px"
	 viewBox="0 0 1920 1080" enable-background="new 0 0 1920 1080" xml:space="preserve">
<polygon fill="#013037" points="-0.6,1080 43.3,529.5 87.2,1080 "/>
<polygon fill="#013037" points="87.2,1080 131,858.3 174.9,1080 "/>
<polygon fill="#013037" points="164.4,1080 270.8,342.3 377.2,1080 "/>
<polygon fill="#013037" points="359.8,1080 446.1,722.2 532.5,1080 "/>
<polygon fill="#013037" points="674.3,1080 710.8,577.2 747.4,1080 "/>
<polygon fill="#013037" points="860.1,1080 896.6,336.2 933.2,1080 "/>
<polygon fill="#013037" points="955.1,1080 1073,802.5 1190.8,1080 "/>
<polygon fill="#013037" points="1245.5,1080 1331.2,638.5 1416.8,1080 "/>
<polygon fill="#013037" points="1458.4,1080 1493.3,867 1528.1,1080 "/>
<polygon fill="#013037" points="1554.1,1080 1651.4,316.2 1748.7,1080 "/>
<polygon fill="#013037" points="532.5,1080 638.3,666.7 744.1,1080 "/>
<polygon fill="#013037" points="1827.6,1080 1874.1,562.3 1920.6,1080 "/>
</svg>
