<?xml version="1.0" encoding="utf-8"?>
<!-- Generator: Adobe Illustrator 18.0.0, SVG Export Plug-In . SVG Version: 6.00 Build 0)  -->
<!DOCTYPE svg PUBLIC "-//W3C//DTD SVG 1.1//EN" "http://www.w3.org/Graphics/SVG/1.1/DTD/svg11.dtd">
<svg version="1.1" id="Layer_1" xmlns="http://www.w3.org/2000/svg" xmlns:xlink="http://www.w3.org/1999/xlink" x="0px" y="0px"
	 viewBox="0 0 2950.7 335.6" enable-background="new 0 0 2950.7 335.6" xml:space="preserve">
<path fill="#5BBFEE" d="M2941,151.7c-29.1-6.8-50.2-52.2-47.3-77.3c2.8-23.9,20.4-25.7,13.1-16.6c-15.4,19.4,39.2,19,39.9,2
	c0.7-17-24.8-38.5-37.2-47.9c-79.6-60.2-156.7,125.7-162.4,139.7h-2.3c-29.1-6.8-50.2-52.2-47.3-77.3c2.8-23.9,20.4-25.7,13.1-16.6
	c-15.4,19.4,39.2,19,39.9,2c0.7-17-24.8-38.5-37.2-47.9c-79.6-60.2-156.7,125.7-162.4,139.7h-2.3c-29.1-6.8-50.2-52.2-47.3-77.3
	c2.8-23.9,20.4-25.7,13.1-16.6c-15.4,19.4,39.2,19,39.9,2c0.7-17-24.8-38.5-37.2-47.9c-79.6-60.2-156.7,125.7-162.4,139.7h-2.3
	c-29.1-6.8-50.2-52.2-47.3-77.3c2.8-23.9,20.4-25.7,13.1-16.6c-15.4,19.4,39.2,19,39.9,2c0.7-17-24.8-38.5-37.2-47.9
	c-79.6-60.2-156.7,125.7-162.4,139.7h-2.3c-29.1-6.8-50.2-52.2-47.3-77.3c2.8-23.9,20.4-25.7,13.1-16.6c-15.4,19.4,39.2,19,39.9,2
	c0.7-17-24.8-38.5-37.2-47.9c-79.6-60.2-156.7,125.7-162.4,139.7h-2.3c-29.1-6.8-50.2-52.2-47.3-77.3c2.8-23.9,20.4-25.7,13.1-16.6
	c-15.4,19.4,39.2,19,39.9,2c0.7-17-24.8-38.5-37.2-47.9c-79.6-60.2-156.7,125.7-162.4,139.7h-2.3c-29.1-6.8-50.2-52.2-47.3-77.3
	c2.8-23.9,20.4-25.7,13.1-16.6c-15.4,19.4,39.2,19,39.9,2c0.7-17-24.8-38.5-37.2-47.9c-79.6-60.2-156.7,125.7-162.4,139.7h-2.3
	c-29.1-6.8-50.2-52.2-47.3-77.3c2.8-23.9,20.4-25.7,13.1-16.6c-15.4,19.4,39.2,19,39.9,2c0.7-17-24.8-38.5-37.2-47.9
	c-79.6-60.2-156.7,125.7-162.4,139.7h-2.3c-29.1-6.8-50.2-52.2-47.3-77.3c2.8-23.9,20.4-25.7,13.1-16.6c-15.4,19.4,39.2,19,39.9,2
	c0.7-17-24.8-38.5-37.2-47.9c-79.6-60.2-156.7,125.7-162.4,139.7h-2.3c-29.1-6.8-50.2-52.2-47.3-77.3c2.8-23.9,20.4-25.7,13.1-16.6
	c-15.4,19.4,39.2,19,39.9,2c0.7-17-24.8-38.5-37.2-47.9C1064.1-48.2,987,137.6,981.3,151.7H979c-29.1-6.8-50.2-52.2-47.3-77.3
	c2.8-23.9,20.4-25.7,13.1-16.6c-15.4,19.4,39.2,19,39.9,2c0.7-17-24.8-38.5-37.2-47.9c-79.6-60.2-156.7,125.7-162.4,139.7h-2.3
	c-29.1-6.8-50.2-52.2-47.3-77.3c2.8-23.9,20.4-25.7,13.1-16.6c-15.4,19.4,39.2,19,39.9,2c0.7-17-24.8-38.5-37.2-47.9
	c-79.6-60.2-156.7,125.7-162.4,139.7h-2.3c-29.1-6.8-50.2-52.2-47.3-77.3c2.8-23.9,20.4-25.7,13.1-16.6c-15.4,19.4,39.2,19,39.9,2
	c0.7-17-24.8-38.5-37.2-47.9c-79.6-60.2-156.7,125.7-162.4,139.7h-2.3c-29.1-6.8-50.2-52.2-47.3-77.3c2.8-23.9,20.4-25.7,13.1-16.6
	c-15.4,19.4,39.2,19,39.9,2c0.7-17-24.8-38.5-37.2-47.9c-79.6-60.2-156.7,125.7-162.4,139.7h-2.3c-29.1-6.8-50.2-52.2-47.3-77.3
	c2.8-23.9,20.4-25.7,13.1-16.6c-15.4,19.4,39.2,19,39.9,2c0.7-17-24.8-38.5-37.2-47.9C83.1-48.2,6,137.6,0.3,151.7H0v183.9h2950.7
	V151.7H2941z"/>
<path opacity="0.61" fill="#FFFFFF" d="M163.4,64.9c0,0,24.2,8.4,29.2-2.7s-7.8-26.7-7.8-26.7s-45.2-58.8-94.7-15.3
	s62.3-8.5,80.5,14.2S163.4,64.9,163.4,64.9z"/>
<path opacity="0.48" fill="#006482" d="M165.7,41.8c-2.1-0.6-4.4-0.9-7-0.1c-2.1,0.4-4.2,1.2-6,2.4c-1.8,1.2-3.5,2.8-4.7,4.8
	c-7,11.9-6,25.8-3,38.7c-1-7.4-0.2-16.9,3.1-24.5c1.1-2.5,2.5-4.8,4.3-6.8c1.8-1.7,3.9-3.4,6.4-4.6c2.2-1.9,5.2-2.9,8.1-1.9
	c-2,6-6.1,7.1-6.1,13.1c0,2,1.1,0.3,3.1-0.7C171.8,56.4,167.8,42.5,165.7,41.8z"/>
<path opacity="0.61" fill="#FFFFFF" d="M359.6,64.9c0,0,24.2,8.4,29.2-2.7s-7.8-26.7-7.8-26.7s-45.2-58.8-94.7-15.3
	s62.3-8.5,80.5,14.2S359.6,64.9,359.6,64.9z"/>
<path opacity="0.48" fill="#006482" d="M361.9,41.8c-2.1-0.6-4.4-0.9-7-0.1c-2.1,0.4-4.2,1.2-6,2.4s-3.5,2.8-4.7,4.8
	c-7,11.9-6,25.8-3,38.7c-1-7.4-0.2-16.9,3.1-24.5c1.1-2.5,2.5-4.8,4.3-6.8c1.8-1.7,3.9-3.4,6.4-4.6c2.2-1.9,5.2-2.9,8.1-1.9
	c-2,6-6.1,7.1-6.1,13.1c0,2,1.1,0.3,3.1-0.7C368,56.4,364,42.5,361.9,41.8z"/>
<path opacity="0.61" fill="#FFFFFF" d="M555.8,64.9c0,0,24.2,8.4,29.2-2.7c5-11.2-7.8-26.7-7.8-26.7s-45.2-58.8-94.7-15.3
	s62.3-8.5,80.5,14.2S555.8,64.9,555.8,64.9z"/>
<path opacity="0.48" fill="#006482" d="M558.1,41.8c-2.1-0.6-4.4-0.9-7-0.1c-2.1,0.4-4.2,1.2-6,2.4c-1.8,1.2-3.5,2.8-4.7,4.8
	c-7,11.9-6,25.8-3,38.7c-1-7.4-0.2-16.9,3.1-24.5c1.1-2.5,2.5-4.8,4.3-6.8c1.8-1.7,3.9-3.4,6.4-4.6c2.2-1.9,5.2-2.9,8.1-1.9
	c-2,6-6.1,7.1-6.1,13.1c0,2,1.1,0.3,3.1-0.7C564.2,56.4,560.2,42.5,558.1,41.8z"/>
<path opacity="0.61" fill="#FFFFFF" d="M752,64.9c0,0,24.2,8.4,29.2-2.7c5-11.2-7.8-26.7-7.8-26.7s-45.2-58.8-94.7-15.3
	c-49.5,43.5,62.3-8.5,80.5,14.2S752,64.9,752,64.9z"/>
<path opacity="0.48" fill="#006482" d="M754.3,41.8c-2.1-0.6-4.4-0.9-7-0.1c-2.1,0.4-4.2,1.2-6,2.4c-1.8,1.2-3.5,2.8-4.7,4.8
	c-7,11.9-6,25.8-3,38.7c-1-7.4-0.2-16.9,3.1-24.5c1.1-2.5,2.5-4.8,4.3-6.8c1.8-1.7,3.9-3.4,6.4-4.6c2.2-1.9,5.2-2.9,8.1-1.9
	c-2,6-6.1,7.1-6.1,13.1c0,2,1.1,0.3,3.1-0.7C760.4,56.4,756.4,42.5,754.3,41.8z"/>
<path opacity="0.61" fill="#FFFFFF" d="M948.2,64.9c0,0,24.2,8.4,29.2-2.7c5-11.2-7.8-26.7-7.8-26.7S924.5-23.4,875,20.1
	c-49.5,43.5,62.3-8.5,80.5,14.2S948.2,64.9,948.2,64.9z"/>
<path opacity="0.48" fill="#006482" d="M950.5,41.8c-2.1-0.6-4.4-0.9-7-0.1c-2.1,0.4-4.2,1.2-6,2.4c-1.8,1.2-3.5,2.8-4.7,4.8
	c-7,11.9-6,25.8-3,38.7c-1-7.4-0.2-16.9,3.1-24.5c1.1-2.5,2.5-4.8,4.3-6.8c1.8-1.7,3.9-3.4,6.4-4.6c2.2-1.9,5.2-2.9,8.1-1.9
	c-2,6-6.1,7.1-6.1,13.1c0,2,1.1,0.3,3.1-0.7C956.6,56.4,952.6,42.5,950.5,41.8z"/>
<path opacity="0.61" fill="#FFFFFF" d="M1144.4,64.9c0,0,24.2,8.4,29.2-2.7s-7.8-26.7-7.8-26.7s-45.2-58.8-94.7-15.3
	s62.3-8.5,80.5,14.2S1144.4,64.9,1144.4,64.9z"/>
<path opacity="0.48" fill="#006482" d="M1146.7,41.8c-2.1-0.6-4.4-0.9-7-0.1c-2.1,0.4-4.2,1.2-6,2.4c-1.8,1.2-3.5,2.8-4.7,4.8
	c-7,11.9-6,25.8-3,38.7c-1-7.4-0.2-16.9,3.1-24.5c1.1-2.5,2.5-4.8,4.3-6.8c1.8-1.7,3.9-3.4,6.4-4.6c2.2-1.9,5.2-2.9,8.1-1.9
	c-2,6-6.1,7.1-6.1,13.1c0,2,1.1,0.3,3.1-0.7C1152.8,56.4,1148.8,42.5,1146.7,41.8z"/>
<path opacity="0.61" fill="#FFFFFF" d="M1340.6,64.9c0,0,24.2,8.4,29.2-2.7s-7.8-26.7-7.8-26.7s-45.2-58.8-94.7-15.3
	s62.3-8.5,80.5,14.2S1340.6,64.9,1340.6,64.9z"/>
<path opacity="0.48" fill="#006482" d="M1342.9,41.8c-2.1-0.6-4.4-0.9-7-0.1c-2.1,0.4-4.2,1.2-6,2.4c-1.8,1.2-3.5,2.8-4.7,4.8
	c-7,11.9-6,25.8-3,38.7c-1-7.4-0.2-16.9,3.1-24.5c1.1-2.5,2.5-4.8,4.3-6.8c1.8-1.7,3.9-3.4,6.4-4.6c2.2-1.9,5.2-2.9,8.1-1.9
	c-2,6-6.1,7.1-6.1,13.1c0,2,1.1,0.3,3.1-0.7C1349,56.4,1345,42.5,1342.9,41.8z"/>
<path opacity="0.61" fill="#FFFFFF" d="M1536.8,64.9c0,0,24.2,8.4,29.2-2.7c5-11.2-7.8-26.7-7.8-26.7s-45.2-58.8-94.7-15.3
	s62.3-8.5,80.5,14.2S1536.8,64.9,1536.8,64.9z"/>
<path opacity="0.48" fill="#006482" d="M1539.1,41.8c-2.1-0.6-4.4-0.9-7-0.1c-2.1,0.4-4.2,1.2-6,2.4c-1.8,1.2-3.5,2.8-4.7,4.8
	c-7,11.9-6,25.8-3,38.7c-1-7.4-0.2-16.9,3.1-24.5c1.1-2.5,2.5-4.8,4.3-6.8c1.8-1.7,3.9-3.4,6.4-4.6c2.2-1.9,5.2-2.9,8.1-1.9
	c-2,6-6.1,7.1-6.1,13.1c0,2,1.1,0.3,3.1-0.7C1545.2,56.4,1541.2,42.5,1539.1,41.8z"/>
<path opacity="0.61" fill="#FFFFFF" d="M1733,64.9c0,0,24.2,8.4,29.2-2.7c5-11.2-7.8-26.7-7.8-26.7s-45.2-58.8-94.7-15.3
	s62.3-8.5,80.5,14.2S1733,64.9,1733,64.9z"/>
<path opacity="0.48" fill="#006482" d="M1735.3,41.8c-2.1-0.6-4.4-0.9-7-0.1c-2.1,0.4-4.2,1.2-6,2.4c-1.8,1.2-3.5,2.8-4.7,4.8
	c-7,11.9-6,25.8-3,38.7c-1-7.4-0.2-16.9,3.1-24.5c1.1-2.5,2.5-4.8,4.3-6.8c1.8-1.7,3.9-3.4,6.4-4.6c2.2-1.9,5.2-2.9,8.1-1.9
	c-2,6-6.1,7.1-6.1,13.1c0,2,1.1,0.3,3.1-0.7C1741.4,56.4,1737.4,42.5,1735.3,41.8z"/>
<path opacity="0.61" fill="#FFFFFF" d="M1929.2,64.9c0,0,24.2,8.4,29.2-2.7c5-11.2-7.8-26.7-7.8-26.7s-45.2-58.8-94.7-15.3
	s62.3-8.5,80.5,14.2S1929.2,64.9,1929.2,64.9z"/>
<path opacity="0.48" fill="#006482" d="M1931.5,41.8c-2.1-0.6-4.4-0.9-7-0.1c-2.1,0.4-4.2,1.2-6,2.4c-1.8,1.2-3.5,2.8-4.7,4.8
	c-7,11.9-6,25.8-3,38.7c-1-7.4-0.2-16.9,3.1-24.5c1.1-2.5,2.5-4.8,4.3-6.8c1.8-1.7,3.9-3.4,6.4-4.6c2.2-1.9,5.2-2.9,8.1-1.9
	c-2,6-6.1,7.1-6.1,13.1c0,2,1.1,0.3,3.1-0.7C1937.6,56.4,1933.6,42.5,1931.5,41.8z"/>
<path opacity="0.61" fill="#FFFFFF" d="M2125.4,64.9c0,0,24.2,8.4,29.2-2.7s-7.8-26.7-7.8-26.7s-45.2-58.8-94.7-15.3
	c-49.5,43.5,62.3-8.5,80.5,14.2S2125.4,64.9,2125.4,64.9z"/>
<path opacity="0.48" fill="#006482" d="M2127.7,41.8c-2.1-0.6-4.4-0.9-7-0.1c-2.1,0.4-4.2,1.2-6,2.4s-3.5,2.8-4.7,4.8
	c-7,11.9-6,25.8-3,38.7c-1-7.4-0.2-16.9,3.1-24.5c1.1-2.5,2.5-4.8,4.3-6.8c1.8-1.7,3.9-3.4,6.4-4.6c2.2-1.9,5.2-2.9,8.1-1.9
	c-2,6-6.1,7.1-6.1,13.1c0,2,1.1,0.3,3.1-0.7C2133.8,56.4,2129.8,42.5,2127.7,41.8z"/>
<path opacity="0.61" fill="#FFFFFF" d="M2321.6,64.9c0,0,24.2,8.4,29.2-2.7s-7.8-26.7-7.8-26.7s-45.2-58.8-94.7-15.3
	c-49.5,43.5,62.3-8.5,80.5,14.2S2321.6,64.9,2321.6,64.9z"/>
<path opacity="0.48" fill="#006482" d="M2323.9,41.8c-2.1-0.6-4.4-0.9-7-0.1c-2.1,0.4-4.2,1.2-6,2.4s-3.5,2.8-4.7,4.8
	c-7,11.9-6,25.8-3,38.7c-1-7.4-0.2-16.9,3.1-24.5c1.1-2.5,2.5-4.8,4.3-6.8c1.8-1.7,3.9-3.4,6.4-4.6c2.2-1.9,5.2-2.9,8.1-1.9
	c-2,6-6.1,7.1-6.1,13.1c0,2,1.1,0.3,3.1-0.7C2330,56.4,2326,42.5,2323.9,41.8z"/>
<path opacity="0.61" fill="#FFFFFF" d="M2517.8,64.9c0,0,24.2,8.4,29.2-2.7s-7.8-26.7-7.8-26.7s-45.2-58.8-94.7-15.3
	c-49.5,43.5,62.3-8.5,80.5,14.2S2517.8,64.9,2517.8,64.9z"/>
<path opacity="0.48" fill="#006482" d="M2520.1,41.8c-2.1-0.6-4.4-0.9-7-0.1c-2.1,0.4-4.2,1.2-6,2.4s-3.5,2.8-4.7,4.8
	c-7,11.9-6,25.8-3,38.7c-1-7.4-0.2-16.9,3.1-24.5c1.1-2.5,2.5-4.8,4.3-6.8c1.8-1.7,3.9-3.4,6.4-4.6c2.2-1.9,5.2-2.9,8.1-1.9
	c-2,6-6.1,7.1-6.1,13.1c0,2,1.1,0.3,3.1-0.7C2526.2,56.4,2522.2,42.5,2520.1,41.8z"/>
<path opacity="0.61" fill="#FFFFFF" d="M2714,64.9c0,0,24.2,8.4,29.2-2.7s-7.8-26.7-7.8-26.7s-45.2-58.8-94.7-15.3
	c-49.5,43.5,62.3-8.5,80.5,14.2S2714,64.9,2714,64.9z"/>
<path opacity="0.48" fill="#006482" d="M2716.3,41.8c-2.1-0.6-4.4-0.9-7-0.1c-2.1,0.4-4.2,1.2-6,2.4s-3.5,2.8-4.7,4.8
	c-7,11.9-6,25.8-3,38.7c-1-7.4-0.2-16.9,3.1-24.5c1.1-2.5,2.5-4.8,4.3-6.8c1.8-1.7,3.9-3.4,6.4-4.6c2.2-1.9,5.2-2.9,8.1-1.9
	c-2,6-6.1,7.1-6.1,13.1c0,2,1.1,0.3,3.1-0.7C2722.4,56.4,2718.4,42.5,2716.3,41.8z"/>
<path opacity="0.61" fill="#FFFFFF" d="M2910.2,64.9c0,0,24.2,8.4,29.2-2.7s-7.8-26.7-7.8-26.7s-45.2-58.8-94.7-15.3
	c-49.5,43.5,62.3-8.5,80.5,14.2S2910.2,64.9,2910.2,64.9z"/>
<path opacity="0.48" fill="#006482" d="M2912.5,41.8c-2.1-0.6-4.4-0.9-7-0.1c-2.1,0.4-4.2,1.2-6,2.4s-3.5,2.8-4.7,4.8
	c-7,11.9-6,25.8-3,38.7c-1-7.4-0.2-16.9,3.1-24.5c1.1-2.5,2.5-4.8,4.3-6.8c1.8-1.7,3.9-3.4,6.4-4.6c2.2-1.9,5.2-2.9,8.1-1.9
	c-2,6-6.1,7.1-6.1,13.1c0,2,1.1,0.3,3.1-0.7C2918.6,56.4,2914.6,42.5,2912.5,41.8z"/>
<g>
	<path fill="#0081A8" d="M-199,1419.7c29.1-6.8,50.2-52.2,47.3-77.3c-2.8-23.9-20.4-25.7-13.1-16.6c15.4,19.4-39.2,19-39.9,2
		c-0.7-17,24.8-38.5,37.2-47.9c79.6-60.2,156.7,125.7,162.4,139.7h2.3c29.1-6.8,50.2-52.2,47.3-77.3c-2.8-23.9-20.4-25.7-13.1-16.6
		c15.4,19.4-39.2,19-39.9,2s24.8-38.5,37.2-47.9c79.6-60.2,156.7,125.7,162.4,139.7h2.3c29.1-6.8,50.2-52.2,47.3-77.3
		c-2.8-23.9-20.4-25.7-13.1-16.6c15.4,19.4-39.2,19-39.9,2c-0.7-17,24.8-38.5,37.2-47.9c79.6-60.2,156.7,125.7,162.4,139.7h2.3
		c29.1-6.8,50.2-52.2,47.3-77.3c-2.8-23.9-20.4-25.7-13.1-16.6c15.4,19.4-39.2,19-39.9,2c-0.7-17,24.8-38.5,37.2-47.9
		c79.6-60.2,156.7,125.7,162.4,139.7h2.3c29.1-6.8,50.2-52.2,47.3-77.3c-2.8-23.9-20.4-25.7-13.1-16.6c15.4,19.4-39.2,19-39.9,2
		c-0.7-17,24.8-38.5,37.2-47.9c79.6-60.2,156.7,125.7,162.4,139.7h2.3c29.1-6.8,50.2-52.2,47.3-77.3c-2.8-23.9-20.4-25.7-13.1-16.6
		c15.4,19.4-39.2,19-39.9,2c-0.7-17,24.8-38.5,37.2-47.9c79.6-60.2,156.7,125.7,162.4,139.7h2.3c29.1-6.8,50.2-52.2,47.3-77.3
		c-2.8-23.9-20.4-25.7-13.1-16.6c15.4,19.4-39.2,19-39.9,2c-0.7-17,24.8-38.5,37.2-47.9c79.6-60.2,156.7,125.7,162.4,139.7h2.3
		c29.1-6.8,50.2-52.2,47.3-77.3c-2.8-23.9-20.4-25.7-13.1-16.6c15.4,19.4-39.2,19-39.9,2c-0.7-17,24.8-38.5,37.2-47.9
		c79.6-60.2,156.7,125.7,162.4,139.7h2.3c29.1-6.8,50.2-52.2,47.3-77.3c-2.8-23.9-20.4-25.7-13.1-16.6c15.4,19.4-39.2,19-39.9,2
		s24.8-38.5,37.2-47.9c79.6-60.2,156.7,125.7,162.4,139.7h2.3c29.1-6.8,50.2-52.2,47.3-77.3c-2.8-23.9-20.4-25.7-13.1-16.6
		c15.4,19.4-39.2,19-39.9,2s24.8-38.5,37.2-47.9c79.6-60.2,156.7,125.7,162.4,139.7h2.3c29.1-6.8,50.2-52.2,47.3-77.3
		c-2.8-23.9-20.4-25.7-13.1-16.6c15.4,19.4-39.2,19-39.9,2s24.8-38.5,37.2-47.9c79.6-60.2,156.7,125.7,162.4,139.7h2.3
		c29.1-6.8,50.2-52.2,47.3-77.3c-2.8-23.9-20.4-25.7-13.1-16.6c15.4,19.4-39.2,19-39.9,2s24.8-38.5,37.2-47.9
		c79.6-60.2,156.7,125.7,162.4,139.7h2.3c29.1-6.8,50.2-52.2,47.3-77.3c-2.8-23.9-20.4-25.7-13.1-16.6c15.4,19.4-39.2,19-39.9,2
		s24.8-38.5,37.2-47.9c79.6-60.2,156.7,125.7,162.4,139.7h2.3c29.1-6.8,50.2-52.2,47.3-77.3c-2.8-23.9-20.4-25.7-13.1-16.6
		c15.4,19.4-39.2,19-39.9,2s24.8-38.5,37.2-47.9c79.6-60.2,156.7,125.7,162.4,139.7h2.3c29.1-6.8,50.2-52.2,47.3-77.3
		c-2.8-23.9-20.4-25.7-13.1-16.6c15.4,19.4-39.2,19-39.9,2s24.8-38.5,37.2-47.9c79.6-60.2,156.7,125.7,162.4,139.7h0.3v183.9H-208.7
		v-183.9H-199z"/>
	<path opacity="0.48" fill="#006482" d="M2576.3,1309.9c2.1-0.6,4.4-0.9,7-0.1c2.1,0.4,4.2,1.2,6,2.4c1.8,1.2,3.5,2.8,4.7,4.8
		c7,11.9,6,25.8,3,38.7c1-7.4,0.2-16.9-3.1-24.5c-1.1-2.5-2.5-4.8-4.3-6.8c-1.8-1.7-3.9-3.4-6.4-4.6c-2.2-1.9-5.2-2.9-8.1-1.9
		c2,6,6.1,7.1,6.1,13.1c0,2-1.1,0.3-3.1-0.7C2570.2,1324.5,2574.2,1310.5,2576.3,1309.9z"/>
	<path opacity="0.48" fill="#006482" d="M2380.1,1309.9c2.1-0.6,4.4-0.9,7-0.1c2.1,0.4,4.2,1.2,6,2.4c1.8,1.2,3.5,2.8,4.7,4.8
		c7,11.9,6,25.8,3,38.7c1-7.4,0.2-16.9-3.1-24.5c-1.1-2.5-2.5-4.8-4.3-6.8c-1.8-1.7-3.9-3.4-6.4-4.6c-2.2-1.9-5.2-2.9-8.1-1.9
		c2,6,6.1,7.1,6.1,13.1c0,2-1.1,0.3-3.1-0.7C2374,1324.5,2378,1310.5,2380.1,1309.9z"/>
	<path opacity="0.48" fill="#006482" d="M2183.9,1309.9c2.1-0.6,4.4-0.9,7-0.1c2.1,0.4,4.2,1.2,6,2.4c1.8,1.2,3.5,2.8,4.7,4.8
		c7,11.9,6,25.8,3,38.7c1-7.4,0.2-16.9-3.1-24.5c-1.1-2.5-2.5-4.8-4.3-6.8c-1.8-1.7-3.9-3.4-6.4-4.6c-2.2-1.9-5.2-2.9-8.1-1.9
		c2,6,6.1,7.1,6.1,13.1c0,2-1.1,0.3-3.1-0.7C2177.8,1324.5,2181.8,1310.5,2183.9,1309.9z"/>
	<path opacity="0.48" fill="#006482" d="M1987.7,1309.9c2.1-0.6,4.4-0.9,7-0.1c2.1,0.4,4.2,1.2,6,2.4c1.8,1.2,3.5,2.8,4.7,4.8
		c7,11.9,6,25.8,3,38.7c1-7.4,0.2-16.9-3.1-24.5c-1.1-2.5-2.5-4.8-4.3-6.8c-1.8-1.7-3.9-3.4-6.4-4.6c-2.2-1.9-5.2-2.9-8.1-1.9
		c2,6,6.1,7.1,6.1,13.1c0,2-1.1,0.3-3.1-0.7C1981.6,1324.5,1985.6,1310.5,1987.7,1309.9z"/>
	<path opacity="0.48" fill="#006482" d="M1791.5,1309.9c2.1-0.6,4.4-0.9,7-0.1c2.1,0.4,4.2,1.2,6,2.4c1.8,1.2,3.5,2.8,4.7,4.8
		c7,11.9,6,25.8,3,38.7c1-7.4,0.2-16.9-3.1-24.5c-1.1-2.5-2.5-4.8-4.3-6.8c-1.8-1.7-3.9-3.4-6.4-4.6c-2.2-1.9-5.2-2.9-8.1-1.9
		c2,6,6.1,7.1,6.1,13.1c0,2-1.1,0.3-3.1-0.7C1785.4,1324.5,1789.4,1310.5,1791.5,1309.9z"/>
	<path opacity="0.48" fill="#006482" d="M1595.3,1309.9c2.1-0.6,4.4-0.9,7-0.1c2.1,0.4,4.2,1.2,6,2.4c1.8,1.2,3.5,2.8,4.7,4.8
		c7,11.9,6,25.8,3,38.7c1-7.4,0.2-16.9-3.1-24.5c-1.1-2.5-2.5-4.8-4.3-6.8c-1.8-1.7-3.9-3.4-6.4-4.6c-2.2-1.9-5.2-2.9-8.1-1.9
		c2,6,6.1,7.1,6.1,13.1c0,2-1.1,0.3-3.1-0.7C1589.2,1324.5,1593.2,1310.5,1595.3,1309.9z"/>
	<path opacity="0.48" fill="#006482" d="M1399.1,1309.9c2.1-0.6,4.4-0.9,7-0.1c2.1,0.4,4.2,1.2,6,2.4c1.8,1.2,3.5,2.8,4.7,4.8
		c7,11.9,6,25.8,3,38.7c1-7.4,0.2-16.9-3.1-24.5c-1.1-2.5-2.5-4.8-4.3-6.8c-1.8-1.7-3.9-3.4-6.4-4.6c-2.2-1.9-5.2-2.9-8.1-1.9
		c2,6,6.1,7.1,6.1,13.1c0,2-1.1,0.3-3.1-0.7C1393,1324.5,1397,1310.5,1399.1,1309.9z"/>
	<path opacity="0.48" fill="#006482" d="M1202.9,1309.9c2.1-0.6,4.4-0.9,7-0.1c2.1,0.4,4.2,1.2,6,2.4c1.8,1.2,3.5,2.8,4.7,4.8
		c7,11.9,6,25.8,3,38.7c1-7.4,0.2-16.9-3.1-24.5c-1.1-2.5-2.5-4.8-4.3-6.8c-1.8-1.7-3.9-3.4-6.4-4.6c-2.2-1.9-5.2-2.9-8.1-1.9
		c2,6,6.1,7.1,6.1,13.1c0,2-1.1,0.3-3.1-0.7C1196.8,1324.5,1200.8,1310.5,1202.9,1309.9z"/>
	<path opacity="0.48" fill="#006482" d="M810.5,1309.9c2.1-0.6,4.4-0.9,7-0.1c2.1,0.4,4.2,1.2,6,2.4c1.8,1.2,3.5,2.8,4.7,4.8
		c7,11.9,6,25.8,3,38.7c1-7.4,0.2-16.9-3.1-24.5c-1.1-2.5-2.5-4.8-4.3-6.8c-1.8-1.7-3.9-3.4-6.4-4.6c-2.2-1.9-5.2-2.9-8.1-1.9
		c2,6,6.1,7.1,6.1,13.1c0,2-1.1,0.3-3.1-0.7C804.4,1324.5,808.4,1310.5,810.5,1309.9z"/>
	<path opacity="0.48" fill="#006482" d="M614.3,1309.9c2.1-0.6,4.4-0.9,7-0.1c2.1,0.4,4.2,1.2,6,2.4c1.8,1.2,3.5,2.8,4.7,4.8
		c7,11.9,6,25.8,3,38.7c1-7.4,0.2-16.9-3.1-24.5c-1.1-2.5-2.5-4.8-4.3-6.8c-1.8-1.7-3.9-3.4-6.4-4.6c-2.2-1.9-5.2-2.9-8.1-1.9
		c2,6,6.1,7.1,6.1,13.1c0,2-1.1,0.3-3.1-0.7C608.2,1324.5,612.2,1310.5,614.3,1309.9z"/>
	<path opacity="0.48" fill="#006482" d="M418.1,1309.9c2.1-0.6,4.4-0.9,7-0.1c2.1,0.4,4.2,1.2,6,2.4c1.8,1.2,3.5,2.8,4.7,4.8
		c7,11.9,6,25.8,3,38.7c1-7.4,0.2-16.9-3.1-24.5c-1.1-2.5-2.5-4.8-4.3-6.8c-1.8-1.7-3.9-3.4-6.4-4.6c-2.2-1.9-5.2-2.9-8.1-1.9
		c2,6,6.1,7.1,6.1,13.1c0,2-1.1,0.3-3.1-0.7C412,1324.5,416,1310.5,418.1,1309.9z"/>
	<path opacity="0.48" fill="#006482" d="M221.9,1309.9c2.1-0.6,4.4-0.9,7-0.1c2.1,0.4,4.2,1.2,6,2.4c1.8,1.2,3.5,2.8,4.7,4.8
		c7,11.9,6,25.8,3,38.7c1-7.4,0.2-16.9-3.1-24.5c-1.1-2.5-2.5-4.8-4.3-6.8c-1.8-1.7-3.9-3.4-6.4-4.6c-2.2-1.9-5.2-2.9-8.1-1.9
		c2,6,6.1,7.1,6.1,13.1c0,2-1.1,0.3-3.1-0.7C215.8,1324.5,219.8,1310.5,221.9,1309.9z"/>
	<path opacity="0.48" fill="#006482" d="M25.7,1309.9c2.1-0.6,4.4-0.9,7-0.1c2.1,0.4,4.2,1.2,6,2.4c1.8,1.2,3.5,2.8,4.7,4.8
		c7,11.9,6,25.8,3,38.7c1-7.4,0.2-16.9-3.1-24.5c-1.1-2.5-2.5-4.8-4.3-6.8c-1.8-1.7-3.9-3.4-6.4-4.6c-2.2-1.9-5.2-2.9-8.1-1.9
		c2,6,6.1,7.1,6.1,13.1c0,2-1.1,0.3-3.1-0.7C19.6,1324.5,23.6,1310.5,25.7,1309.9z"/>
	<g>
		<path opacity="0.23" fill="#FFFFFF" d="M1009,1332.9c0,0-24.2,8.4-29.2-2.7s7.8-26.7,7.8-26.7s45.2-58.8,94.7-15.3
			c49.5,43.5-62.3-8.5-80.5,14.2S1009,1332.9,1009,1332.9z"/>
		<g opacity="0.23">
			<path opacity="0.61" fill="#FFFFFF" d="M2578.6,1332.9c0,0-24.2,8.4-29.2-2.7s7.8-26.7,7.8-26.7s45.2-58.8,94.7-15.3
				c49.5,43.5-62.3-8.5-80.5,14.2S2578.6,1332.9,2578.6,1332.9z"/>
			<path opacity="0.61" fill="#FFFFFF" d="M2382.4,1332.9c0,0-24.2,8.4-29.2-2.7s7.8-26.7,7.8-26.7s45.2-58.8,94.7-15.3
				c49.5,43.5-62.3-8.5-80.5,14.2S2382.4,1332.9,2382.4,1332.9z"/>
			<path opacity="0.61" fill="#FFFFFF" d="M2186.2,1332.9c0,0-24.2,8.4-29.2-2.7s7.8-26.7,7.8-26.7s45.2-58.8,94.7-15.3
				c49.5,43.5-62.3-8.5-80.5,14.2S2186.2,1332.9,2186.2,1332.9z"/>
			<path opacity="0.61" fill="#FFFFFF" d="M1990,1332.9c0,0-24.2,8.4-29.2-2.7s7.8-26.7,7.8-26.7s45.2-58.8,94.7-15.3
				c49.5,43.5-62.3-8.5-80.5,14.2S1990,1332.9,1990,1332.9z"/>
			<path opacity="0.61" fill="#FFFFFF" d="M1793.8,1332.9c0,0-24.2,8.4-29.2-2.7s7.8-26.7,7.8-26.7s45.2-58.8,94.7-15.3
				c49.5,43.5-62.3-8.5-80.5,14.2S1793.8,1332.9,1793.8,1332.9z"/>
			<path opacity="0.61" fill="#FFFFFF" d="M1597.6,1332.9c0,0-24.2,8.4-29.2-2.7s7.8-26.7,7.8-26.7s45.2-58.8,94.7-15.3
				c49.5,43.5-62.3-8.5-80.5,14.2S1597.6,1332.9,1597.6,1332.9z"/>
			<path opacity="0.61" fill="#FFFFFF" d="M1401.4,1332.9c0,0-24.2,8.4-29.2-2.7s7.8-26.7,7.8-26.7s45.2-58.8,94.7-15.3
				c49.5,43.5-62.3-8.5-80.5,14.2S1401.4,1332.9,1401.4,1332.9z"/>
			<path opacity="0.61" fill="#FFFFFF" d="M1205.2,1332.9c0,0-24.2,8.4-29.2-2.7s7.8-26.7,7.8-26.7s45.2-58.8,94.7-15.3
				c49.5,43.5-62.3-8.5-80.5,14.2S1205.2,1332.9,1205.2,1332.9z"/>
			<path opacity="0.48" fill="#006482" d="M1006.7,1309.9c2.1-0.6,4.4-0.9,7-0.1c2.1,0.4,4.2,1.2,6,2.4c1.8,1.2,3.5,2.8,4.7,4.8
				c7,11.9,6,25.8,3,38.7c1-7.4,0.2-16.9-3.1-24.5c-1.1-2.5-2.5-4.8-4.3-6.8c-1.8-1.7-3.9-3.4-6.4-4.6c-2.2-1.9-5.2-2.9-8.1-1.9
				c2,6,6.1,7.1,6.1,13.1c0,2-1.1,0.3-3.1-0.7C1000.6,1324.5,1004.6,1310.5,1006.7,1309.9z"/>
			<path opacity="0.61" fill="#FFFFFF" d="M812.8,1332.9c0,0-24.2,8.4-29.2-2.7s7.8-26.7,7.8-26.7s45.2-58.8,94.7-15.3
				c49.5,43.5-62.3-8.5-80.5,14.2S812.8,1332.9,812.8,1332.9z"/>
			<path opacity="0.61" fill="#FFFFFF" d="M616.6,1332.9c0,0-24.2,8.4-29.2-2.7s7.8-26.7,7.8-26.7s45.2-58.8,94.7-15.3
				c49.5,43.5-62.3-8.5-80.5,14.2S616.6,1332.9,616.6,1332.9z"/>
			<path opacity="0.61" fill="#FFFFFF" d="M420.4,1332.9c0,0-24.2,8.4-29.2-2.7c-5-11.2,7.8-26.7,7.8-26.7s45.2-58.8,94.7-15.3
				c49.5,43.5-62.3-8.5-80.5,14.2C395,1324.9,420.4,1332.9,420.4,1332.9z"/>
			<path opacity="0.61" fill="#FFFFFF" d="M224.2,1332.9c0,0-24.2,8.4-29.2-2.7s7.8-26.7,7.8-26.7s45.2-58.8,94.7-15.3
				c49.5,43.5-62.3-8.5-80.5,14.2S224.2,1332.9,224.2,1332.9z"/>
			<path opacity="0.61" fill="#FFFFFF" d="M28,1332.9c0,0-24.2,8.4-29.2-2.7s7.8-26.7,7.8-26.7s45.2-58.8,94.7-15.3
				c49.5,43.5-62.3-8.5-80.5,14.2S28,1332.9,28,1332.9z"/>
			<path opacity="0.61" fill="#FFFFFF" d="M-168.2,1332.9c0,0-24.2,8.4-29.2-2.7s7.8-26.7,7.8-26.7s45.2-58.8,94.7-15.3
				c49.5,43.5-62.3-8.5-80.5,14.2S-168.2,1332.9-168.2,1332.9z"/>
		</g>
	</g>
	<path opacity="0.48" fill="#006482" d="M-170.5,1309.9c2.1-0.6,4.4-0.9,7-0.1c2.1,0.4,4.2,1.2,6,2.4c1.8,1.2,3.5,2.8,4.7,4.8
		c7,11.9,6,25.8,3,38.7c1-7.4,0.2-16.9-3.1-24.5c-1.1-2.5-2.5-4.8-4.3-6.8c-1.8-1.7-3.9-3.4-6.4-4.6c-2.2-1.9-5.2-2.9-8.1-1.9
		c2,6,6.1,7.1,6.1,13.1c0,2-1.1,0.3-3.1-0.7C-176.6,1324.5-172.6,1310.5-170.5,1309.9z"/>
</g>
<g>
	<path fill="#5BBFEE" d="M2560.4,1659.7c-29.1-6.8-50.2-52.2-47.3-77.3c2.8-23.9,20.4-25.7,13.1-16.6c-15.4,19.4,39.2,19,39.9,2
		c0.7-17-24.8-38.5-37.2-47.9c-79.6-60.2-156.7,125.7-162.4,139.7h-2.3c-29.1-6.8-50.2-52.2-47.3-77.3c2.8-23.9,20.4-25.7,13.1-16.6
		c-15.4,19.4,39.2,19,39.9,2s-24.8-38.5-37.2-47.9c-79.6-60.2-156.7,125.7-162.4,139.7h-2.3c-29.1-6.8-50.2-52.2-47.3-77.3
		c2.8-23.9,20.4-25.7,13.1-16.6c-15.4,19.4,39.2,19,39.9,2s-24.8-38.5-37.2-47.9c-79.6-60.2-156.7,125.7-162.4,139.7h-2.3
		c-29.1-6.8-50.2-52.2-47.3-77.3c2.8-23.9,20.4-25.7,13.1-16.6c-15.4,19.4,39.2,19,39.9,2c0.7-17-24.8-38.5-37.2-47.9
		c-79.6-60.2-156.7,125.7-162.4,139.7h-2.3c-29.1-6.8-50.2-52.2-47.3-77.3c2.8-23.9,20.4-25.7,13.1-16.6c-15.4,19.4,39.2,19,39.9,2
		c0.7-17-24.8-38.5-37.2-47.9c-79.6-60.2-156.7,125.7-162.4,139.7h-2.3c-29.1-6.8-50.2-52.2-47.3-77.3c2.8-23.9,20.4-25.7,13.1-16.6
		c-15.4,19.4,39.2,19,39.9,2c0.7-17-24.8-38.5-37.2-47.9c-79.6-60.2-156.7,125.7-162.4,139.7h-2.3c-29.1-6.8-50.2-52.2-47.3-77.3
		c2.8-23.9,20.4-25.7,13.1-16.6c-15.4,19.4,39.2,19,39.9,2c0.7-17-24.8-38.5-37.2-47.9c-79.6-60.2-156.7,125.7-162.4,139.7h-2.3
		c-29.1-6.8-50.2-52.2-47.3-77.3c2.8-23.9,20.4-25.7,13.1-16.6c-15.4,19.4,39.2,19,39.9,2c0.7-17-24.8-38.5-37.2-47.9
		c-79.6-60.2-156.7,125.7-162.4,139.7h-2.3c-29.1-6.8-50.2-52.2-47.3-77.3c2.8-23.9,20.4-25.7,13.1-16.6c-15.4,19.4,39.2,19,39.9,2
		s-24.8-38.5-37.2-47.9c-79.6-60.2-156.7,125.7-162.4,139.7h-2.3c-29.1-6.8-50.2-52.2-47.3-77.3c2.8-23.9,20.4-25.7,13.1-16.6
		c-15.4,19.4,39.2,19,39.9,2s-24.8-38.5-37.2-47.9c-79.6-60.2-156.7,125.7-162.4,139.7h-2.3c-29.1-6.8-50.2-52.2-47.3-77.3
		c2.8-23.9,20.4-25.7,13.1-16.6c-15.4,19.4,39.2,19,39.9,2s-24.8-38.5-37.2-47.9c-79.6-60.2-156.7,125.7-162.4,139.7h-2.3
		c-29.1-6.8-50.2-52.2-47.3-77.3c2.8-23.9,20.4-25.7,13.1-16.6c-15.4,19.4,39.2,19,39.9,2s-24.8-38.5-37.2-47.9
		c-79.6-60.2-156.7,125.7-162.4,139.7H206c-29.1-6.8-50.2-52.2-47.3-77.3c2.8-23.9,20.4-25.7,13.1-16.6c-15.4,19.4,39.2,19,39.9,2
		s-24.8-38.5-37.2-47.9C95,1459.8,17.8,1645.7,12.2,1659.7H9.8c-29.1-6.8-50.2-52.2-47.3-77.3c2.8-23.9,20.4-25.7,13.1-16.6
		c-15.4,19.4,39.2,19,39.9,2s-24.8-38.5-37.2-47.9c-79.6-60.2-156.7,125.7-162.4,139.7h-2.3c-29.1-6.8-50.2-52.2-47.3-77.3
		c2.8-23.9,20.4-25.7,13.1-16.6c-15.4,19.4,39.2,19,39.9,2s-24.8-38.5-37.2-47.9c-79.6-60.2-156.7,125.7-162.4,139.7h-0.3v183.9
		h2950.7v-183.9H2560.4z"/>
	<path opacity="0.61" fill="#FFFFFF" d="M-217.2,1572.9c0,0,24.2,8.4,29.2-2.7s-7.8-26.7-7.8-26.7s-45.2-58.8-94.7-15.3
		c-49.5,43.5,62.3-8.5,80.5,14.2S-217.2,1572.9-217.2,1572.9z"/>
	<path opacity="0.48" fill="#006482" d="M-214.9,1549.9c-2.1-0.6-4.4-0.9-7-0.1c-2.1,0.4-4.2,1.2-6,2.4s-3.5,2.8-4.7,4.8
		c-7,11.9-6,25.8-3,38.7c-1-7.4-0.2-16.9,3.1-24.5c1.1-2.5,2.5-4.8,4.3-6.8c1.8-1.7,3.9-3.4,6.4-4.6c2.2-1.9,5.2-2.9,8.1-1.9
		c-2,6-6.1,7.1-6.1,13.1c0,2,1.1,0.3,3.1-0.7C-208.7,1564.5-212.7,1550.5-214.9,1549.9z"/>
	<path opacity="0.61" fill="#FFFFFF" d="M-21,1572.9c0,0,24.2,8.4,29.2-2.7s-7.8-26.7-7.8-26.7s-45.2-58.8-94.7-15.3
		c-49.5,43.5,62.3-8.5,80.5,14.2S-21,1572.9-21,1572.9z"/>
	<path opacity="0.48" fill="#006482" d="M-18.7,1549.9c-2.1-0.6-4.4-0.9-7-0.1c-2.1,0.4-4.2,1.2-6,2.4c-1.8,1.2-3.5,2.8-4.7,4.8
		c-7,11.9-6,25.8-3,38.7c-1-7.4-0.2-16.9,3.1-24.5c1.1-2.5,2.5-4.8,4.3-6.8c1.8-1.7,3.9-3.4,6.4-4.6c2.2-1.9,5.2-2.9,8.1-1.9
		c-2,6-6.1,7.1-6.1,13.1c0,2,1.1,0.3,3.1-0.7C-12.6,1564.5-16.5,1550.5-18.7,1549.9z"/>
	<path opacity="0.61" fill="#FFFFFF" d="M175.2,1572.9c0,0,24.2,8.4,29.2-2.7s-7.8-26.7-7.8-26.7s-45.2-58.8-94.7-15.3
		c-49.5,43.5,62.3-8.5,80.5,14.2S175.2,1572.9,175.2,1572.9z"/>
	<path opacity="0.48" fill="#006482" d="M177.5,1549.9c-2.1-0.6-4.4-0.9-7-0.1c-2.1,0.4-4.2,1.2-6,2.4s-3.5,2.8-4.7,4.8
		c-7,11.9-6,25.8-3,38.7c-1-7.4-0.2-16.9,3.1-24.5c1.1-2.5,2.5-4.8,4.3-6.8c1.8-1.7,3.9-3.4,6.4-4.6c2.2-1.9,5.2-2.9,8.1-1.9
		c-2,6-6.1,7.1-6.1,13.1c0,2,1.1,0.3,3.1-0.7C183.6,1564.5,179.7,1550.5,177.5,1549.9z"/>
	<path opacity="0.61" fill="#FFFFFF" d="M371.4,1572.9c0,0,24.2,8.4,29.2-2.7c5-11.2-7.8-26.7-7.8-26.7s-45.2-58.8-94.7-15.3
		c-49.5,43.5,62.3-8.5,80.5,14.2S371.4,1572.9,371.4,1572.9z"/>
	<path opacity="0.48" fill="#006482" d="M373.7,1549.9c-2.1-0.6-4.4-0.9-7-0.1c-2.1,0.4-4.2,1.2-6,2.4s-3.5,2.8-4.7,4.8
		c-7,11.9-6,25.8-3,38.7c-1-7.4-0.2-16.9,3.1-24.5c1.1-2.5,2.5-4.8,4.3-6.8c1.8-1.7,3.9-3.4,6.4-4.6c2.2-1.9,5.2-2.9,8.1-1.9
		c-2,6-6.1,7.1-6.1,13.1c0,2,1.1,0.3,3.1-0.7C379.8,1564.5,375.9,1550.5,373.7,1549.9z"/>
	<path opacity="0.61" fill="#FFFFFF" d="M567.6,1572.9c0,0,24.2,8.4,29.2-2.7c5-11.2-7.8-26.7-7.8-26.7s-45.2-58.8-94.7-15.3
		c-49.5,43.5,62.3-8.5,80.5,14.2S567.6,1572.9,567.6,1572.9z"/>
	<path opacity="0.48" fill="#006482" d="M569.9,1549.9c-2.1-0.6-4.4-0.9-7-0.1c-2.1,0.4-4.2,1.2-6,2.4c-1.8,1.2-3.5,2.8-4.7,4.8
		c-7,11.9-6,25.8-3,38.7c-1-7.4-0.2-16.9,3.1-24.5c1.1-2.5,2.5-4.8,4.3-6.8c1.8-1.7,3.9-3.4,6.4-4.6c2.2-1.9,5.2-2.9,8.1-1.9
		c-2,6-6.1,7.1-6.1,13.1c0,2,1.1,0.3,3.1-0.7C576,1564.5,572.1,1550.5,569.9,1549.9z"/>
	<path opacity="0.61" fill="#FFFFFF" d="M763.8,1572.9c0,0,24.2,8.4,29.2-2.7c5-11.2-7.8-26.7-7.8-26.7s-45.2-58.8-94.7-15.3
		c-49.5,43.5,62.3-8.5,80.5,14.2S763.8,1572.9,763.8,1572.9z"/>
	<path opacity="0.48" fill="#006482" d="M766.1,1549.9c-2.1-0.6-4.4-0.9-7-0.1c-2.1,0.4-4.2,1.2-6,2.4c-1.8,1.2-3.5,2.8-4.7,4.8
		c-7,11.9-6,25.8-3,38.7c-1-7.4-0.2-16.9,3.1-24.5c1.1-2.5,2.5-4.8,4.3-6.8c1.8-1.7,3.9-3.4,6.4-4.6c2.2-1.9,5.2-2.9,8.1-1.9
		c-2,6-6.1,7.1-6.1,13.1c0,2,1.1,0.3,3.1-0.7C772.2,1564.5,768.3,1550.5,766.1,1549.9z"/>
	<path opacity="0.61" fill="#FFFFFF" d="M960,1572.9c0,0,24.2,8.4,29.2-2.7c5-11.2-7.8-26.7-7.8-26.7s-45.2-58.8-94.7-15.3
		c-49.5,43.5,62.3-8.5,80.5,14.2S960,1572.9,960,1572.9z"/>
	<path opacity="0.48" fill="#006482" d="M962.3,1549.9c-2.1-0.6-4.4-0.9-7-0.1c-2.1,0.4-4.2,1.2-6,2.4c-1.8,1.2-3.5,2.8-4.7,4.8
		c-7,11.9-6,25.8-3,38.7c-1-7.4-0.2-16.9,3.1-24.5c1.1-2.5,2.5-4.8,4.3-6.8c1.8-1.7,3.9-3.4,6.4-4.6c2.2-1.9,5.2-2.9,8.1-1.9
		c-2,6-6.1,7.1-6.1,13.1c0,2,1.1,0.3,3.1-0.7C968.4,1564.5,964.5,1550.5,962.3,1549.9z"/>
	<path opacity="0.61" fill="#FFFFFF" d="M1156.2,1572.9c0,0,24.2,8.4,29.2-2.7s-7.8-26.7-7.8-26.7s-45.2-58.8-94.7-15.3
		c-49.5,43.5,62.3-8.5,80.5,14.2S1156.2,1572.9,1156.2,1572.9z"/>
	<path opacity="0.48" fill="#006482" d="M1158.5,1549.9c-2.1-0.6-4.4-0.9-7-0.1c-2.1,0.4-4.2,1.2-6,2.4c-1.8,1.2-3.5,2.8-4.7,4.8
		c-7,11.9-6,25.8-3,38.7c-1-7.4-0.2-16.9,3.1-24.5c1.1-2.5,2.5-4.8,4.3-6.8c1.8-1.7,3.9-3.4,6.4-4.6c2.2-1.9,5.2-2.9,8.1-1.9
		c-2,6-6.1,7.1-6.1,13.1c0,2,1.1,0.3,3.1-0.7C1164.6,1564.5,1160.7,1550.5,1158.5,1549.9z"/>
	<path opacity="0.61" fill="#FFFFFF" d="M1352.4,1572.9c0,0,24.2,8.4,29.2-2.7s-7.8-26.7-7.8-26.7s-45.2-58.8-94.7-15.3
		c-49.5,43.5,62.3-8.5,80.5,14.2S1352.4,1572.9,1352.4,1572.9z"/>
	<path opacity="0.48" fill="#006482" d="M1354.7,1549.9c-2.1-0.6-4.4-0.9-7-0.1c-2.1,0.4-4.2,1.2-6,2.4c-1.8,1.2-3.5,2.8-4.7,4.8
		c-7,11.9-6,25.8-3,38.7c-1-7.4-0.2-16.9,3.1-24.5c1.1-2.5,2.5-4.8,4.3-6.8c1.8-1.7,3.9-3.4,6.4-4.6c2.2-1.9,5.2-2.9,8.1-1.9
		c-2,6-6.1,7.1-6.1,13.1c0,2,1.1,0.3,3.1-0.7C1360.8,1564.5,1356.8,1550.5,1354.7,1549.9z"/>
	<path opacity="0.61" fill="#FFFFFF" d="M1548.6,1572.9c0,0,24.2,8.4,29.2-2.7s-7.8-26.7-7.8-26.7s-45.2-58.8-94.7-15.3
		c-49.5,43.5,62.3-8.5,80.5,14.2S1548.6,1572.9,1548.6,1572.9z"/>
	<path opacity="0.48" fill="#006482" d="M1550.9,1549.9c-2.1-0.6-4.4-0.9-7-0.1c-2.1,0.4-4.2,1.2-6,2.4c-1.8,1.2-3.5,2.8-4.7,4.8
		c-7,11.9-6,25.8-3,38.7c-1-7.4-0.2-16.9,3.1-24.5c1.1-2.5,2.5-4.8,4.3-6.8c1.8-1.7,3.9-3.4,6.4-4.6c2.2-1.9,5.2-2.9,8.1-1.9
		c-2,6-6.1,7.1-6.1,13.1c0,2,1.1,0.3,3.1-0.7C1557,1564.5,1553,1550.5,1550.9,1549.9z"/>
	<path opacity="0.61" fill="#FFFFFF" d="M1744.8,1572.9c0,0,24.2,8.4,29.2-2.7s-7.8-26.7-7.8-26.7s-45.2-58.8-94.7-15.3
		c-49.5,43.5,62.3-8.5,80.5,14.2S1744.8,1572.9,1744.8,1572.9z"/>
	<path opacity="0.48" fill="#006482" d="M1747.1,1549.9c-2.1-0.6-4.4-0.9-7-0.1c-2.1,0.4-4.2,1.2-6,2.4c-1.8,1.2-3.5,2.8-4.7,4.8
		c-7,11.9-6,25.8-3,38.7c-1-7.4-0.2-16.9,3.1-24.5c1.1-2.5,2.5-4.8,4.3-6.8c1.8-1.7,3.9-3.4,6.4-4.6c2.2-1.9,5.2-2.9,8.1-1.9
		c-2,6-6.1,7.1-6.1,13.1c0,2,1.1,0.3,3.1-0.7C1753.2,1564.5,1749.2,1550.5,1747.1,1549.9z"/>
	<path opacity="0.61" fill="#FFFFFF" d="M1941,1572.9c0,0,24.2,8.4,29.2-2.7s-7.8-26.7-7.8-26.7s-45.2-58.8-94.7-15.3
		c-49.5,43.5,62.3-8.5,80.5,14.2S1941,1572.9,1941,1572.9z"/>
	<path opacity="0.48" fill="#006482" d="M1943.3,1549.9c-2.1-0.6-4.4-0.9-7-0.1c-2.1,0.4-4.2,1.2-6,2.4c-1.8,1.2-3.5,2.8-4.7,4.8
		c-7,11.9-6,25.8-3,38.7c-1-7.4-0.2-16.9,3.1-24.5c1.1-2.5,2.5-4.8,4.3-6.8c1.8-1.7,3.9-3.4,6.4-4.6c2.2-1.9,5.2-2.9,8.1-1.9
		c-2,6-6.1,7.1-6.1,13.1c0,2,1.1,0.3,3.1-0.7C1949.4,1564.5,1945.4,1550.5,1943.3,1549.9z"/>
	<path opacity="0.61" fill="#FFFFFF" d="M2137.2,1572.9c0,0,24.2,8.4,29.2-2.7s-7.8-26.7-7.8-26.7s-45.2-58.8-94.7-15.3
		c-49.5,43.5,62.3-8.5,80.5,14.2S2137.2,1572.9,2137.2,1572.9z"/>
	<path opacity="0.48" fill="#006482" d="M2139.5,1549.9c-2.1-0.6-4.4-0.9-7-0.1c-2.1,0.4-4.2,1.2-6,2.4s-3.5,2.8-4.7,4.8
		c-7,11.9-6,25.8-3,38.7c-1-7.4-0.2-16.9,3.1-24.5c1.1-2.5,2.5-4.8,4.3-6.8c1.8-1.7,3.9-3.4,6.4-4.6c2.2-1.9,5.2-2.9,8.1-1.9
		c-2,6-6.1,7.1-6.1,13.1c0,2,1.1,0.3,3.1-0.7C2145.6,1564.5,2141.6,1550.5,2139.5,1549.9z"/>
	<path opacity="0.61" fill="#FFFFFF" d="M2333.4,1572.9c0,0,24.2,8.4,29.2-2.7s-7.8-26.7-7.8-26.7s-45.2-58.8-94.7-15.3
		c-49.5,43.5,62.3-8.5,80.5,14.2S2333.4,1572.9,2333.4,1572.9z"/>
	<path opacity="0.48" fill="#006482" d="M2335.7,1549.9c-2.1-0.6-4.4-0.9-7-0.1c-2.1,0.4-4.2,1.2-6,2.4s-3.5,2.8-4.7,4.8
		c-7,11.9-6,25.8-3,38.7c-1-7.4-0.2-16.9,3.1-24.5c1.1-2.5,2.5-4.8,4.3-6.8c1.8-1.7,3.9-3.4,6.4-4.6c2.2-1.9,5.2-2.9,8.1-1.9
		c-2,6-6.1,7.1-6.1,13.1c0,2,1.1,0.3,3.1-0.7C2341.8,1564.5,2337.8,1550.5,2335.7,1549.9z"/>
	<path opacity="0.61" fill="#FFFFFF" d="M2529.6,1572.9c0,0,24.2,8.4,29.2-2.7s-7.8-26.7-7.8-26.7s-45.2-58.8-94.7-15.3
		c-49.5,43.5,62.3-8.5,80.5,14.2S2529.6,1572.9,2529.6,1572.9z"/>
	<path opacity="0.48" fill="#006482" d="M2531.9,1549.9c-2.1-0.6-4.4-0.9-7-0.1c-2.1,0.4-4.2,1.2-6,2.4s-3.5,2.8-4.7,4.8
		c-7,11.9-6,25.8-3,38.7c-1-7.4-0.2-16.9,3.1-24.5c1.1-2.5,2.5-4.8,4.3-6.8c1.8-1.7,3.9-3.4,6.4-4.6c2.2-1.9,5.2-2.9,8.1-1.9
		c-2,6-6.1,7.1-6.1,13.1c0,2,1.1,0.3,3.1-0.7C2538,1564.5,2534,1550.5,2531.9,1549.9z"/>
</g>
</svg>
