<?xml version="1.0" encoding="UTF-8"?>
<svg width="1920px" height="543px" viewBox="0 0 1920 543" version="1.1" xmlns="http://www.w3.org/2000/svg" xmlns:xlink="http://www.w3.org/1999/xlink">
    <!-- Generator: Sketch 42 (36781) - http://www.bohemiancoding.com/sketch -->
    <title>wave</title>
    <desc>Created with Sketch.</desc>
    <defs></defs>
    <g id="Page-1" stroke="none" stroke-width="1" fill="none" fill-rule="evenodd">
        <g id="Desktop-HD" transform="translate(0.000000, -869.000000)" fill-rule="nonzero">
            <g id="wave" transform="translate(-175.000000, 869.000000)">
                <rect id="Rectangle-path" fill="#5BBFEE" x="0.2" y="152.8" width="2950.7" height="390.2"></rect>
                <g id="Group">
                    <g id="Shape">
                        <path d="M0.2,152.7 C0.2,152.7 80.2,-50.4 162.9,12.1 C175.3,21.5 200.8,43 200.1,60 C199.4,77 144.8,77.4 160.2,58 C167.5,48.9 149.9,50.7 147.1,74.6 C143.9,101.4 168.2,151.3 200.4,152.7 C232.7,152.7 0.2,152.7 0.2,152.7 Z" fill="#5BBFEE"></path>
                        <path d="M163.6,65 C163.6,65 187.8,73.4 192.8,62.3 C197.8,51.2 185,35.6 185,35.6 C185,35.6 139.8,-23.2 90.3,20.3 C40.8,63.8 152.6,11.8 170.8,34.5 C189,57.2 163.6,65 163.6,65 Z" fill="#FFFFFF" opacity="0.61"></path>
                    </g>
                    <g transform="translate(196.000000, 0.000000)" id="Shape">
                        <path d="M0.4,152.7 C0.4,152.7 80.4,-50.4 163.1,12.1 C175.5,21.5 201,43 200.3,60 C199.6,77 145,77.4 160.4,58 C167.7,48.9 150.1,50.7 147.3,74.6 C144.1,101.4 168.4,151.3 200.6,152.7 C232.9,152.7 0.4,152.7 0.4,152.7 Z" fill="#5BBFEE"></path>
                        <path d="M163.8,65 C163.8,65 188,73.4 193,62.3 C198,51.2 185.2,35.6 185.2,35.6 C185.2,35.6 140,-23.2 90.5,20.3 C41,63.8 152.8,11.8 171,34.5 C189.2,57.2 163.8,65 163.8,65 Z" fill="#FFFFFF" opacity="0.61"></path>
                        <path d="M166.1,42 C164,41.4 161.7,41.1 159.1,41.9 C157,42.3 154.9,43.1 153.1,44.3 C151.3,45.5 149.6,47.1 148.4,49.1 C141.4,61 142.4,74.9 145.4,87.8 C144.4,80.4 145.2,70.9 148.5,63.3 C149.6,60.8 151,58.5 152.8,56.5 C154.6,54.8 156.7,53.1 159.2,51.9 C161.4,50 164.4,49 167.3,50 C165.3,56 161.2,57.1 161.2,63.1 C161.2,65.1 162.3,63.4 164.3,62.4 C172.2,56.6 168.2,42.6 166.1,42 Z" fill="#006482" opacity="0.48"></path>
                    </g>
                    <g transform="translate(392.000000, 0.000000)" id="Shape">
                        <path d="M0.6,152.7 C0.6,152.7 80.6,-50.4 163.3,12.1 C175.7,21.5 201.2,43 200.5,60 C199.8,77 145.2,77.4 160.6,58 C167.9,48.9 150.3,50.7 147.5,74.6 C144.3,101.4 168.6,151.3 200.8,152.7 C233.1,152.7 0.6,152.7 0.6,152.7 Z" fill="#5BBFEE"></path>
                        <path d="M164,65 C164,65 188.2,73.4 193.2,62.3 C198.2,51.1 185.4,35.6 185.4,35.6 C185.4,35.6 140.2,-23.2 90.7,20.3 C41.2,63.8 153,11.8 171.2,34.5 C189.4,57.2 164,65 164,65 Z" fill="#FFFFFF" opacity="0.61"></path>
                        <path d="M166.3,42 C164.2,41.4 161.9,41.1 159.3,41.9 C157.2,42.3 155.1,43.1 153.3,44.3 C151.5,45.5 149.8,47.1 148.6,49.1 C141.6,61 142.6,74.9 145.6,87.8 C144.6,80.4 145.4,70.9 148.7,63.3 C149.8,60.8 151.2,58.5 153,56.5 C154.8,54.8 156.9,53.1 159.4,51.9 C161.6,50 164.6,49 167.5,50 C165.5,56 161.4,57.1 161.4,63.1 C161.4,65.1 162.5,63.4 164.5,62.4 C172.4,56.6 168.4,42.6 166.3,42 Z" fill="#006482" opacity="0.48"></path>
                    </g>
                    <g transform="translate(588.000000, 0.000000)" id="Shape">
                        <path d="M0.8,152.7 C0.8,152.7 80.8,-50.4 163.5,12.1 C175.9,21.5 201.4,43 200.7,60 C200,77 145.4,77.4 160.8,58 C168.1,48.9 150.5,50.7 147.7,74.6 C144.5,101.4 168.8,151.3 201,152.7 C233.3,152.7 0.8,152.7 0.8,152.7 Z" fill="#5BBFEE"></path>
                        <path d="M164.2,65 C164.2,65 188.4,73.4 193.4,62.3 C198.4,51.1 185.6,35.6 185.6,35.6 C185.6,35.6 140.5,-23.2 91,20.3 C41.5,63.8 153.3,11.8 171.5,34.5 C189.7,57.2 164.2,65 164.2,65 Z" fill="#FFFFFF" opacity="0.61"></path>
                        <path d="M166.5,42 C164.4,41.4 162.1,41.1 159.5,41.9 C157.4,42.3 155.3,43.1 153.5,44.3 C151.7,45.5 150,47.1 148.8,49.1 C141.8,61 142.8,74.9 145.8,87.8 C144.8,80.4 145.6,70.9 148.9,63.3 C150,60.8 151.4,58.5 153.2,56.5 C155,54.8 157.1,53.1 159.6,51.9 C161.8,50 164.8,49 167.7,50 C165.7,56 161.6,57.1 161.6,63.1 C161.6,65.1 162.7,63.4 164.7,62.4 C172.6,56.6 168.6,42.6 166.5,42 Z" fill="#006482" opacity="0.48"></path>
                    </g>
                    <g transform="translate(785.000000, 0.000000)" id="Shape">
                        <path d="M0,152.7 C0,152.7 80,-50.4 162.7,12.1 C175.1,21.5 200.6,43 199.9,60 C199.2,77 144.6,77.4 160,58 C167.3,48.9 149.7,50.7 146.9,74.6 C143.7,101.4 168,151.3 200.2,152.7 C232.5,152.7 0,152.7 0,152.7 Z" fill="#5BBFEE"></path>
                        <path d="M163.4,65 C163.4,65 187.6,73.4 192.6,62.3 C197.6,51.1 184.8,35.6 184.8,35.6 C184.8,35.6 139.6,-23.2 90.1,20.3 C40.6,63.8 152.4,11.8 170.6,34.5 C188.8,57.2 163.4,65 163.4,65 Z" fill="#FFFFFF" opacity="0.61"></path>
                        <path d="M165.7,42 C163.6,41.4 161.3,41.1 158.7,41.9 C156.6,42.3 154.5,43.1 152.7,44.3 C150.9,45.5 149.2,47.1 148,49.1 C141,61 142,74.9 145,87.8 C144,80.4 144.8,70.9 148.1,63.3 C149.2,60.8 150.6,58.5 152.4,56.5 C154.2,54.8 156.3,53.1 158.8,51.9 C161,50 164,49 166.9,50 C164.9,56 160.8,57.1 160.8,63.1 C160.8,65.1 161.9,63.4 163.9,62.4 C171.8,56.6 167.8,42.6 165.7,42 Z" fill="#006482" opacity="0.48"></path>
                    </g>
                    <g transform="translate(981.000000, 0.000000)" id="Shape">
                        <path d="M0.1,152.7 C0.1,152.7 80.1,-50.4 162.8,12.1 C175.2,21.5 200.7,43 200,60 C199.3,77 144.7,77.4 160.1,58 C167.4,48.9 149.8,50.7 147,74.6 C143.8,101.4 168.1,151.3 200.3,152.7 C232.7,152.7 0.1,152.7 0.1,152.7 Z" fill="#5BBFEE"></path>
                        <path d="M163.6,65 C163.6,65 187.8,73.4 192.8,62.3 C197.8,51.2 185,35.6 185,35.6 C185,35.6 139.8,-23.2 90.3,20.3 C40.8,63.8 152.6,11.8 170.8,34.5 C189,57.2 163.6,65 163.6,65 Z" fill="#FFFFFF" opacity="0.61"></path>
                        <path d="M165.9,42 C163.8,41.4 161.5,41.1 158.9,41.9 C156.8,42.3 154.7,43.1 152.9,44.3 C151.1,45.5 149.4,47.1 148.2,49.1 C141.2,61 142.2,74.9 145.2,87.8 C144.2,80.4 145,70.9 148.3,63.3 C149.4,60.8 150.8,58.5 152.6,56.5 C154.4,54.8 156.5,53.1 159,51.9 C161.2,50 164.2,49 167.1,50 C165.1,56 161,57.1 161,63.1 C161,65.1 162.1,63.4 164.1,62.4 C172,56.6 168,42.6 165.9,42 Z" fill="#006482" opacity="0.48"></path>
                    </g>
                    <g transform="translate(1177.000000, 0.000000)" id="Shape">
                        <path d="M0.3,152.7 C0.3,152.7 80.3,-50.4 163,12.1 C175.4,21.5 200.9,43 200.2,60 C199.5,77 144.9,77.4 160.3,58 C167.6,48.9 150,50.7 147.2,74.6 C144,101.4 168.3,151.3 200.5,152.7 C232.9,152.7 0.3,152.7 0.3,152.7 Z" fill="#5BBFEE"></path>
                        <path d="M163.8,65 C163.8,65 188,73.4 193,62.3 C198,51.2 185.2,35.6 185.2,35.6 C185.2,35.6 140,-23.2 90.5,20.3 C41,63.8 152.8,11.8 171,34.5 C189.2,57.2 163.8,65 163.8,65 Z" fill="#FFFFFF" opacity="0.61"></path>
                        <path d="M166.1,42 C164,41.4 161.7,41.1 159.1,41.9 C157,42.3 154.9,43.1 153.1,44.3 C151.3,45.5 149.6,47.1 148.4,49.1 C141.4,61 142.4,74.9 145.4,87.8 C144.4,80.4 145.2,70.9 148.5,63.3 C149.6,60.8 151,58.5 152.8,56.5 C154.6,54.8 156.7,53.1 159.2,51.9 C161.4,50 164.4,49 167.3,50 C165.3,56 161.2,57.1 161.2,63.1 C161.2,65.1 162.3,63.4 164.3,62.4 C172.2,56.6 168.2,42.6 166.1,42 Z" fill="#006482" opacity="0.48"></path>
                    </g>
                    <g transform="translate(1373.000000, 0.000000)" id="Shape">
                        <path d="M0.5,152.7 C0.5,152.7 80.5,-50.4 163.2,12.1 C175.6,21.5 201.1,43 200.4,60 C199.7,77 145.1,77.4 160.5,58 C167.8,48.9 150.2,50.7 147.4,74.6 C144.2,101.4 168.5,151.3 200.7,152.7 C233.1,152.7 0.5,152.7 0.5,152.7 Z" fill="#5BBFEE"></path>
                        <path d="M163.9,65 C163.9,65 188.1,73.4 193.1,62.3 C198.1,51.1 185.3,35.6 185.3,35.6 C185.3,35.6 140.1,-23.2 90.6,20.3 C41.1,63.8 152.9,11.8 171.1,34.5 C189.3,57.2 163.9,65 163.9,65 Z" fill="#FFFFFF" opacity="0.61"></path>
                        <path d="M166.2,42 C164.1,41.4 161.8,41.1 159.2,41.9 C157.1,42.3 155,43.1 153.2,44.3 C151.4,45.5 149.7,47.1 148.5,49.1 C141.5,61 142.5,74.9 145.5,87.8 C144.5,80.4 145.3,70.9 148.6,63.3 C149.7,60.8 151.1,58.5 152.9,56.5 C154.7,54.8 156.8,53.1 159.3,51.9 C161.5,50 164.5,49 167.4,50 C165.4,56 161.3,57.1 161.3,63.1 C161.3,65.1 162.4,63.4 164.4,62.4 C172.4,56.6 168.4,42.6 166.2,42 Z" fill="#006482" opacity="0.48"></path>
                    </g>
                    <g transform="translate(1569.000000, 0.000000)" id="Shape">
                        <path d="M0.7,152.7 C0.7,152.7 80.7,-50.4 163.4,12.1 C175.8,21.5 201.3,43 200.6,60 C199.9,77 145.3,77.4 160.7,58 C168,48.9 150.4,50.7 147.6,74.6 C144.4,101.4 168.7,151.3 200.9,152.7 C233.3,152.7 0.7,152.7 0.7,152.7 Z" fill="#5BBFEE"></path>
                        <path d="M164.1,65 C164.1,65 188.3,73.4 193.3,62.3 C198.3,51.1 185.5,35.6 185.5,35.6 C185.5,35.6 140.3,-23.2 90.8,20.3 C41.3,63.8 153.1,11.8 171.3,34.5 C189.5,57.2 164.1,65 164.1,65 Z" fill="#FFFFFF" opacity="0.61"></path>
                        <path d="M166.4,42 C164.3,41.4 162,41.1 159.4,41.9 C157.3,42.3 155.2,43.1 153.4,44.3 C151.6,45.5 149.9,47.1 148.7,49.1 C141.7,61 142.7,74.9 145.7,87.8 C144.7,80.4 145.5,70.9 148.8,63.3 C149.9,60.8 151.3,58.5 153.1,56.5 C154.9,54.8 157,53.1 159.5,51.9 C161.7,50 164.7,49 167.6,50 C165.6,56 161.5,57.1 161.5,63.1 C161.5,65.1 162.6,63.4 164.6,62.4 C172.6,56.6 168.6,42.6 166.4,42 Z" fill="#006482" opacity="0.48"></path>
                    </g>
                    <g transform="translate(1765.000000, 0.000000)" id="Shape">
                        <path d="M0.9,152.7 C0.9,152.7 80.9,-50.4 163.6,12.1 C176,21.5 201.5,43 200.8,60 C200.1,77 145.5,77.4 160.9,58 C168.2,48.9 150.6,50.7 147.8,74.6 C144.6,101.4 168.9,151.3 201.1,152.7 C233.5,152.7 0.9,152.7 0.9,152.7 Z" fill="#5BBFEE"></path>
                        <path d="M164.3,65 C164.3,65 188.5,73.4 193.5,62.3 C198.5,51.1 185.7,35.6 185.7,35.6 C185.7,35.6 140.5,-23.2 91,20.3 C41.5,63.8 153.3,11.8 171.5,34.5 C189.7,57.2 164.3,65 164.3,65 Z" fill="#FFFFFF" opacity="0.61"></path>
                        <path d="M166.6,42 C164.5,41.4 162.2,41.1 159.6,41.9 C157.5,42.3 155.4,43.1 153.6,44.3 C151.8,45.5 150.1,47.1 148.9,49.1 C141.9,61 142.9,74.9 145.9,87.8 C144.9,80.4 145.7,70.9 149,63.3 C150.1,60.8 151.5,58.5 153.3,56.5 C155.1,54.8 157.2,53.1 159.7,51.9 C161.9,50 164.9,49 167.8,50 C165.8,56 161.7,57.1 161.7,63.1 C161.7,65.1 162.8,63.4 164.8,62.4 C172.8,56.6 168.8,42.6 166.6,42 Z" fill="#006482" opacity="0.48"></path>
                    </g>
                    <g transform="translate(1962.000000, 0.000000)" id="Shape">
                        <path d="M0.1,152.7 C0.1,152.7 80.1,-50.4 162.8,12.1 C175.2,21.5 200.7,43 200,60 C199.3,77 144.7,77.4 160.1,58 C167.4,48.9 149.8,50.7 147,74.6 C143.8,101.4 168.1,151.3 200.3,152.7 C232.7,152.7 0.1,152.7 0.1,152.7 Z" fill="#5BBFEE"></path>
                        <path d="M163.5,65 C163.5,65 187.7,73.4 192.7,62.3 C197.7,51.2 184.9,35.6 184.9,35.6 C184.9,35.6 139.7,-23.2 90.2,20.3 C40.7,63.8 152.5,11.8 170.7,34.5 C188.9,57.2 163.5,65 163.5,65 Z" fill="#FFFFFF" opacity="0.61"></path>
                    </g>
                </g>
            </g>
        </g>
    </g>
</svg>