<?xml version="1.0" encoding="utf-8"?>
<!-- Generator: Adobe Illustrator 18.0.0, SVG Export Plug-In . SVG Version: 6.00 Build 0)  -->
<!DOCTYPE svg PUBLIC "-//W3C//DTD SVG 1.1//EN" "http://www.w3.org/Graphics/SVG/1.1/DTD/svg11.dtd">
<svg version="1.1" id="Layer_1" xmlns="http://www.w3.org/2000/svg" xmlns:xlink="http://www.w3.org/1999/xlink" x="0px" y="0px"
	 viewBox="0 0 2950.7 335.6" enable-background="new 0 0 2950.7 335.6" xml:space="preserve">
<path fill="#5BBFEE" d="M3103.4-539.1c-29.1-6.8-50.2-52.2-47.3-77.3c2.8-23.9,20.4-25.7,13.1-16.6c-15.4,19.4,39.2,19,39.9,2
	c0.7-17-24.8-38.5-37.2-47.9c-79.6-60.2-156.7,125.7-162.4,139.7h-2.3c-29.1-6.8-50.2-52.2-47.3-77.3c2.8-23.9,20.4-25.7,13.1-16.6
	c-15.4,19.4,39.2,19,39.9,2c0.7-17-24.8-38.5-37.2-47.9c-79.6-60.2-156.7,125.7-162.4,139.7h-2.3c-29.1-6.8-50.2-52.2-47.3-77.3
	c2.8-23.9,20.4-25.7,13.1-16.6c-15.4,19.4,39.2,19,39.9,2c0.7-17-24.8-38.5-37.2-47.9c-79.6-60.2-156.7,125.7-162.4,139.7h-2.3
	c-29.1-6.8-50.2-52.2-47.3-77.3c2.8-23.9,20.4-25.7,13.1-16.6c-15.4,19.4,39.2,19,39.9,2c0.7-17-24.8-38.5-37.2-47.9
	c-79.6-60.2-156.7,125.7-162.4,139.7h-2.3c-29.1-6.8-50.2-52.2-47.3-77.3c2.8-23.9,20.4-25.7,13.1-16.6c-15.4,19.4,39.2,19,39.9,2
	c0.7-17-24.8-38.5-37.2-47.9c-79.6-60.2-156.7,125.7-162.4,139.7h-2.3c-29.1-6.8-50.2-52.2-47.3-77.3c2.8-23.9,20.4-25.7,13.1-16.6
	c-15.4,19.4,39.2,19,39.9,2c0.7-17-24.8-38.5-37.2-47.9c-79.6-60.2-156.7,125.7-162.4,139.7h-2.3c-29.1-6.8-50.2-52.2-47.3-77.3
	c2.8-23.9,20.4-25.7,13.1-16.6c-15.4,19.4,39.2,19,39.9,2c0.7-17-24.8-38.5-37.2-47.9c-79.6-60.2-156.7,125.7-162.4,139.7h-2.3
	c-29.1-6.8-50.2-52.2-47.3-77.3c2.8-23.9,20.4-25.7,13.1-16.6c-15.4,19.4,39.2,19,39.9,2c0.7-17-24.8-38.5-37.2-47.9
	c-79.6-60.2-156.7,125.7-162.4,139.7h-2.3c-29.1-6.8-50.2-52.2-47.3-77.3c2.8-23.9,20.4-25.7,13.1-16.6c-15.4,19.4,39.2,19,39.9,2
	c0.7-17-24.8-38.5-37.2-47.9c-79.6-60.2-156.7,125.7-162.4,139.7h-2.3c-29.1-6.8-50.2-52.2-47.3-77.3c2.8-23.9,20.4-25.7,13.1-16.6
	c-15.4,19.4,39.2,19,39.9,2c0.7-17-24.8-38.5-37.2-47.9c-79.6-60.2-156.7,125.7-162.4,139.7h-2.3c-29.1-6.8-50.2-52.2-47.3-77.3
	c2.8-23.9,20.4-25.7,13.1-16.6c-15.4,19.4,39.2,19,39.9,2c0.7-17-24.8-38.5-37.2-47.9c-79.6-60.2-156.7,125.7-162.4,139.7h-2.3
	c-29.1-6.8-50.2-52.2-47.3-77.3c2.8-23.9,20.4-25.7,13.1-16.6c-15.4,19.4,39.2,19,39.9,2c0.7-17-24.8-38.5-37.2-47.9
	C834.1-739,757-553.2,751.3-539.1H749c-29.1-6.8-50.2-52.2-47.3-77.3c2.8-23.9,20.4-25.7,13.1-16.6c-15.4,19.4,39.2,19,39.9,2
	c0.7-17-24.8-38.5-37.2-47.9C638-739,560.8-553.2,555.2-539.1h-2.3c-29.1-6.8-50.2-52.2-47.3-77.3c2.8-23.9,20.4-25.7,13.1-16.6
	c-15.4,19.4,39.2,19,39.9,2c0.7-17-24.8-38.5-37.2-47.9C441.8-739,364.6-553.2,359-539.1h-2.3c-29.1-6.8-50.2-52.2-47.3-77.3
	c2.8-23.9,20.4-25.7,13.1-16.6c-15.4,19.4,39.2,19,39.9,2c0.7-17-24.8-38.5-37.2-47.9C245.6-739,168.4-553.2,162.8-539.1h-0.3v183.9
	h2950.7v-183.9H3103.4z"/>
<path opacity="0.61" fill="#FFFFFF" d="M325.8-625.9c0,0,24.2,8.4,29.2-2.7c5-11.2-7.8-26.7-7.8-26.7s-45.2-58.8-94.7-15.3
	s62.3-8.5,80.5,14.2S325.8-625.9,325.8-625.9z"/>
<path opacity="0.48" fill="#006482" d="M328.1-648.9c-2.1-0.6-4.4-0.9-7-0.1c-2.1,0.4-4.2,1.2-6,2.4s-3.5,2.8-4.7,4.8
	c-7,11.9-6,25.8-3,38.7c-1-7.4-0.2-16.9,3.1-24.5c1.1-2.5,2.5-4.8,4.3-6.8c1.8-1.7,3.9-3.4,6.4-4.6c2.2-1.9,5.2-2.9,8.1-1.9
	c-2,6-6.1,7.1-6.1,13.1c0,2,1.1,0.3,3.1-0.7C334.2-634.3,330.3-648.3,328.1-648.9z"/>
<path opacity="0.61" fill="#FFFFFF" d="M522-625.9c0,0,24.2,8.4,29.2-2.7c5-11.2-7.8-26.7-7.8-26.7s-45.2-58.8-94.7-15.3
	s62.3-8.5,80.5,14.2C547.4-633.9,522-625.9,522-625.9z"/>
<path opacity="0.48" fill="#006482" d="M524.3-648.9c-2.1-0.6-4.4-0.9-7-0.1c-2.1,0.4-4.2,1.2-6,2.4c-1.8,1.2-3.5,2.8-4.7,4.8
	c-7,11.9-6,25.8-3,38.7c-1-7.4-0.2-16.9,3.1-24.5c1.1-2.5,2.5-4.8,4.3-6.8c1.8-1.7,3.9-3.4,6.4-4.6c2.2-1.9,5.2-2.9,8.1-1.9
	c-2,6-6.1,7.1-6.1,13.1c0,2,1.1,0.3,3.1-0.7C530.4-634.3,526.5-648.3,524.3-648.9z"/>
<path opacity="0.61" fill="#FFFFFF" d="M718.2-625.9c0,0,24.2,8.4,29.2-2.7c5-11.2-7.8-26.7-7.8-26.7s-45.2-58.8-94.7-15.3
	s62.3-8.5,80.5,14.2C743.6-633.9,718.2-625.9,718.2-625.9z"/>
<path opacity="0.48" fill="#006482" d="M720.5-648.9c-2.1-0.6-4.4-0.9-7-0.1c-2.1,0.4-4.2,1.2-6,2.4c-1.8,1.2-3.5,2.8-4.7,4.8
	c-7,11.9-6,25.8-3,38.7c-1-7.4-0.2-16.9,3.1-24.5c1.1-2.5,2.5-4.8,4.3-6.8c1.8-1.7,3.9-3.4,6.4-4.6c2.2-1.9,5.2-2.9,8.1-1.9
	c-2,6-6.1,7.1-6.1,13.1c0,2,1.1,0.3,3.1-0.7C726.6-634.3,722.7-648.3,720.5-648.9z"/>
<path opacity="0.61" fill="#FFFFFF" d="M914.4-625.9c0,0,24.2,8.4,29.2-2.7c5-11.2-7.8-26.7-7.8-26.7s-45.2-58.8-94.7-15.3
	s62.3-8.5,80.5,14.2C939.8-633.9,914.4-625.9,914.4-625.9z"/>
<path opacity="0.48" fill="#006482" d="M916.7-648.9c-2.1-0.6-4.4-0.9-7-0.1c-2.1,0.4-4.2,1.2-6,2.4c-1.8,1.2-3.5,2.8-4.7,4.8
	c-7,11.9-6,25.8-3,38.7c-1-7.4-0.2-16.9,3.1-24.5c1.1-2.5,2.5-4.8,4.3-6.8c1.8-1.7,3.9-3.4,6.4-4.6c2.2-1.9,5.2-2.9,8.1-1.9
	c-2,6-6.1,7.1-6.1,13.1c0,2,1.1,0.3,3.1-0.7C922.8-634.3,918.8-648.3,916.7-648.9z"/>
<path opacity="0.61" fill="#FFFFFF" d="M1110.6-625.9c0,0,24.2,8.4,29.2-2.7c5-11.2-7.8-26.7-7.8-26.7s-45.2-58.8-94.7-15.3
	s62.3-8.5,80.5,14.2S1110.6-625.9,1110.6-625.9z"/>
<path opacity="0.48" fill="#006482" d="M1112.9-648.9c-2.1-0.6-4.4-0.9-7-0.1c-2.1,0.4-4.2,1.2-6,2.4s-3.5,2.8-4.7,4.8
	c-7,11.9-6,25.8-3,38.7c-1-7.4-0.2-16.9,3.1-24.5c1.1-2.5,2.5-4.8,4.3-6.8c1.8-1.7,3.9-3.4,6.4-4.6c2.2-1.9,5.2-2.9,8.1-1.9
	c-2,6-6.1,7.1-6.1,13.1c0,2,1.1,0.3,3.1-0.7C1119-634.3,1115-648.3,1112.9-648.9z"/>
<path opacity="0.61" fill="#FFFFFF" d="M1306.8-625.9c0,0,24.2,8.4,29.2-2.7c5-11.2-7.8-26.7-7.8-26.7s-45.2-58.8-94.7-15.3
	s62.3-8.5,80.5,14.2S1306.8-625.9,1306.8-625.9z"/>
<path opacity="0.48" fill="#006482" d="M1309.1-648.9c-2.1-0.6-4.4-0.9-7-0.1c-2.1,0.4-4.2,1.2-6,2.4s-3.5,2.8-4.7,4.8
	c-7,11.9-6,25.8-3,38.7c-1-7.4-0.2-16.9,3.1-24.5c1.1-2.5,2.5-4.8,4.3-6.8c1.8-1.7,3.9-3.4,6.4-4.6c2.2-1.9,5.2-2.9,8.1-1.9
	c-2,6-6.1,7.1-6.1,13.1c0,2,1.1,0.3,3.1-0.7C1315.2-634.3,1311.2-648.3,1309.1-648.9z"/>
<path opacity="0.61" fill="#FFFFFF" d="M1503-625.9c0,0,24.2,8.4,29.2-2.7c5-11.2-7.8-26.7-7.8-26.7s-45.2-58.8-94.7-15.3
	s62.3-8.5,80.5,14.2S1503-625.9,1503-625.9z"/>
<path opacity="0.48" fill="#006482" d="M1505.3-648.9c-2.1-0.6-4.4-0.9-7-0.1c-2.1,0.4-4.2,1.2-6,2.4s-3.5,2.8-4.7,4.8
	c-7,11.9-6,25.8-3,38.7c-1-7.4-0.2-16.9,3.1-24.5c1.1-2.5,2.5-4.8,4.3-6.8c1.8-1.7,3.9-3.4,6.4-4.6c2.2-1.9,5.2-2.9,8.1-1.9
	c-2,6-6.1,7.1-6.1,13.1c0,2,1.1,0.3,3.1-0.7C1511.4-634.3,1507.4-648.3,1505.3-648.9z"/>
<path opacity="0.61" fill="#FFFFFF" d="M1699.2-625.9c0,0,24.2,8.4,29.2-2.7c5-11.2-7.8-26.7-7.8-26.7s-45.2-58.8-94.7-15.3
	s62.3-8.5,80.5,14.2S1699.2-625.9,1699.2-625.9z"/>
<path opacity="0.48" fill="#006482" d="M1701.5-648.9c-2.1-0.6-4.4-0.9-7-0.1c-2.1,0.4-4.2,1.2-6,2.4s-3.5,2.8-4.7,4.8
	c-7,11.9-6,25.8-3,38.7c-1-7.4-0.2-16.9,3.1-24.5c1.1-2.5,2.5-4.8,4.3-6.8c1.8-1.7,3.9-3.4,6.4-4.6c2.2-1.9,5.2-2.9,8.1-1.9
	c-2,6-6.1,7.1-6.1,13.1c0,2,1.1,0.3,3.1-0.7C1707.6-634.3,1703.6-648.3,1701.5-648.9z"/>
<path opacity="0.61" fill="#FFFFFF" d="M1895.4-625.9c0,0,24.2,8.4,29.2-2.7c5-11.2-7.8-26.7-7.8-26.7s-45.2-58.8-94.7-15.3
	s62.3-8.5,80.5,14.2S1895.4-625.9,1895.4-625.9z"/>
<path opacity="0.48" fill="#006482" d="M1897.7-648.9c-2.1-0.6-4.4-0.9-7-0.1c-2.1,0.4-4.2,1.2-6,2.4s-3.5,2.8-4.7,4.8
	c-7,11.9-6,25.8-3,38.7c-1-7.4-0.2-16.9,3.1-24.5c1.1-2.5,2.5-4.8,4.3-6.8c1.8-1.7,3.9-3.4,6.4-4.6c2.2-1.9,5.2-2.9,8.1-1.9
	c-2,6-6.1,7.1-6.1,13.1c0,2,1.1,0.3,3.1-0.7C1903.8-634.3,1899.8-648.3,1897.7-648.9z"/>
<path opacity="0.61" fill="#FFFFFF" d="M2091.6-625.9c0,0,24.2,8.4,29.2-2.7c5-11.2-7.8-26.7-7.8-26.7s-45.2-58.8-94.7-15.3
	c-49.5,43.5,62.3-8.5,80.5,14.2S2091.6-625.9,2091.6-625.9z"/>
<path opacity="0.48" fill="#006482" d="M2093.9-648.9c-2.1-0.6-4.4-0.9-7-0.1c-2.1,0.4-4.2,1.2-6,2.4c-1.8,1.2-3.5,2.8-4.7,4.8
	c-7,11.9-6,25.8-3,38.7c-1-7.4-0.2-16.9,3.1-24.5c1.1-2.5,2.5-4.8,4.3-6.8c1.8-1.7,3.9-3.4,6.4-4.6c2.2-1.9,5.2-2.9,8.1-1.9
	c-2,6-6.1,7.1-6.1,13.1c0,2,1.1,0.3,3.1-0.7C2100-634.3,2096-648.3,2093.9-648.9z"/>
<path opacity="0.61" fill="#FFFFFF" d="M2287.8-625.9c0,0,24.2,8.4,29.2-2.7c5-11.2-7.8-26.7-7.8-26.7s-45.2-58.8-94.7-15.3
	s62.3-8.5,80.5,14.2S2287.8-625.9,2287.8-625.9z"/>
<path opacity="0.48" fill="#006482" d="M2290.1-648.9c-2.1-0.6-4.4-0.9-7-0.1c-2.1,0.4-4.2,1.2-6,2.4c-1.8,1.2-3.5,2.8-4.7,4.8
	c-7,11.9-6,25.8-3,38.7c-1-7.4-0.2-16.9,3.1-24.5c1.1-2.5,2.5-4.8,4.3-6.8c1.8-1.7,3.9-3.4,6.4-4.6c2.2-1.9,5.2-2.9,8.1-1.9
	c-2,6-6.1,7.1-6.1,13.1c0,2,1.1,0.3,3.1-0.7C2296.2-634.3,2292.2-648.3,2290.1-648.9z"/>
<path opacity="0.61" fill="#FFFFFF" d="M2484-625.9c0,0,24.2,8.4,29.2-2.7c5-11.2-7.8-26.7-7.8-26.7s-45.2-58.8-94.7-15.3
	s62.3-8.5,80.5,14.2S2484-625.9,2484-625.9z"/>
<path opacity="0.48" fill="#006482" d="M2486.3-648.9c-2.1-0.6-4.4-0.9-7-0.1c-2.1,0.4-4.2,1.2-6,2.4c-1.8,1.2-3.5,2.8-4.7,4.8
	c-7,11.9-6,25.8-3,38.7c-1-7.4-0.2-16.9,3.1-24.5c1.1-2.5,2.5-4.8,4.3-6.8c1.8-1.7,3.9-3.4,6.4-4.6c2.2-1.9,5.2-2.9,8.1-1.9
	c-2,6-6.1,7.1-6.1,13.1c0,2,1.1,0.3,3.1-0.7C2492.4-634.3,2488.4-648.3,2486.3-648.9z"/>
<path opacity="0.61" fill="#FFFFFF" d="M2680.2-625.9c0,0,24.2,8.4,29.2-2.7c5-11.2-7.8-26.7-7.8-26.7s-45.2-58.8-94.7-15.3
	s62.3-8.5,80.5,14.2C2705.6-633.9,2680.2-625.9,2680.2-625.9z"/>
<path opacity="0.48" fill="#006482" d="M2682.5-648.9c-2.1-0.6-4.4-0.9-7-0.1c-2.1,0.4-4.2,1.2-6,2.4c-1.8,1.2-3.5,2.8-4.7,4.8
	c-7,11.9-6,25.8-3,38.7c-1-7.4-0.2-16.9,3.1-24.5c1.1-2.5,2.5-4.8,4.3-6.8c1.8-1.7,3.9-3.4,6.4-4.6c2.2-1.9,5.2-2.9,8.1-1.9
	c-2,6-6.1,7.1-6.1,13.1c0,2,1.1,0.3,3.1-0.7C2688.6-634.3,2684.6-648.3,2682.5-648.9z"/>
<path opacity="0.61" fill="#FFFFFF" d="M2876.4-625.9c0,0,24.2,8.4,29.2-2.7c5-11.2-7.8-26.7-7.8-26.7s-45.2-58.8-94.7-15.3
	c-49.5,43.5,62.3-8.5,80.5,14.2C2901.8-633.9,2876.4-625.9,2876.4-625.9z"/>
<path opacity="0.48" fill="#006482" d="M2878.7-648.9c-2.1-0.6-4.4-0.9-7-0.1c-2.1,0.4-4.2,1.2-6,2.4s-3.5,2.8-4.7,4.8
	c-7,11.9-6,25.8-3,38.7c-1-7.4-0.2-16.9,3.1-24.5c1.1-2.5,2.5-4.8,4.3-6.8c1.8-1.7,3.9-3.4,6.4-4.6c2.2-1.9,5.2-2.9,8.1-1.9
	c-2,6-6.1,7.1-6.1,13.1c0,2,1.1,0.3,3.1-0.7C2884.8-634.3,2880.8-648.3,2878.7-648.9z"/>
<path opacity="0.61" fill="#FFFFFF" d="M3072.6-625.9c0,0,24.2,8.4,29.2-2.7c5-11.2-7.8-26.7-7.8-26.7s-45.2-58.8-94.7-15.3
	c-49.5,43.5,62.3-8.5,80.5,14.2C3098-633.9,3072.6-625.9,3072.6-625.9z"/>
<path opacity="0.48" fill="#006482" d="M3074.9-648.9c-2.1-0.6-4.4-0.9-7-0.1c-2.1,0.4-4.2,1.2-6,2.4s-3.5,2.8-4.7,4.8
	c-7,11.9-6,25.8-3,38.7c-1-7.4-0.2-16.9,3.1-24.5c1.1-2.5,2.5-4.8,4.3-6.8c1.8-1.7,3.9-3.4,6.4-4.6c2.2-1.9,5.2-2.9,8.1-1.9
	c-2,6-6.1,7.1-6.1,13.1c0,2,1.1,0.3,3.1-0.7C3081-634.3,3077-648.3,3074.9-648.9z"/>
<g>
	<path fill="#0081A8" d="M9.7,151.7c29.1-6.8,50.2-52.2,47.3-77.3c-2.8-23.9-20.4-25.7-13.1-16.6c15.4,19.4-39.2,19-39.9,2
		c-0.7-17,24.8-38.5,37.2-47.9c79.6-60.2,156.7,125.7,162.4,139.7h2.3c29.1-6.8,50.2-52.2,47.3-77.3c-2.8-23.9-20.4-25.7-13.1-16.6
		c15.4,19.4-39.2,19-39.9,2c-0.7-17,24.8-38.5,37.2-47.9C317-48.2,394.1,137.6,399.8,151.7h2.3c29.1-6.8,50.2-52.2,47.3-77.3
		c-2.8-23.9-20.4-25.7-13.1-16.6c15.4,19.4-39.2,19-39.9,2c-0.7-17,24.8-38.5,37.2-47.9C513.2-48.2,590.3,137.6,596,151.7h2.3
		c29.1-6.8,50.2-52.2,47.3-77.3c-2.8-23.9-20.4-25.7-13.1-16.6c15.4,19.4-39.2,19-39.9,2c-0.7-17,24.8-38.5,37.2-47.9
		c79.6-60.2,156.7,125.7,162.4,139.7h2.3c29.1-6.8,50.2-52.2,47.3-77.3c-2.8-23.9-20.4-25.7-13.1-16.6c15.4,19.4-39.2,19-39.9,2
		c-0.7-17,24.8-38.5,37.2-47.9c79.6-60.2,156.7,125.7,162.4,139.7h2.3c29.1-6.8,50.2-52.2,47.3-77.3c-2.8-23.9-20.4-25.7-13.1-16.6
		c15.4,19.4-39.2,19-39.9,2c-0.7-17,24.8-38.5,37.2-47.9c79.6-60.2,156.7,125.7,162.4,139.7h2.3c29.1-6.8,50.2-52.2,47.3-77.3
		c-2.8-23.9-20.4-25.7-13.1-16.6c15.4,19.4-39.2,19-39.9,2c-0.7-17,24.8-38.5,37.2-47.9c79.6-60.2,156.7,125.7,162.4,139.7h2.3
		c29.1-6.8,50.2-52.2,47.3-77.3c-2.8-23.9-20.4-25.7-13.1-16.6c15.4,19.4-39.2,19-39.9,2c-0.7-17,24.8-38.5,37.2-47.9
		c79.6-60.2,156.7,125.7,162.4,139.7h2.3c29.1-6.8,50.2-52.2,47.3-77.3c-2.8-23.9-20.4-25.7-13.1-16.6c15.4,19.4-39.2,19-39.9,2
		c-0.7-17,24.8-38.5,37.2-47.9c79.6-60.2,156.7,125.7,162.4,139.7h2.3c29.1-6.8,50.2-52.2,47.3-77.3c-2.8-23.9-20.4-25.7-13.1-16.6
		c15.4,19.4-39.2,19-39.9,2c-0.7-17,24.8-38.5,37.2-47.9c79.6-60.2,156.7,125.7,162.4,139.7h2.3c29.1-6.8,50.2-52.2,47.3-77.3
		c-2.8-23.9-20.4-25.7-13.1-16.6c15.4,19.4-39.2,19-39.9,2c-0.7-17,24.8-38.5,37.2-47.9c79.6-60.2,156.7,125.7,162.4,139.7h2.3
		c29.1-6.8,50.2-52.2,47.3-77.3c-2.8-23.9-20.4-25.7-13.1-16.6c15.4,19.4-39.2,19-39.9,2c-0.7-17,24.8-38.5,37.2-47.9
		c79.6-60.2,156.7,125.7,162.4,139.7h2.3c29.1-6.8,50.2-52.2,47.3-77.3c-2.8-23.9-20.4-25.7-13.1-16.6c15.4,19.4-39.2,19-39.9,2
		c-0.7-17,24.8-38.5,37.2-47.9c79.6-60.2,156.7,125.7,162.4,139.7h2.3c29.1-6.8,50.2-52.2,47.3-77.3c-2.8-23.9-20.4-25.7-13.1-16.6
		c15.4,19.4-39.2,19-39.9,2c-0.7-17,24.8-38.5,37.2-47.9c79.6-60.2,156.7,125.7,162.4,139.7h2.3c29.1-6.8,50.2-52.2,47.3-77.3
		c-2.8-23.9-20.4-25.7-13.1-16.6c15.4,19.4-39.2,19-39.9,2c-0.7-17,24.8-38.5,37.2-47.9c79.6-60.2,156.7,125.7,162.4,139.7h0.3
		v183.9H0l0-183.9H9.7z"/>
	<path opacity="0.48" fill="#006482" d="M2785,41.8c2.1-0.6,4.4-0.9,7-0.1c2.1,0.4,4.2,1.2,6,2.4s3.5,2.8,4.7,4.8
		c7,11.9,6,25.8,3,38.7c1-7.4,0.2-16.9-3.1-24.5c-1.1-2.5-2.5-4.8-4.3-6.8c-1.8-1.7-3.9-3.4-6.4-4.6c-2.2-1.9-5.2-2.9-8.1-1.9
		c2,6,6.1,7.1,6.1,13.1c0,2-1.1,0.3-3.1-0.7C2778.8,56.4,2782.8,42.5,2785,41.8z"/>
	<path opacity="0.48" fill="#006482" d="M2588.8,41.8c2.1-0.6,4.4-0.9,7-0.1c2.1,0.4,4.2,1.2,6,2.4s3.5,2.8,4.7,4.8
		c7,11.9,6,25.8,3,38.7c1-7.4,0.2-16.9-3.1-24.5c-1.1-2.5-2.5-4.8-4.3-6.8c-1.8-1.7-3.9-3.4-6.4-4.6c-2.2-1.9-5.2-2.9-8.1-1.9
		c2,6,6.1,7.1,6.1,13.1c0,2-1.1,0.3-3.1-0.7C2582.6,56.4,2586.6,42.5,2588.8,41.8z"/>
	<path opacity="0.48" fill="#006482" d="M2392.6,41.8c2.1-0.6,4.4-0.9,7-0.1c2.1,0.4,4.2,1.2,6,2.4s3.5,2.8,4.7,4.8
		c7,11.9,6,25.8,3,38.7c1-7.4,0.2-16.9-3.1-24.5c-1.1-2.5-2.5-4.8-4.3-6.8c-1.8-1.7-3.9-3.4-6.4-4.6c-2.2-1.9-5.2-2.9-8.1-1.9
		c2,6,6.1,7.1,6.1,13.1c0,2-1.1,0.3-3.1-0.7C2386.5,56.4,2390.4,42.5,2392.6,41.8z"/>
	<path opacity="0.48" fill="#006482" d="M2196.4,41.8c2.1-0.6,4.4-0.9,7-0.1c2.1,0.4,4.2,1.2,6,2.4s3.5,2.8,4.7,4.8
		c7,11.9,6,25.8,3,38.7c1-7.4,0.2-16.9-3.1-24.5c-1.1-2.5-2.5-4.8-4.3-6.8c-1.8-1.7-3.9-3.4-6.4-4.6c-2.2-1.9-5.2-2.9-8.1-1.9
		c2,6,6.1,7.1,6.1,13.1c0,2-1.1,0.3-3.1-0.7C2190.3,56.4,2194.2,42.5,2196.4,41.8z"/>
	<path opacity="0.48" fill="#006482" d="M2000.2,41.8c2.1-0.6,4.4-0.9,7-0.1c2.1,0.4,4.2,1.2,6,2.4c1.8,1.2,3.5,2.8,4.7,4.8
		c7,11.9,6,25.8,3,38.7c1-7.4,0.2-16.9-3.1-24.5c-1.1-2.5-2.5-4.8-4.3-6.8c-1.8-1.7-3.9-3.4-6.4-4.6C2005,50,2002,49,1999,50
		c2,6,6.1,7.1,6.1,13.1c0,2-1.1,0.3-3.1-0.7C1994.1,56.4,1998,42.5,2000.2,41.8z"/>
	<path opacity="0.48" fill="#006482" d="M1804,41.8c2.1-0.6,4.4-0.9,7-0.1c2.1,0.4,4.2,1.2,6,2.4c1.8,1.2,3.5,2.8,4.7,4.8
		c7,11.9,6,25.8,3,38.7c1-7.4,0.2-16.9-3.1-24.5c-1.1-2.5-2.5-4.8-4.3-6.8c-1.8-1.7-3.9-3.4-6.4-4.6c-2.2-1.9-5.2-2.9-8.1-1.9
		c2,6,6.1,7.1,6.1,13.1c0,2-1.1,0.3-3.1-0.7C1797.9,56.4,1801.8,42.5,1804,41.8z"/>
	<path opacity="0.48" fill="#006482" d="M1607.8,41.8c2.1-0.6,4.4-0.9,7-0.1c2.1,0.4,4.2,1.2,6,2.4c1.8,1.2,3.5,2.8,4.7,4.8
		c7,11.9,6,25.8,3,38.7c1-7.4,0.2-16.9-3.1-24.5c-1.1-2.5-2.5-4.8-4.3-6.8c-1.8-1.7-3.9-3.4-6.4-4.6c-2.2-1.9-5.2-2.9-8.1-1.9
		c2,6,6.1,7.1,6.1,13.1c0,2-1.1,0.3-3.1-0.7C1601.7,56.4,1605.6,42.5,1607.8,41.8z"/>
	<path opacity="0.48" fill="#006482" d="M1411.6,41.8c2.1-0.6,4.4-0.9,7-0.1c2.1,0.4,4.2,1.2,6,2.4c1.8,1.2,3.5,2.8,4.7,4.8
		c7,11.9,6,25.8,3,38.7c1-7.4,0.2-16.9-3.1-24.5c-1.1-2.5-2.5-4.8-4.3-6.8c-1.8-1.7-3.9-3.4-6.4-4.6c-2.2-1.9-5.2-2.9-8.1-1.9
		c2,6,6.1,7.1,6.1,13.1c0,2-1.1,0.3-3.1-0.7C1405.5,56.4,1409.4,42.5,1411.6,41.8z"/>
	<path opacity="0.48" fill="#006482" d="M1019.2,41.8c2.1-0.6,4.4-0.9,7-0.1c2.1,0.4,4.2,1.2,6,2.4c1.8,1.2,3.5,2.8,4.7,4.8
		c7,11.9,6,25.8,3,38.7c1-7.4,0.2-16.9-3.1-24.5c-1.1-2.5-2.5-4.8-4.3-6.8c-1.8-1.7-3.9-3.4-6.4-4.6C1024,50,1021,49,1018,50
		c2,6,6.1,7.1,6.1,13.1c0,2-1.1,0.3-3.1-0.7C1013.1,56.4,1017.1,42.5,1019.2,41.8z"/>
	<path opacity="0.48" fill="#006482" d="M823,41.8c2.1-0.6,4.4-0.9,7-0.1c2.1,0.4,4.2,1.2,6,2.4c1.8,1.2,3.5,2.8,4.7,4.8
		c7,11.9,6,25.8,3,38.7c1-7.4,0.2-16.9-3.1-24.5c-1.1-2.5-2.5-4.8-4.3-6.8c-1.8-1.7-3.9-3.4-6.4-4.6c-2.2-1.9-5.2-2.9-8.1-1.9
		c2,6,6.1,7.1,6.1,13.1c0,2-1.1,0.3-3.1-0.7C816.9,56.4,820.9,42.5,823,41.8z"/>
	<path opacity="0.48" fill="#006482" d="M626.8,41.8c2.1-0.6,4.4-0.9,7-0.1c2.1,0.4,4.2,1.2,6,2.4c1.8,1.2,3.5,2.8,4.7,4.8
		c7,11.9,6,25.8,3,38.7c1-7.4,0.2-16.9-3.1-24.5c-1.1-2.5-2.5-4.8-4.3-6.8c-1.8-1.7-3.9-3.4-6.4-4.6c-2.2-1.9-5.2-2.9-8.1-1.9
		c2,6,6.1,7.1,6.1,13.1c0,2-1.1,0.3-3.1-0.7C620.7,56.4,624.7,42.5,626.8,41.8z"/>
	<path opacity="0.48" fill="#006482" d="M430.6,41.8c2.1-0.6,4.4-0.9,7-0.1c2.1,0.4,4.2,1.2,6,2.4s3.5,2.8,4.7,4.8
		c7,11.9,6,25.8,3,38.7c1-7.4,0.2-16.9-3.1-24.5c-1.1-2.5-2.5-4.8-4.3-6.8c-1.8-1.7-3.9-3.4-6.4-4.6c-2.2-1.9-5.2-2.9-8.1-1.9
		c2,6,6.1,7.1,6.1,13.1c0,2-1.1,0.3-3.1-0.7C424.5,56.4,428.5,42.5,430.6,41.8z"/>
	<path opacity="0.48" fill="#006482" d="M234.4,41.8c2.1-0.6,4.4-0.9,7-0.1c2.1,0.4,4.2,1.2,6,2.4s3.5,2.8,4.7,4.8
		c7,11.9,6,25.8,3,38.7c1-7.4,0.2-16.9-3.1-24.5c-1.1-2.5-2.5-4.8-4.3-6.8c-1.8-1.7-3.9-3.4-6.4-4.6c-2.2-1.9-5.2-2.9-8.1-1.9
		c2,6,6.1,7.1,6.1,13.1c0,2-1.1,0.3-3.1-0.7C228.3,56.4,232.3,42.5,234.4,41.8z"/>
	<g>
		<path opacity="0.23" fill="#FFFFFF" d="M1217.7,64.9c0,0-24.2,8.4-29.2-2.7c-5-11.2,7.8-26.7,7.8-26.7s45.2-58.8,94.7-15.3
			s-62.3-8.5-80.5,14.2S1217.7,64.9,1217.7,64.9z"/>
		<g opacity="0.23">
			<path opacity="0.61" fill="#FFFFFF" d="M2787.3,64.9c0,0-24.2,8.4-29.2-2.7s7.8-26.7,7.8-26.7s45.2-58.8,94.7-15.3
				c49.5,43.5-62.3-8.5-80.5,14.2S2787.3,64.9,2787.3,64.9z"/>
			<path opacity="0.61" fill="#FFFFFF" d="M2591.1,64.9c0,0-24.2,8.4-29.2-2.7s7.8-26.7,7.8-26.7s45.2-58.8,94.7-15.3
				c49.5,43.5-62.3-8.5-80.5,14.2S2591.1,64.9,2591.1,64.9z"/>
			<path opacity="0.61" fill="#FFFFFF" d="M2394.9,64.9c0,0-24.2,8.4-29.2-2.7s7.8-26.7,7.8-26.7s45.2-58.8,94.7-15.3
				c49.5,43.5-62.3-8.5-80.5,14.2S2394.9,64.9,2394.9,64.9z"/>
			<path opacity="0.61" fill="#FFFFFF" d="M2198.7,64.9c0,0-24.2,8.4-29.2-2.7s7.8-26.7,7.8-26.7s45.2-58.8,94.7-15.3
				c49.5,43.5-62.3-8.5-80.5,14.2S2198.7,64.9,2198.7,64.9z"/>
			<path opacity="0.61" fill="#FFFFFF" d="M2002.5,64.9c0,0-24.2,8.4-29.2-2.7s7.8-26.7,7.8-26.7s45.2-58.8,94.7-15.3
				c49.5,43.5-62.3-8.5-80.5,14.2S2002.5,64.9,2002.5,64.9z"/>
			<path opacity="0.61" fill="#FFFFFF" d="M1806.3,64.9c0,0-24.2,8.4-29.2-2.7s7.8-26.7,7.8-26.7s45.2-58.8,94.7-15.3
				s-62.3-8.5-80.5,14.2S1806.3,64.9,1806.3,64.9z"/>
			<path opacity="0.61" fill="#FFFFFF" d="M1610.1,64.9c0,0-24.2,8.4-29.2-2.7c-5-11.2,7.8-26.7,7.8-26.7s45.2-58.8,94.7-15.3
				s-62.3-8.5-80.5,14.2S1610.1,64.9,1610.1,64.9z"/>
			<path opacity="0.61" fill="#FFFFFF" d="M1413.9,64.9c0,0-24.2,8.4-29.2-2.7c-5-11.2,7.8-26.7,7.8-26.7s45.2-58.8,94.7-15.3
				s-62.3-8.5-80.5,14.2S1413.9,64.9,1413.9,64.9z"/>
			<path opacity="0.48" fill="#006482" d="M1215.4,41.8c2.1-0.6,4.4-0.9,7-0.1c2.1,0.4,4.2,1.2,6,2.4c1.8,1.2,3.5,2.8,4.7,4.8
				c7,11.9,6,25.8,3,38.7c1-7.4,0.2-16.9-3.1-24.5c-1.1-2.5-2.5-4.8-4.3-6.8c-1.8-1.7-3.9-3.4-6.4-4.6c-2.2-1.9-5.2-2.9-8.1-1.9
				c2,6,6.1,7.1,6.1,13.1c0,2-1.1,0.3-3.1-0.7C1209.3,56.4,1213.2,42.5,1215.4,41.8z"/>
			<path opacity="0.61" fill="#FFFFFF" d="M1021.5,64.9c0,0-24.2,8.4-29.2-2.7s7.8-26.7,7.8-26.7s45.2-58.8,94.7-15.3
				s-62.3-8.5-80.5,14.2S1021.5,64.9,1021.5,64.9z"/>
			<path opacity="0.61" fill="#FFFFFF" d="M825.3,64.9c0,0-24.2,8.4-29.2-2.7s7.8-26.7,7.8-26.7s45.2-58.8,94.7-15.3
				s-62.3-8.5-80.5,14.2C799.9,56.9,825.3,64.9,825.3,64.9z"/>
			<path opacity="0.61" fill="#FFFFFF" d="M629.1,64.9c0,0-24.2,8.4-29.2-2.7s7.8-26.7,7.8-26.7s45.2-58.8,94.7-15.3
				s-62.3-8.5-80.5,14.2C603.7,56.9,629.1,64.9,629.1,64.9z"/>
			<path opacity="0.61" fill="#FFFFFF" d="M432.9,64.9c0,0-24.2,8.4-29.2-2.7c-5-11.2,7.8-26.7,7.8-26.7s45.2-58.8,94.7-15.3
				s-62.3-8.5-80.5,14.2S432.9,64.9,432.9,64.9z"/>
			<path opacity="0.61" fill="#FFFFFF" d="M236.7,64.9c0,0-24.2,8.4-29.2-2.7s7.8-26.7,7.8-26.7s45.2-58.8,94.7-15.3
				s-62.3-8.5-80.5,14.2S236.7,64.9,236.7,64.9z"/>
			<path opacity="0.61" fill="#FFFFFF" d="M40.5,64.9c0,0-24.2,8.4-29.2-2.7S19,35.4,19,35.4s45.2-58.8,94.7-15.3
				s-62.3-8.5-80.5,14.2S40.5,64.9,40.5,64.9z"/>
		</g>
	</g>
	<path opacity="0.48" fill="#006482" d="M38.2,41.8c2.1-0.6,4.4-0.9,7-0.1c2.1,0.4,4.2,1.2,6,2.4s3.5,2.8,4.7,4.8
		c7,11.9,6,25.8,3,38.7c1-7.4,0.2-16.9-3.1-24.5c-1.1-2.5-2.5-4.8-4.3-6.8c-1.8-1.7-3.9-3.4-6.4-4.6C43,50,40,49,37.1,50
		c2,6,6.1,7.1,6.1,13.1c0,2-1.1,0.3-3.1-0.7C32.1,56.4,36.1,42.5,38.2,41.8z"/>
</g>
<g>
	<path fill="#5BBFEE" d="M2722.8,968.9c-29.1-6.8-50.2-52.2-47.3-77.3c2.8-23.9,20.4-25.7,13.1-16.6c-15.4,19.4,39.2,19,39.9,2
		c0.7-17-24.8-38.5-37.2-47.9c-79.6-60.2-156.7,125.7-162.4,139.7h-2.3c-29.1-6.8-50.2-52.2-47.3-77.3c2.8-23.9,20.4-25.7,13.1-16.6
		c-15.4,19.4,39.2,19,39.9,2c0.7-17-24.8-38.5-37.2-47.9c-79.6-60.2-156.7,125.7-162.4,139.7h-2.3c-29.1-6.8-50.2-52.2-47.3-77.3
		c2.8-23.9,20.4-25.7,13.1-16.6c-15.4,19.4,39.2,19,39.9,2c0.7-17-24.8-38.5-37.2-47.9c-79.6-60.2-156.7,125.7-162.4,139.7h-2.3
		c-29.1-6.8-50.2-52.2-47.3-77.3c2.8-23.9,20.4-25.7,13.1-16.6c-15.4,19.4,39.2,19,39.9,2c0.7-17-24.8-38.5-37.2-47.9
		c-79.6-60.2-156.7,125.7-162.4,139.7h-2.3c-29.1-6.8-50.2-52.2-47.3-77.3c2.8-23.9,20.4-25.7,13.1-16.6c-15.4,19.4,39.2,19,39.9,2
		c0.7-17-24.8-38.5-37.2-47.9c-79.6-60.2-156.7,125.7-162.4,139.7h-2.3c-29.1-6.8-50.2-52.2-47.3-77.3c2.8-23.9,20.4-25.7,13.1-16.6
		c-15.4,19.4,39.2,19,39.9,2c0.7-17-24.8-38.5-37.2-47.9c-79.6-60.2-156.7,125.7-162.4,139.7h-2.3c-29.1-6.8-50.2-52.2-47.3-77.3
		c2.8-23.9,20.4-25.7,13.1-16.6c-15.4,19.4,39.2,19,39.9,2c0.7-17-24.8-38.5-37.2-47.9c-79.6-60.2-156.7,125.7-162.4,139.7h-2.3
		c-29.1-6.8-50.2-52.2-47.3-77.3c2.8-23.9,20.4-25.7,13.1-16.6c-15.4,19.4,39.2,19,39.9,2c0.7-17-24.8-38.5-37.2-47.9
		c-79.6-60.2-156.7,125.7-162.4,139.7h-2.3c-29.1-6.8-50.2-52.2-47.3-77.3c2.8-23.9,20.4-25.7,13.1-16.6c-15.4,19.4,39.2,19,39.9,2
		c0.7-17-24.8-38.5-37.2-47.9c-79.6-60.2-156.7,125.7-162.4,139.7h-2.3c-29.1-6.8-50.2-52.2-47.3-77.3c2.8-23.9,20.4-25.7,13.1-16.6
		c-15.4,19.4,39.2,19,39.9,2c0.7-17-24.8-38.5-37.2-47.9C846,769,768.9,954.9,763.2,968.9h-2.3c-29.1-6.8-50.2-52.2-47.3-77.3
		c2.8-23.9,20.4-25.7,13.1-16.6c-15.4,19.4,39.2,19,39.9,2c0.7-17-24.8-38.5-37.2-47.9C649.8,769,572.7,954.9,567,968.9h-2.3
		c-29.1-6.8-50.2-52.2-47.3-77.3c2.8-23.9,20.4-25.7,13.1-16.6c-15.4,19.4,39.2,19,39.9,2c0.7-17-24.8-38.5-37.2-47.9
		C453.6,769,376.5,954.9,370.8,968.9h-2.3c-29.1-6.8-50.2-52.2-47.3-77.3c2.8-23.9,20.4-25.7,13.1-16.6c-15.4,19.4,39.2,19,39.9,2
		c0.7-17-24.8-38.5-37.2-47.9C257.4,769,180.3,954.9,174.6,968.9h-2.3c-29.1-6.8-50.2-52.2-47.3-77.3c2.8-23.9,20.4-25.7,13.1-16.6
		c-15.4,19.4,39.2,19,39.9,2c0.7-17-24.8-38.5-37.2-47.9C61.2,769-15.9,954.9-21.6,968.9h-2.3c-29.1-6.8-50.2-52.2-47.3-77.3
		c2.8-23.9,20.4-25.7,13.1-16.6c-15.4,19.4,39.2,19,39.9,2c0.7-17-24.8-38.5-37.2-47.9C-135,769-212.1,954.9-217.8,968.9h-0.3v183.9
		h2950.7V968.9H2722.8z"/>
	<path opacity="0.61" fill="#FFFFFF" d="M-54.7,882.1c0,0,24.2,8.4,29.2-2.7c5-11.2-7.8-26.7-7.8-26.7s-45.2-58.8-94.7-15.3
		s62.3-8.5,80.5,14.2C-29.4,874.2-54.7,882.1-54.7,882.1z"/>
	<path opacity="0.48" fill="#006482" d="M-52.4,859.1c-2.1-0.6-4.4-0.9-7-0.1c-2.1,0.4-4.2,1.2-6,2.4c-1.8,1.2-3.5,2.8-4.7,4.8
		c-7,11.9-6,25.8-3,38.7c-1-7.4-0.2-16.9,3.1-24.5c1.1-2.5,2.5-4.8,4.3-6.8c1.8-1.7,3.9-3.4,6.4-4.6c2.2-1.9,5.2-2.9,8.1-1.9
		c-2,6-6.1,7.1-6.1,13.1c0,2,1.1,0.3,3.1-0.7C-46.3,873.7-50.3,859.7-52.4,859.1z"/>
	<path opacity="0.61" fill="#FFFFFF" d="M141.5,882.1c0,0,24.2,8.4,29.2-2.7c5-11.2-7.8-26.7-7.8-26.7s-45.2-58.8-94.7-15.3
		s62.3-8.5,80.5,14.2C166.8,874.2,141.5,882.1,141.5,882.1z"/>
	<path opacity="0.48" fill="#006482" d="M143.8,859.1c-2.1-0.6-4.4-0.9-7-0.1c-2.1,0.4-4.2,1.2-6,2.4c-1.8,1.2-3.5,2.8-4.7,4.8
		c-7,11.9-6,25.8-3,38.7c-1-7.4-0.2-16.9,3.1-24.5c1.1-2.5,2.5-4.8,4.3-6.8c1.8-1.7,3.9-3.4,6.4-4.6c2.2-1.9,5.2-2.9,8.1-1.9
		c-2,6-6.1,7.1-6.1,13.1c0,2,1.1,0.3,3.1-0.7C149.9,873.7,145.9,859.7,143.8,859.1z"/>
	<path opacity="0.61" fill="#FFFFFF" d="M337.7,882.1c0,0,24.2,8.4,29.2-2.7c5-11.2-7.8-26.7-7.8-26.7s-45.2-58.8-94.7-15.3
		s62.3-8.5,80.5,14.2C363,874.2,337.7,882.1,337.7,882.1z"/>
	<path opacity="0.48" fill="#006482" d="M340,859.1c-2.1-0.6-4.4-0.9-7-0.1c-2.1,0.4-4.2,1.2-6,2.4c-1.8,1.2-3.5,2.8-4.7,4.8
		c-7,11.9-6,25.8-3,38.7c-1-7.4-0.2-16.9,3.1-24.5c1.1-2.5,2.5-4.8,4.3-6.8c1.8-1.7,3.9-3.4,6.4-4.6c2.2-1.9,5.2-2.9,8.1-1.9
		c-2,6-6.1,7.1-6.1,13.1c0,2,1.1,0.3,3.1-0.7C346.1,873.7,342.1,859.7,340,859.1z"/>
	<path opacity="0.61" fill="#FFFFFF" d="M533.9,882.1c0,0,24.2,8.4,29.2-2.7c5-11.2-7.8-26.7-7.8-26.7s-45.2-58.8-94.7-15.3
		s62.3-8.5,80.5,14.2C559.2,874.2,533.9,882.1,533.9,882.1z"/>
	<path opacity="0.48" fill="#006482" d="M536.1,859.1c-2.1-0.6-4.4-0.9-7-0.1c-2.1,0.4-4.2,1.2-6,2.4c-1.8,1.2-3.5,2.8-4.7,4.8
		c-7,11.9-6,25.8-3,38.7c-1-7.4-0.2-16.9,3.1-24.5c1.1-2.5,2.5-4.8,4.3-6.8c1.8-1.7,3.9-3.4,6.4-4.6c2.2-1.9,5.2-2.9,8.1-1.9
		c-2,6-6.1,7.1-6.1,13.1c0,2,1.1,0.3,3.1-0.7C542.3,873.7,538.3,859.7,536.1,859.1z"/>
	<path opacity="0.61" fill="#FFFFFF" d="M730,882.1c0,0,24.2,8.4,29.2-2.7c5-11.2-7.8-26.7-7.8-26.7s-45.2-58.8-94.7-15.3
		c-49.5,43.5,62.3-8.5,80.5,14.2C755.4,874.2,730,882.1,730,882.1z"/>
	<path opacity="0.48" fill="#006482" d="M732.3,859.1c-2.1-0.6-4.4-0.9-7-0.1c-2.1,0.4-4.2,1.2-6,2.4c-1.8,1.2-3.5,2.8-4.7,4.8
		c-7,11.9-6,25.8-3,38.7c-1-7.4-0.2-16.9,3.1-24.5c1.1-2.5,2.5-4.8,4.3-6.8c1.8-1.7,3.9-3.4,6.4-4.6c2.2-1.9,5.2-2.9,8.1-1.9
		c-2,6-6.1,7.1-6.1,13.1c0,2,1.1,0.3,3.1-0.7C738.5,873.7,734.5,859.7,732.3,859.1z"/>
	<path opacity="0.61" fill="#FFFFFF" d="M926.2,882.1c0,0,24.2,8.4,29.2-2.7c5-11.2-7.8-26.7-7.8-26.7s-45.2-58.8-94.7-15.3
		c-49.5,43.5,62.3-8.5,80.5,14.2C951.6,874.2,926.2,882.1,926.2,882.1z"/>
	<path opacity="0.48" fill="#006482" d="M928.5,859.1c-2.1-0.6-4.4-0.9-7-0.1c-2.1,0.4-4.2,1.2-6,2.4c-1.8,1.2-3.5,2.8-4.7,4.8
		c-7,11.9-6,25.8-3,38.7c-1-7.4-0.2-16.9,3.1-24.5c1.1-2.5,2.5-4.8,4.3-6.8c1.8-1.7,3.9-3.4,6.4-4.6c2.2-1.9,5.2-2.9,8.1-1.9
		c-2,6-6.1,7.1-6.1,13.1c0,2,1.1,0.3,3.1-0.7C934.7,873.7,930.7,859.7,928.5,859.1z"/>
	<path opacity="0.61" fill="#FFFFFF" d="M1122.4,882.1c0,0,24.2,8.4,29.2-2.7c5-11.2-7.8-26.7-7.8-26.7s-45.2-58.8-94.7-15.3
		s62.3-8.5,80.5,14.2C1147.8,874.2,1122.4,882.1,1122.4,882.1z"/>
	<path opacity="0.48" fill="#006482" d="M1124.7,859.1c-2.1-0.6-4.4-0.9-7-0.1c-2.1,0.4-4.2,1.2-6,2.4c-1.8,1.2-3.5,2.8-4.7,4.8
		c-7,11.9-6,25.8-3,38.7c-1-7.4-0.2-16.9,3.1-24.5c1.1-2.5,2.5-4.8,4.3-6.8c1.8-1.7,3.9-3.4,6.4-4.6c2.2-1.9,5.2-2.9,8.1-1.9
		c-2,6-6.1,7.1-6.1,13.1c0,2,1.1,0.3,3.1-0.7C1130.9,873.7,1126.9,859.7,1124.7,859.1z"/>
	<path opacity="0.61" fill="#FFFFFF" d="M1318.6,882.1c0,0,24.2,8.4,29.2-2.7c5-11.2-7.8-26.7-7.8-26.7s-45.2-58.8-94.7-15.3
		s62.3-8.5,80.5,14.2C1344,874.2,1318.6,882.1,1318.6,882.1z"/>
	<path opacity="0.48" fill="#006482" d="M1320.9,859.1c-2.1-0.6-4.4-0.9-7-0.1c-2.1,0.4-4.2,1.2-6,2.4c-1.8,1.2-3.5,2.8-4.7,4.8
		c-7,11.9-6,25.8-3,38.7c-1-7.4-0.2-16.9,3.1-24.5c1.1-2.5,2.5-4.8,4.3-6.8c1.8-1.7,3.9-3.4,6.4-4.6c2.2-1.9,5.2-2.9,8.1-1.9
		c-2,6-6.1,7.1-6.1,13.1c0,2,1.1,0.3,3.1-0.7C1327,873.7,1323.1,859.7,1320.9,859.1z"/>
	<path opacity="0.61" fill="#FFFFFF" d="M1514.8,882.1c0,0,24.2,8.4,29.2-2.7c5-11.2-7.8-26.7-7.8-26.7s-45.2-58.8-94.7-15.3
		s62.3-8.5,80.5,14.2C1540.2,874.2,1514.8,882.1,1514.8,882.1z"/>
	<path opacity="0.48" fill="#006482" d="M1517.1,859.1c-2.1-0.6-4.4-0.9-7-0.1c-2.1,0.4-4.2,1.2-6,2.4c-1.8,1.2-3.5,2.8-4.7,4.8
		c-7,11.9-6,25.8-3,38.7c-1-7.4-0.2-16.9,3.1-24.5c1.1-2.5,2.5-4.8,4.3-6.8c1.8-1.7,3.9-3.4,6.4-4.6c2.2-1.9,5.2-2.9,8.1-1.9
		c-2,6-6.1,7.1-6.1,13.1c0,2,1.1,0.3,3.1-0.7C1523.2,873.7,1519.3,859.7,1517.1,859.1z"/>
	<path opacity="0.61" fill="#FFFFFF" d="M1711,882.1c0,0,24.2,8.4,29.2-2.7c5-11.2-7.8-26.7-7.8-26.7s-45.2-58.8-94.7-15.3
		s62.3-8.5,80.5,14.2C1736.4,874.2,1711,882.1,1711,882.1z"/>
	<path opacity="0.48" fill="#006482" d="M1713.3,859.1c-2.1-0.6-4.4-0.9-7-0.1c-2.1,0.4-4.2,1.2-6,2.4c-1.8,1.2-3.5,2.8-4.7,4.8
		c-7,11.9-6,25.8-3,38.7c-1-7.4-0.2-16.9,3.1-24.5c1.1-2.5,2.5-4.8,4.3-6.8c1.8-1.7,3.9-3.4,6.4-4.6c2.2-1.9,5.2-2.9,8.1-1.9
		c-2,6-6.1,7.1-6.1,13.1c0,2,1.1,0.3,3.1-0.7C1719.4,873.7,1715.5,859.7,1713.3,859.1z"/>
	<path opacity="0.61" fill="#FFFFFF" d="M1907.2,882.1c0,0,24.2,8.4,29.2-2.7c5-11.2-7.8-26.7-7.8-26.7s-45.2-58.8-94.7-15.3
		s62.3-8.5,80.5,14.2C1932.6,874.2,1907.2,882.1,1907.2,882.1z"/>
	<path opacity="0.48" fill="#006482" d="M1909.5,859.1c-2.1-0.6-4.4-0.9-7-0.1c-2.1,0.4-4.2,1.2-6,2.4c-1.8,1.2-3.5,2.8-4.7,4.8
		c-7,11.9-6,25.8-3,38.7c-1-7.4-0.2-16.9,3.1-24.5c1.1-2.5,2.5-4.8,4.3-6.8c1.8-1.7,3.9-3.4,6.4-4.6c2.2-1.9,5.2-2.9,8.1-1.9
		c-2,6-6.1,7.1-6.1,13.1c0,2,1.1,0.3,3.1-0.7C1915.6,873.7,1911.7,859.7,1909.5,859.1z"/>
	<path opacity="0.61" fill="#FFFFFF" d="M2103.4,882.1c0,0,24.2,8.4,29.2-2.7c5-11.2-7.8-26.7-7.8-26.7s-45.2-58.8-94.7-15.3
		s62.3-8.5,80.5,14.2C2128.8,874.2,2103.4,882.1,2103.4,882.1z"/>
	<path opacity="0.48" fill="#006482" d="M2105.7,859.1c-2.1-0.6-4.4-0.9-7-0.1c-2.1,0.4-4.2,1.2-6,2.4c-1.8,1.2-3.5,2.8-4.7,4.8
		c-7,11.9-6,25.8-3,38.7c-1-7.4-0.2-16.9,3.1-24.5c1.1-2.5,2.5-4.8,4.3-6.8c1.8-1.7,3.9-3.4,6.4-4.6c2.2-1.9,5.2-2.9,8.1-1.9
		c-2,6-6.1,7.1-6.1,13.1c0,2,1.1,0.3,3.1-0.7C2111.8,873.7,2107.9,859.7,2105.7,859.1z"/>
	<path opacity="0.61" fill="#FFFFFF" d="M2299.6,882.1c0,0,24.2,8.4,29.2-2.7c5-11.2-7.8-26.7-7.8-26.7s-45.2-58.8-94.7-15.3
		c-49.5,43.5,62.3-8.5,80.5,14.2C2325,874.2,2299.6,882.1,2299.6,882.1z"/>
	<path opacity="0.48" fill="#006482" d="M2301.9,859.1c-2.1-0.6-4.4-0.9-7-0.1c-2.1,0.4-4.2,1.2-6,2.4c-1.8,1.2-3.5,2.8-4.7,4.8
		c-7,11.9-6,25.8-3,38.7c-1-7.4-0.2-16.9,3.1-24.5c1.1-2.5,2.5-4.8,4.3-6.8c1.8-1.7,3.9-3.4,6.4-4.6c2.2-1.9,5.2-2.9,8.1-1.9
		c-2,6-6.1,7.1-6.1,13.1c0,2,1.1,0.3,3.1-0.7C2308,873.7,2304.1,859.7,2301.9,859.1z"/>
	<path opacity="0.61" fill="#FFFFFF" d="M2495.8,882.1c0,0,24.2,8.4,29.2-2.7c5-11.2-7.8-26.7-7.8-26.7s-45.2-58.8-94.7-15.3
		c-49.5,43.5,62.3-8.5,80.5,14.2C2521.2,874.2,2495.8,882.1,2495.8,882.1z"/>
	<path opacity="0.48" fill="#006482" d="M2498.1,859.1c-2.1-0.6-4.4-0.9-7-0.1c-2.1,0.4-4.2,1.2-6,2.4c-1.8,1.2-3.5,2.8-4.7,4.8
		c-7,11.9-6,25.8-3,38.7c-1-7.4-0.2-16.9,3.1-24.5c1.1-2.5,2.5-4.8,4.3-6.8c1.8-1.7,3.9-3.4,6.4-4.6c2.2-1.9,5.2-2.9,8.1-1.9
		c-2,6-6.1,7.1-6.1,13.1c0,2,1.1,0.3,3.1-0.7C2504.2,873.7,2500.3,859.7,2498.1,859.1z"/>
	<path opacity="0.61" fill="#FFFFFF" d="M2692,882.1c0,0,24.2,8.4,29.2-2.7c5-11.2-7.8-26.7-7.8-26.7s-45.2-58.8-94.7-15.3
		c-49.5,43.5,62.3-8.5,80.5,14.2C2717.4,874.2,2692,882.1,2692,882.1z"/>
	<path opacity="0.48" fill="#006482" d="M2694.3,859.1c-2.1-0.6-4.4-0.9-7-0.1c-2.1,0.4-4.2,1.2-6,2.4c-1.8,1.2-3.5,2.8-4.7,4.8
		c-7,11.9-6,25.8-3,38.7c-1-7.4-0.2-16.9,3.1-24.5c1.1-2.5,2.5-4.8,4.3-6.8c1.8-1.7,3.9-3.4,6.4-4.6c2.2-1.9,5.2-2.9,8.1-1.9
		c-2,6-6.1,7.1-6.1,13.1c0,2,1.1,0.3,3.1-0.7C2700.4,873.7,2696.4,859.7,2694.3,859.1z"/>
</g>
</svg>
