<?xml version="1.0" encoding="utf-8"?>
<!-- Generator: Adobe Illustrator 18.0.0, SVG Export Plug-In . SVG Version: 6.00 Build 0)  -->
<!DOCTYPE svg PUBLIC "-//W3C//DTD SVG 1.1//EN" "http://www.w3.org/Graphics/SVG/1.1/DTD/svg11.dtd">
<svg version="1.1" id="Layer_1" xmlns="http://www.w3.org/2000/svg" xmlns:xlink="http://www.w3.org/1999/xlink" x="0px" y="0px"
	 viewBox="0 0 2971 338.8" enable-background="new 0 0 2971 338.8" xml:space="preserve">
<rect x="10.2" y="154.8" fill="#5BBFEE" width="2950.7" height="183.9"/>
<g>
	<g>
		<path fill="#5BBFEE" d="M10.2,154.7c0,0,80-203.1,162.7-140.6c12.4,9.4,37.9,30.9,37.2,47.9s-55.3,17.4-39.9-2
			c7.3-9.1-10.3-7.3-13.1,16.6c-3.2,26.8,21.1,76.7,53.3,78.1C242.7,154.7,10.2,154.7,10.2,154.7z"/>
		<path opacity="0.61" fill="#FFFFFF" d="M173.6,67c0,0,24.2,8.4,29.2-2.7s-7.8-26.7-7.8-26.7s-45.2-58.8-94.7-15.3
			s62.3-8.5,80.5,14.2S173.6,67,173.6,67z"/>
		<path opacity="0.48" fill="#006482" d="M175.9,44c-2.1-0.6-4.4-0.9-7-0.1c-2.1,0.4-4.2,1.2-6,2.4c-1.8,1.2-3.5,2.8-4.7,4.8
			c-7,11.9-6,25.8-3,38.7c-1-7.4-0.2-16.9,3.1-24.5c1.1-2.5,2.5-4.8,4.3-6.8c1.8-1.7,3.9-3.4,6.4-4.6c2.2-1.9,5.2-2.9,8.1-1.9
			c-2,6-6.1,7.1-6.1,13.1c0,2,1.1,0.3,3.1-0.7C182,58.6,178,44.6,175.9,44z"/>
	</g>
	<g>
		<path fill="#5BBFEE" d="M206.4,154.7c0,0,80-203.1,162.7-140.6C381.5,23.5,407,45,406.3,62c-0.7,17-55.3,17.4-39.9-2
			c7.3-9.1-10.3-7.3-13.1,16.6c-3.2,26.8,21.1,76.7,53.3,78.1C438.9,154.7,206.4,154.7,206.4,154.7z"/>
		<path opacity="0.61" fill="#FFFFFF" d="M369.8,67c0,0,24.2,8.4,29.2-2.7s-7.8-26.7-7.8-26.7s-45.2-58.8-94.7-15.3
			s62.3-8.5,80.5,14.2S369.8,67,369.8,67z"/>
		<path opacity="0.48" fill="#006482" d="M372.1,44c-2.1-0.6-4.4-0.9-7-0.1c-2.1,0.4-4.2,1.2-6,2.4s-3.5,2.8-4.7,4.8
			c-7,11.9-6,25.8-3,38.7c-1-7.4-0.2-16.9,3.1-24.5c1.1-2.5,2.5-4.8,4.3-6.8c1.8-1.7,3.9-3.4,6.4-4.6c2.2-1.9,5.2-2.9,8.1-1.9
			c-2,6-6.1,7.1-6.1,13.1c0,2,1.1,0.3,3.1-0.7C378.2,58.6,374.2,44.6,372.1,44z"/>
	</g>
	<g>
		<path fill="#5BBFEE" d="M402.6,154.7c0,0,80-203.1,162.7-140.6c12.4,9.4,37.9,30.9,37.2,47.9s-55.3,17.4-39.9-2
			c7.3-9.1-10.3-7.3-13.1,16.6c-3.2,26.8,21.1,76.7,53.3,78.1C635.1,154.7,402.6,154.7,402.6,154.7z"/>
		<path opacity="0.61" fill="#FFFFFF" d="M566,67c0,0,24.2,8.4,29.2-2.7c5-11.2-7.8-26.7-7.8-26.7s-45.2-58.8-94.7-15.3
			s62.3-8.5,80.5,14.2S566,67,566,67z"/>
		<path opacity="0.48" fill="#006482" d="M568.3,44c-2.1-0.6-4.4-0.9-7-0.1c-2.1,0.4-4.2,1.2-6,2.4c-1.8,1.2-3.5,2.8-4.7,4.8
			c-7,11.9-6,25.8-3,38.7c-1-7.4-0.2-16.9,3.1-24.5c1.1-2.5,2.5-4.8,4.3-6.8c1.8-1.7,3.9-3.4,6.4-4.6c2.2-1.9,5.2-2.9,8.1-1.9
			c-2,6-6.1,7.1-6.1,13.1c0,2,1.1,0.3,3.1-0.7C574.4,58.6,570.4,44.6,568.3,44z"/>
	</g>
	<g>
		<path fill="#5BBFEE" d="M598.8,154.7c0,0,80-203.1,162.7-140.6c12.4,9.4,37.9,30.9,37.2,47.9s-55.3,17.4-39.9-2
			c7.3-9.1-10.3-7.3-13.1,16.6c-3.2,26.8,21.1,76.7,53.3,78.1C831.3,154.7,598.8,154.7,598.8,154.7z"/>
		<path opacity="0.61" fill="#FFFFFF" d="M762.2,67c0,0,24.2,8.4,29.2-2.7c5-11.2-7.8-26.7-7.8-26.7S738.5-21.2,689,22.3
			c-49.5,43.5,62.3-8.5,80.5,14.2S762.2,67,762.2,67z"/>
		<path opacity="0.48" fill="#006482" d="M764.5,44c-2.1-0.6-4.4-0.9-7-0.1c-2.1,0.4-4.2,1.2-6,2.4c-1.8,1.2-3.5,2.8-4.7,4.8
			c-7,11.9-6,25.8-3,38.7c-1-7.4-0.2-16.9,3.1-24.5c1.1-2.5,2.5-4.8,4.3-6.8c1.8-1.7,3.9-3.4,6.4-4.6c2.2-1.9,5.2-2.9,8.1-1.9
			c-2,6-6.1,7.1-6.1,13.1c0,2,1.1,0.3,3.1-0.7C770.6,58.6,766.6,44.6,764.5,44z"/>
	</g>
	<g>
		<path fill="#5BBFEE" d="M795,154.7c0,0,80-203.1,162.7-140.6c12.4,9.4,37.9,30.9,37.2,47.9s-55.3,17.4-39.9-2
			c7.3-9.1-10.3-7.3-13.1,16.6c-3.2,26.8,21.1,76.7,53.3,78.1C1027.5,154.7,795,154.7,795,154.7z"/>
		<path opacity="0.61" fill="#FFFFFF" d="M958.4,67c0,0,24.2,8.4,29.2-2.7c5-11.2-7.8-26.7-7.8-26.7s-45.2-58.8-94.7-15.3
			c-49.5,43.5,62.3-8.5,80.5,14.2S958.4,67,958.4,67z"/>
		<path opacity="0.48" fill="#006482" d="M960.7,44c-2.1-0.6-4.4-0.9-7-0.1c-2.1,0.4-4.2,1.2-6,2.4c-1.8,1.2-3.5,2.8-4.7,4.8
			c-7,11.9-6,25.8-3,38.7c-1-7.4-0.2-16.9,3.1-24.5c1.1-2.5,2.5-4.8,4.3-6.8c1.8-1.7,3.9-3.4,6.4-4.6c2.2-1.9,5.2-2.9,8.1-1.9
			c-2,6-6.1,7.1-6.1,13.1c0,2,1.1,0.3,3.1-0.7C966.8,58.6,962.8,44.6,960.7,44z"/>
	</g>
	<g>
		<path fill="#5BBFEE" d="M991.1,154.7c0,0,80-203.1,162.7-140.6c12.4,9.4,37.9,30.9,37.2,47.9s-55.3,17.4-39.9-2
			c7.3-9.1-10.3-7.3-13.1,16.6c-3.2,26.8,21.1,76.7,53.3,78.1C1223.7,154.7,991.1,154.7,991.1,154.7z"/>
		<path opacity="0.61" fill="#FFFFFF" d="M1154.6,67c0,0,24.2,8.4,29.2-2.7s-7.8-26.7-7.8-26.7s-45.2-58.8-94.7-15.3
			s62.3-8.5,80.5,14.2S1154.6,67,1154.6,67z"/>
		<path opacity="0.48" fill="#006482" d="M1156.9,44c-2.1-0.6-4.4-0.9-7-0.1c-2.1,0.4-4.2,1.2-6,2.4c-1.8,1.2-3.5,2.8-4.7,4.8
			c-7,11.9-6,25.8-3,38.7c-1-7.4-0.2-16.9,3.1-24.5c1.1-2.5,2.5-4.8,4.3-6.8c1.8-1.7,3.9-3.4,6.4-4.6c2.2-1.9,5.2-2.9,8.1-1.9
			c-2,6-6.1,7.1-6.1,13.1c0,2,1.1,0.3,3.1-0.7C1163,58.6,1159,44.6,1156.9,44z"/>
	</g>
	<g>
		<path fill="#5BBFEE" d="M1187.3,154.7c0,0,80-203.1,162.7-140.6c12.4,9.4,37.9,30.9,37.2,47.9s-55.3,17.4-39.9-2
			c7.3-9.1-10.3-7.3-13.1,16.6c-3.2,26.8,21.1,76.7,53.3,78.1C1419.9,154.7,1187.3,154.7,1187.3,154.7z"/>
		<path opacity="0.61" fill="#FFFFFF" d="M1350.8,67c0,0,24.2,8.4,29.2-2.7s-7.8-26.7-7.8-26.7s-45.2-58.8-94.7-15.3
			s62.3-8.5,80.5,14.2S1350.8,67,1350.8,67z"/>
		<path opacity="0.48" fill="#006482" d="M1353.1,44c-2.1-0.6-4.4-0.9-7-0.1c-2.1,0.4-4.2,1.2-6,2.4c-1.8,1.2-3.5,2.8-4.7,4.8
			c-7,11.9-6,25.8-3,38.7c-1-7.4-0.2-16.9,3.1-24.5c1.1-2.5,2.5-4.8,4.3-6.8c1.8-1.7,3.9-3.4,6.4-4.6c2.2-1.9,5.2-2.9,8.1-1.9
			c-2,6-6.1,7.1-6.1,13.1c0,2,1.1,0.3,3.1-0.7C1359.2,58.6,1355.2,44.6,1353.1,44z"/>
	</g>
	<g>
		<path fill="#5BBFEE" d="M1383.5,154.7c0,0,80-203.1,162.7-140.6c12.4,9.4,37.9,30.9,37.2,47.9s-55.3,17.4-39.9-2
			c7.3-9.1-10.3-7.3-13.1,16.6c-3.2,26.8,21.1,76.7,53.3,78.1C1616.1,154.7,1383.5,154.7,1383.5,154.7z"/>
		<path opacity="0.61" fill="#FFFFFF" d="M1546.9,67c0,0,24.2,8.4,29.2-2.7c5-11.2-7.8-26.7-7.8-26.7s-45.2-58.8-94.7-15.3
			s62.3-8.5,80.5,14.2S1546.9,67,1546.9,67z"/>
		<path opacity="0.48" fill="#006482" d="M1549.2,44c-2.1-0.6-4.4-0.9-7-0.1c-2.1,0.4-4.2,1.2-6,2.4c-1.8,1.2-3.5,2.8-4.7,4.8
			c-7,11.9-6,25.8-3,38.7c-1-7.4-0.2-16.9,3.1-24.5c1.1-2.5,2.5-4.8,4.3-6.8c1.8-1.7,3.9-3.4,6.4-4.6c2.2-1.9,5.2-2.9,8.1-1.9
			c-2,6-6.1,7.1-6.1,13.1c0,2,1.1,0.3,3.1-0.7C1555.4,58.6,1551.4,44.6,1549.2,44z"/>
	</g>
	<g>
		<path fill="#5BBFEE" d="M1579.7,154.7c0,0,80-203.1,162.7-140.6c12.4,9.4,37.9,30.9,37.2,47.9s-55.3,17.4-39.9-2
			c7.3-9.1-10.3-7.3-13.1,16.6c-3.2,26.8,21.1,76.7,53.3,78.1C1812.3,154.7,1579.7,154.7,1579.7,154.7z"/>
		<path opacity="0.61" fill="#FFFFFF" d="M1743.1,67c0,0,24.2,8.4,29.2-2.7c5-11.2-7.8-26.7-7.8-26.7s-45.2-58.8-94.7-15.3
			s62.3-8.5,80.5,14.2S1743.1,67,1743.1,67z"/>
		<path opacity="0.48" fill="#006482" d="M1745.4,44c-2.1-0.6-4.4-0.9-7-0.1c-2.1,0.4-4.2,1.2-6,2.4c-1.8,1.2-3.5,2.8-4.7,4.8
			c-7,11.9-6,25.8-3,38.7c-1-7.4-0.2-16.9,3.1-24.5c1.1-2.5,2.5-4.8,4.3-6.8c1.8-1.7,3.9-3.4,6.4-4.6c2.2-1.9,5.2-2.9,8.1-1.9
			c-2,6-6.1,7.1-6.1,13.1c0,2,1.1,0.3,3.1-0.7C1751.6,58.6,1747.6,44.6,1745.4,44z"/>
	</g>
	<g>
		<path fill="#5BBFEE" d="M1775.9,154.7c0,0,80-203.1,162.7-140.6c12.4,9.4,37.9,30.9,37.2,47.9s-55.3,17.4-39.9-2
			c7.3-9.1-10.3-7.3-13.1,16.6c-3.2,26.8,21.1,76.7,53.3,78.1C2008.5,154.7,1775.9,154.7,1775.9,154.7z"/>
		<path opacity="0.61" fill="#FFFFFF" d="M1939.3,67c0,0,24.2,8.4,29.2-2.7c5-11.2-7.8-26.7-7.8-26.7s-45.2-58.8-94.7-15.3
			s62.3-8.5,80.5,14.2S1939.3,67,1939.3,67z"/>
		<path opacity="0.48" fill="#006482" d="M1941.6,44c-2.1-0.6-4.4-0.9-7-0.1c-2.1,0.4-4.2,1.2-6,2.4c-1.8,1.2-3.5,2.8-4.7,4.8
			c-7,11.9-6,25.8-3,38.7c-1-7.4-0.2-16.9,3.1-24.5c1.1-2.5,2.5-4.8,4.3-6.8c1.8-1.7,3.9-3.4,6.4-4.6c2.2-1.9,5.2-2.9,8.1-1.9
			c-2,6-6.1,7.1-6.1,13.1c0,2,1.1,0.3,3.1-0.7C1947.8,58.6,1943.8,44.6,1941.6,44z"/>
	</g>
	<g>
		<path fill="#5BBFEE" d="M1972.1,154.7c0,0,80-203.1,162.7-140.6c12.4,9.4,37.9,30.9,37.2,47.9s-55.3,17.4-39.9-2
			c7.3-9.1-10.3-7.3-13.1,16.6c-3.2,26.8,21.1,76.7,53.3,78.1C2204.7,154.7,1972.1,154.7,1972.1,154.7z"/>
		<path opacity="0.61" fill="#FFFFFF" d="M2135.5,67c0,0,24.2,8.4,29.2-2.7s-7.8-26.7-7.8-26.7s-45.2-58.8-94.7-15.3
			c-49.5,43.5,62.3-8.5,80.5,14.2S2135.5,67,2135.5,67z"/>
		<path opacity="0.48" fill="#006482" d="M2137.8,44c-2.1-0.6-4.4-0.9-7-0.1c-2.1,0.4-4.2,1.2-6,2.4s-3.5,2.8-4.7,4.8
			c-7,11.9-6,25.8-3,38.7c-1-7.4-0.2-16.9,3.1-24.5c1.1-2.5,2.5-4.8,4.3-6.8c1.8-1.7,3.9-3.4,6.4-4.6c2.2-1.9,5.2-2.9,8.1-1.9
			c-2,6-6.1,7.1-6.1,13.1c0,2,1.1,0.3,3.1-0.7C2144,58.6,2140,44.6,2137.8,44z"/>
	</g>
	<g>
		<path fill="#5BBFEE" d="M2168.3,154.7c0,0,80-203.1,162.7-140.6c12.4,9.4,37.9,30.9,37.2,47.9s-55.3,17.4-39.9-2
			c7.3-9.1-10.3-7.3-13.1,16.6c-3.2,26.8,21.1,76.7,53.3,78.1C2400.9,154.7,2168.3,154.7,2168.3,154.7z"/>
		<path opacity="0.61" fill="#FFFFFF" d="M2331.7,67c0,0,24.2,8.4,29.2-2.7s-7.8-26.7-7.8-26.7s-45.2-58.8-94.7-15.3
			c-49.5,43.5,62.3-8.5,80.5,14.2S2331.7,67,2331.7,67z"/>
		<path opacity="0.48" fill="#006482" d="M2334,44c-2.1-0.6-4.4-0.9-7-0.1c-2.1,0.4-4.2,1.2-6,2.4s-3.5,2.8-4.7,4.8
			c-7,11.9-6,25.8-3,38.7c-1-7.4-0.2-16.9,3.1-24.5c1.1-2.5,2.5-4.8,4.3-6.8c1.8-1.7,3.9-3.4,6.4-4.6c2.2-1.9,5.2-2.9,8.1-1.9
			c-2,6-6.1,7.1-6.1,13.1c0,2,1.1,0.3,3.1-0.7C2340.1,58.6,2336.2,44.6,2334,44z"/>
	</g>
	<g>
		<path fill="#5BBFEE" d="M2364.5,154.7c0,0,80-203.1,162.7-140.6c12.4,9.4,37.9,30.9,37.2,47.9s-55.3,17.4-39.9-2
			c7.3-9.1-10.3-7.3-13.1,16.6c-3.2,26.8,21.1,76.7,53.3,78.1C2597.1,154.7,2364.5,154.7,2364.5,154.7z"/>
		<path opacity="0.61" fill="#FFFFFF" d="M2527.9,67c0,0,24.2,8.4,29.2-2.7s-7.8-26.7-7.8-26.7s-45.2-58.8-94.7-15.3
			c-49.5,43.5,62.3-8.5,80.5,14.2S2527.9,67,2527.9,67z"/>
		<path opacity="0.48" fill="#006482" d="M2530.2,44c-2.1-0.6-4.4-0.9-7-0.1c-2.1,0.4-4.2,1.2-6,2.4s-3.5,2.8-4.7,4.8
			c-7,11.9-6,25.8-3,38.7c-1-7.4-0.2-16.9,3.1-24.5c1.1-2.5,2.5-4.8,4.3-6.8c1.8-1.7,3.9-3.4,6.4-4.6c2.2-1.9,5.2-2.9,8.1-1.9
			c-2,6-6.1,7.1-6.1,13.1c0,2,1.1,0.3,3.1-0.7C2536.3,58.6,2532.4,44.6,2530.2,44z"/>
	</g>
	<g>
		<path fill="#5BBFEE" d="M2560.7,154.7c0,0,80-203.1,162.7-140.6c12.4,9.4,37.9,30.9,37.2,47.9s-55.3,17.4-39.9-2
			c7.3-9.1-10.3-7.3-13.1,16.6c-3.2,26.8,21.1,76.7,53.3,78.1C2793.3,154.7,2560.7,154.7,2560.7,154.7z"/>
		<path opacity="0.61" fill="#FFFFFF" d="M2724.1,67c0,0,24.2,8.4,29.2-2.7s-7.8-26.7-7.8-26.7s-45.2-58.8-94.7-15.3
			c-49.5,43.5,62.3-8.5,80.5,14.2S2724.1,67,2724.1,67z"/>
		<path opacity="0.48" fill="#006482" d="M2726.4,44c-2.1-0.6-4.4-0.9-7-0.1c-2.1,0.4-4.2,1.2-6,2.4s-3.5,2.8-4.7,4.8
			c-7,11.9-6,25.8-3,38.7c-1-7.4-0.2-16.9,3.1-24.5c1.1-2.5,2.5-4.8,4.3-6.8c1.8-1.7,3.9-3.4,6.4-4.6c2.2-1.9,5.2-2.9,8.1-1.9
			c-2,6-6.1,7.1-6.1,13.1c0,2,1.1,0.3,3.1-0.7C2732.5,58.6,2728.6,44.6,2726.4,44z"/>
	</g>
	<g>
		<path fill="#5BBFEE" d="M2756.9,154.7c0,0,80-203.1,162.7-140.6c12.4,9.4,37.9,30.9,37.2,47.9s-55.3,17.4-39.9-2
			c7.3-9.1-10.3-7.3-13.1,16.6c-3.2,26.8,21.1,76.7,53.3,78.1C2989.5,154.7,2756.9,154.7,2756.9,154.7z"/>
		<path opacity="0.61" fill="#FFFFFF" d="M2920.3,67c0,0,24.2,8.4,29.2-2.7s-7.8-26.7-7.8-26.7s-45.2-58.8-94.7-15.3
			c-49.5,43.5,62.3-8.5,80.5,14.2S2920.3,67,2920.3,67z"/>
		<path opacity="0.48" fill="#006482" d="M2922.6,44c-2.1-0.6-4.4-0.9-7-0.1c-2.1,0.4-4.2,1.2-6,2.4s-3.5,2.8-4.7,4.8
			c-7,11.9-6,25.8-3,38.7c-1-7.4-0.2-16.9,3.1-24.5c1.1-2.5,2.5-4.8,4.3-6.8c1.8-1.7,3.9-3.4,6.4-4.6c2.2-1.9,5.2-2.9,8.1-1.9
			c-2,6-6.1,7.1-6.1,13.1c0,2,1.1,0.3,3.1-0.7C2928.7,58.6,2924.8,44.6,2922.6,44z"/>
	</g>
</g>
</svg>
